solid OpenSCAD_Model
  facet normal -1 0 0
    outer loop
      vertex -9.8 -28.5 0
      vertex -9.8 103.5 3
      vertex -9.8 103.5 0
    endloop
  endfacet
  facet normal -1 -0 0
    outer loop
      vertex -9.8 103.5 3
      vertex -9.8 -28.5 0
      vertex -9.8 -28.5 3
    endloop
  endfacet
  facet normal 0 0 1
    outer loop
      vertex 5.2 30.3856 3
      vertex 2.5 96.6579 3
      vertex 4.61436 29.8 3
    endloop
  endfacet
  facet normal 0 0 1
    outer loop
      vertex 4.4 29 3
      vertex 3.38074 -23.1941 3
      vertex 3.5 -24.1 3
    endloop
  endfacet
  facet normal 0 0 1
    outer loop
      vertex 4.61436 29.8 3
      vertex 2.5 96.6579 3
      vertex 4.4 29 3
    endloop
  endfacet
  facet normal 0 0 1
    outer loop
      vertex 4.4 29 3
      vertex 3.03109 -22.35 3
      vertex 3.38074 -23.1941 3
    endloop
  endfacet
  facet normal 0 0 1
    outer loop
      vertex 2.5 -21.6579 3
      vertex 4.4 29 3
      vertex 2.5 96.6579 3
    endloop
  endfacet
  facet normal 0 0 1
    outer loop
      vertex 4.4 29 3
      vertex 2.5 -21.6579 3
      vertex 3.03109 -22.35 3
    endloop
  endfacet
  facet normal 0 0 1
    outer loop
      vertex 9.8 103.5 3
      vertex 7.6 29 3
      vertex 9.8 -28.5 3
    endloop
  endfacet
  facet normal 0 0 1
    outer loop
      vertex 9.8 103.5 3
      vertex 7.38564 29.8 3
      vertex 7.6 29 3
    endloop
  endfacet
  facet normal 0 0 1
    outer loop
      vertex 9.8 103.5 3
      vertex 6.8 30.3856 3
      vertex 7.38564 29.8 3
    endloop
  endfacet
  facet normal 0 0 1
    outer loop
      vertex 3.38074 98.1941 3
      vertex 9.8 103.5 3
      vertex 3.5 99.1 3
    endloop
  endfacet
  facet normal 0 0 1
    outer loop
      vertex 3.03109 97.35 3
      vertex 9.8 103.5 3
      vertex 3.38074 98.1941 3
    endloop
  endfacet
  facet normal 0 0 1
    outer loop
      vertex 2.5 96.6579 3
      vertex 9.8 103.5 3
      vertex 3.03109 97.35 3
    endloop
  endfacet
  facet normal 0 0 1
    outer loop
      vertex 9.8 103.5 3
      vertex 2.5 96.6579 3
      vertex 6.8 30.3856 3
    endloop
  endfacet
  facet normal 0 0 1
    outer loop
      vertex 6.8 30.3856 3
      vertex 2.5 96.6579 3
      vertex 6 30.6 3
    endloop
  endfacet
  facet normal 0 0 1
    outer loop
      vertex 9.8 103.5 3
      vertex 3.38074 100.006 3
      vertex 3.5 99.1 3
    endloop
  endfacet
  facet normal 0 0 1
    outer loop
      vertex 9.8 103.5 3
      vertex 3.03109 100.85 3
      vertex 3.38074 100.006 3
    endloop
  endfacet
  facet normal 0 0 1
    outer loop
      vertex 9.8 103.5 3
      vertex 2.47487 101.575 3
      vertex 3.03109 100.85 3
    endloop
  endfacet
  facet normal 0 0 1
    outer loop
      vertex 9.8 103.5 3
      vertex 1.75 102.131 3
      vertex 2.47487 101.575 3
    endloop
  endfacet
  facet normal 0 0 1
    outer loop
      vertex 9.8 103.5 3
      vertex 0.905867 102.481 3
      vertex 1.75 102.131 3
    endloop
  endfacet
  facet normal 0 0 1
    outer loop
      vertex 9.8 103.5 3
      vertex 0 102.6 3
      vertex 0.905867 102.481 3
    endloop
  endfacet
  facet normal -0 0 1
    outer loop
      vertex -6 44.4 3
      vertex -2.5 -21.6579 3
      vertex -5.2 44.6144 3
    endloop
  endfacet
  facet normal 0 0 1
    outer loop
      vertex -3.38074 98.1941 3
      vertex -4.61436 46.8 3
      vertex -4.4 46 3
    endloop
  endfacet
  facet normal 0 0 1
    outer loop
      vertex -3.38074 98.1941 3
      vertex -5.2 47.3856 3
      vertex -4.61436 46.8 3
    endloop
  endfacet
  facet normal 0 0 1
    outer loop
      vertex -3.38074 98.1941 3
      vertex -6 47.6 3
      vertex -5.2 47.3856 3
    endloop
  endfacet
  facet normal 0 0 1
    outer loop
      vertex -3.38074 98.1941 3
      vertex -6.8 47.3856 3
      vertex -6 47.6 3
    endloop
  endfacet
  facet normal 0 0 1
    outer loop
      vertex -3.38074 98.1941 3
      vertex -9.8 103.5 3
      vertex -6.8 47.3856 3
    endloop
  endfacet
  facet normal 0 0 1
    outer loop
      vertex -6.8 47.3856 3
      vertex -9.8 103.5 3
      vertex -7.38564 46.8 3
    endloop
  endfacet
  facet normal 0 0 1
    outer loop
      vertex -7.38564 46.8 3
      vertex -9.8 103.5 3
      vertex -7.6 46 3
    endloop
  endfacet
  facet normal 0 0 1
    outer loop
      vertex -3.38074 100.006 3
      vertex -9.8 103.5 3
      vertex -3.5 99.1 3
    endloop
  endfacet
  facet normal 0 0 1
    outer loop
      vertex -3.03109 100.85 3
      vertex -9.8 103.5 3
      vertex -3.38074 100.006 3
    endloop
  endfacet
  facet normal 0 0 1
    outer loop
      vertex -2.47487 101.575 3
      vertex -9.8 103.5 3
      vertex -3.03109 100.85 3
    endloop
  endfacet
  facet normal 0 0 1
    outer loop
      vertex -1.75 102.131 3
      vertex -9.8 103.5 3
      vertex -2.47487 101.575 3
    endloop
  endfacet
  facet normal 0 0 1
    outer loop
      vertex -0.905867 102.481 3
      vertex -9.8 103.5 3
      vertex -1.75 102.131 3
    endloop
  endfacet
  facet normal 0 0 1
    outer loop
      vertex 0 102.6 3
      vertex -9.8 103.5 3
      vertex -0.905867 102.481 3
    endloop
  endfacet
  facet normal -0 0 1
    outer loop
      vertex -9.8 103.5 3
      vertex 0 102.6 3
      vertex 9.8 103.5 3
    endloop
  endfacet
  facet normal -0 0 1
    outer loop
      vertex 7.38564 28.2 3
      vertex 9.8 -28.5 3
      vertex 7.6 29 3
    endloop
  endfacet
  facet normal -0 0 1
    outer loop
      vertex 6.8 27.6144 3
      vertex 9.8 -28.5 3
      vertex 7.38564 28.2 3
    endloop
  endfacet
  facet normal 0 0 1
    outer loop
      vertex 3.5 -24.1 3
      vertex 6.8 27.6144 3
      vertex 6 27.4 3
    endloop
  endfacet
  facet normal 0 0 1
    outer loop
      vertex 3.5 -24.1 3
      vertex 6 27.4 3
      vertex 5.2 27.6144 3
    endloop
  endfacet
  facet normal 0 0 1
    outer loop
      vertex 3.5 -24.1 3
      vertex 5.2 27.6144 3
      vertex 4.61436 28.2 3
    endloop
  endfacet
  facet normal 0 0 1
    outer loop
      vertex 3.5 -24.1 3
      vertex 4.61436 28.2 3
      vertex 4.4 29 3
    endloop
  endfacet
  facet normal 0 0 1
    outer loop
      vertex 6 30.6 3
      vertex 2.5 96.6579 3
      vertex 5.2 30.3856 3
    endloop
  endfacet
  facet normal 0 0 1
    outer loop
      vertex 6.8 27.6144 3
      vertex 3.5 -24.1 3
      vertex 9.8 -28.5 3
    endloop
  endfacet
  facet normal -0 0 1
    outer loop
      vertex 3.38074 -25.0059 3
      vertex 9.8 -28.5 3
      vertex 3.5 -24.1 3
    endloop
  endfacet
  facet normal -0 0 1
    outer loop
      vertex 3.03109 -25.85 3
      vertex 9.8 -28.5 3
      vertex 3.38074 -25.0059 3
    endloop
  endfacet
  facet normal -0 0 1
    outer loop
      vertex 2.47487 -26.5749 3
      vertex 9.8 -28.5 3
      vertex 3.03109 -25.85 3
    endloop
  endfacet
  facet normal -0 0 1
    outer loop
      vertex 1.75 -27.1311 3
      vertex 9.8 -28.5 3
      vertex 2.47487 -26.5749 3
    endloop
  endfacet
  facet normal -0 0 1
    outer loop
      vertex 0.905867 -27.4807 3
      vertex 9.8 -28.5 3
      vertex 1.75 -27.1311 3
    endloop
  endfacet
  facet normal -0 0 1
    outer loop
      vertex 0 -27.6 3
      vertex 9.8 -28.5 3
      vertex 0.905867 -27.4807 3
    endloop
  endfacet
  facet normal 0 0 1
    outer loop
      vertex -6.8 44.6144 3
      vertex -2.5 -21.6579 3
      vertex -6 44.4 3
    endloop
  endfacet
  facet normal 0 0 1
    outer loop
      vertex -9.8 -28.5 3
      vertex -2.5 -21.6579 3
      vertex -6.8 44.6144 3
    endloop
  endfacet
  facet normal 0 0 1
    outer loop
      vertex -2.5 -21.6579 3
      vertex -9.8 -28.5 3
      vertex -3.03109 -22.35 3
    endloop
  endfacet
  facet normal 0 0 1
    outer loop
      vertex -3.03109 -22.35 3
      vertex -9.8 -28.5 3
      vertex -3.38074 -23.1941 3
    endloop
  endfacet
  facet normal 0 0 1
    outer loop
      vertex -9.8 -28.5 3
      vertex -6.8 44.6144 3
      vertex -7.38564 45.2 3
    endloop
  endfacet
  facet normal 0 0 1
    outer loop
      vertex -9.8 -28.5 3
      vertex -7.38564 45.2 3
      vertex -7.6 46 3
    endloop
  endfacet
  facet normal 0 0 1
    outer loop
      vertex 0 -27.6 3
      vertex -9.8 -28.5 3
      vertex 9.8 -28.5 3
    endloop
  endfacet
  facet normal 0 0 1
    outer loop
      vertex -0.905867 -27.4807 3
      vertex -9.8 -28.5 3
      vertex 0 -27.6 3
    endloop
  endfacet
  facet normal 0 0 1
    outer loop
      vertex -1.75 -27.1311 3
      vertex -9.8 -28.5 3
      vertex -0.905867 -27.4807 3
    endloop
  endfacet
  facet normal 0 0 1
    outer loop
      vertex -2.47487 -26.5749 3
      vertex -9.8 -28.5 3
      vertex -1.75 -27.1311 3
    endloop
  endfacet
  facet normal 0 0 1
    outer loop
      vertex -3.03109 -25.85 3
      vertex -9.8 -28.5 3
      vertex -2.47487 -26.5749 3
    endloop
  endfacet
  facet normal 0 0 1
    outer loop
      vertex -3.38074 -25.0059 3
      vertex -9.8 -28.5 3
      vertex -3.03109 -25.85 3
    endloop
  endfacet
  facet normal 0 0 1
    outer loop
      vertex -3.5 -24.1 3
      vertex -9.8 -28.5 3
      vertex -3.38074 -25.0059 3
    endloop
  endfacet
  facet normal 0 0 1
    outer loop
      vertex -3.38074 -23.1941 3
      vertex -9.8 -28.5 3
      vertex -3.5 -24.1 3
    endloop
  endfacet
  facet normal 0 0 1
    outer loop
      vertex -9.8 -28.5 3
      vertex -7.6 46 3
      vertex -9.8 103.5 3
    endloop
  endfacet
  facet normal 0 0 1
    outer loop
      vertex -4.4 46 3
      vertex -2.5 96.6579 3
      vertex -3.03109 97.35 3
    endloop
  endfacet
  facet normal 0 0 1
    outer loop
      vertex -2.5 96.6579 3
      vertex -4.4 46 3
      vertex -2.5 -21.6579 3
    endloop
  endfacet
  facet normal 0 0 1
    outer loop
      vertex -4.4 46 3
      vertex -3.03109 97.35 3
      vertex -3.38074 98.1941 3
    endloop
  endfacet
  facet normal -0 0 1
    outer loop
      vertex -4.61436 45.2 3
      vertex -2.5 -21.6579 3
      vertex -4.4 46 3
    endloop
  endfacet
  facet normal 0 0 1
    outer loop
      vertex -9.8 103.5 3
      vertex -3.38074 98.1941 3
      vertex -3.5 99.1 3
    endloop
  endfacet
  facet normal -0 0 1
    outer loop
      vertex -5.2 44.6144 3
      vertex -2.5 -21.6579 3
      vertex -4.61436 45.2 3
    endloop
  endfacet
  facet normal 0 0 1
    outer loop
      vertex 1.6 99.1 3
      vertex 3.5 99.1 3
      vertex 3.38074 100.006 3
    endloop
  endfacet
  facet normal 0 0 1
    outer loop
      vertex 1.38564 99.9 3
      vertex 3.38074 100.006 3
      vertex 3.03109 100.85 3
    endloop
  endfacet
  facet normal 0 0 1
    outer loop
      vertex 3.5 99.1 3
      vertex 1.6 99.1 3
      vertex 3.38074 98.1941 3
    endloop
  endfacet
  facet normal -0 0 1
    outer loop
      vertex 1.38564 98.3 3
      vertex 3.38074 98.1941 3
      vertex 1.6 99.1 3
    endloop
  endfacet
  facet normal 0 0 1
    outer loop
      vertex 1.38564 99.9 3
      vertex 3.03109 100.85 3
      vertex 2.47487 101.575 3
    endloop
  endfacet
  facet normal 0 0 1
    outer loop
      vertex 3.38074 98.1941 3
      vertex 1.38564 98.3 3
      vertex 3.03109 97.35 3
    endloop
  endfacet
  facet normal 0 0 1
    outer loop
      vertex 0.799999 100.486 3
      vertex 2.47487 101.575 3
      vertex 1.75 102.131 3
    endloop
  endfacet
  facet normal 0 0 1
    outer loop
      vertex 3.03109 97.35 3
      vertex 1.38564 98.3 3
      vertex 2.5 96.6579 3
    endloop
  endfacet
  facet normal -0 0 1
    outer loop
      vertex 0.799999 97.7144 3
      vertex 2.5 96.6579 3
      vertex 1.38564 98.3 3
    endloop
  endfacet
  facet normal 0 0 1
    outer loop
      vertex 3.38074 100.006 3
      vertex 1.38564 99.9 3
      vertex 1.6 99.1 3
    endloop
  endfacet
  facet normal 0 0 1
    outer loop
      vertex 0.799999 100.486 3
      vertex 1.75 102.131 3
      vertex 0.905867 102.481 3
    endloop
  endfacet
  facet normal 0 0 1
    outer loop
      vertex 2.47487 101.575 3
      vertex 0.799999 100.486 3
      vertex 1.38564 99.9 3
    endloop
  endfacet
  facet normal 0 0 1
    outer loop
      vertex 0 100.7 3
      vertex 0.905867 102.481 3
      vertex 0 102.6 3
    endloop
  endfacet
  facet normal 0 0 1
    outer loop
      vertex 0.905867 102.481 3
      vertex 0 100.7 3
      vertex 0.799999 100.486 3
    endloop
  endfacet
  facet normal -0 0 1
    outer loop
      vertex -0.905867 102.481 3
      vertex 0 100.7 3
      vertex 0 102.6 3
    endloop
  endfacet
  facet normal 0 0 1
    outer loop
      vertex 0 100.7 3
      vertex -0.905867 102.481 3
      vertex -0.799999 100.486 3
    endloop
  endfacet
  facet normal -0 0 1
    outer loop
      vertex -1.75 102.131 3
      vertex -0.799999 100.486 3
      vertex -0.905867 102.481 3
    endloop
  endfacet
  facet normal -0 0 1
    outer loop
      vertex -2.47487 101.575 3
      vertex -0.799999 100.486 3
      vertex -1.75 102.131 3
    endloop
  endfacet
  facet normal 0 0 1
    outer loop
      vertex -0.799999 100.486 3
      vertex -2.47487 101.575 3
      vertex -1.38564 99.9 3
    endloop
  endfacet
  facet normal 0 0 1
    outer loop
      vertex 2.5 96.6579 3
      vertex 0.799999 97.7144 3
      vertex 2.47487 96.6251 3
    endloop
  endfacet
  facet normal 0 0 1
    outer loop
      vertex 2.47487 96.6251 3
      vertex 0.799999 97.7144 3
      vertex 1.75 96.0689 3
    endloop
  endfacet
  facet normal 0 0 1
    outer loop
      vertex 1.75 96.0689 3
      vertex 0.799999 97.7144 3
      vertex 0.905867 95.7193 3
    endloop
  endfacet
  facet normal -0 0 1
    outer loop
      vertex 0 97.5 3
      vertex 0.905867 95.7193 3
      vertex 0.799999 97.7144 3
    endloop
  endfacet
  facet normal 0 0 1
    outer loop
      vertex 0 97.5 3
      vertex 0 95.6 3
      vertex 0.905867 95.7193 3
    endloop
  endfacet
  facet normal 0 0 1
    outer loop
      vertex -0.905867 95.7193 3
      vertex 0 97.5 3
      vertex -0.799999 97.7144 3
    endloop
  endfacet
  facet normal 0 0 1
    outer loop
      vertex 0 97.5 3
      vertex -0.905867 95.7193 3
      vertex 0 95.6 3
    endloop
  endfacet
  facet normal 0 0 1
    outer loop
      vertex -2.5 96.6579 3
      vertex -0.799999 97.7144 3
      vertex -1.38564 98.3 3
    endloop
  endfacet
  facet normal 0 0 1
    outer loop
      vertex -3.38074 98.1941 3
      vertex -1.38564 98.3 3
      vertex -1.6 99.1 3
    endloop
  endfacet
  facet normal 0 0 1
    outer loop
      vertex -0.799999 97.7144 3
      vertex -1.75 96.0689 3
      vertex -0.905867 95.7193 3
    endloop
  endfacet
  facet normal -0 0 1
    outer loop
      vertex -3.03109 100.85 3
      vertex -1.38564 99.9 3
      vertex -2.47487 101.575 3
    endloop
  endfacet
  facet normal -0 0 1
    outer loop
      vertex -3.38074 100.006 3
      vertex -1.38564 99.9 3
      vertex -3.03109 100.85 3
    endloop
  endfacet
  facet normal 0 0 1
    outer loop
      vertex -0.799999 97.7144 3
      vertex -2.5 96.6579 3
      vertex -2.47487 96.6251 3
    endloop
  endfacet
  facet normal 0 0 1
    outer loop
      vertex -0.799999 97.7144 3
      vertex -2.47487 96.6251 3
      vertex -1.75 96.0689 3
    endloop
  endfacet
  facet normal 0 0 1
    outer loop
      vertex -1.38564 99.9 3
      vertex -3.38074 100.006 3
      vertex -1.6 99.1 3
    endloop
  endfacet
  facet normal 0 0 1
    outer loop
      vertex -1.38564 98.3 3
      vertex -3.03109 97.35 3
      vertex -2.5 96.6579 3
    endloop
  endfacet
  facet normal 0 0 1
    outer loop
      vertex -3.5 99.1 3
      vertex -1.6 99.1 3
      vertex -3.38074 100.006 3
    endloop
  endfacet
  facet normal 0 0 1
    outer loop
      vertex -1.38564 98.3 3
      vertex -3.38074 98.1941 3
      vertex -3.03109 97.35 3
    endloop
  endfacet
  facet normal 0 0 1
    outer loop
      vertex -1.6 99.1 3
      vertex -3.5 99.1 3
      vertex -3.38074 98.1941 3
    endloop
  endfacet
  facet normal 0 0 1
    outer loop
      vertex 1.6 -24.1 3
      vertex 3.5 -24.1 3
      vertex 3.38074 -23.1941 3
    endloop
  endfacet
  facet normal 0 0 1
    outer loop
      vertex 1.38564 -23.3 3
      vertex 3.38074 -23.1941 3
      vertex 3.03109 -22.35 3
    endloop
  endfacet
  facet normal 0 0 1
    outer loop
      vertex 3.5 -24.1 3
      vertex 1.6 -24.1 3
      vertex 3.38074 -25.0059 3
    endloop
  endfacet
  facet normal 0 0 1
    outer loop
      vertex 1.38564 -23.3 3
      vertex 3.03109 -22.35 3
      vertex 2.5 -21.6579 3
    endloop
  endfacet
  facet normal 0 0 1
    outer loop
      vertex 0.799999 -22.7144 3
      vertex 2.5 -21.6579 3
      vertex 2.47487 -21.6251 3
    endloop
  endfacet
  facet normal -0 0 1
    outer loop
      vertex 1.38564 -24.9 3
      vertex 3.38074 -25.0059 3
      vertex 1.6 -24.1 3
    endloop
  endfacet
  facet normal 0 0 1
    outer loop
      vertex 0.799999 -22.7144 3
      vertex 2.47487 -21.6251 3
      vertex 1.75 -21.0689 3
    endloop
  endfacet
  facet normal 0 0 1
    outer loop
      vertex 3.38074 -25.0059 3
      vertex 1.38564 -24.9 3
      vertex 3.03109 -25.85 3
    endloop
  endfacet
  facet normal 0 0 1
    outer loop
      vertex 3.03109 -25.85 3
      vertex 1.38564 -24.9 3
      vertex 2.47487 -26.5749 3
    endloop
  endfacet
  facet normal 0 0 1
    outer loop
      vertex 3.38074 -23.1941 3
      vertex 1.38564 -23.3 3
      vertex 1.6 -24.1 3
    endloop
  endfacet
  facet normal 0 0 1
    outer loop
      vertex 0.799999 -22.7144 3
      vertex 1.75 -21.0689 3
      vertex 0.905867 -20.7193 3
    endloop
  endfacet
  facet normal 0 0 1
    outer loop
      vertex 2.5 -21.6579 3
      vertex 0.799999 -22.7144 3
      vertex 1.38564 -23.3 3
    endloop
  endfacet
  facet normal 0 0 1
    outer loop
      vertex 0 -22.5 3
      vertex 0.905867 -20.7193 3
      vertex 0 -20.6 3
    endloop
  endfacet
  facet normal 0 0 1
    outer loop
      vertex 0.905867 -20.7193 3
      vertex 0 -22.5 3
      vertex 0.799999 -22.7144 3
    endloop
  endfacet
  facet normal -0 0 1
    outer loop
      vertex -0.905867 -20.7193 3
      vertex 0 -22.5 3
      vertex 0 -20.6 3
    endloop
  endfacet
  facet normal 0 0 1
    outer loop
      vertex 0 -22.5 3
      vertex -0.905867 -20.7193 3
      vertex -0.799999 -22.7144 3
    endloop
  endfacet
  facet normal -0 0 1
    outer loop
      vertex -1.75 -21.0689 3
      vertex -0.799999 -22.7144 3
      vertex -0.905867 -20.7193 3
    endloop
  endfacet
  facet normal -0 0 1
    outer loop
      vertex -2.47487 -21.6251 3
      vertex -0.799999 -22.7144 3
      vertex -1.75 -21.0689 3
    endloop
  endfacet
  facet normal -0 0 1
    outer loop
      vertex -2.5 -21.6579 3
      vertex -0.799999 -22.7144 3
      vertex -2.47487 -21.6251 3
    endloop
  endfacet
  facet normal -0 0 1
    outer loop
      vertex 0.799999 -25.4856 3
      vertex 2.47487 -26.5749 3
      vertex 1.38564 -24.9 3
    endloop
  endfacet
  facet normal 0 0 1
    outer loop
      vertex 2.47487 -26.5749 3
      vertex 0.799999 -25.4856 3
      vertex 1.75 -27.1311 3
    endloop
  endfacet
  facet normal 0 0 1
    outer loop
      vertex 1.75 -27.1311 3
      vertex 0.799999 -25.4856 3
      vertex 0.905867 -27.4807 3
    endloop
  endfacet
  facet normal -0 0 1
    outer loop
      vertex 0 -25.7 3
      vertex 0.905867 -27.4807 3
      vertex 0.799999 -25.4856 3
    endloop
  endfacet
  facet normal 0 0 1
    outer loop
      vertex 0 -25.7 3
      vertex 0 -27.6 3
      vertex 0.905867 -27.4807 3
    endloop
  endfacet
  facet normal 0 0 1
    outer loop
      vertex -0.905867 -27.4807 3
      vertex 0 -25.7 3
      vertex -0.799999 -25.4856 3
    endloop
  endfacet
  facet normal 0 0 1
    outer loop
      vertex 0 -25.7 3
      vertex -0.905867 -27.4807 3
      vertex 0 -27.6 3
    endloop
  endfacet
  facet normal 0 0 1
    outer loop
      vertex -2.47487 -26.5749 3
      vertex -0.799999 -25.4856 3
      vertex -1.38564 -24.9 3
    endloop
  endfacet
  facet normal 0 0 1
    outer loop
      vertex -3.38074 -25.0059 3
      vertex -1.38564 -24.9 3
      vertex -1.6 -24.1 3
    endloop
  endfacet
  facet normal 0 0 1
    outer loop
      vertex -0.799999 -25.4856 3
      vertex -1.75 -27.1311 3
      vertex -0.905867 -27.4807 3
    endloop
  endfacet
  facet normal 0 0 1
    outer loop
      vertex -0.799999 -22.7144 3
      vertex -2.5 -21.6579 3
      vertex -1.38564 -23.3 3
    endloop
  endfacet
  facet normal -0 0 1
    outer loop
      vertex -3.03109 -22.35 3
      vertex -1.38564 -23.3 3
      vertex -2.5 -21.6579 3
    endloop
  endfacet
  facet normal -0 0 1
    outer loop
      vertex -3.38074 -23.1941 3
      vertex -1.38564 -23.3 3
      vertex -3.03109 -22.35 3
    endloop
  endfacet
  facet normal 0 0 1
    outer loop
      vertex -0.799999 -25.4856 3
      vertex -2.47487 -26.5749 3
      vertex -1.75 -27.1311 3
    endloop
  endfacet
  facet normal 0 0 1
    outer loop
      vertex -1.38564 -23.3 3
      vertex -3.38074 -23.1941 3
      vertex -1.6 -24.1 3
    endloop
  endfacet
  facet normal 0 0 1
    outer loop
      vertex -1.38564 -24.9 3
      vertex -3.03109 -25.85 3
      vertex -2.47487 -26.5749 3
    endloop
  endfacet
  facet normal 0 0 1
    outer loop
      vertex -3.5 -24.1 3
      vertex -1.6 -24.1 3
      vertex -3.38074 -23.1941 3
    endloop
  endfacet
  facet normal 0 0 1
    outer loop
      vertex -1.38564 -24.9 3
      vertex -3.38074 -25.0059 3
      vertex -3.03109 -25.85 3
    endloop
  endfacet
  facet normal 0 0 1
    outer loop
      vertex -1.6 -24.1 3
      vertex -3.5 -24.1 3
      vertex -3.38074 -25.0059 3
    endloop
  endfacet
  facet normal 1 -0 0
    outer loop
      vertex 9.8 -28.5 3
      vertex 9.8 103.5 0
      vertex 9.8 103.5 3
    endloop
  endfacet
  facet normal 1 0 0
    outer loop
      vertex 9.8 103.5 0
      vertex 9.8 -28.5 3
      vertex 9.8 -28.5 0
    endloop
  endfacet
  facet normal 0 1 -0
    outer loop
      vertex 9.8 103.5 0
      vertex -9.8 103.5 3
      vertex 9.8 103.5 3
    endloop
  endfacet
  facet normal 0 1 0
    outer loop
      vertex -9.8 103.5 3
      vertex 9.8 103.5 0
      vertex -9.8 103.5 0
    endloop
  endfacet
  facet normal 0 0 -1
    outer loop
      vertex -0.7 1.21243 0
      vertex 5.2 27.6144 0
      vertex 0 1.4 0
    endloop
  endfacet
  facet normal 0 0 -1
    outer loop
      vertex 4.4 29 0
      vertex 1.21243 74.3 0
      vertex 1.4 75 0
    endloop
  endfacet
  facet normal -0 0 -1
    outer loop
      vertex 5.2 27.6144 0
      vertex -0.7 1.21243 0
      vertex 4.61436 28.2 0
    endloop
  endfacet
  facet normal 0 0 -1
    outer loop
      vertex 4.4 29 0
      vertex -4.4 46 0
      vertex 1.21243 74.3 0
    endloop
  endfacet
  facet normal 0 0 -1
    outer loop
      vertex -1.21243 0.7 0
      vertex 4.61436 28.2 0
      vertex -0.7 1.21243 0
    endloop
  endfacet
  facet normal 0 0 -1
    outer loop
      vertex -4.61436 46.8 0
      vertex 1.21243 74.3 0
      vertex -4.4 46 0
    endloop
  endfacet
  facet normal 0 0 -1
    outer loop
      vertex -6.8 44.6144 0
      vertex 4.61436 28.2 0
      vertex -1.21243 0.7 0
    endloop
  endfacet
  facet normal 0 0 -1
    outer loop
      vertex 1.21243 74.3 0
      vertex -4.61436 46.8 0
      vertex 0.7 73.7876 0
    endloop
  endfacet
  facet normal 0 0 -1
    outer loop
      vertex 4.61436 28.2 0
      vertex -6.8 44.6144 0
      vertex 4.4 29 0
    endloop
  endfacet
  facet normal 0 0 -1
    outer loop
      vertex -5.2 47.3856 0
      vertex 0.7 73.7876 0
      vertex -4.61436 46.8 0
    endloop
  endfacet
  facet normal 0 0 -1
    outer loop
      vertex -7.38564 45.2 0
      vertex -1.21243 0.7 0
      vertex -1.4 0 0
    endloop
  endfacet
  facet normal 0 0 -1
    outer loop
      vertex 0.7 73.7876 0
      vertex -5.2 47.3856 0
      vertex 0 73.6 0
    endloop
  endfacet
  facet normal -0 0 -1
    outer loop
      vertex 6 27.4 0
      vertex 0 1.4 0
      vertex 5.2 27.6144 0
    endloop
  endfacet
  facet normal 0 0 -1
    outer loop
      vertex 1.21243 -0.7 0
      vertex 9.8 -28.5 0
      vertex 1.38564 -23.3 0
    endloop
  endfacet
  facet normal 0 0 -1
    outer loop
      vertex 9.8 -28.5 0
      vertex 1.21243 -0.7 0
      vertex 1.4 0 0
    endloop
  endfacet
  facet normal 0 0 -1
    outer loop
      vertex 0.799999 -22.7144 0
      vertex 1.21243 -0.7 0
      vertex 1.38564 -23.3 0
    endloop
  endfacet
  facet normal 0 0 -1
    outer loop
      vertex 0.799999 -22.7144 0
      vertex 0.7 -1.21243 0
      vertex 1.21243 -0.7 0
    endloop
  endfacet
  facet normal 0 0 -1
    outer loop
      vertex 0 -22.5 0
      vertex 0.7 -1.21243 0
      vertex 0.799999 -22.7144 0
    endloop
  endfacet
  facet normal 0 0 -1
    outer loop
      vertex 0 -22.5 0
      vertex 0 -1.4 0
      vertex 0.7 -1.21243 0
    endloop
  endfacet
  facet normal 0 0 -1
    outer loop
      vertex 0 -22.5 0
      vertex -0.7 -1.21243 0
      vertex 0 -1.4 0
    endloop
  endfacet
  facet normal 0 0 -1
    outer loop
      vertex -0.799999 -22.7144 0
      vertex -0.7 -1.21243 0
      vertex 0 -22.5 0
    endloop
  endfacet
  facet normal 0 0 -1
    outer loop
      vertex -0.799999 -22.7144 0
      vertex -1.21243 -0.7 0
      vertex -0.7 -1.21243 0
    endloop
  endfacet
  facet normal 0 0 -1
    outer loop
      vertex -1.38564 -23.3 0
      vertex -1.21243 -0.7 0
      vertex -0.799999 -22.7144 0
    endloop
  endfacet
  facet normal 0 0 -1
    outer loop
      vertex -9.8 -28.5 0
      vertex -1.21243 -0.7 0
      vertex -1.38564 -23.3 0
    endloop
  endfacet
  facet normal -0 0 -1
    outer loop
      vertex -1.21243 -0.7 0
      vertex -9.8 -28.5 0
      vertex -1.4 0 0
    endloop
  endfacet
  facet normal 0 0 -1
    outer loop
      vertex -9.8 -28.5 0
      vertex -1.38564 -23.3 0
      vertex -1.6 -24.1 0
    endloop
  endfacet
  facet normal 0 0 -1
    outer loop
      vertex 9.8 -28.5 0
      vertex 7.6 29 0
      vertex 9.8 103.5 0
    endloop
  endfacet
  facet normal 0 0 -1
    outer loop
      vertex 9.8 -28.5 0
      vertex 7.38564 28.2 0
      vertex 7.6 29 0
    endloop
  endfacet
  facet normal 0 0 -1
    outer loop
      vertex 1.4 0 0
      vertex 7.38564 28.2 0
      vertex 9.8 -28.5 0
    endloop
  endfacet
  facet normal 0 0 -1
    outer loop
      vertex 1.38564 -23.3 0
      vertex 9.8 -28.5 0
      vertex 1.6 -24.1 0
    endloop
  endfacet
  facet normal 0 0 -1
    outer loop
      vertex 1.21243 0.7 0
      vertex 7.38564 28.2 0
      vertex 1.4 0 0
    endloop
  endfacet
  facet normal 0 0 -1
    outer loop
      vertex 7.38564 28.2 0
      vertex 1.21243 0.7 0
      vertex 6.8 27.6144 0
    endloop
  endfacet
  facet normal 0 0 -1
    outer loop
      vertex 0.7 1.21243 0
      vertex 6.8 27.6144 0
      vertex 1.21243 0.7 0
    endloop
  endfacet
  facet normal 0 0 -1
    outer loop
      vertex 6.8 27.6144 0
      vertex 0.7 1.21243 0
      vertex 6 27.4 0
    endloop
  endfacet
  facet normal 0 0 -1
    outer loop
      vertex 9.8 -28.5 0
      vertex 1.38564 -24.9 0
      vertex 1.6 -24.1 0
    endloop
  endfacet
  facet normal 0 0 -1
    outer loop
      vertex 9.8 -28.5 0
      vertex 0.799999 -25.4856 0
      vertex 1.38564 -24.9 0
    endloop
  endfacet
  facet normal 0 0 -1
    outer loop
      vertex 9.8 -28.5 0
      vertex 0 -25.7 0
      vertex 0.799999 -25.4856 0
    endloop
  endfacet
  facet normal 0 0 -1
    outer loop
      vertex -9.8 -28.5 0
      vertex 0 -25.7 0
      vertex 9.8 -28.5 0
    endloop
  endfacet
  facet normal -0 0 -1
    outer loop
      vertex 0 73.6 0
      vertex -6 47.6 0
      vertex -0.7 73.7876 0
    endloop
  endfacet
  facet normal 0 0 -1
    outer loop
      vertex 4.4 29 0
      vertex -4.61436 45.2 0
      vertex -4.4 46 0
    endloop
  endfacet
  facet normal 0 0 -1
    outer loop
      vertex 4.4 29 0
      vertex -5.2 44.6144 0
      vertex -4.61436 45.2 0
    endloop
  endfacet
  facet normal 0 0 -1
    outer loop
      vertex 4.4 29 0
      vertex -6 44.4 0
      vertex -5.2 44.6144 0
    endloop
  endfacet
  facet normal 0 0 -1
    outer loop
      vertex 4.4 29 0
      vertex -6.8 44.6144 0
      vertex -6 44.4 0
    endloop
  endfacet
  facet normal 0 -0 -1
    outer loop
      vertex -7.38564 45.2 0
      vertex -1.4 0 0
      vertex -9.8 -28.5 0
    endloop
  endfacet
  facet normal 0 0 -1
    outer loop
      vertex -1.21243 0.7 0
      vertex -7.38564 45.2 0
      vertex -6.8 44.6144 0
    endloop
  endfacet
  facet normal -0 0 -1
    outer loop
      vertex -7.38564 45.2 0
      vertex -9.8 -28.5 0
      vertex -7.6 46 0
    endloop
  endfacet
  facet normal -0 0 -1
    outer loop
      vertex -1.38564 -24.9 0
      vertex -9.8 -28.5 0
      vertex -1.6 -24.1 0
    endloop
  endfacet
  facet normal -0 0 -1
    outer loop
      vertex -0.799999 -25.4856 0
      vertex -9.8 -28.5 0
      vertex -1.38564 -24.9 0
    endloop
  endfacet
  facet normal -0 0 -1
    outer loop
      vertex 0 -25.7 0
      vertex -9.8 -28.5 0
      vertex -0.799999 -25.4856 0
    endloop
  endfacet
  facet normal 0 0 -1
    outer loop
      vertex 7.38564 29.8 0
      vertex 9.8 103.5 0
      vertex 7.6 29 0
    endloop
  endfacet
  facet normal 0 0 -1
    outer loop
      vertex 6.8 30.3856 0
      vertex 9.8 103.5 0
      vertex 7.38564 29.8 0
    endloop
  endfacet
  facet normal 0 0 -1
    outer loop
      vertex 1.6 99.1 0
      vertex 6.8 30.3856 0
      vertex 6 30.6 0
    endloop
  endfacet
  facet normal 0 0 -1
    outer loop
      vertex 1.6 99.1 0
      vertex 6 30.6 0
      vertex 5.2 30.3856 0
    endloop
  endfacet
  facet normal 0 0 -1
    outer loop
      vertex 1.6 99.1 0
      vertex 5.2 30.3856 0
      vertex 4.61436 29.8 0
    endloop
  endfacet
  facet normal 0 0 -1
    outer loop
      vertex 1.6 99.1 0
      vertex 4.61436 29.8 0
      vertex 4.4 29 0
    endloop
  endfacet
  facet normal 0 0 -1
    outer loop
      vertex 0 1.4 0
      vertex 6 27.4 0
      vertex 0.7 1.21243 0
    endloop
  endfacet
  facet normal 0 0 -1
    outer loop
      vertex 6.8 30.3856 0
      vertex 1.6 99.1 0
      vertex 9.8 103.5 0
    endloop
  endfacet
  facet normal 0 0 -1
    outer loop
      vertex 1.38564 99.9 0
      vertex 9.8 103.5 0
      vertex 1.6 99.1 0
    endloop
  endfacet
  facet normal 0 0 -1
    outer loop
      vertex 0.799999 100.486 0
      vertex 9.8 103.5 0
      vertex 1.38564 99.9 0
    endloop
  endfacet
  facet normal 0 0 -1
    outer loop
      vertex 0 100.7 0
      vertex 9.8 103.5 0
      vertex 0.799999 100.486 0
    endloop
  endfacet
  facet normal 0 0 -1
    outer loop
      vertex -9.8 103.5 0
      vertex 0 100.7 0
      vertex -0.799999 100.486 0
    endloop
  endfacet
  facet normal 0 0 -1
    outer loop
      vertex -6.8 47.3856 0
      vertex -0.7 73.7876 0
      vertex -6 47.6 0
    endloop
  endfacet
  facet normal -0 0 -1
    outer loop
      vertex -0.7 73.7876 0
      vertex -6.8 47.3856 0
      vertex -1.21243 74.3 0
    endloop
  endfacet
  facet normal 0 0 -1
    outer loop
      vertex -7.38564 46.8 0
      vertex -1.21243 74.3 0
      vertex -6.8 47.3856 0
    endloop
  endfacet
  facet normal -0 0 -1
    outer loop
      vertex -1.21243 74.3 0
      vertex -7.38564 46.8 0
      vertex -1.4 75 0
    endloop
  endfacet
  facet normal -0 0 -1
    outer loop
      vertex -1.4 75 0
      vertex -7.38564 46.8 0
      vertex -9.8 103.5 0
    endloop
  endfacet
  facet normal 0 0 -1
    outer loop
      vertex -9.8 103.5 0
      vertex -7.38564 46.8 0
      vertex -7.6 46 0
    endloop
  endfacet
  facet normal 0 0 -1
    outer loop
      vertex 0 100.7 0
      vertex -9.8 103.5 0
      vertex 9.8 103.5 0
    endloop
  endfacet
  facet normal 0 0 -1
    outer loop
      vertex -1.38564 99.9 0
      vertex -9.8 103.5 0
      vertex -0.799999 100.486 0
    endloop
  endfacet
  facet normal 0 0 -1
    outer loop
      vertex -1.6 99.1 0
      vertex -9.8 103.5 0
      vertex -1.38564 99.9 0
    endloop
  endfacet
  facet normal 0 0 -1
    outer loop
      vertex -1.4 75 0
      vertex -9.8 103.5 0
      vertex -1.6 99.1 0
    endloop
  endfacet
  facet normal 0 0 -1
    outer loop
      vertex -9.8 103.5 0
      vertex -7.6 46 0
      vertex -9.8 -28.5 0
    endloop
  endfacet
  facet normal 0 0 -1
    outer loop
      vertex 4.4 29 0
      vertex 1.4 75 0
      vertex 1.6 99.1 0
    endloop
  endfacet
  facet normal 0 0 -1
    outer loop
      vertex 1.4 75 0
      vertex 1.38564 98.3 0
      vertex 1.6 99.1 0
    endloop
  endfacet
  facet normal 0 0 -1
    outer loop
      vertex 1.21243 75.7 0
      vertex 1.38564 98.3 0
      vertex 1.4 75 0
    endloop
  endfacet
  facet normal 0 0 -1
    outer loop
      vertex 1.21243 75.7 0
      vertex 0.799999 97.7144 0
      vertex 1.38564 98.3 0
    endloop
  endfacet
  facet normal 0 0 -1
    outer loop
      vertex 0.7 76.2124 0
      vertex 0.799999 97.7144 0
      vertex 1.21243 75.7 0
    endloop
  endfacet
  facet normal 0 0 -1
    outer loop
      vertex 0 76.4 0
      vertex 0.799999 97.7144 0
      vertex 0.7 76.2124 0
    endloop
  endfacet
  facet normal 0 0 -1
    outer loop
      vertex 0 76.4 0
      vertex 0 97.5 0
      vertex 0.799999 97.7144 0
    endloop
  endfacet
  facet normal 0 0 -1
    outer loop
      vertex -0.7 76.2124 0
      vertex 0 97.5 0
      vertex 0 76.4 0
    endloop
  endfacet
  facet normal 0 0 -1
    outer loop
      vertex -0.7 76.2124 0
      vertex -0.799999 97.7144 0
      vertex 0 97.5 0
    endloop
  endfacet
  facet normal 0 0 -1
    outer loop
      vertex -1.21243 75.7 0
      vertex -0.799999 97.7144 0
      vertex -0.7 76.2124 0
    endloop
  endfacet
  facet normal 0 0 -1
    outer loop
      vertex -1.21243 75.7 0
      vertex -1.38564 98.3 0
      vertex -0.799999 97.7144 0
    endloop
  endfacet
  facet normal 0 0 -1
    outer loop
      vertex -1.4 75 0
      vertex -1.38564 98.3 0
      vertex -1.21243 75.7 0
    endloop
  endfacet
  facet normal 0 0 -1
    outer loop
      vertex -6 47.6 0
      vertex 0 73.6 0
      vertex -5.2 47.3856 0
    endloop
  endfacet
  facet normal 0 0 -1
    outer loop
      vertex -1.4 75 0
      vertex -1.6 99.1 0
      vertex -1.38564 98.3 0
    endloop
  endfacet
  facet normal 0 -1 0
    outer loop
      vertex -9.8 -28.5 0
      vertex 9.8 -28.5 3
      vertex -9.8 -28.5 3
    endloop
  endfacet
  facet normal 0 -1 -0
    outer loop
      vertex 9.8 -28.5 3
      vertex -9.8 -28.5 0
      vertex 9.8 -28.5 0
    endloop
  endfacet
  facet normal -1 0 0
    outer loop
      vertex -2.5 96.6579 3
      vertex -2.5 77.4421 6
      vertex -2.5 96.6579 11
    endloop
  endfacet
  facet normal -1 0 0
    outer loop
      vertex -2.5 96.6579 3
      vertex -2.5 72.5579 6
      vertex -2.5 77.4421 6
    endloop
  endfacet
  facet normal -1 0 0
    outer loop
      vertex -2.5 72.5579 6
      vertex -2.5 2.44213 6
      vertex -2.5 72.5579 11
    endloop
  endfacet
  facet normal -1 0 0
    outer loop
      vertex -2.5 96.6579 3
      vertex -2.5 2.44213 6
      vertex -2.5 72.5579 6
    endloop
  endfacet
  facet normal -1 0 0
    outer loop
      vertex -2.5 -21.6579 3
      vertex -2.5 2.44213 6
      vertex -2.5 96.6579 3
    endloop
  endfacet
  facet normal -1 -0 0
    outer loop
      vertex -2.5 2.44213 6
      vertex -2.5 -21.6579 3
      vertex -2.5 -2.44213 6
    endloop
  endfacet
  facet normal -1 0 0
    outer loop
      vertex -2.5 -21.6579 11
      vertex -2.5 -2.44213 6
      vertex -2.5 -21.6579 3
    endloop
  endfacet
  facet normal -1 0 0
    outer loop
      vertex -2.5 -2.44213 6
      vertex -2.5 -21.6579 11
      vertex -2.5 -2.44213 11
    endloop
  endfacet
  facet normal -1 -0 0
    outer loop
      vertex -2.5 96.6579 11
      vertex -2.5 77.4421 6
      vertex -2.5 77.4421 11
    endloop
  endfacet
  facet normal -1 -0 0
    outer loop
      vertex -2.5 72.5579 11
      vertex -2.5 2.44213 6
      vertex -2.5 2.44213 11
    endloop
  endfacet
  facet normal -0 0 1
    outer loop
      vertex 2.47487 -2.47487 11
      vertex 2.5 -21.6579 11
      vertex 2.5 -2.44213 11
    endloop
  endfacet
  facet normal 0 0 1
    outer loop
      vertex 2.47487 -2.47487 11
      vertex 2.47487 -21.6251 11
      vertex 2.5 -21.6579 11
    endloop
  endfacet
  facet normal -0 0 1
    outer loop
      vertex 1.75 -3.03109 11
      vertex 2.47487 -21.6251 11
      vertex 2.47487 -2.47487 11
    endloop
  endfacet
  facet normal 0 0 1
    outer loop
      vertex 1.75 -3.03109 11
      vertex 1.75 -21.0689 11
      vertex 2.47487 -21.6251 11
    endloop
  endfacet
  facet normal -0 0 1
    outer loop
      vertex 0.905867 -3.38074 11
      vertex 1.75 -21.0689 11
      vertex 1.75 -3.03109 11
    endloop
  endfacet
  facet normal 0 0 1
    outer loop
      vertex 0.905867 -3.38074 11
      vertex 0.905867 -20.7193 11
      vertex 1.75 -21.0689 11
    endloop
  endfacet
  facet normal -0 0 1
    outer loop
      vertex 0 -3.5 11
      vertex 0.905867 -20.7193 11
      vertex 0.905867 -3.38074 11
    endloop
  endfacet
  facet normal 0 0 1
    outer loop
      vertex 0 -3.5 11
      vertex 0 -20.6 11
      vertex 0.905867 -20.7193 11
    endloop
  endfacet
  facet normal 0 0 1
    outer loop
      vertex -0.905867 -3.38074 11
      vertex 0 -20.6 11
      vertex 0 -3.5 11
    endloop
  endfacet
  facet normal 0 0 1
    outer loop
      vertex -0.905867 -3.38074 11
      vertex -0.905867 -20.7193 11
      vertex 0 -20.6 11
    endloop
  endfacet
  facet normal 0 0 1
    outer loop
      vertex -1.75 -3.03109 11
      vertex -0.905867 -20.7193 11
      vertex -0.905867 -3.38074 11
    endloop
  endfacet
  facet normal 0 0 1
    outer loop
      vertex -1.75 -3.03109 11
      vertex -1.75 -21.0689 11
      vertex -0.905867 -20.7193 11
    endloop
  endfacet
  facet normal 0 0 1
    outer loop
      vertex -2.47487 -2.47487 11
      vertex -1.75 -21.0689 11
      vertex -1.75 -3.03109 11
    endloop
  endfacet
  facet normal 0 0 1
    outer loop
      vertex -2.47487 -2.47487 11
      vertex -2.47487 -21.6251 11
      vertex -1.75 -21.0689 11
    endloop
  endfacet
  facet normal 0 0 1
    outer loop
      vertex -2.5 -2.44213 11
      vertex -2.47487 -21.6251 11
      vertex -2.47487 -2.47487 11
    endloop
  endfacet
  facet normal 0 0 1
    outer loop
      vertex -2.47487 -21.6251 11
      vertex -2.5 -2.44213 11
      vertex -2.5 -21.6579 11
    endloop
  endfacet
  facet normal -0 0 1
    outer loop
      vertex 2.47487 72.5251 11
      vertex 2.5 2.44213 11
      vertex 2.5 72.5579 11
    endloop
  endfacet
  facet normal 0 0 1
    outer loop
      vertex 2.47487 72.5251 11
      vertex 2.47487 2.47487 11
      vertex 2.5 2.44213 11
    endloop
  endfacet
  facet normal -0 0 1
    outer loop
      vertex 1.75 71.9689 11
      vertex 2.47487 2.47487 11
      vertex 2.47487 72.5251 11
    endloop
  endfacet
  facet normal 0 0 1
    outer loop
      vertex 1.75 71.9689 11
      vertex 1.75 3.03109 11
      vertex 2.47487 2.47487 11
    endloop
  endfacet
  facet normal -0 0 1
    outer loop
      vertex 0.905867 71.6193 11
      vertex 1.75 3.03109 11
      vertex 1.75 71.9689 11
    endloop
  endfacet
  facet normal 0 0 1
    outer loop
      vertex 0.905867 71.6193 11
      vertex 0.905867 3.38074 11
      vertex 1.75 3.03109 11
    endloop
  endfacet
  facet normal -0 0 1
    outer loop
      vertex 0 71.5 11
      vertex 0.905867 3.38074 11
      vertex 0.905867 71.6193 11
    endloop
  endfacet
  facet normal 0 0 1
    outer loop
      vertex 0 71.5 11
      vertex 0 3.5 11
      vertex 0.905867 3.38074 11
    endloop
  endfacet
  facet normal 0 0 1
    outer loop
      vertex -0.905867 71.6193 11
      vertex 0 3.5 11
      vertex 0 71.5 11
    endloop
  endfacet
  facet normal 0 0 1
    outer loop
      vertex -0.905867 71.6193 11
      vertex -0.905867 3.38074 11
      vertex 0 3.5 11
    endloop
  endfacet
  facet normal 0 0 1
    outer loop
      vertex -1.75 71.9689 11
      vertex -0.905867 3.38074 11
      vertex -0.905867 71.6193 11
    endloop
  endfacet
  facet normal 0 0 1
    outer loop
      vertex -1.75 71.9689 11
      vertex -1.75 3.03109 11
      vertex -0.905867 3.38074 11
    endloop
  endfacet
  facet normal 0 0 1
    outer loop
      vertex -2.47487 72.5251 11
      vertex -1.75 3.03109 11
      vertex -1.75 71.9689 11
    endloop
  endfacet
  facet normal 0 0 1
    outer loop
      vertex -2.47487 72.5251 11
      vertex -2.47487 2.47487 11
      vertex -1.75 3.03109 11
    endloop
  endfacet
  facet normal 0 0 1
    outer loop
      vertex -2.5 72.5579 11
      vertex -2.47487 2.47487 11
      vertex -2.47487 72.5251 11
    endloop
  endfacet
  facet normal 0 0 1
    outer loop
      vertex -2.47487 2.47487 11
      vertex -2.5 72.5579 11
      vertex -2.5 2.44213 11
    endloop
  endfacet
  facet normal -0 0 1
    outer loop
      vertex 2.47487 96.6251 11
      vertex 2.5 77.4421 11
      vertex 2.5 96.6579 11
    endloop
  endfacet
  facet normal 0 0 1
    outer loop
      vertex 2.47487 96.6251 11
      vertex 2.47487 77.4749 11
      vertex 2.5 77.4421 11
    endloop
  endfacet
  facet normal -0 0 1
    outer loop
      vertex 1.75 96.0689 11
      vertex 2.47487 77.4749 11
      vertex 2.47487 96.6251 11
    endloop
  endfacet
  facet normal 0 0 1
    outer loop
      vertex 1.75 96.0689 11
      vertex 1.75 78.0311 11
      vertex 2.47487 77.4749 11
    endloop
  endfacet
  facet normal -0 0 1
    outer loop
      vertex 0.905867 95.7193 11
      vertex 1.75 78.0311 11
      vertex 1.75 96.0689 11
    endloop
  endfacet
  facet normal 0 0 1
    outer loop
      vertex 0.905867 95.7193 11
      vertex 0.905867 78.3807 11
      vertex 1.75 78.0311 11
    endloop
  endfacet
  facet normal -0 0 1
    outer loop
      vertex 0 95.6 11
      vertex 0.905867 78.3807 11
      vertex 0.905867 95.7193 11
    endloop
  endfacet
  facet normal 0 0 1
    outer loop
      vertex 0 95.6 11
      vertex 0 78.5 11
      vertex 0.905867 78.3807 11
    endloop
  endfacet
  facet normal 0 0 1
    outer loop
      vertex -0.905867 95.7193 11
      vertex 0 78.5 11
      vertex 0 95.6 11
    endloop
  endfacet
  facet normal 0 0 1
    outer loop
      vertex -0.905867 95.7193 11
      vertex -0.905867 78.3807 11
      vertex 0 78.5 11
    endloop
  endfacet
  facet normal 0 0 1
    outer loop
      vertex -1.75 96.0689 11
      vertex -0.905867 78.3807 11
      vertex -0.905867 95.7193 11
    endloop
  endfacet
  facet normal 0 0 1
    outer loop
      vertex -1.75 96.0689 11
      vertex -1.75 78.0311 11
      vertex -0.905867 78.3807 11
    endloop
  endfacet
  facet normal 0 0 1
    outer loop
      vertex -2.47487 96.6251 11
      vertex -1.75 78.0311 11
      vertex -1.75 96.0689 11
    endloop
  endfacet
  facet normal 0 0 1
    outer loop
      vertex -2.47487 96.6251 11
      vertex -2.47487 77.4749 11
      vertex -1.75 78.0311 11
    endloop
  endfacet
  facet normal 0 0 1
    outer loop
      vertex -2.5 96.6579 11
      vertex -2.47487 77.4749 11
      vertex -2.47487 96.6251 11
    endloop
  endfacet
  facet normal 0 0 1
    outer loop
      vertex -2.47487 77.4749 11
      vertex -2.5 96.6579 11
      vertex -2.5 77.4421 11
    endloop
  endfacet
  facet normal 1 0 0
    outer loop
      vertex 2.5 -2.44213 11
      vertex 2.5 -21.6579 11
      vertex 2.5 -2.44213 6
    endloop
  endfacet
  facet normal 1 0 0
    outer loop
      vertex 2.5 72.5579 11
      vertex 2.5 2.44213 11
      vertex 2.5 72.5579 6
    endloop
  endfacet
  facet normal 1 0 0
    outer loop
      vertex 2.5 77.4421 6
      vertex 2.5 96.6579 11
      vertex 2.5 77.4421 11
    endloop
  endfacet
  facet normal 1 0 0
    outer loop
      vertex 2.5 96.6579 11
      vertex 2.5 77.4421 6
      vertex 2.5 96.6579 3
    endloop
  endfacet
  facet normal 1 -0 0
    outer loop
      vertex 2.5 72.5579 6
      vertex 2.5 96.6579 3
      vertex 2.5 77.4421 6
    endloop
  endfacet
  facet normal 1 0 0
    outer loop
      vertex 2.5 2.44213 6
      vertex 2.5 72.5579 6
      vertex 2.5 2.44213 11
    endloop
  endfacet
  facet normal 1 0 0
    outer loop
      vertex 2.5 72.5579 6
      vertex 2.5 2.44213 6
      vertex 2.5 96.6579 3
    endloop
  endfacet
  facet normal 1 0 0
    outer loop
      vertex 2.5 -21.6579 3
      vertex 2.5 2.44213 6
      vertex 2.5 -2.44213 6
    endloop
  endfacet
  facet normal 1 0 0
    outer loop
      vertex 2.5 2.44213 6
      vertex 2.5 -21.6579 3
      vertex 2.5 96.6579 3
    endloop
  endfacet
  facet normal 1 0 0
    outer loop
      vertex 2.5 -21.6579 3
      vertex 2.5 -2.44213 6
      vertex 2.5 -21.6579 11
    endloop
  endfacet
  facet normal -0.965926 -0.25882 0
    outer loop
      vertex 1.6 -24.1 0
      vertex 1.38564 -23.3 3
      vertex 1.38564 -23.3 0
    endloop
  endfacet
  facet normal -0.965926 -0.25882 0
    outer loop
      vertex 1.38564 -23.3 3
      vertex 1.6 -24.1 0
      vertex 1.6 -24.1 3
    endloop
  endfacet
  facet normal 0.965926 -0.25882 0
    outer loop
      vertex -1.6 -24.1 3
      vertex -1.38564 -23.3 0
      vertex -1.38564 -23.3 3
    endloop
  endfacet
  facet normal 0.965926 -0.25882 0
    outer loop
      vertex -1.38564 -23.3 0
      vertex -1.6 -24.1 3
      vertex -1.6 -24.1 0
    endloop
  endfacet
  facet normal -0.258865 -0.965913 0
    outer loop
      vertex 0 -22.5 0
      vertex 0.799999 -22.7144 3
      vertex 0 -22.5 3
    endloop
  endfacet
  facet normal -0.258865 -0.965913 -0
    outer loop
      vertex 0.799999 -22.7144 3
      vertex 0 -22.5 0
      vertex 0.799999 -22.7144 0
    endloop
  endfacet
  facet normal -0.707082 -0.707132 0
    outer loop
      vertex 0.799999 -22.7144 0
      vertex 1.38564 -23.3 3
      vertex 0.799999 -22.7144 3
    endloop
  endfacet
  facet normal -0.707082 -0.707132 -0
    outer loop
      vertex 1.38564 -23.3 3
      vertex 0.799999 -22.7144 0
      vertex 1.38564 -23.3 0
    endloop
  endfacet
  facet normal 0.965926 0.25882 0
    outer loop
      vertex -1.38564 -24.9 3
      vertex -1.6 -24.1 0
      vertex -1.6 -24.1 3
    endloop
  endfacet
  facet normal 0.965926 0.25882 0
    outer loop
      vertex -1.6 -24.1 0
      vertex -1.38564 -24.9 3
      vertex -1.38564 -24.9 0
    endloop
  endfacet
  facet normal 0.707082 -0.707132 0
    outer loop
      vertex -1.38564 -23.3 0
      vertex -0.799999 -22.7144 3
      vertex -1.38564 -23.3 3
    endloop
  endfacet
  facet normal 0.707082 -0.707132 0
    outer loop
      vertex -0.799999 -22.7144 3
      vertex -1.38564 -23.3 0
      vertex -0.799999 -22.7144 0
    endloop
  endfacet
  facet normal 0.258865 -0.965913 0
    outer loop
      vertex -0.799999 -22.7144 0
      vertex 0 -22.5 3
      vertex -0.799999 -22.7144 3
    endloop
  endfacet
  facet normal 0.258865 -0.965913 0
    outer loop
      vertex 0 -22.5 3
      vertex -0.799999 -22.7144 0
      vertex 0 -22.5 0
    endloop
  endfacet
  facet normal -0.965926 0.25882 0
    outer loop
      vertex 1.38564 -24.9 0
      vertex 1.6 -24.1 3
      vertex 1.6 -24.1 0
    endloop
  endfacet
  facet normal -0.965926 0.25882 0
    outer loop
      vertex 1.6 -24.1 3
      vertex 1.38564 -24.9 0
      vertex 1.38564 -24.9 3
    endloop
  endfacet
  facet normal 0.707082 0.707132 0
    outer loop
      vertex -0.799999 -25.4856 3
      vertex -1.38564 -24.9 0
      vertex -1.38564 -24.9 3
    endloop
  endfacet
  facet normal 0.707082 0.707132 0
    outer loop
      vertex -1.38564 -24.9 0
      vertex -0.799999 -25.4856 3
      vertex -0.799999 -25.4856 0
    endloop
  endfacet
  facet normal -0.707082 0.707132 0
    outer loop
      vertex 0.799999 -25.4856 0
      vertex 1.38564 -24.9 3
      vertex 1.38564 -24.9 0
    endloop
  endfacet
  facet normal -0.707082 0.707132 0
    outer loop
      vertex 1.38564 -24.9 3
      vertex 0.799999 -25.4856 0
      vertex 0.799999 -25.4856 3
    endloop
  endfacet
  facet normal -0.258865 0.965913 0
    outer loop
      vertex 0.799999 -25.4856 0
      vertex 0 -25.7 3
      vertex 0.799999 -25.4856 3
    endloop
  endfacet
  facet normal -0.258865 0.965913 0
    outer loop
      vertex 0 -25.7 3
      vertex 0.799999 -25.4856 0
      vertex 0 -25.7 0
    endloop
  endfacet
  facet normal 0.258865 0.965913 -0
    outer loop
      vertex 0 -25.7 0
      vertex -0.799999 -25.4856 3
      vertex 0 -25.7 3
    endloop
  endfacet
  facet normal 0.258865 0.965913 0
    outer loop
      vertex -0.799999 -25.4856 3
      vertex 0 -25.7 0
      vertex -0.799999 -25.4856 0
    endloop
  endfacet
  facet normal -0.382635 -0.923899 0
    outer loop
      vertex 0.905867 -20.7193 3
      vertex 1.75 -21.0689 11
      vertex 0.905867 -20.7193 11
    endloop
  endfacet
  facet normal -0.382635 -0.923899 -0
    outer loop
      vertex 1.75 -21.0689 11
      vertex 0.905867 -20.7193 3
      vertex 1.75 -21.0689 3
    endloop
  endfacet
  facet normal -0.13057 -0.991439 0
    outer loop
      vertex 0 -20.6 3
      vertex 0.905867 -20.7193 11
      vertex 0 -20.6 11
    endloop
  endfacet
  facet normal -0.13057 -0.991439 -0
    outer loop
      vertex 0.905867 -20.7193 11
      vertex 0 -20.6 3
      vertex 0.905867 -20.7193 3
    endloop
  endfacet
  facet normal 0.382635 -0.923899 0
    outer loop
      vertex -1.75 -21.0689 3
      vertex -0.905867 -20.7193 11
      vertex -1.75 -21.0689 11
    endloop
  endfacet
  facet normal 0.382635 -0.923899 0
    outer loop
      vertex -0.905867 -20.7193 11
      vertex -1.75 -21.0689 3
      vertex -0.905867 -20.7193 3
    endloop
  endfacet
  facet normal 0.608753 -0.79336 0
    outer loop
      vertex -2.47487 -21.6251 3
      vertex -1.75 -21.0689 11
      vertex -2.47487 -21.6251 11
    endloop
  endfacet
  facet normal 0.608753 -0.79336 0
    outer loop
      vertex -1.75 -21.0689 11
      vertex -2.47487 -21.6251 3
      vertex -1.75 -21.0689 3
    endloop
  endfacet
  facet normal -0.793801 -0.608177 0
    outer loop
      vertex 2.5 -21.6579 3
      vertex 2.47487 -21.6251 11
      vertex 2.47487 -21.6251 3
    endloop
  endfacet
  facet normal -0.793801 -0.608177 0
    outer loop
      vertex 2.47487 -21.6251 11
      vertex 2.5 -21.6579 3
      vertex 2.5 -21.6579 11
    endloop
  endfacet
  facet normal -0.608753 -0.79336 0
    outer loop
      vertex 1.75 -21.0689 3
      vertex 2.47487 -21.6251 11
      vertex 1.75 -21.0689 11
    endloop
  endfacet
  facet normal -0.608753 -0.79336 -0
    outer loop
      vertex 2.47487 -21.6251 11
      vertex 1.75 -21.0689 3
      vertex 2.47487 -21.6251 3
    endloop
  endfacet
  facet normal 0.793801 -0.608177 0
    outer loop
      vertex -2.5 -21.6579 11
      vertex -2.47487 -21.6251 3
      vertex -2.47487 -21.6251 11
    endloop
  endfacet
  facet normal 0.793801 -0.608177 0
    outer loop
      vertex -2.47487 -21.6251 3
      vertex -2.5 -21.6579 11
      vertex -2.5 -21.6579 3
    endloop
  endfacet
  facet normal 0.13057 -0.991439 0
    outer loop
      vertex -0.905867 -20.7193 3
      vertex 0 -20.6 11
      vertex -0.905867 -20.7193 11
    endloop
  endfacet
  facet normal 0.13057 -0.991439 0
    outer loop
      vertex 0 -20.6 11
      vertex -0.905867 -20.7193 3
      vertex 0 -20.6 3
    endloop
  endfacet
  facet normal -0.965926 -0.25882 0
    outer loop
      vertex 7.6 29 0
      vertex 7.38564 29.8 3
      vertex 7.38564 29.8 0
    endloop
  endfacet
  facet normal -0.965926 -0.25882 0
    outer loop
      vertex 7.38564 29.8 3
      vertex 7.6 29 0
      vertex 7.6 29 3
    endloop
  endfacet
  facet normal 0.258865 -0.965914 0
    outer loop
      vertex 5.2 30.3856 0
      vertex 6 30.6 3
      vertex 5.2 30.3856 3
    endloop
  endfacet
  facet normal 0.258865 -0.965914 0
    outer loop
      vertex 6 30.6 3
      vertex 5.2 30.3856 0
      vertex 6 30.6 0
    endloop
  endfacet
  facet normal -0.258865 0.965914 0
    outer loop
      vertex 6.8 27.6144 0
      vertex 6 27.4 3
      vertex 6.8 27.6144 3
    endloop
  endfacet
  facet normal -0.258865 0.965914 0
    outer loop
      vertex 6 27.4 3
      vertex 6.8 27.6144 0
      vertex 6 27.4 0
    endloop
  endfacet
  facet normal -0.258865 -0.965914 0
    outer loop
      vertex 6 30.6 0
      vertex 6.8 30.3856 3
      vertex 6 30.6 3
    endloop
  endfacet
  facet normal -0.258865 -0.965914 -0
    outer loop
      vertex 6.8 30.3856 3
      vertex 6 30.6 0
      vertex 6.8 30.3856 0
    endloop
  endfacet
  facet normal -0.707083 -0.707131 0
    outer loop
      vertex 6.8 30.3856 0
      vertex 7.38564 29.8 3
      vertex 6.8 30.3856 3
    endloop
  endfacet
  facet normal -0.707083 -0.707131 -0
    outer loop
      vertex 7.38564 29.8 3
      vertex 6.8 30.3856 0
      vertex 7.38564 29.8 0
    endloop
  endfacet
  facet normal 0.965926 -0.25882 0
    outer loop
      vertex 4.4 29 3
      vertex 4.61436 29.8 0
      vertex 4.61436 29.8 3
    endloop
  endfacet
  facet normal 0.965926 -0.25882 0
    outer loop
      vertex 4.61436 29.8 0
      vertex 4.4 29 3
      vertex 4.4 29 0
    endloop
  endfacet
  facet normal 0.965926 0.25882 0
    outer loop
      vertex 4.61436 28.2 3
      vertex 4.4 29 0
      vertex 4.4 29 3
    endloop
  endfacet
  facet normal 0.965926 0.25882 0
    outer loop
      vertex 4.4 29 0
      vertex 4.61436 28.2 3
      vertex 4.61436 28.2 0
    endloop
  endfacet
  facet normal 0.707083 -0.707131 0
    outer loop
      vertex 4.61436 29.8 0
      vertex 5.2 30.3856 3
      vertex 4.61436 29.8 3
    endloop
  endfacet
  facet normal 0.707083 -0.707131 0
    outer loop
      vertex 5.2 30.3856 3
      vertex 4.61436 29.8 0
      vertex 5.2 30.3856 0
    endloop
  endfacet
  facet normal -0.707083 0.707131 0
    outer loop
      vertex 6.8 27.6144 0
      vertex 7.38564 28.2 3
      vertex 7.38564 28.2 0
    endloop
  endfacet
  facet normal -0.707083 0.707131 0
    outer loop
      vertex 7.38564 28.2 3
      vertex 6.8 27.6144 0
      vertex 6.8 27.6144 3
    endloop
  endfacet
  facet normal 0.258865 0.965914 -0
    outer loop
      vertex 6 27.4 0
      vertex 5.2 27.6144 3
      vertex 6 27.4 3
    endloop
  endfacet
  facet normal 0.258865 0.965914 0
    outer loop
      vertex 5.2 27.6144 3
      vertex 6 27.4 0
      vertex 5.2 27.6144 0
    endloop
  endfacet
  facet normal 0.707083 0.707131 0
    outer loop
      vertex 5.2 27.6144 3
      vertex 4.61436 28.2 0
      vertex 4.61436 28.2 3
    endloop
  endfacet
  facet normal 0.707083 0.707131 0
    outer loop
      vertex 4.61436 28.2 0
      vertex 5.2 27.6144 3
      vertex 5.2 27.6144 0
    endloop
  endfacet
  facet normal -0.965926 0.25882 0
    outer loop
      vertex 7.38564 28.2 0
      vertex 7.6 29 3
      vertex 7.6 29 0
    endloop
  endfacet
  facet normal -0.965926 0.25882 0
    outer loop
      vertex 7.6 29 3
      vertex 7.38564 28.2 0
      vertex 7.38564 28.2 3
    endloop
  endfacet
  facet normal -0.965924 -0.258826 0
    outer loop
      vertex 1.4 0 0
      vertex 1.21243 0.7 6
      vertex 1.21243 0.7 0
    endloop
  endfacet
  facet normal -0.965924 -0.258826 0
    outer loop
      vertex 1.21243 0.7 6
      vertex 1.4 0 0
      vertex 1.4 0 6
    endloop
  endfacet
  facet normal 0.965924 -0.258826 0
    outer loop
      vertex -1.4 0 6
      vertex -1.21243 0.7 0
      vertex -1.21243 0.7 6
    endloop
  endfacet
  facet normal 0.965924 -0.258826 0
    outer loop
      vertex -1.21243 0.7 0
      vertex -1.4 0 6
      vertex -1.4 0 0
    endloop
  endfacet
  facet normal -0.258826 -0.965924 0
    outer loop
      vertex 0 1.4 0
      vertex 0.7 1.21243 6
      vertex 0 1.4 6
    endloop
  endfacet
  facet normal -0.258826 -0.965924 -0
    outer loop
      vertex 0.7 1.21243 6
      vertex 0 1.4 0
      vertex 0.7 1.21243 0
    endloop
  endfacet
  facet normal -0.707107 -0.707107 0
    outer loop
      vertex 1.21243 0.7 0
      vertex 0.7 1.21243 6
      vertex 0.7 1.21243 0
    endloop
  endfacet
  facet normal -0.707107 -0.707107 0
    outer loop
      vertex 0.7 1.21243 6
      vertex 1.21243 0.7 0
      vertex 1.21243 0.7 6
    endloop
  endfacet
  facet normal 0.258826 -0.965924 0
    outer loop
      vertex -0.7 1.21243 0
      vertex 0 1.4 6
      vertex -0.7 1.21243 6
    endloop
  endfacet
  facet normal 0.258826 -0.965924 0
    outer loop
      vertex 0 1.4 6
      vertex -0.7 1.21243 0
      vertex 0 1.4 0
    endloop
  endfacet
  facet normal -0.258826 0.965924 0
    outer loop
      vertex 0.7 -1.21243 0
      vertex 0 -1.4 6
      vertex 0.7 -1.21243 6
    endloop
  endfacet
  facet normal -0.258826 0.965924 0
    outer loop
      vertex 0 -1.4 6
      vertex 0.7 -1.21243 0
      vertex 0 -1.4 0
    endloop
  endfacet
  facet normal 0.258826 0.965924 -0
    outer loop
      vertex 0 -1.4 0
      vertex -0.7 -1.21243 6
      vertex 0 -1.4 6
    endloop
  endfacet
  facet normal 0.258826 0.965924 0
    outer loop
      vertex -0.7 -1.21243 6
      vertex 0 -1.4 0
      vertex -0.7 -1.21243 0
    endloop
  endfacet
  facet normal 0.965924 0.258826 0
    outer loop
      vertex -1.21243 -0.7 6
      vertex -1.4 0 0
      vertex -1.4 0 6
    endloop
  endfacet
  facet normal 0.965924 0.258826 0
    outer loop
      vertex -1.4 0 0
      vertex -1.21243 -0.7 6
      vertex -1.21243 -0.7 0
    endloop
  endfacet
  facet normal 0.707107 0.707107 0
    outer loop
      vertex -0.7 -1.21243 6
      vertex -1.21243 -0.7 0
      vertex -1.21243 -0.7 6
    endloop
  endfacet
  facet normal 0.707107 0.707107 0
    outer loop
      vertex -1.21243 -0.7 0
      vertex -0.7 -1.21243 6
      vertex -0.7 -1.21243 0
    endloop
  endfacet
  facet normal 0.707107 -0.707107 0
    outer loop
      vertex -1.21243 0.7 6
      vertex -0.7 1.21243 0
      vertex -0.7 1.21243 6
    endloop
  endfacet
  facet normal 0.707107 -0.707107 0
    outer loop
      vertex -0.7 1.21243 0
      vertex -1.21243 0.7 6
      vertex -1.21243 0.7 0
    endloop
  endfacet
  facet normal -0.707107 0.707107 0
    outer loop
      vertex 0.7 -1.21243 0
      vertex 1.21243 -0.7 6
      vertex 1.21243 -0.7 0
    endloop
  endfacet
  facet normal -0.707107 0.707107 0
    outer loop
      vertex 1.21243 -0.7 6
      vertex 0.7 -1.21243 0
      vertex 0.7 -1.21243 6
    endloop
  endfacet
  facet normal -0.965924 0.258826 0
    outer loop
      vertex 1.21243 -0.7 0
      vertex 1.4 0 6
      vertex 1.4 0 0
    endloop
  endfacet
  facet normal -0.965924 0.258826 0
    outer loop
      vertex 1.4 0 6
      vertex 1.21243 -0.7 0
      vertex 1.21243 -0.7 6
    endloop
  endfacet
  facet normal -0.130527 -0.991445 0
    outer loop
      vertex 0 3.5 6
      vertex 0.905867 3.38074 11
      vertex 0 3.5 11
    endloop
  endfacet
  facet normal -0.130527 -0.991445 -0
    outer loop
      vertex 0.905867 3.38074 11
      vertex 0 3.5 6
      vertex 0.905867 3.38074 6
    endloop
  endfacet
  facet normal -0.608767 -0.793349 0
    outer loop
      vertex 1.75 3.03109 6
      vertex 2.47487 2.47487 11
      vertex 1.75 3.03109 11
    endloop
  endfacet
  facet normal -0.608767 -0.793349 -0
    outer loop
      vertex 2.47487 2.47487 11
      vertex 1.75 3.03109 6
      vertex 2.47487 2.47487 6
    endloop
  endfacet
  facet normal -0.382682 -0.92388 0
    outer loop
      vertex 0.905867 3.38074 6
      vertex 1.75 3.03109 11
      vertex 0.905867 3.38074 11
    endloop
  endfacet
  facet normal -0.382682 -0.92388 -0
    outer loop
      vertex 1.75 3.03109 11
      vertex 0.905867 3.38074 6
      vertex 1.75 3.03109 6
    endloop
  endfacet
  facet normal 0.608767 -0.793349 0
    outer loop
      vertex -2.47487 2.47487 6
      vertex -1.75 3.03109 11
      vertex -2.47487 2.47487 11
    endloop
  endfacet
  facet normal 0.608767 -0.793349 0
    outer loop
      vertex -1.75 3.03109 11
      vertex -2.47487 2.47487 6
      vertex -1.75 3.03109 6
    endloop
  endfacet
  facet normal 0.793263 -0.608879 0
    outer loop
      vertex -2.5 2.44213 11
      vertex -2.47487 2.47487 6
      vertex -2.47487 2.47487 11
    endloop
  endfacet
  facet normal 0.793263 -0.608879 0
    outer loop
      vertex -2.47487 2.47487 6
      vertex -2.5 2.44213 11
      vertex -2.5 2.44213 6
    endloop
  endfacet
  facet normal 0.382682 -0.92388 0
    outer loop
      vertex -1.75 3.03109 6
      vertex -0.905867 3.38074 11
      vertex -1.75 3.03109 11
    endloop
  endfacet
  facet normal 0.382682 -0.92388 0
    outer loop
      vertex -0.905867 3.38074 11
      vertex -1.75 3.03109 6
      vertex -0.905867 3.38074 6
    endloop
  endfacet
  facet normal 0.608767 0.793349 -0
    outer loop
      vertex -1.75 -3.03109 6
      vertex -2.47487 -2.47487 11
      vertex -1.75 -3.03109 11
    endloop
  endfacet
  facet normal 0.608767 0.793349 0
    outer loop
      vertex -2.47487 -2.47487 11
      vertex -1.75 -3.03109 6
      vertex -2.47487 -2.47487 6
    endloop
  endfacet
  facet normal 0 0 1
    outer loop
      vertex 0.7 1.21243 6
      vertex 2.5 2.44213 6
      vertex 2.47487 2.47487 6
    endloop
  endfacet
  facet normal 0 0 1
    outer loop
      vertex 2.5 2.44213 6
      vertex 1.4 0 6
      vertex 2.5 -2.44213 6
    endloop
  endfacet
  facet normal 0 0 1
    outer loop
      vertex 0.7 1.21243 6
      vertex 2.47487 2.47487 6
      vertex 1.75 3.03109 6
    endloop
  endfacet
  facet normal -0 0 1
    outer loop
      vertex 1.21243 -0.7 6
      vertex 2.5 -2.44213 6
      vertex 1.4 0 6
    endloop
  endfacet
  facet normal -0 0 1
    outer loop
      vertex 0.7 -1.21243 6
      vertex 2.5 -2.44213 6
      vertex 1.21243 -0.7 6
    endloop
  endfacet
  facet normal 0 0 1
    outer loop
      vertex 2.5 2.44213 6
      vertex 1.21243 0.7 6
      vertex 1.4 0 6
    endloop
  endfacet
  facet normal 0 0 1
    outer loop
      vertex 0.7 1.21243 6
      vertex 1.75 3.03109 6
      vertex 0.905867 3.38074 6
    endloop
  endfacet
  facet normal 0 0 1
    outer loop
      vertex 2.5 2.44213 6
      vertex 0.7 1.21243 6
      vertex 1.21243 0.7 6
    endloop
  endfacet
  facet normal 0 0 1
    outer loop
      vertex 0 1.4 6
      vertex 0.905867 3.38074 6
      vertex 0 3.5 6
    endloop
  endfacet
  facet normal 0 0 1
    outer loop
      vertex 0.905867 3.38074 6
      vertex 0 1.4 6
      vertex 0.7 1.21243 6
    endloop
  endfacet
  facet normal -0 0 1
    outer loop
      vertex -0.905867 3.38074 6
      vertex 0 1.4 6
      vertex 0 3.5 6
    endloop
  endfacet
  facet normal 0 0 1
    outer loop
      vertex 0 1.4 6
      vertex -0.905867 3.38074 6
      vertex -0.7 1.21243 6
    endloop
  endfacet
  facet normal -0 0 1
    outer loop
      vertex -1.75 3.03109 6
      vertex -0.7 1.21243 6
      vertex -0.905867 3.38074 6
    endloop
  endfacet
  facet normal -0 0 1
    outer loop
      vertex -2.47487 2.47487 6
      vertex -0.7 1.21243 6
      vertex -1.75 3.03109 6
    endloop
  endfacet
  facet normal -0 0 1
    outer loop
      vertex -2.5 2.44213 6
      vertex -0.7 1.21243 6
      vertex -2.47487 2.47487 6
    endloop
  endfacet
  facet normal 0 0 1
    outer loop
      vertex 2.5 -2.44213 6
      vertex 0.7 -1.21243 6
      vertex 2.47487 -2.47487 6
    endloop
  endfacet
  facet normal 0 0 1
    outer loop
      vertex 2.47487 -2.47487 6
      vertex 0.7 -1.21243 6
      vertex 1.75 -3.03109 6
    endloop
  endfacet
  facet normal 0 0 1
    outer loop
      vertex 1.75 -3.03109 6
      vertex 0.7 -1.21243 6
      vertex 0.905867 -3.38074 6
    endloop
  endfacet
  facet normal -0 0 1
    outer loop
      vertex 0 -1.4 6
      vertex 0.905867 -3.38074 6
      vertex 0.7 -1.21243 6
    endloop
  endfacet
  facet normal 0 0 1
    outer loop
      vertex 0 -1.4 6
      vertex 0 -3.5 6
      vertex 0.905867 -3.38074 6
    endloop
  endfacet
  facet normal 0 0 1
    outer loop
      vertex -0.905867 -3.38074 6
      vertex 0 -1.4 6
      vertex -0.7 -1.21243 6
    endloop
  endfacet
  facet normal 0 0 1
    outer loop
      vertex 0 -1.4 6
      vertex -0.905867 -3.38074 6
      vertex 0 -3.5 6
    endloop
  endfacet
  facet normal 0 0 1
    outer loop
      vertex -2.5 -2.44213 6
      vertex -0.7 -1.21243 6
      vertex -1.21243 -0.7 6
    endloop
  endfacet
  facet normal 0 0 1
    outer loop
      vertex -2.5 -2.44213 6
      vertex -1.21243 -0.7 6
      vertex -1.4 0 6
    endloop
  endfacet
  facet normal 0 0 1
    outer loop
      vertex -0.7 -1.21243 6
      vertex -1.75 -3.03109 6
      vertex -0.905867 -3.38074 6
    endloop
  endfacet
  facet normal 0 0 1
    outer loop
      vertex -0.7 1.21243 6
      vertex -2.5 2.44213 6
      vertex -1.21243 0.7 6
    endloop
  endfacet
  facet normal 0 0 1
    outer loop
      vertex -1.21243 0.7 6
      vertex -2.5 2.44213 6
      vertex -1.4 0 6
    endloop
  endfacet
  facet normal 0 0 1
    outer loop
      vertex -2.5 -2.44213 6
      vertex -1.4 0 6
      vertex -2.5 2.44213 6
    endloop
  endfacet
  facet normal 0 0 1
    outer loop
      vertex -0.7 -1.21243 6
      vertex -2.5 -2.44213 6
      vertex -2.47487 -2.47487 6
    endloop
  endfacet
  facet normal 0 0 1
    outer loop
      vertex -0.7 -1.21243 6
      vertex -2.47487 -2.47487 6
      vertex -1.75 -3.03109 6
    endloop
  endfacet
  facet normal -0.793263 -0.608879 0
    outer loop
      vertex 2.5 2.44213 6
      vertex 2.47487 2.47487 11
      vertex 2.47487 2.47487 6
    endloop
  endfacet
  facet normal -0.793263 -0.608879 0
    outer loop
      vertex 2.47487 2.47487 11
      vertex 2.5 2.44213 6
      vertex 2.5 2.44213 11
    endloop
  endfacet
  facet normal 0.130527 -0.991445 0
    outer loop
      vertex -0.905867 3.38074 6
      vertex 0 3.5 11
      vertex -0.905867 3.38074 11
    endloop
  endfacet
  facet normal 0.130527 -0.991445 0
    outer loop
      vertex 0 3.5 11
      vertex -0.905867 3.38074 6
      vertex 0 3.5 6
    endloop
  endfacet
  facet normal -0.130527 0.991445 0
    outer loop
      vertex 0.905867 -3.38074 6
      vertex 0 -3.5 11
      vertex 0.905867 -3.38074 11
    endloop
  endfacet
  facet normal -0.130527 0.991445 0
    outer loop
      vertex 0 -3.5 11
      vertex 0.905867 -3.38074 6
      vertex 0 -3.5 6
    endloop
  endfacet
  facet normal -0.608767 0.793349 0
    outer loop
      vertex 2.47487 -2.47487 6
      vertex 1.75 -3.03109 11
      vertex 2.47487 -2.47487 11
    endloop
  endfacet
  facet normal -0.608767 0.793349 0
    outer loop
      vertex 1.75 -3.03109 11
      vertex 2.47487 -2.47487 6
      vertex 1.75 -3.03109 6
    endloop
  endfacet
  facet normal 0.382682 0.92388 -0
    outer loop
      vertex -0.905867 -3.38074 6
      vertex -1.75 -3.03109 11
      vertex -0.905867 -3.38074 11
    endloop
  endfacet
  facet normal 0.382682 0.92388 0
    outer loop
      vertex -1.75 -3.03109 11
      vertex -0.905867 -3.38074 6
      vertex -1.75 -3.03109 6
    endloop
  endfacet
  facet normal 0.793263 0.608879 0
    outer loop
      vertex -2.47487 -2.47487 11
      vertex -2.5 -2.44213 6
      vertex -2.5 -2.44213 11
    endloop
  endfacet
  facet normal 0.793263 0.608879 0
    outer loop
      vertex -2.5 -2.44213 6
      vertex -2.47487 -2.47487 11
      vertex -2.47487 -2.47487 6
    endloop
  endfacet
  facet normal -0.382682 0.92388 0
    outer loop
      vertex 1.75 -3.03109 6
      vertex 0.905867 -3.38074 11
      vertex 1.75 -3.03109 11
    endloop
  endfacet
  facet normal -0.382682 0.92388 0
    outer loop
      vertex 0.905867 -3.38074 11
      vertex 1.75 -3.03109 6
      vertex 0.905867 -3.38074 6
    endloop
  endfacet
  facet normal -0.793263 0.608879 0
    outer loop
      vertex 2.47487 -2.47487 6
      vertex 2.5 -2.44213 11
      vertex 2.5 -2.44213 6
    endloop
  endfacet
  facet normal -0.793263 0.608879 0
    outer loop
      vertex 2.5 -2.44213 11
      vertex 2.47487 -2.47487 6
      vertex 2.47487 -2.47487 11
    endloop
  endfacet
  facet normal 0.130527 0.991445 -0
    outer loop
      vertex 0 -3.5 6
      vertex -0.905867 -3.38074 11
      vertex 0 -3.5 11
    endloop
  endfacet
  facet normal 0.130527 0.991445 0
    outer loop
      vertex -0.905867 -3.38074 11
      vertex 0 -3.5 6
      vertex -0.905867 -3.38074 6
    endloop
  endfacet
  facet normal 0.965926 0.25882 0
    outer loop
      vertex -1.38564 98.3 3
      vertex -1.6 99.1 0
      vertex -1.6 99.1 3
    endloop
  endfacet
  facet normal 0.965926 0.25882 0
    outer loop
      vertex -1.6 99.1 0
      vertex -1.38564 98.3 3
      vertex -1.38564 98.3 0
    endloop
  endfacet
  facet normal -0.965926 0.25882 0
    outer loop
      vertex 1.38564 98.3 0
      vertex 1.6 99.1 3
      vertex 1.6 99.1 0
    endloop
  endfacet
  facet normal -0.965926 0.25882 0
    outer loop
      vertex 1.6 99.1 3
      vertex 1.38564 98.3 0
      vertex 1.38564 98.3 3
    endloop
  endfacet
  facet normal 0.258865 0.965913 -0
    outer loop
      vertex 0 97.5 0
      vertex -0.799999 97.7144 3
      vertex 0 97.5 3
    endloop
  endfacet
  facet normal 0.258865 0.965913 0
    outer loop
      vertex -0.799999 97.7144 3
      vertex 0 97.5 0
      vertex -0.799999 97.7144 0
    endloop
  endfacet
  facet normal 0.707082 0.707132 0
    outer loop
      vertex -0.799999 97.7144 3
      vertex -1.38564 98.3 0
      vertex -1.38564 98.3 3
    endloop
  endfacet
  facet normal 0.707082 0.707132 0
    outer loop
      vertex -1.38564 98.3 0
      vertex -0.799999 97.7144 3
      vertex -0.799999 97.7144 0
    endloop
  endfacet
  facet normal 0.258414 -0.966034 0
    outer loop
      vertex -0.799999 100.486 0
      vertex 0 100.7 3
      vertex -0.799999 100.486 3
    endloop
  endfacet
  facet normal 0.258414 -0.966034 0
    outer loop
      vertex 0 100.7 3
      vertex -0.799999 100.486 0
      vertex 0 100.7 0
    endloop
  endfacet
  facet normal -0.258414 -0.966034 0
    outer loop
      vertex 0 100.7 0
      vertex 0.799999 100.486 3
      vertex 0 100.7 3
    endloop
  endfacet
  facet normal -0.258414 -0.966034 -0
    outer loop
      vertex 0.799999 100.486 3
      vertex 0 100.7 0
      vertex 0.799999 100.486 0
    endloop
  endfacet
  facet normal -0.965926 -0.25882 0
    outer loop
      vertex 1.6 99.1 0
      vertex 1.38564 99.9 3
      vertex 1.38564 99.9 0
    endloop
  endfacet
  facet normal -0.965926 -0.25882 0
    outer loop
      vertex 1.38564 99.9 3
      vertex 1.6 99.1 0
      vertex 1.6 99.1 3
    endloop
  endfacet
  facet normal -0.258865 0.965913 0
    outer loop
      vertex 0.799999 97.7144 0
      vertex 0 97.5 3
      vertex 0.799999 97.7144 3
    endloop
  endfacet
  facet normal -0.258865 0.965913 0
    outer loop
      vertex 0 97.5 3
      vertex 0.799999 97.7144 0
      vertex 0 97.5 0
    endloop
  endfacet
  facet normal -0.707082 0.707132 0
    outer loop
      vertex 0.799999 97.7144 0
      vertex 1.38564 98.3 3
      vertex 1.38564 98.3 0
    endloop
  endfacet
  facet normal -0.707082 0.707132 0
    outer loop
      vertex 1.38564 98.3 3
      vertex 0.799999 97.7144 0
      vertex 0.799999 97.7144 3
    endloop
  endfacet
  facet normal -0.707323 -0.70689 0
    outer loop
      vertex 0.799999 100.486 0
      vertex 1.38564 99.9 3
      vertex 0.799999 100.486 3
    endloop
  endfacet
  facet normal -0.707323 -0.70689 -0
    outer loop
      vertex 1.38564 99.9 3
      vertex 0.799999 100.486 0
      vertex 1.38564 99.9 0
    endloop
  endfacet
  facet normal 0.707323 -0.70689 0
    outer loop
      vertex -1.38564 99.9 0
      vertex -0.799999 100.486 3
      vertex -1.38564 99.9 3
    endloop
  endfacet
  facet normal 0.707323 -0.70689 0
    outer loop
      vertex -0.799999 100.486 3
      vertex -1.38564 99.9 0
      vertex -0.799999 100.486 0
    endloop
  endfacet
  facet normal 0.965926 -0.25882 0
    outer loop
      vertex -1.6 99.1 3
      vertex -1.38564 99.9 0
      vertex -1.38564 99.9 3
    endloop
  endfacet
  facet normal 0.965926 -0.25882 0
    outer loop
      vertex -1.38564 99.9 0
      vertex -1.6 99.1 3
      vertex -1.6 99.1 0
    endloop
  endfacet
  facet normal 0.13057 0.991439 -0
    outer loop
      vertex 0 95.6 3
      vertex -0.905867 95.7193 11
      vertex 0 95.6 11
    endloop
  endfacet
  facet normal 0.13057 0.991439 0
    outer loop
      vertex -0.905867 95.7193 11
      vertex 0 95.6 3
      vertex -0.905867 95.7193 3
    endloop
  endfacet
  facet normal 0.608753 0.79336 -0
    outer loop
      vertex -1.75 96.0689 3
      vertex -2.47487 96.6251 11
      vertex -1.75 96.0689 11
    endloop
  endfacet
  facet normal 0.608753 0.79336 0
    outer loop
      vertex -2.47487 96.6251 11
      vertex -1.75 96.0689 3
      vertex -2.47487 96.6251 3
    endloop
  endfacet
  facet normal 0.382635 0.923899 -0
    outer loop
      vertex -0.905867 95.7193 3
      vertex -1.75 96.0689 11
      vertex -0.905867 95.7193 11
    endloop
  endfacet
  facet normal 0.382635 0.923899 0
    outer loop
      vertex -1.75 96.0689 11
      vertex -0.905867 95.7193 3
      vertex -1.75 96.0689 3
    endloop
  endfacet
  facet normal -0.608753 0.79336 0
    outer loop
      vertex 2.47487 96.6251 3
      vertex 1.75 96.0689 11
      vertex 2.47487 96.6251 11
    endloop
  endfacet
  facet normal -0.608753 0.79336 0
    outer loop
      vertex 1.75 96.0689 11
      vertex 2.47487 96.6251 3
      vertex 1.75 96.0689 3
    endloop
  endfacet
  facet normal -0.793801 0.608177 0
    outer loop
      vertex 2.47487 96.6251 3
      vertex 2.5 96.6579 11
      vertex 2.5 96.6579 3
    endloop
  endfacet
  facet normal -0.793801 0.608177 0
    outer loop
      vertex 2.5 96.6579 11
      vertex 2.47487 96.6251 3
      vertex 2.47487 96.6251 11
    endloop
  endfacet
  facet normal -0.382635 0.923899 0
    outer loop
      vertex 1.75 96.0689 3
      vertex 0.905867 95.7193 11
      vertex 1.75 96.0689 11
    endloop
  endfacet
  facet normal -0.382635 0.923899 0
    outer loop
      vertex 0.905867 95.7193 11
      vertex 1.75 96.0689 3
      vertex 0.905867 95.7193 3
    endloop
  endfacet
  facet normal 0.793801 0.608177 0
    outer loop
      vertex -2.47487 96.6251 11
      vertex -2.5 96.6579 3
      vertex -2.5 96.6579 11
    endloop
  endfacet
  facet normal 0.793801 0.608177 0
    outer loop
      vertex -2.5 96.6579 3
      vertex -2.47487 96.6251 11
      vertex -2.47487 96.6251 3
    endloop
  endfacet
  facet normal -0.13057 0.991439 0
    outer loop
      vertex 0.905867 95.7193 3
      vertex 0 95.6 11
      vertex 0.905867 95.7193 11
    endloop
  endfacet
  facet normal -0.13057 0.991439 0
    outer loop
      vertex 0 95.6 11
      vertex 0.905867 95.7193 3
      vertex 0 95.6 3
    endloop
  endfacet
  facet normal 0.965926 0.25882 0
    outer loop
      vertex -7.38564 45.2 3
      vertex -7.6 46 0
      vertex -7.6 46 3
    endloop
  endfacet
  facet normal 0.965926 0.25882 0
    outer loop
      vertex -7.6 46 0
      vertex -7.38564 45.2 3
      vertex -7.38564 45.2 0
    endloop
  endfacet
  facet normal -0.258865 0.965914 0
    outer loop
      vertex -5.2 44.6144 0
      vertex -6 44.4 3
      vertex -5.2 44.6144 3
    endloop
  endfacet
  facet normal -0.258865 0.965914 0
    outer loop
      vertex -6 44.4 3
      vertex -5.2 44.6144 0
      vertex -6 44.4 0
    endloop
  endfacet
  facet normal 0.258865 0.965914 -0
    outer loop
      vertex -6 44.4 0
      vertex -6.8 44.6144 3
      vertex -6 44.4 3
    endloop
  endfacet
  facet normal 0.258865 0.965914 0
    outer loop
      vertex -6.8 44.6144 3
      vertex -6 44.4 0
      vertex -6.8 44.6144 0
    endloop
  endfacet
  facet normal 0.707083 0.707131 -0
    outer loop
      vertex -6.8 44.6144 0
      vertex -7.38564 45.2 3
      vertex -6.8 44.6144 3
    endloop
  endfacet
  facet normal 0.707083 0.707131 0
    outer loop
      vertex -7.38564 45.2 3
      vertex -6.8 44.6144 0
      vertex -7.38564 45.2 0
    endloop
  endfacet
  facet normal -0.707083 0.707131 0
    outer loop
      vertex -4.61436 45.2 0
      vertex -5.2 44.6144 3
      vertex -4.61436 45.2 3
    endloop
  endfacet
  facet normal -0.707083 0.707131 0
    outer loop
      vertex -5.2 44.6144 3
      vertex -4.61436 45.2 0
      vertex -5.2 44.6144 0
    endloop
  endfacet
  facet normal -0.965926 -0.25882 0
    outer loop
      vertex -4.4 46 0
      vertex -4.61436 46.8 3
      vertex -4.61436 46.8 0
    endloop
  endfacet
  facet normal -0.965926 -0.25882 0
    outer loop
      vertex -4.61436 46.8 3
      vertex -4.4 46 0
      vertex -4.4 46 3
    endloop
  endfacet
  facet normal -0.965926 0.25882 0
    outer loop
      vertex -4.61436 45.2 0
      vertex -4.4 46 3
      vertex -4.4 46 0
    endloop
  endfacet
  facet normal -0.965926 0.25882 0
    outer loop
      vertex -4.4 46 3
      vertex -4.61436 45.2 0
      vertex -4.61436 45.2 3
    endloop
  endfacet
  facet normal -0.707083 -0.707131 0
    outer loop
      vertex -4.61436 46.8 0
      vertex -5.2 47.3856 3
      vertex -5.2 47.3856 0
    endloop
  endfacet
  facet normal -0.707083 -0.707131 0
    outer loop
      vertex -5.2 47.3856 3
      vertex -4.61436 46.8 0
      vertex -4.61436 46.8 3
    endloop
  endfacet
  facet normal 0.707083 -0.707131 0
    outer loop
      vertex -7.38564 46.8 3
      vertex -6.8 47.3856 0
      vertex -6.8 47.3856 3
    endloop
  endfacet
  facet normal 0.707083 -0.707131 0
    outer loop
      vertex -6.8 47.3856 0
      vertex -7.38564 46.8 3
      vertex -7.38564 46.8 0
    endloop
  endfacet
  facet normal 0.965926 -0.25882 0
    outer loop
      vertex -7.6 46 3
      vertex -7.38564 46.8 0
      vertex -7.38564 46.8 3
    endloop
  endfacet
  facet normal 0.965926 -0.25882 0
    outer loop
      vertex -7.38564 46.8 0
      vertex -7.6 46 3
      vertex -7.6 46 0
    endloop
  endfacet
  facet normal 0.258865 -0.965914 0
    outer loop
      vertex -6.8 47.3856 0
      vertex -6 47.6 3
      vertex -6.8 47.3856 3
    endloop
  endfacet
  facet normal 0.258865 -0.965914 0
    outer loop
      vertex -6 47.6 3
      vertex -6.8 47.3856 0
      vertex -6 47.6 0
    endloop
  endfacet
  facet normal -0.258865 -0.965914 0
    outer loop
      vertex -6 47.6 0
      vertex -5.2 47.3856 3
      vertex -6 47.6 3
    endloop
  endfacet
  facet normal -0.258865 -0.965914 -0
    outer loop
      vertex -5.2 47.3856 3
      vertex -6 47.6 0
      vertex -5.2 47.3856 0
    endloop
  endfacet
  facet normal 0.965924 0.258826 0
    outer loop
      vertex -1.21243 74.3 6
      vertex -1.4 75 0
      vertex -1.4 75 6
    endloop
  endfacet
  facet normal 0.965924 0.258826 0
    outer loop
      vertex -1.4 75 0
      vertex -1.21243 74.3 6
      vertex -1.21243 74.3 0
    endloop
  endfacet
  facet normal -0.965924 0.258826 0
    outer loop
      vertex 1.21243 74.3 0
      vertex 1.4 75 6
      vertex 1.4 75 0
    endloop
  endfacet
  facet normal -0.965924 0.258826 0
    outer loop
      vertex 1.4 75 6
      vertex 1.21243 74.3 0
      vertex 1.21243 74.3 6
    endloop
  endfacet
  facet normal 0.258865 0.965914 -0
    outer loop
      vertex 0 73.6 0
      vertex -0.7 73.7876 6
      vertex 0 73.6 6
    endloop
  endfacet
  facet normal 0.258865 0.965914 0
    outer loop
      vertex -0.7 73.7876 6
      vertex 0 73.6 0
      vertex -0.7 73.7876 0
    endloop
  endfacet
  facet normal 0.707086 0.707127 0
    outer loop
      vertex -0.7 73.7876 6
      vertex -1.21243 74.3 0
      vertex -1.21243 74.3 6
    endloop
  endfacet
  facet normal 0.707086 0.707127 0
    outer loop
      vertex -1.21243 74.3 0
      vertex -0.7 73.7876 6
      vertex -0.7 73.7876 0
    endloop
  endfacet
  facet normal -0.258865 0.965914 0
    outer loop
      vertex 0.7 73.7876 0
      vertex 0 73.6 6
      vertex 0.7 73.7876 6
    endloop
  endfacet
  facet normal -0.258865 0.965914 0
    outer loop
      vertex 0 73.6 6
      vertex 0.7 73.7876 0
      vertex 0 73.6 0
    endloop
  endfacet
  facet normal 0.258865 -0.965914 0
    outer loop
      vertex -0.7 76.2124 0
      vertex 0 76.4 6
      vertex -0.7 76.2124 6
    endloop
  endfacet
  facet normal 0.258865 -0.965914 0
    outer loop
      vertex 0 76.4 6
      vertex -0.7 76.2124 0
      vertex 0 76.4 0
    endloop
  endfacet
  facet normal -0.258865 -0.965914 0
    outer loop
      vertex 0 76.4 0
      vertex 0.7 76.2124 6
      vertex 0 76.4 6
    endloop
  endfacet
  facet normal -0.258865 -0.965914 -0
    outer loop
      vertex 0.7 76.2124 6
      vertex 0 76.4 0
      vertex 0.7 76.2124 0
    endloop
  endfacet
  facet normal -0.965924 -0.258826 0
    outer loop
      vertex 1.4 75 0
      vertex 1.21243 75.7 6
      vertex 1.21243 75.7 0
    endloop
  endfacet
  facet normal -0.965924 -0.258826 0
    outer loop
      vertex 1.21243 75.7 6
      vertex 1.4 75 0
      vertex 1.4 75 6
    endloop
  endfacet
  facet normal -0.707086 -0.707127 0
    outer loop
      vertex 1.21243 75.7 0
      vertex 0.7 76.2124 6
      vertex 0.7 76.2124 0
    endloop
  endfacet
  facet normal -0.707086 -0.707127 0
    outer loop
      vertex 0.7 76.2124 6
      vertex 1.21243 75.7 0
      vertex 1.21243 75.7 6
    endloop
  endfacet
  facet normal -0.707086 0.707127 0
    outer loop
      vertex 0.7 73.7876 0
      vertex 1.21243 74.3 6
      vertex 1.21243 74.3 0
    endloop
  endfacet
  facet normal -0.707086 0.707127 0
    outer loop
      vertex 1.21243 74.3 6
      vertex 0.7 73.7876 0
      vertex 0.7 73.7876 6
    endloop
  endfacet
  facet normal 0.707086 -0.707127 0
    outer loop
      vertex -1.21243 75.7 6
      vertex -0.7 76.2124 0
      vertex -0.7 76.2124 6
    endloop
  endfacet
  facet normal 0.707086 -0.707127 0
    outer loop
      vertex -0.7 76.2124 0
      vertex -1.21243 75.7 6
      vertex -1.21243 75.7 0
    endloop
  endfacet
  facet normal 0.965924 -0.258826 0
    outer loop
      vertex -1.4 75 6
      vertex -1.21243 75.7 0
      vertex -1.21243 75.7 6
    endloop
  endfacet
  facet normal 0.965924 -0.258826 0
    outer loop
      vertex -1.21243 75.7 0
      vertex -1.4 75 6
      vertex -1.4 75 0
    endloop
  endfacet
  facet normal 0.13057 0.991439 -0
    outer loop
      vertex 0 71.5 6
      vertex -0.905867 71.6193 11
      vertex 0 71.5 11
    endloop
  endfacet
  facet normal 0.13057 0.991439 0
    outer loop
      vertex -0.905867 71.6193 11
      vertex 0 71.5 6
      vertex -0.905867 71.6193 6
    endloop
  endfacet
  facet normal 0.608753 0.79336 -0
    outer loop
      vertex -1.75 71.9689 6
      vertex -2.47487 72.5251 11
      vertex -1.75 71.9689 11
    endloop
  endfacet
  facet normal 0.608753 0.79336 0
    outer loop
      vertex -2.47487 72.5251 11
      vertex -1.75 71.9689 6
      vertex -2.47487 72.5251 6
    endloop
  endfacet
  facet normal 0.382635 0.923899 -0
    outer loop
      vertex -0.905867 71.6193 6
      vertex -1.75 71.9689 11
      vertex -0.905867 71.6193 11
    endloop
  endfacet
  facet normal 0.382635 0.923899 0
    outer loop
      vertex -1.75 71.9689 11
      vertex -0.905867 71.6193 6
      vertex -1.75 71.9689 6
    endloop
  endfacet
  facet normal -0.608753 0.79336 0
    outer loop
      vertex 2.47487 72.5251 6
      vertex 1.75 71.9689 11
      vertex 2.47487 72.5251 11
    endloop
  endfacet
  facet normal -0.608753 0.79336 0
    outer loop
      vertex 1.75 71.9689 11
      vertex 2.47487 72.5251 6
      vertex 1.75 71.9689 6
    endloop
  endfacet
  facet normal -0.793801 0.608177 0
    outer loop
      vertex 2.47487 72.5251 6
      vertex 2.5 72.5579 11
      vertex 2.5 72.5579 6
    endloop
  endfacet
  facet normal -0.793801 0.608177 0
    outer loop
      vertex 2.5 72.5579 11
      vertex 2.47487 72.5251 6
      vertex 2.47487 72.5251 11
    endloop
  endfacet
  facet normal -0.382635 0.923899 0
    outer loop
      vertex 1.75 71.9689 6
      vertex 0.905867 71.6193 11
      vertex 1.75 71.9689 11
    endloop
  endfacet
  facet normal -0.382635 0.923899 0
    outer loop
      vertex 0.905867 71.6193 11
      vertex 1.75 71.9689 6
      vertex 0.905867 71.6193 6
    endloop
  endfacet
  facet normal 0.793801 -0.608177 0
    outer loop
      vertex -2.5 77.4421 11
      vertex -2.47487 77.4749 6
      vertex -2.47487 77.4749 11
    endloop
  endfacet
  facet normal 0.793801 -0.608177 0
    outer loop
      vertex -2.47487 77.4749 6
      vertex -2.5 77.4421 11
      vertex -2.5 77.4421 6
    endloop
  endfacet
  facet normal -0.608753 -0.79336 0
    outer loop
      vertex 1.75 78.0311 6
      vertex 2.47487 77.4749 11
      vertex 1.75 78.0311 11
    endloop
  endfacet
  facet normal -0.608753 -0.79336 -0
    outer loop
      vertex 2.47487 77.4749 11
      vertex 1.75 78.0311 6
      vertex 2.47487 77.4749 6
    endloop
  endfacet
  facet normal 0 0 1
    outer loop
      vertex 0.7 76.2124 6
      vertex 2.5 77.4421 6
      vertex 2.47487 77.4749 6
    endloop
  endfacet
  facet normal 0 0 1
    outer loop
      vertex 2.5 77.4421 6
      vertex 1.4 75 6
      vertex 2.5 72.5579 6
    endloop
  endfacet
  facet normal 0 0 1
    outer loop
      vertex 0.7 76.2124 6
      vertex 2.47487 77.4749 6
      vertex 1.75 78.0311 6
    endloop
  endfacet
  facet normal -0 0 1
    outer loop
      vertex 1.21243 74.3 6
      vertex 2.5 72.5579 6
      vertex 1.4 75 6
    endloop
  endfacet
  facet normal -0 0 1
    outer loop
      vertex 0.7 73.7876 6
      vertex 2.5 72.5579 6
      vertex 1.21243 74.3 6
    endloop
  endfacet
  facet normal 0 0 1
    outer loop
      vertex 2.5 77.4421 6
      vertex 1.21243 75.7 6
      vertex 1.4 75 6
    endloop
  endfacet
  facet normal 0 0 1
    outer loop
      vertex 0.7 76.2124 6
      vertex 1.75 78.0311 6
      vertex 0.905867 78.3807 6
    endloop
  endfacet
  facet normal 0 0 1
    outer loop
      vertex 2.5 77.4421 6
      vertex 0.7 76.2124 6
      vertex 1.21243 75.7 6
    endloop
  endfacet
  facet normal 0 0 1
    outer loop
      vertex 0 76.4 6
      vertex 0.905867 78.3807 6
      vertex 0 78.5 6
    endloop
  endfacet
  facet normal 0 0 1
    outer loop
      vertex 0.905867 78.3807 6
      vertex 0 76.4 6
      vertex 0.7 76.2124 6
    endloop
  endfacet
  facet normal -0 0 1
    outer loop
      vertex -0.905867 78.3807 6
      vertex 0 76.4 6
      vertex 0 78.5 6
    endloop
  endfacet
  facet normal 0 0 1
    outer loop
      vertex 0 76.4 6
      vertex -0.905867 78.3807 6
      vertex -0.7 76.2124 6
    endloop
  endfacet
  facet normal -0 0 1
    outer loop
      vertex -1.75 78.0311 6
      vertex -0.7 76.2124 6
      vertex -0.905867 78.3807 6
    endloop
  endfacet
  facet normal -0 0 1
    outer loop
      vertex -2.47487 77.4749 6
      vertex -0.7 76.2124 6
      vertex -1.75 78.0311 6
    endloop
  endfacet
  facet normal -0 0 1
    outer loop
      vertex -2.5 77.4421 6
      vertex -0.7 76.2124 6
      vertex -2.47487 77.4749 6
    endloop
  endfacet
  facet normal 0 0 1
    outer loop
      vertex 2.5 72.5579 6
      vertex 0.7 73.7876 6
      vertex 2.47487 72.5251 6
    endloop
  endfacet
  facet normal 0 0 1
    outer loop
      vertex 2.47487 72.5251 6
      vertex 0.7 73.7876 6
      vertex 1.75 71.9689 6
    endloop
  endfacet
  facet normal 0 0 1
    outer loop
      vertex 1.75 71.9689 6
      vertex 0.7 73.7876 6
      vertex 0.905867 71.6193 6
    endloop
  endfacet
  facet normal -0 0 1
    outer loop
      vertex 0 73.6 6
      vertex 0.905867 71.6193 6
      vertex 0.7 73.7876 6
    endloop
  endfacet
  facet normal 0 0 1
    outer loop
      vertex 0 73.6 6
      vertex 0 71.5 6
      vertex 0.905867 71.6193 6
    endloop
  endfacet
  facet normal 0 0 1
    outer loop
      vertex -0.905867 71.6193 6
      vertex 0 73.6 6
      vertex -0.7 73.7876 6
    endloop
  endfacet
  facet normal 0 0 1
    outer loop
      vertex 0 73.6 6
      vertex -0.905867 71.6193 6
      vertex 0 71.5 6
    endloop
  endfacet
  facet normal 0 0 1
    outer loop
      vertex -2.5 72.5579 6
      vertex -0.7 73.7876 6
      vertex -1.21243 74.3 6
    endloop
  endfacet
  facet normal 0 0 1
    outer loop
      vertex -2.5 72.5579 6
      vertex -1.21243 74.3 6
      vertex -1.4 75 6
    endloop
  endfacet
  facet normal 0 0 1
    outer loop
      vertex -0.7 73.7876 6
      vertex -1.75 71.9689 6
      vertex -0.905867 71.6193 6
    endloop
  endfacet
  facet normal 0 0 1
    outer loop
      vertex -0.7 76.2124 6
      vertex -2.5 77.4421 6
      vertex -1.21243 75.7 6
    endloop
  endfacet
  facet normal 0 0 1
    outer loop
      vertex -1.21243 75.7 6
      vertex -2.5 77.4421 6
      vertex -1.4 75 6
    endloop
  endfacet
  facet normal 0 0 1
    outer loop
      vertex -2.5 72.5579 6
      vertex -1.4 75 6
      vertex -2.5 77.4421 6
    endloop
  endfacet
  facet normal 0 0 1
    outer loop
      vertex -0.7 73.7876 6
      vertex -2.5 72.5579 6
      vertex -2.47487 72.5251 6
    endloop
  endfacet
  facet normal 0 0 1
    outer loop
      vertex -0.7 73.7876 6
      vertex -2.47487 72.5251 6
      vertex -1.75 71.9689 6
    endloop
  endfacet
  facet normal 0.793801 0.608177 0
    outer loop
      vertex -2.47487 72.5251 11
      vertex -2.5 72.5579 6
      vertex -2.5 72.5579 11
    endloop
  endfacet
  facet normal 0.793801 0.608177 0
    outer loop
      vertex -2.5 72.5579 6
      vertex -2.47487 72.5251 11
      vertex -2.47487 72.5251 6
    endloop
  endfacet
  facet normal -0.13057 0.991439 0
    outer loop
      vertex 0.905867 71.6193 6
      vertex 0 71.5 11
      vertex 0.905867 71.6193 11
    endloop
  endfacet
  facet normal -0.13057 0.991439 0
    outer loop
      vertex 0 71.5 11
      vertex 0.905867 71.6193 6
      vertex 0 71.5 6
    endloop
  endfacet
  facet normal 0.13057 -0.991439 0
    outer loop
      vertex -0.905867 78.3807 6
      vertex 0 78.5 11
      vertex -0.905867 78.3807 11
    endloop
  endfacet
  facet normal 0.13057 -0.991439 0
    outer loop
      vertex 0 78.5 11
      vertex -0.905867 78.3807 6
      vertex 0 78.5 6
    endloop
  endfacet
  facet normal 0.608753 -0.79336 0
    outer loop
      vertex -2.47487 77.4749 6
      vertex -1.75 78.0311 11
      vertex -2.47487 77.4749 11
    endloop
  endfacet
  facet normal 0.608753 -0.79336 0
    outer loop
      vertex -1.75 78.0311 11
      vertex -2.47487 77.4749 6
      vertex -1.75 78.0311 6
    endloop
  endfacet
  facet normal -0.382635 -0.923899 0
    outer loop
      vertex 0.905867 78.3807 6
      vertex 1.75 78.0311 11
      vertex 0.905867 78.3807 11
    endloop
  endfacet
  facet normal -0.382635 -0.923899 -0
    outer loop
      vertex 1.75 78.0311 11
      vertex 0.905867 78.3807 6
      vertex 1.75 78.0311 6
    endloop
  endfacet
  facet normal -0.793801 -0.608177 0
    outer loop
      vertex 2.5 77.4421 6
      vertex 2.47487 77.4749 11
      vertex 2.47487 77.4749 6
    endloop
  endfacet
  facet normal -0.793801 -0.608177 0
    outer loop
      vertex 2.47487 77.4749 11
      vertex 2.5 77.4421 6
      vertex 2.5 77.4421 11
    endloop
  endfacet
  facet normal 0.382635 -0.923899 0
    outer loop
      vertex -1.75 78.0311 6
      vertex -0.905867 78.3807 11
      vertex -1.75 78.0311 11
    endloop
  endfacet
  facet normal 0.382635 -0.923899 0
    outer loop
      vertex -0.905867 78.3807 11
      vertex -1.75 78.0311 6
      vertex -0.905867 78.3807 6
    endloop
  endfacet
  facet normal -0.13057 -0.991439 0
    outer loop
      vertex 0 78.5 6
      vertex 0.905867 78.3807 11
      vertex 0 78.5 11
    endloop
  endfacet
  facet normal -0.13057 -0.991439 -0
    outer loop
      vertex 0.905867 78.3807 11
      vertex 0 78.5 6
      vertex 0.905867 78.3807 6
    endloop
  endfacet
endsolid OpenSCAD_Model
