  0
SECTION
  2
BLOCKS
  0
ENDSEC
  0
SECTION
  2
ENTITIES
  0
LINE
  8
0
 10
10.4672
 20
-199.726
 11
20.9057
 21
-198.904
  0
LINE
  8
0
 10
20.9057
 20
-198.904
 11
31.2869
 21
-197.538
  0
LINE
  8
0
 10
31.2869
 20
-197.538
 11
41.5823
 21
-195.63
  0
LINE
  8
0
 10
41.5823
 20
-195.63
 11
51.7638
 21
-193.185
  0
LINE
  8
0
 10
51.7638
 20
-193.185
 11
61.8034
 21
-190.211
  0
LINE
  8
0
 10
61.8034
 20
-190.211
 11
71.6736
 21
-186.716
  0
LINE
  8
0
 10
71.6736
 20
-186.716
 11
81.3473
 21
-182.709
  0
LINE
  8
0
 10
81.3473
 20
-182.709
 11
90.7981
 21
-178.201
  0
LINE
  8
0
 10
90.7981
 20
-178.201
 11
100
 21
-173.205
  0
LINE
  8
0
 10
100
 20
-173.205
 11
108.928
 21
-167.734
  0
LINE
  8
0
 10
108.928
 20
-167.734
 11
117.557
 21
-161.803
  0
LINE
  8
0
 10
117.557
 20
-161.803
 11
125.864
 21
-155.429
  0
LINE
  8
0
 10
125.864
 20
-155.429
 11
133.826
 21
-148.629
  0
LINE
  8
0
 10
133.826
 20
-148.629
 11
141.421
 21
-141.421
  0
LINE
  8
0
 10
141.421
 20
-141.421
 11
148.629
 21
-133.826
  0
LINE
  8
0
 10
148.629
 20
-133.826
 11
155.429
 21
-125.864
  0
LINE
  8
0
 10
155.429
 20
-125.864
 11
161.803
 21
-117.557
  0
LINE
  8
0
 10
161.803
 20
-117.557
 11
167.734
 21
-108.928
  0
LINE
  8
0
 10
167.734
 20
-108.928
 11
173.205
 21
-100
  0
LINE
  8
0
 10
173.205
 20
-100
 11
178.201
 21
-90.7981
  0
LINE
  8
0
 10
178.201
 20
-90.7981
 11
182.709
 21
-81.3473
  0
LINE
  8
0
 10
182.709
 20
-81.3473
 11
186.716
 21
-71.6736
  0
LINE
  8
0
 10
186.716
 20
-71.6736
 11
190.211
 21
-61.8034
  0
LINE
  8
0
 10
190.211
 20
-61.8034
 11
193.185
 21
-51.7638
  0
LINE
  8
0
 10
193.185
 20
-51.7638
 11
195.63
 21
-41.5823
  0
LINE
  8
0
 10
195.63
 20
-41.5823
 11
197.538
 21
-31.2869
  0
LINE
  8
0
 10
197.538
 20
-31.2869
 11
198.904
 21
-20.9057
  0
LINE
  8
0
 10
198.904
 20
-20.9057
 11
199.726
 21
-10.4672
  0
LINE
  8
0
 10
199.726
 20
-10.4672
 11
200
 21
0
  0
LINE
  8
0
 10
200
 20
0
 11
75
 21
0
  0
LINE
  8
0
 10
75
 20
0
 11
74.5891
 21
7.83963
  0
LINE
  8
0
 10
74.5891
 20
7.83963
 11
73.3611
 21
15.5934
  0
LINE
  8
0
 10
73.3611
 20
15.5934
 11
71.3292
 21
23.1763
  0
LINE
  8
0
 10
71.3292
 20
23.1763
 11
68.5159
 21
30.5052
  0
LINE
  8
0
 10
68.5159
 20
30.5052
 11
64.9519
 21
37.5
  0
LINE
  8
0
 10
64.9519
 20
37.5
 11
60.6763
 21
44.0839
  0
LINE
  8
0
 10
60.6763
 20
44.0839
 11
55.7359
 21
50.1848
  0
LINE
  8
0
 10
55.7359
 20
50.1848
 11
50.1848
 21
55.7359
  0
LINE
  8
0
 10
50.1848
 20
55.7359
 11
44.0839
 21
60.6763
  0
LINE
  8
0
 10
44.0839
 20
60.6763
 11
42.7199
 21
61.562
  0
LINE
  8
0
 10
42.7199
 20
61.562
 11
42.7199
 21
55.3278
  0
LINE
  8
0
 10
42.7199
 20
55.3278
 11
-4.28008
 21
55.3278
  0
LINE
  8
0
 10
-4.28008
 20
55.3278
 11
-4.28008
 21
99.3278
  0
LINE
  8
0
 10
-4.28008
 20
99.3278
 11
0
 21
99.3278
  0
LINE
  8
0
 10
0
 20
99.3278
 11
0
 21
200
  0
LINE
  8
0
 10
0
 20
200
 11
-10.4672
 21
199.726
  0
LINE
  8
0
 10
-10.4672
 20
199.726
 11
-20.9057
 21
198.904
  0
LINE
  8
0
 10
-20.9057
 20
198.904
 11
-31.2869
 21
197.538
  0
LINE
  8
0
 10
-31.2869
 20
197.538
 11
-41.5823
 21
195.63
  0
LINE
  8
0
 10
-41.5823
 20
195.63
 11
-51.7638
 21
193.185
  0
LINE
  8
0
 10
-51.7638
 20
193.185
 11
-61.8034
 21
190.211
  0
LINE
  8
0
 10
-61.8034
 20
190.211
 11
-71.6736
 21
186.716
  0
LINE
  8
0
 10
-71.6736
 20
186.716
 11
-81.3473
 21
182.709
  0
LINE
  8
0
 10
-81.3473
 20
182.709
 11
-90.7981
 21
178.201
  0
LINE
  8
0
 10
-90.7981
 20
178.201
 11
-100
 21
173.205
  0
LINE
  8
0
 10
-100
 20
173.205
 11
-108.928
 21
167.734
  0
LINE
  8
0
 10
-108.928
 20
167.734
 11
-117.557
 21
161.803
  0
LINE
  8
0
 10
-117.557
 20
161.803
 11
-125.864
 21
155.429
  0
LINE
  8
0
 10
-125.864
 20
155.429
 11
-133.826
 21
148.629
  0
LINE
  8
0
 10
-133.826
 20
148.629
 11
-141.421
 21
141.421
  0
LINE
  8
0
 10
-141.421
 20
141.421
 11
-148.629
 21
133.826
  0
LINE
  8
0
 10
-148.629
 20
133.826
 11
-155.429
 21
125.864
  0
LINE
  8
0
 10
-155.429
 20
125.864
 11
-161.803
 21
117.557
  0
LINE
  8
0
 10
-161.803
 20
117.557
 11
-167.734
 21
108.928
  0
LINE
  8
0
 10
-167.734
 20
108.928
 11
-173.205
 21
100
  0
LINE
  8
0
 10
-173.205
 20
100
 11
-178.201
 21
90.7981
  0
LINE
  8
0
 10
-178.201
 20
90.7981
 11
-182.709
 21
81.3473
  0
LINE
  8
0
 10
-182.709
 20
81.3473
 11
-186.716
 21
71.6736
  0
LINE
  8
0
 10
-186.716
 20
71.6736
 11
-190.211
 21
61.8034
  0
LINE
  8
0
 10
-190.211
 20
61.8034
 11
-193.185
 21
51.7638
  0
LINE
  8
0
 10
-193.185
 20
51.7638
 11
-195.63
 21
41.5823
  0
LINE
  8
0
 10
-195.63
 20
41.5823
 11
-197.538
 21
31.2869
  0
LINE
  8
0
 10
-197.538
 20
31.2869
 11
-198.904
 21
20.9057
  0
LINE
  8
0
 10
-198.904
 20
20.9057
 11
-199.726
 21
10.4672
  0
LINE
  8
0
 10
-199.726
 20
10.4672
 11
-200
 21
0
  0
LINE
  8
0
 10
-200
 20
0
 11
-199.726
 21
-10.4672
  0
LINE
  8
0
 10
-199.726
 20
-10.4672
 11
-198.904
 21
-20.9057
  0
LINE
  8
0
 10
-198.904
 20
-20.9057
 11
-197.538
 21
-31.2869
  0
LINE
  8
0
 10
-197.538
 20
-31.2869
 11
-195.63
 21
-41.5823
  0
LINE
  8
0
 10
-195.63
 20
-41.5823
 11
-193.185
 21
-51.7638
  0
LINE
  8
0
 10
-193.185
 20
-51.7638
 11
-190.211
 21
-61.8034
  0
LINE
  8
0
 10
-190.211
 20
-61.8034
 11
-186.716
 21
-71.6736
  0
LINE
  8
0
 10
-186.716
 20
-71.6736
 11
-182.709
 21
-81.3473
  0
LINE
  8
0
 10
-182.709
 20
-81.3473
 11
-178.201
 21
-90.7981
  0
LINE
  8
0
 10
-178.201
 20
-90.7981
 11
-173.205
 21
-100
  0
LINE
  8
0
 10
-173.205
 20
-100
 11
-167.734
 21
-108.928
  0
LINE
  8
0
 10
-167.734
 20
-108.928
 11
-161.803
 21
-117.557
  0
LINE
  8
0
 10
-161.803
 20
-117.557
 11
-155.429
 21
-125.864
  0
LINE
  8
0
 10
-155.429
 20
-125.864
 11
-148.629
 21
-133.826
  0
LINE
  8
0
 10
-148.629
 20
-133.826
 11
-141.421
 21
-141.421
  0
LINE
  8
0
 10
-141.421
 20
-141.421
 11
-133.826
 21
-148.629
  0
LINE
  8
0
 10
-133.826
 20
-148.629
 11
-125.864
 21
-155.429
  0
LINE
  8
0
 10
-125.864
 20
-155.429
 11
-117.557
 21
-161.803
  0
LINE
  8
0
 10
-117.557
 20
-161.803
 11
-108.928
 21
-167.734
  0
LINE
  8
0
 10
-108.928
 20
-167.734
 11
-100
 21
-173.205
  0
LINE
  8
0
 10
-100
 20
-173.205
 11
-90.7981
 21
-178.201
  0
LINE
  8
0
 10
-90.7981
 20
-178.201
 11
-81.3473
 21
-182.709
  0
LINE
  8
0
 10
-81.3473
 20
-182.709
 11
-71.6736
 21
-186.716
  0
LINE
  8
0
 10
-71.6736
 20
-186.716
 11
-61.8034
 21
-190.211
  0
LINE
  8
0
 10
-61.8034
 20
-190.211
 11
-51.7638
 21
-193.185
  0
LINE
  8
0
 10
-51.7638
 20
-193.185
 11
-41.5823
 21
-195.63
  0
LINE
  8
0
 10
-41.5823
 20
-195.63
 11
-31.2869
 21
-197.538
  0
LINE
  8
0
 10
-31.2869
 20
-197.538
 11
-20.9057
 21
-198.904
  0
LINE
  8
0
 10
-20.9057
 20
-198.904
 11
-10.4672
 21
-199.726
  0
LINE
  8
0
 10
-10.4672
 20
-199.726
 11
0
 21
-200
  0
LINE
  8
0
 10
0
 20
-200
 11
10.4672
 21
-199.726
  0
LINE
  8
0
 10
-2.09056
 20
-19.8904
 11
-6.18033
 21
-19.0211
  0
LINE
  8
0
 10
-6.18033
 20
-19.0211
 11
-10
 21
-17.3205
  0
LINE
  8
0
 10
-10
 20
-17.3205
 11
-13.3826
 21
-14.8629
  0
LINE
  8
0
 10
-13.3826
 20
-14.8629
 11
-16.1803
 21
-11.7557
  0
LINE
  8
0
 10
-16.1803
 20
-11.7557
 11
-18.2709
 21
-8.13472
  0
LINE
  8
0
 10
-18.2709
 20
-8.13472
 11
-19.5629
 21
-4.15823
  0
LINE
  8
0
 10
-19.5629
 20
-4.15823
 11
-20
 21
0
  0
LINE
  8
0
 10
-20
 20
0
 11
-19.5629
 21
4.15823
  0
LINE
  8
0
 10
-19.5629
 20
4.15823
 11
-18.2709
 21
8.13472
  0
LINE
  8
0
 10
-18.2709
 20
8.13472
 11
-16.1803
 21
11.7557
  0
LINE
  8
0
 10
-16.1803
 20
11.7557
 11
-13.3826
 21
14.8629
  0
LINE
  8
0
 10
-13.3826
 20
14.8629
 11
-10
 21
17.3205
  0
LINE
  8
0
 10
-10
 20
17.3205
 11
-6.18033
 21
19.0211
  0
LINE
  8
0
 10
-6.18033
 20
19.0211
 11
-2.09056
 21
19.8904
  0
LINE
  8
0
 10
-2.09056
 20
19.8904
 11
2.09056
 21
19.8904
  0
LINE
  8
0
 10
2.09056
 20
19.8904
 11
6.18033
 21
19.0211
  0
LINE
  8
0
 10
6.18033
 20
19.0211
 11
10
 21
17.3205
  0
LINE
  8
0
 10
10
 20
17.3205
 11
13.3826
 21
14.8629
  0
LINE
  8
0
 10
13.3826
 20
14.8629
 11
16.1803
 21
11.7557
  0
LINE
  8
0
 10
16.1803
 20
11.7557
 11
18.2709
 21
8.13472
  0
LINE
  8
0
 10
18.2709
 20
8.13472
 11
19.5629
 21
4.15823
  0
LINE
  8
0
 10
19.5629
 20
4.15823
 11
20
 21
0
  0
LINE
  8
0
 10
20
 20
0
 11
19.5629
 21
-4.15823
  0
LINE
  8
0
 10
19.5629
 20
-4.15823
 11
18.2709
 21
-8.13472
  0
LINE
  8
0
 10
18.2709
 20
-8.13472
 11
16.1803
 21
-11.7557
  0
LINE
  8
0
 10
16.1803
 20
-11.7557
 11
13.3826
 21
-14.8629
  0
LINE
  8
0
 10
13.3826
 20
-14.8629
 11
10
 21
-17.3205
  0
LINE
  8
0
 10
10
 20
-17.3205
 11
6.18033
 21
-19.0211
  0
LINE
  8
0
 10
6.18033
 20
-19.0211
 11
2.09056
 21
-19.8904
  0
LINE
  8
0
 10
2.09056
 20
-19.8904
 11
-2.09056
 21
-19.8904
  0
ENDSEC
  0
SECTION
  2
OBJECTS
  0
DICTIONARY
  0
ENDSEC
  0
EOF
