  0
SECTION
  2
BLOCKS
  0
ENDSEC
  0
SECTION
  2
ENTITIES
  0
LINE
  8
0
 10
-77.1424
 20
10.5056
 11
-77.1415
 21
10.4885
  0
LINE
  8
0
 10
-77.1415
 20
10.4885
 11
-64.0373
 21
-2.61566
  0
LINE
  8
0
 10
-64.0373
 20
-2.61566
 11
-63.8108
 21
-2.84215
  0
LINE
  8
0
 10
-63.8108
 20
-2.84215
 11
-63.7367
 21
-2.9163
  0
LINE
  8
0
 10
-63.7367
 20
-2.9163
 11
-63.3185
 21
-3.33448
  0
LINE
  8
0
 10
-63.3185
 20
-3.33448
 11
-63.3185
 21
-8.28424
  0
LINE
  8
0
 10
-63.3185
 20
-8.28424
 11
-65.0004
 21
-9.96619
  0
LINE
  8
0
 10
-65.0004
 20
-9.96619
 11
-68.4517
 21
-13.4174
  0
LINE
  8
0
 10
-68.4517
 20
-13.4174
 11
-68.455
 21
-13.4207
  0
LINE
  8
0
 10
-68.455
 20
-13.4207
 11
-68.4571
 21
-13.4229
  0
LINE
  8
0
 10
-68.4571
 20
-13.4229
 11
-68.4593
 21
-13.4251
  0
LINE
  8
0
 10
-68.4593
 20
-13.4251
 11
-68.4614
 21
-13.4272
  0
LINE
  8
0
 10
-68.4614
 20
-13.4272
 11
-68.4635
 21
-13.4292
  0
LINE
  8
0
 10
-68.4635
 20
-13.4292
 11
-68.4654
 21
-13.4312
  0
LINE
  8
0
 10
-68.4654
 20
-13.4312
 11
-68.4673
 21
-13.4331
  0
LINE
  8
0
 10
-68.4673
 20
-13.4331
 11
-68.4691
 21
-13.4349
  0
LINE
  8
0
 10
-68.4691
 20
-13.4349
 11
-68.4708
 21
-13.4366
  0
LINE
  8
0
 10
-68.4708
 20
-13.4366
 11
-68.4724
 21
-13.4381
  0
LINE
  8
0
 10
-68.4724
 20
-13.4381
 11
-68.4738
 21
-13.4396
  0
LINE
  8
0
 10
-68.4738
 20
-13.4396
 11
-68.4751
 21
-13.4409
  0
LINE
  8
0
 10
-68.4751
 20
-13.4409
 11
-68.4763
 21
-13.4421
  0
LINE
  8
0
 10
-68.4763
 20
-13.4421
 11
-68.4774
 21
-13.4431
  0
LINE
  8
0
 10
-68.4774
 20
-13.4431
 11
-68.4783
 21
-13.444
  0
LINE
  8
0
 10
-68.4783
 20
-13.444
 11
-68.4791
 21
-13.4448
  0
LINE
  8
0
 10
-68.4791
 20
-13.4448
 11
-68.4797
 21
-13.4455
  0
LINE
  8
0
 10
-68.4797
 20
-13.4455
 11
-68.5044
 21
-13.4702
  0
LINE
  8
0
 10
-68.5044
 20
-13.4702
 11
-68.5051
 21
-13.4709
  0
LINE
  8
0
 10
-68.5051
 20
-13.4709
 11
-68.65
 21
-13.6209
  0
LINE
  8
0
 10
-68.65
 20
-13.6209
 11
-68.7896
 21
-13.7759
  0
LINE
  8
0
 10
-68.7896
 20
-13.7759
 11
-68.7901
 21
-13.7765
  0
LINE
  8
0
 10
-68.7901
 20
-13.7765
 11
-68.7905
 21
-13.777
  0
LINE
  8
0
 10
-68.7905
 20
-13.777
 11
-68.9246
 21
-13.9368
  0
LINE
  8
0
 10
-68.9246
 20
-13.9368
 11
-68.925
 21
-13.9373
  0
LINE
  8
0
 10
-68.925
 20
-13.9373
 11
-69.0534
 21
-14.1017
  0
LINE
  8
0
 10
-69.0534
 20
-14.1017
 11
-69.176
 21
-14.2704
  0
LINE
  8
0
 10
-69.176
 20
-14.2704
 11
-69.1767
 21
-14.2714
  0
LINE
  8
0
 10
-69.1767
 20
-14.2714
 11
-69.2934
 21
-14.4443
  0
LINE
  8
0
 10
-69.2934
 20
-14.4443
 11
-69.2938
 21
-14.4449
  0
LINE
  8
0
 10
-69.2938
 20
-14.4449
 11
-69.2941
 21
-14.4455
  0
LINE
  8
0
 10
-69.2941
 20
-14.4455
 11
-69.4046
 21
-14.6224
  0
LINE
  8
0
 10
-69.4046
 20
-14.6224
 11
-69.5089
 21
-14.803
  0
LINE
  8
0
 10
-69.5089
 20
-14.803
 11
-69.5095
 21
-14.804
  0
LINE
  8
0
 10
-69.5095
 20
-14.804
 11
-69.6074
 21
-14.9882
  0
LINE
  8
0
 10
-69.6074
 20
-14.9882
 11
-69.6078
 21
-14.9888
  0
LINE
  8
0
 10
-69.6078
 20
-14.9888
 11
-69.6081
 21
-14.9894
  0
LINE
  8
0
 10
-69.6081
 20
-14.9894
 11
-69.6995
 21
-15.1768
  0
LINE
  8
0
 10
-69.6995
 20
-15.1768
 11
-69.7843
 21
-15.3673
  0
LINE
  8
0
 10
-69.7843
 20
-15.3673
 11
-69.7848
 21
-15.3685
  0
LINE
  8
0
 10
-69.7848
 20
-15.3685
 11
-69.8629
 21
-15.5618
  0
LINE
  8
0
 10
-69.8629
 20
-15.5618
 11
-69.8633
 21
-15.5628
  0
LINE
  8
0
 10
-69.8633
 20
-15.5628
 11
-69.9346
 21
-15.7587
  0
LINE
  8
0
 10
-69.9346
 20
-15.7587
 11
-69.9349
 21
-15.7595
  0
LINE
  8
0
 10
-69.9349
 20
-15.7595
 11
-69.9993
 21
-15.9578
  0
LINE
  8
0
 10
-69.9993
 20
-15.9578
 11
-69.9997
 21
-15.9588
  0
LINE
  8
0
 10
-69.9997
 20
-15.9588
 11
-70.0571
 21
-16.1592
  0
LINE
  8
0
 10
-70.0571
 20
-16.1592
 11
-70.0573
 21
-16.16
  0
LINE
  8
0
 10
-70.0573
 20
-16.16
 11
-70.1078
 21
-16.3623
  0
LINE
  8
0
 10
-70.1078
 20
-16.3623
 11
-70.108
 21
-16.3633
  0
LINE
  8
0
 10
-70.108
 20
-16.3633
 11
-70.1514
 21
-16.5673
  0
LINE
  8
0
 10
-70.1514
 20
-16.5673
 11
-70.1516
 21
-16.568
  0
LINE
  8
0
 10
-70.1516
 20
-16.568
 11
-70.1878
 21
-16.7733
  0
LINE
  8
0
 10
-70.1878
 20
-16.7733
 11
-70.1879
 21
-16.7741
  0
LINE
  8
0
 10
-70.1879
 20
-16.7741
 11
-70.2169
 21
-16.9806
  0
LINE
  8
0
 10
-70.2169
 20
-16.9806
 11
-70.217
 21
-16.9816
  0
LINE
  8
0
 10
-70.217
 20
-16.9816
 11
-70.2388
 21
-17.1889
  0
LINE
  8
0
 10
-70.2388
 20
-17.1889
 11
-70.2389
 21
-17.1899
  0
LINE
  8
0
 10
-70.2389
 20
-17.1899
 11
-70.2535
 21
-17.3979
  0
LINE
  8
0
 10
-70.2535
 20
-17.3979
 11
-70.2536
 21
-17.399
  0
LINE
  8
0
 10
-70.2536
 20
-17.399
 11
-70.2608
 21
-17.6073
  0
LINE
  8
0
 10
-70.2608
 20
-17.6073
 11
-70.2608
 21
-17.6084
  0
LINE
  8
0
 10
-70.2608
 20
-17.6084
 11
-70.2609
 21
-17.8168
  0
LINE
  8
0
 10
-70.2609
 20
-17.8168
 11
-70.2608
 21
-17.8178
  0
LINE
  8
0
 10
-70.2608
 20
-17.8178
 11
-70.2536
 21
-18.0261
  0
LINE
  8
0
 10
-70.2536
 20
-18.0261
 11
-70.2535
 21
-18.027
  0
LINE
  8
0
 10
-70.2535
 20
-18.027
 11
-70.239
 21
-18.2349
  0
LINE
  8
0
 10
-70.239
 20
-18.2349
 11
-70.2389
 21
-18.236
  0
LINE
  8
0
 10
-70.2389
 20
-18.236
 11
-70.2171
 21
-18.4433
  0
LINE
  8
0
 10
-70.2171
 20
-18.4433
 11
-70.217
 21
-18.4443
  0
LINE
  8
0
 10
-70.217
 20
-18.4443
 11
-70.188
 21
-18.6506
  0
LINE
  8
0
 10
-70.188
 20
-18.6506
 11
-70.1879
 21
-18.6516
  0
LINE
  8
0
 10
-70.1879
 20
-18.6516
 11
-70.1516
 21
-18.8569
  0
LINE
  8
0
 10
-70.1516
 20
-18.8569
 11
-70.1513
 21
-18.8587
  0
LINE
  8
0
 10
-70.1513
 20
-18.8587
 11
-70.108
 21
-19.0625
  0
LINE
  8
0
 10
-70.108
 20
-19.0625
 11
-70.0575
 21
-19.2647
  0
LINE
  8
0
 10
-70.0575
 20
-19.2647
 11
-70.0573
 21
-19.2657
  0
LINE
  8
0
 10
-70.0573
 20
-19.2657
 11
-70.0571
 21
-19.2666
  0
LINE
  8
0
 10
-70.0571
 20
-19.2666
 11
-69.9996
 21
-19.4668
  0
LINE
  8
0
 10
-69.9996
 20
-19.4668
 11
-69.9994
 21
-19.4677
  0
LINE
  8
0
 10
-69.9994
 20
-19.4677
 11
-69.935
 21
-19.6659
  0
LINE
  8
0
 10
-69.935
 20
-19.6659
 11
-69.9346
 21
-19.667
  0
LINE
  8
0
 10
-69.9346
 20
-19.667
 11
-69.8633
 21
-19.8628
  0
LINE
  8
0
 10
-69.8633
 20
-19.8628
 11
-69.7853
 21
-20.056
  0
LINE
  8
0
 10
-69.7853
 20
-20.056
 11
-69.7848
 21
-20.0572
  0
LINE
  8
0
 10
-69.7848
 20
-20.0572
 11
-69.7
 21
-20.2475
  0
LINE
  8
0
 10
-69.7
 20
-20.2475
 11
-69.6995
 21
-20.2487
  0
LINE
  8
0
 10
-69.6995
 20
-20.2487
 11
-69.6082
 21
-20.4359
  0
LINE
  8
0
 10
-69.6082
 20
-20.4359
 11
-69.6073
 21
-20.4377
  0
LINE
  8
0
 10
-69.6073
 20
-20.4377
 11
-69.5095
 21
-20.6217
  0
LINE
  8
0
 10
-69.5095
 20
-20.6217
 11
-69.4053
 21
-20.8021
  0
LINE
  8
0
 10
-69.4053
 20
-20.8021
 11
-69.4048
 21
-20.8029
  0
LINE
  8
0
 10
-69.4048
 20
-20.8029
 11
-69.2945
 21
-20.9796
  0
LINE
  8
0
 10
-69.2945
 20
-20.9796
 11
-69.2939
 21
-20.9805
  0
LINE
  8
0
 10
-69.2939
 20
-20.9805
 11
-69.1773
 21
-21.1532
  0
LINE
  8
0
 10
-69.1773
 20
-21.1532
 11
-69.1767
 21
-21.1541
  0
LINE
  8
0
 10
-69.1767
 20
-21.1541
 11
-69.0543
 21
-21.3227
  0
LINE
  8
0
 10
-69.0543
 20
-21.3227
 11
-69.0535
 21
-21.3237
  0
LINE
  8
0
 10
-69.0535
 20
-21.3237
 11
-68.9253
 21
-21.4879
  0
LINE
  8
0
 10
-68.9253
 20
-21.4879
 11
-68.9247
 21
-21.4886
  0
LINE
  8
0
 10
-68.9247
 20
-21.4886
 11
-68.7908
 21
-21.6482
  0
LINE
  8
0
 10
-68.7908
 20
-21.6482
 11
-68.79
 21
-21.6491
  0
LINE
  8
0
 10
-68.79
 20
-21.6491
 11
-68.6506
 21
-21.8039
  0
LINE
  8
0
 10
-68.6506
 20
-21.8039
 11
-68.6533
 21
-21.8004
  0
LINE
  8
0
 10
-68.6533
 20
-21.8004
 11
-68.6495
 21
-21.8051
  0
LINE
  8
0
 10
-68.6495
 20
-21.8051
 11
-68.5048
 21
-21.955
  0
LINE
  8
0
 10
-68.5048
 20
-21.955
 11
-68.5044
 21
-21.9554
  0
LINE
  8
0
 10
-68.5044
 20
-21.9554
 11
-57.7351
 21
-32.7247
  0
LINE
  8
0
 10
-57.7351
 20
-32.7247
 11
-57.7221
 21
-32.7377
  0
LINE
  8
0
 10
-57.7221
 20
-32.7377
 11
-57.6857
 21
-32.7742
  0
LINE
  8
0
 10
-57.6857
 20
-32.7742
 11
-57.5358
 21
-32.9189
  0
LINE
  8
0
 10
-57.5358
 20
-32.9189
 11
-57.5351
 21
-32.9195
  0
LINE
  8
0
 10
-57.5351
 20
-32.9195
 11
-57.3803
 21
-33.0589
  0
LINE
  8
0
 10
-57.3803
 20
-33.0589
 11
-57.3794
 21
-33.0597
  0
LINE
  8
0
 10
-57.3794
 20
-33.0597
 11
-57.2198
 21
-33.1937
  0
LINE
  8
0
 10
-57.2198
 20
-33.1937
 11
-57.219
 21
-33.1943
  0
LINE
  8
0
 10
-57.219
 20
-33.1943
 11
-57.0549
 21
-33.3226
  0
LINE
  8
0
 10
-57.0549
 20
-33.3226
 11
-57.0539
 21
-33.3233
  0
LINE
  8
0
 10
-57.0539
 20
-33.3233
 11
-56.8854
 21
-33.4458
  0
LINE
  8
0
 10
-56.8854
 20
-33.4458
 11
-56.8836
 21
-33.447
  0
LINE
  8
0
 10
-56.8836
 20
-33.447
 11
-56.7109
 21
-33.5635
  0
LINE
  8
0
 10
-56.7109
 20
-33.5635
 11
-56.5342
 21
-33.6739
  0
LINE
  8
0
 10
-56.5342
 20
-33.6739
 11
-56.5334
 21
-33.6744
  0
LINE
  8
0
 10
-56.5334
 20
-33.6744
 11
-56.353
 21
-33.7786
  0
LINE
  8
0
 10
-56.353
 20
-33.7786
 11
-56.3518
 21
-33.7793
  0
LINE
  8
0
 10
-56.3518
 20
-33.7793
 11
-56.1679
 21
-33.8771
  0
LINE
  8
0
 10
-56.1679
 20
-33.8771
 11
-56.1671
 21
-33.8775
  0
LINE
  8
0
 10
-56.1671
 20
-33.8775
 11
-55.9798
 21
-33.9688
  0
LINE
  8
0
 10
-55.9798
 20
-33.9688
 11
-55.9786
 21
-33.9694
  0
LINE
  8
0
 10
-55.9786
 20
-33.9694
 11
-55.7883
 21
-34.0542
  0
LINE
  8
0
 10
-55.7883
 20
-34.0542
 11
-55.7874
 21
-34.0546
  0
LINE
  8
0
 10
-55.7874
 20
-34.0546
 11
-55.5942
 21
-34.1326
  0
LINE
  8
0
 10
-55.5942
 20
-34.1326
 11
-55.5934
 21
-34.1329
  0
LINE
  8
0
 10
-55.5934
 20
-34.1329
 11
-55.3976
 21
-34.2042
  0
LINE
  8
0
 10
-55.3976
 20
-34.2042
 11
-55.3966
 21
-34.2046
  0
LINE
  8
0
 10
-55.3966
 20
-34.2046
 11
-55.1985
 21
-34.2689
  0
LINE
  8
0
 10
-55.1985
 20
-34.2689
 11
-55.1971
 21
-34.2694
  0
LINE
  8
0
 10
-55.1971
 20
-34.2694
 11
-54.9968
 21
-34.3268
  0
LINE
  8
0
 10
-54.9968
 20
-34.3268
 11
-54.9959
 21
-34.3271
  0
LINE
  8
0
 10
-54.9959
 20
-34.3271
 11
-54.7937
 21
-34.3775
  0
LINE
  8
0
 10
-54.7937
 20
-34.3775
 11
-54.7927
 21
-34.3777
  0
LINE
  8
0
 10
-54.7927
 20
-34.3777
 11
-54.5889
 21
-34.4211
  0
LINE
  8
0
 10
-54.5889
 20
-34.4211
 11
-54.5879
 21
-34.4213
  0
LINE
  8
0
 10
-54.5879
 20
-34.4213
 11
-54.3827
 21
-34.4575
  0
LINE
  8
0
 10
-54.3827
 20
-34.4575
 11
-54.3804
 21
-34.4578
  0
LINE
  8
0
 10
-54.3804
 20
-34.4578
 11
-54.1741
 21
-34.4868
  0
LINE
  8
0
 10
-54.1741
 20
-34.4868
 11
-53.9668
 21
-34.5086
  0
LINE
  8
0
 10
-53.9668
 20
-34.5086
 11
-53.9658
 21
-34.5087
  0
LINE
  8
0
 10
-53.9658
 20
-34.5087
 11
-53.7579
 21
-34.5232
  0
LINE
  8
0
 10
-53.7579
 20
-34.5232
 11
-53.7569
 21
-34.5233
  0
LINE
  8
0
 10
-53.7569
 20
-34.5233
 11
-53.5486
 21
-34.5306
  0
LINE
  8
0
 10
-53.5486
 20
-34.5306
 11
-53.5475
 21
-34.5306
  0
LINE
  8
0
 10
-53.5475
 20
-34.5306
 11
-53.3391
 21
-34.5306
  0
LINE
  8
0
 10
-53.3391
 20
-34.5306
 11
-53.338
 21
-34.5306
  0
LINE
  8
0
 10
-53.338
 20
-34.5306
 11
-53.1297
 21
-34.5233
  0
LINE
  8
0
 10
-53.1297
 20
-34.5233
 11
-53.1287
 21
-34.5233
  0
LINE
  8
0
 10
-53.1287
 20
-34.5233
 11
-52.9207
 21
-34.5087
  0
LINE
  8
0
 10
-52.9207
 20
-34.5087
 11
-52.92
 21
-34.5087
  0
LINE
  8
0
 10
-52.92
 20
-34.5087
 11
-52.7126
 21
-34.4869
  0
LINE
  8
0
 10
-52.7126
 20
-34.4869
 11
-52.7116
 21
-34.4868
  0
LINE
  8
0
 10
-52.7116
 20
-34.4868
 11
-52.5052
 21
-34.4578
  0
LINE
  8
0
 10
-52.5052
 20
-34.4578
 11
-52.5044
 21
-34.4576
  0
LINE
  8
0
 10
-52.5044
 20
-34.4576
 11
-52.2991
 21
-34.4214
  0
LINE
  8
0
 10
-52.2991
 20
-34.4214
 11
-52.2983
 21
-34.4213
  0
LINE
  8
0
 10
-52.2983
 20
-34.4213
 11
-52.0944
 21
-34.378
  0
LINE
  8
0
 10
-52.0944
 20
-34.378
 11
-52.0933
 21
-34.3777
  0
LINE
  8
0
 10
-52.0933
 20
-34.3777
 11
-51.891
 21
-34.3273
  0
LINE
  8
0
 10
-51.891
 20
-34.3273
 11
-51.8892
 21
-34.3268
  0
LINE
  8
0
 10
-51.8892
 20
-34.3268
 11
-51.6888
 21
-34.2694
  0
LINE
  8
0
 10
-51.6888
 20
-34.2694
 11
-51.4905
 21
-34.2049
  0
LINE
  8
0
 10
-51.4905
 20
-34.2049
 11
-51.4887
 21
-34.2043
  0
LINE
  8
0
 10
-51.4887
 20
-34.2043
 11
-51.2928
 21
-34.133
  0
LINE
  8
0
 10
-51.2928
 20
-34.133
 11
-51.0995
 21
-34.0549
  0
LINE
  8
0
 10
-51.0995
 20
-34.0549
 11
-51.0988
 21
-34.0546
  0
LINE
  8
0
 10
-51.0988
 20
-34.0546
 11
-50.9083
 21
-33.9698
  0
LINE
  8
0
 10
-50.9083
 20
-33.9698
 11
-50.9073
 21
-33.9693
  0
LINE
  8
0
 10
-50.9073
 20
-33.9693
 11
-50.7198
 21
-33.8779
  0
LINE
  8
0
 10
-50.7198
 20
-33.8779
 11
-50.7192
 21
-33.8776
  0
LINE
  8
0
 10
-50.7192
 20
-33.8776
 11
-50.5351
 21
-33.7797
  0
LINE
  8
0
 10
-50.5351
 20
-33.7797
 11
-50.534
 21
-33.7792
  0
LINE
  8
0
 10
-50.534
 20
-33.7792
 11
-50.3534
 21
-33.6749
  0
LINE
  8
0
 10
-50.3534
 20
-33.6749
 11
-50.3528
 21
-33.6745
  0
LINE
  8
0
 10
-50.3528
 20
-33.6745
 11
-50.1759
 21
-33.564
  0
LINE
  8
0
 10
-50.1759
 20
-33.564
 11
-50.1753
 21
-33.5636
  0
LINE
  8
0
 10
-50.1753
 20
-33.5636
 11
-50.0024
 21
-33.447
  0
LINE
  8
0
 10
-50.0024
 20
-33.447
 11
-50.0014
 21
-33.4463
  0
LINE
  8
0
 10
-50.0014
 20
-33.4463
 11
-49.8327
 21
-33.3237
  0
LINE
  8
0
 10
-49.8327
 20
-33.3237
 11
-49.8321
 21
-33.3233
  0
LINE
  8
0
 10
-49.8321
 20
-33.3233
 11
-49.6677
 21
-33.1949
  0
LINE
  8
0
 10
-49.6677
 20
-33.1949
 11
-49.6672
 21
-33.1944
  0
LINE
  8
0
 10
-49.6672
 20
-33.1944
 11
-49.5074
 21
-33.0604
  0
LINE
  8
0
 10
-49.5074
 20
-33.0604
 11
-49.5068
 21
-33.0599
  0
LINE
  8
0
 10
-49.5068
 20
-33.0599
 11
-49.3518
 21
-32.9203
  0
LINE
  8
0
 10
-49.3518
 20
-32.9203
 11
-49.3514
 21
-32.92
  0
LINE
  8
0
 10
-49.3514
 20
-32.92
 11
-49.351
 21
-32.9196
  0
LINE
  8
0
 10
-49.351
 20
-32.9196
 11
-49.2009
 21
-32.7747
  0
LINE
  8
0
 10
-49.2009
 20
-32.7747
 11
-49.2004
 21
-32.7742
  0
LINE
  8
0
 10
-49.2004
 20
-32.7742
 11
-49.176
 21
-32.7498
  0
LINE
  8
0
 10
-49.176
 20
-32.7498
 11
-49.1754
 21
-32.7492
  0
LINE
  8
0
 10
-49.1754
 20
-32.7492
 11
-49.1747
 21
-32.7485
  0
LINE
  8
0
 10
-49.1747
 20
-32.7485
 11
-49.1738
 21
-32.7476
  0
LINE
  8
0
 10
-49.1738
 20
-32.7476
 11
-49.1729
 21
-32.7466
  0
LINE
  8
0
 10
-49.1729
 20
-32.7466
 11
-49.1717
 21
-32.7455
  0
LINE
  8
0
 10
-49.1717
 20
-32.7455
 11
-49.1705
 21
-32.7443
  0
LINE
  8
0
 10
-49.1705
 20
-32.7443
 11
-49.1692
 21
-32.743
  0
LINE
  8
0
 10
-49.1692
 20
-32.743
 11
-49.1677
 21
-32.7415
  0
LINE
  8
0
 10
-49.1677
 20
-32.7415
 11
-49.1661
 21
-32.7399
  0
LINE
  8
0
 10
-49.1661
 20
-32.7399
 11
-49.1644
 21
-32.7382
  0
LINE
  8
0
 10
-49.1644
 20
-32.7382
 11
-49.1621
 21
-32.7359
  0
LINE
  8
0
 10
-49.1621
 20
-32.7359
 11
-49.1592
 21
-32.733
  0
LINE
  8
0
 10
-49.1592
 20
-32.733
 11
-49.1566
 21
-32.7303
  0
LINE
  8
0
 10
-49.1566
 20
-32.7303
 11
-49.1539
 21
-32.7277
  0
LINE
  8
0
 10
-49.1539
 20
-32.7277
 11
-49.1511
 21
-32.7248
  0
LINE
  8
0
 10
-49.1511
 20
-32.7248
 11
-45.6964
 21
-29.2702
  0
LINE
  8
0
 10
-45.6964
 20
-29.2702
 11
-44.0145
 21
-27.5882
  0
LINE
  8
0
 10
-44.0145
 20
-27.5882
 11
-39.0647
 21
-27.5883
  0
LINE
  8
0
 10
-39.0647
 20
-27.5883
 11
-38.0468
 21
-28.6062
  0
LINE
  8
0
 10
-38.0468
 20
-28.6062
 11
-24.309
 21
-42.344
  0
LINE
  8
0
 10
-24.309
 20
-42.344
 11
-24.277
 21
-42.3756
  0
LINE
  8
0
 10
-24.277
 20
-42.3756
 11
-23.5618
 21
-42.9611
  0
LINE
  8
0
 10
-23.5618
 20
-42.9611
 11
-23.5128
 21
-42.9953
  0
LINE
  8
0
 10
-23.5128
 20
-42.9953
 11
-23.4655
 21
-43.0164
  0
LINE
  8
0
 10
-23.4655
 20
-43.0164
 11
-22.3319
 21
-43.4502
  0
LINE
  8
0
 10
-22.3319
 20
-43.4502
 11
-22.2712
 21
-43.4641
  0
LINE
  8
0
 10
-22.2712
 20
-43.4641
 11
-21.4928
 21
-43.5328
  0
LINE
  8
0
 10
-21.4928
 20
-43.5328
 11
-21.3472
 21
-43.5335
  0
LINE
  8
0
 10
-21.3472
 20
-43.5335
 11
-20.4941
 21
-43.5335
  0
LINE
  8
0
 10
-20.4941
 20
-43.5335
 11
-19.0914
 21
-43.5335
  0
LINE
  8
0
 10
-19.0914
 20
-43.5335
 11
-16.1804
 21
-43.5335
  0
LINE
  8
0
 10
-16.1804
 20
-43.5335
 11
11.7565
 21
-43.5335
  0
LINE
  8
0
 10
11.7565
 20
-43.5335
 11
16.2392
 21
-43.5335
  0
LINE
  8
0
 10
16.2392
 20
-43.5335
 11
18.347
 21
-43.5335
  0
LINE
  8
0
 10
18.347
 20
-43.5335
 11
20.4642
 21
-43.5334
  0
LINE
  8
0
 10
20.4642
 20
-43.5334
 11
20.7367
 21
-43.5335
  0
LINE
  8
0
 10
20.7367
 20
-43.5335
 11
21.3472
 21
-43.5335
  0
LINE
  8
0
 10
21.3472
 20
-43.5335
 11
21.4872
 21
-43.5327
  0
LINE
  8
0
 10
21.4872
 20
-43.5327
 11
22.1253
 21
-43.4881
  0
LINE
  8
0
 10
22.1253
 20
-43.4881
 11
22.1748
 21
-43.4793
  0
LINE
  8
0
 10
22.1748
 20
-43.4793
 11
23.1596
 21
-43.167
  0
LINE
  8
0
 10
23.1596
 20
-43.167
 11
23.209
 21
-43.1486
  0
LINE
  8
0
 10
23.209
 20
-43.1486
 11
23.2544
 21
-43.1206
  0
LINE
  8
0
 10
23.2544
 20
-43.1206
 11
23.9673
 21
-42.6573
  0
LINE
  8
0
 10
23.9673
 20
-42.6573
 11
24.0683
 21
-42.5598
  0
LINE
  8
0
 10
24.0683
 20
-42.5598
 11
24.3618
 21
-42.2912
  0
LINE
  8
0
 10
24.3618
 20
-42.2912
 11
24.371
 21
-42.282
  0
LINE
  8
0
 10
24.371
 20
-42.282
 11
38.1088
 21
-28.5442
  0
LINE
  8
0
 10
38.1088
 20
-28.5442
 11
39.0647
 21
-27.5883
  0
LINE
  8
0
 10
39.0647
 20
-27.5883
 11
44.0145
 21
-27.5883
  0
LINE
  8
0
 10
44.0145
 20
-27.5883
 11
45.6964
 21
-29.2702
  0
LINE
  8
0
 10
45.6964
 20
-29.2702
 11
49.1489
 21
-32.7226
  0
LINE
  8
0
 10
49.1489
 20
-32.7226
 11
49.151
 21
-32.7247
  0
LINE
  8
0
 10
49.151
 20
-32.7247
 11
49.1531
 21
-32.7269
  0
LINE
  8
0
 10
49.1531
 20
-32.7269
 11
49.1553
 21
-32.7291
  0
LINE
  8
0
 10
49.1553
 20
-32.7291
 11
49.1579
 21
-32.7317
  0
LINE
  8
0
 10
49.1579
 20
-32.7317
 11
49.1609
 21
-32.7347
  0
LINE
  8
0
 10
49.1609
 20
-32.7347
 11
49.1633
 21
-32.7371
  0
LINE
  8
0
 10
49.1633
 20
-32.7371
 11
49.1651
 21
-32.7389
  0
LINE
  8
0
 10
49.1651
 20
-32.7389
 11
49.1668
 21
-32.7406
  0
LINE
  8
0
 10
49.1668
 20
-32.7406
 11
49.1684
 21
-32.7421
  0
LINE
  8
0
 10
49.1684
 20
-32.7421
 11
49.1698
 21
-32.7436
  0
LINE
  8
0
 10
49.1698
 20
-32.7436
 11
49.1712
 21
-32.7449
  0
LINE
  8
0
 10
49.1712
 20
-32.7449
 11
49.1723
 21
-32.7461
  0
LINE
  8
0
 10
49.1723
 20
-32.7461
 11
49.1734
 21
-32.7471
  0
LINE
  8
0
 10
49.1734
 20
-32.7471
 11
49.1743
 21
-32.7481
  0
LINE
  8
0
 10
49.1743
 20
-32.7481
 11
49.1751
 21
-32.7488
  0
LINE
  8
0
 10
49.1751
 20
-32.7488
 11
49.1759
 21
-32.7496
  0
LINE
  8
0
 10
49.1759
 20
-32.7496
 11
49.1765
 21
-32.7503
  0
LINE
  8
0
 10
49.1765
 20
-32.7503
 11
49.1769
 21
-32.7507
  0
LINE
  8
0
 10
49.1769
 20
-32.7507
 11
49.2003
 21
-32.7741
  0
LINE
  8
0
 10
49.2003
 20
-32.7741
 11
49.2004
 21
-32.7742
  0
LINE
  8
0
 10
49.2004
 20
-32.7742
 11
49.3506
 21
-32.9192
  0
LINE
  8
0
 10
49.3506
 20
-32.9192
 11
49.3509
 21
-32.9196
  0
LINE
  8
0
 10
49.3509
 20
-32.9196
 11
49.4612
 21
-33.0189
  0
LINE
  8
0
 10
49.4612
 20
-33.0189
 11
49.4614
 21
-33.019
  0
LINE
  8
0
 10
49.4614
 20
-33.019
 11
49.4615
 21
-33.0191
  0
LINE
  8
0
 10
49.4615
 20
-33.0191
 11
49.5066
 21
-33.0597
  0
LINE
  8
0
 10
49.5066
 20
-33.0597
 11
49.6187
 21
-33.1538
  0
LINE
  8
0
 10
49.6187
 20
-33.1538
 11
49.6188
 21
-33.1539
  0
LINE
  8
0
 10
49.6188
 20
-33.1539
 11
49.619
 21
-33.154
  0
LINE
  8
0
 10
49.619
 20
-33.154
 11
49.667
 21
-33.1943
  0
LINE
  8
0
 10
49.667
 20
-33.1943
 11
49.7807
 21
-33.2831
  0
LINE
  8
0
 10
49.7807
 20
-33.2831
 11
49.7808
 21
-33.2832
  0
LINE
  8
0
 10
49.7808
 20
-33.2832
 11
49.781
 21
-33.2834
  0
LINE
  8
0
 10
49.781
 20
-33.2834
 11
49.832
 21
-33.3233
  0
LINE
  8
0
 10
49.832
 20
-33.3233
 11
49.9471
 21
-33.4068
  0
LINE
  8
0
 10
49.9471
 20
-33.4068
 11
49.9473
 21
-33.407
  0
LINE
  8
0
 10
49.9473
 20
-33.407
 11
49.9474
 21
-33.4071
  0
LINE
  8
0
 10
49.9474
 20
-33.4071
 11
50.0015
 21
-33.4464
  0
LINE
  8
0
 10
50.0015
 20
-33.4464
 11
50.1176
 21
-33.5247
  0
LINE
  8
0
 10
50.1176
 20
-33.5247
 11
50.1178
 21
-33.5248
  0
LINE
  8
0
 10
50.1178
 20
-33.5248
 11
50.1179
 21
-33.5249
  0
LINE
  8
0
 10
50.1179
 20
-33.5249
 11
50.1751
 21
-33.5635
  0
LINE
  8
0
 10
50.1751
 20
-33.5635
 11
50.2921
 21
-33.6366
  0
LINE
  8
0
 10
50.2921
 20
-33.6366
 11
50.2922
 21
-33.6366
  0
LINE
  8
0
 10
50.2922
 20
-33.6366
 11
50.2924
 21
-33.6368
  0
LINE
  8
0
 10
50.2924
 20
-33.6368
 11
50.3527
 21
-33.6745
  0
LINE
  8
0
 10
50.3527
 20
-33.6745
 11
50.4704
 21
-33.7424
  0
LINE
  8
0
 10
50.4704
 20
-33.7424
 11
50.4706
 21
-33.7425
  0
LINE
  8
0
 10
50.4706
 20
-33.7425
 11
50.4707
 21
-33.7426
  0
LINE
  8
0
 10
50.4707
 20
-33.7426
 11
50.5341
 21
-33.7791
  0
LINE
  8
0
 10
50.5341
 20
-33.7791
 11
50.6521
 21
-33.842
  0
LINE
  8
0
 10
50.6521
 20
-33.842
 11
50.6524
 21
-33.8421
  0
LINE
  8
0
 10
50.6524
 20
-33.8421
 11
50.6525
 21
-33.8422
  0
LINE
  8
0
 10
50.6525
 20
-33.8422
 11
50.719
 21
-33.8775
  0
LINE
  8
0
 10
50.719
 20
-33.8775
 11
50.8372
 21
-33.9352
  0
LINE
  8
0
 10
50.8372
 20
-33.9352
 11
50.8374
 21
-33.9353
  0
LINE
  8
0
 10
50.8374
 20
-33.9353
 11
50.8376
 21
-33.9354
  0
LINE
  8
0
 10
50.8376
 20
-33.9354
 11
50.9072
 21
-33.9693
  0
LINE
  8
0
 10
50.9072
 20
-33.9693
 11
51.0255
 21
-34.022
  0
LINE
  8
0
 10
51.0255
 20
-34.022
 11
51.0258
 21
-34.0221
  0
LINE
  8
0
 10
51.0258
 20
-34.0221
 11
51.0259
 21
-34.0222
  0
LINE
  8
0
 10
51.0259
 20
-34.0222
 11
51.0985
 21
-34.0545
  0
LINE
  8
0
 10
51.0985
 20
-34.0545
 11
51.2167
 21
-34.1022
  0
LINE
  8
0
 10
51.2167
 20
-34.1022
 11
51.2169
 21
-34.1023
  0
LINE
  8
0
 10
51.2169
 20
-34.1023
 11
51.2171
 21
-34.1024
  0
LINE
  8
0
 10
51.2171
 20
-34.1024
 11
51.2927
 21
-34.1329
  0
LINE
  8
0
 10
51.2927
 20
-34.1329
 11
51.4105
 21
-34.1758
  0
LINE
  8
0
 10
51.4105
 20
-34.1758
 11
51.4106
 21
-34.1759
  0
LINE
  8
0
 10
51.4106
 20
-34.1759
 11
51.4109
 21
-34.176
  0
LINE
  8
0
 10
51.4109
 20
-34.176
 11
51.4894
 21
-34.2046
  0
LINE
  8
0
 10
51.4894
 20
-34.2046
 11
51.6067
 21
-34.2427
  0
LINE
  8
0
 10
51.6067
 20
-34.2427
 11
51.607
 21
-34.2428
  0
LINE
  8
0
 10
51.607
 20
-34.2428
 11
51.6071
 21
-34.2428
  0
LINE
  8
0
 10
51.6071
 20
-34.2428
 11
51.6886
 21
-34.2693
  0
LINE
  8
0
 10
51.6886
 20
-34.2693
 11
51.8052
 21
-34.3027
  0
LINE
  8
0
 10
51.8052
 20
-34.3027
 11
51.8054
 21
-34.3027
  0
LINE
  8
0
 10
51.8054
 20
-34.3027
 11
51.8056
 21
-34.3028
  0
LINE
  8
0
 10
51.8056
 20
-34.3028
 11
51.8899
 21
-34.327
  0
LINE
  8
0
 10
51.8899
 20
-34.327
 11
52.0055
 21
-34.3559
  0
LINE
  8
0
 10
52.0055
 20
-34.3559
 11
52.0058
 21
-34.3559
  0
LINE
  8
0
 10
52.0058
 20
-34.3559
 11
52.0059
 21
-34.356
  0
LINE
  8
0
 10
52.0059
 20
-34.356
 11
52.0931
 21
-34.3777
  0
LINE
  8
0
 10
52.0931
 20
-34.3777
 11
52.2076
 21
-34.402
  0
LINE
  8
0
 10
52.2076
 20
-34.402
 11
52.2077
 21
-34.4021
  0
LINE
  8
0
 10
52.2077
 20
-34.4021
 11
52.208
 21
-34.4021
  0
LINE
  8
0
 10
52.208
 20
-34.4021
 11
52.298
 21
-34.4213
  0
LINE
  8
0
 10
52.298
 20
-34.4213
 11
52.4112
 21
-34.4412
  0
LINE
  8
0
 10
52.4112
 20
-34.4412
 11
52.4115
 21
-34.4413
  0
LINE
  8
0
 10
52.4115
 20
-34.4413
 11
52.4116
 21
-34.4413
  0
LINE
  8
0
 10
52.4116
 20
-34.4413
 11
52.5042
 21
-34.4576
  0
LINE
  8
0
 10
52.5042
 20
-34.4576
 11
52.616
 21
-34.4733
  0
LINE
  8
0
 10
52.616
 20
-34.4733
 11
52.6161
 21
-34.4734
  0
LINE
  8
0
 10
52.6161
 20
-34.4734
 11
52.6164
 21
-34.4734
  0
LINE
  8
0
 10
52.6164
 20
-34.4734
 11
52.7116
 21
-34.4868
  0
LINE
  8
0
 10
52.7116
 20
-34.4868
 11
52.8218
 21
-34.4983
  0
LINE
  8
0
 10
52.8218
 20
-34.4983
 11
52.822
 21
-34.4984
  0
LINE
  8
0
 10
52.822
 20
-34.4984
 11
52.8222
 21
-34.4984
  0
LINE
  8
0
 10
52.8222
 20
-34.4984
 11
52.9199
 21
-34.5087
  0
LINE
  8
0
 10
52.9199
 20
-34.5087
 11
53.0283
 21
-34.5162
  0
LINE
  8
0
 10
53.0283
 20
-34.5162
 11
53.0285
 21
-34.5163
  0
LINE
  8
0
 10
53.0285
 20
-34.5163
 11
53.0287
 21
-34.5163
  0
LINE
  8
0
 10
53.0287
 20
-34.5163
 11
53.1288
 21
-34.5233
  0
LINE
  8
0
 10
53.1288
 20
-34.5233
 11
53.2353
 21
-34.527
  0
LINE
  8
0
 10
53.2353
 20
-34.527
 11
53.2354
 21
-34.527
  0
LINE
  8
0
 10
53.2354
 20
-34.527
 11
53.2357
 21
-34.527
  0
LINE
  8
0
 10
53.2357
 20
-34.527
 11
53.3381
 21
-34.5306
  0
LINE
  8
0
 10
53.3381
 20
-34.5306
 11
53.4426
 21
-34.5306
  0
LINE
  8
0
 10
53.4426
 20
-34.5306
 11
53.4428
 21
-34.5306
  0
LINE
  8
0
 10
53.4428
 20
-34.5306
 11
53.443
 21
-34.5306
  0
LINE
  8
0
 10
53.443
 20
-34.5306
 11
53.5475
 21
-34.5306
  0
LINE
  8
0
 10
53.5475
 20
-34.5306
 11
53.6499
 21
-34.527
  0
LINE
  8
0
 10
53.6499
 20
-34.527
 11
53.6502
 21
-34.527
  0
LINE
  8
0
 10
53.6502
 20
-34.527
 11
53.6503
 21
-34.527
  0
LINE
  8
0
 10
53.6503
 20
-34.527
 11
53.7568
 21
-34.5233
  0
LINE
  8
0
 10
53.7568
 20
-34.5233
 11
53.8569
 21
-34.5163
  0
LINE
  8
0
 10
53.8569
 20
-34.5163
 11
53.8571
 21
-34.5163
  0
LINE
  8
0
 10
53.8571
 20
-34.5163
 11
53.8573
 21
-34.5163
  0
LINE
  8
0
 10
53.8573
 20
-34.5163
 11
53.9657
 21
-34.5087
  0
LINE
  8
0
 10
53.9657
 20
-34.5087
 11
54.0634
 21
-34.4984
  0
LINE
  8
0
 10
54.0634
 20
-34.4984
 11
54.0636
 21
-34.4984
  0
LINE
  8
0
 10
54.0636
 20
-34.4984
 11
54.0638
 21
-34.4984
  0
LINE
  8
0
 10
54.0638
 20
-34.4984
 11
54.174
 21
-34.4868
  0
LINE
  8
0
 10
54.174
 20
-34.4868
 11
54.2692
 21
-34.4734
  0
LINE
  8
0
 10
54.2692
 20
-34.4734
 11
54.2694
 21
-34.4734
  0
LINE
  8
0
 10
54.2694
 20
-34.4734
 11
54.2696
 21
-34.4734
  0
LINE
  8
0
 10
54.2696
 20
-34.4734
 11
54.3814
 21
-34.4577
  0
LINE
  8
0
 10
54.3814
 20
-34.4577
 11
54.474
 21
-34.4413
  0
LINE
  8
0
 10
54.474
 20
-34.4413
 11
54.4742
 21
-34.4413
  0
LINE
  8
0
 10
54.4742
 20
-34.4413
 11
54.4744
 21
-34.4413
  0
LINE
  8
0
 10
54.4744
 20
-34.4413
 11
54.5877
 21
-34.4213
  0
LINE
  8
0
 10
54.5877
 20
-34.4213
 11
54.6776
 21
-34.4022
  0
LINE
  8
0
 10
54.6776
 20
-34.4022
 11
54.6778
 21
-34.4022
  0
LINE
  8
0
 10
54.6778
 20
-34.4022
 11
54.678
 21
-34.4021
  0
LINE
  8
0
 10
54.678
 20
-34.4021
 11
54.7925
 21
-34.3778
  0
LINE
  8
0
 10
54.7925
 20
-34.3778
 11
54.8797
 21
-34.3561
  0
LINE
  8
0
 10
54.8797
 20
-34.3561
 11
54.8799
 21
-34.356
  0
LINE
  8
0
 10
54.8799
 20
-34.356
 11
54.8801
 21
-34.356
  0
LINE
  8
0
 10
54.8801
 20
-34.356
 11
54.9957
 21
-34.3271
  0
LINE
  8
0
 10
54.9957
 20
-34.3271
 11
55.0801
 21
-34.3029
  0
LINE
  8
0
 10
55.0801
 20
-34.3029
 11
55.0803
 21
-34.3029
  0
LINE
  8
0
 10
55.0803
 20
-34.3029
 11
55.0805
 21
-34.3028
  0
LINE
  8
0
 10
55.0805
 20
-34.3028
 11
55.197
 21
-34.2694
  0
LINE
  8
0
 10
55.197
 20
-34.2694
 11
55.2785
 21
-34.2429
  0
LINE
  8
0
 10
55.2785
 20
-34.2429
 11
55.2787
 21
-34.2429
  0
LINE
  8
0
 10
55.2787
 20
-34.2429
 11
55.2789
 21
-34.2428
  0
LINE
  8
0
 10
55.2789
 20
-34.2428
 11
55.3961
 21
-34.2047
  0
LINE
  8
0
 10
55.3961
 20
-34.2047
 11
55.4747
 21
-34.1761
  0
LINE
  8
0
 10
55.4747
 20
-34.1761
 11
55.4748
 21
-34.1761
  0
LINE
  8
0
 10
55.4748
 20
-34.1761
 11
55.4751
 21
-34.176
  0
LINE
  8
0
 10
55.4751
 20
-34.176
 11
55.593
 21
-34.1331
  0
LINE
  8
0
 10
55.593
 20
-34.1331
 11
55.6686
 21
-34.1026
  0
LINE
  8
0
 10
55.6686
 20
-34.1026
 11
55.669
 21
-34.1024
  0
LINE
  8
0
 10
55.669
 20
-34.1024
 11
55.7871
 21
-34.0547
  0
LINE
  8
0
 10
55.7871
 20
-34.0547
 11
55.8597
 21
-34.0224
  0
LINE
  8
0
 10
55.8597
 20
-34.0224
 11
55.86
 21
-34.0222
  0
LINE
  8
0
 10
55.86
 20
-34.0222
 11
55.8601
 21
-34.0222
  0
LINE
  8
0
 10
55.8601
 20
-34.0222
 11
55.9784
 21
-33.9695
  0
LINE
  8
0
 10
55.9784
 20
-33.9695
 11
56.048
 21
-33.9356
  0
LINE
  8
0
 10
56.048
 20
-33.9356
 11
56.0482
 21
-33.9355
  0
LINE
  8
0
 10
56.0482
 20
-33.9355
 11
56.0484
 21
-33.9354
  0
LINE
  8
0
 10
56.0484
 20
-33.9354
 11
56.1668
 21
-33.8777
  0
LINE
  8
0
 10
56.1668
 20
-33.8777
 11
56.2331
 21
-33.8424
  0
LINE
  8
0
 10
56.2331
 20
-33.8424
 11
56.2332
 21
-33.8423
  0
LINE
  8
0
 10
56.2332
 20
-33.8423
 11
56.2335
 21
-33.8422
  0
LINE
  8
0
 10
56.2335
 20
-33.8422
 11
56.3516
 21
-33.7794
  0
LINE
  8
0
 10
56.3516
 20
-33.7794
 11
56.4149
 21
-33.7428
  0
LINE
  8
0
 10
56.4149
 20
-33.7428
 11
56.4152
 21
-33.7427
  0
LINE
  8
0
 10
56.4152
 20
-33.7427
 11
56.4153
 21
-33.7426
  0
LINE
  8
0
 10
56.4153
 20
-33.7426
 11
56.533
 21
-33.6747
  0
LINE
  8
0
 10
56.533
 20
-33.6747
 11
56.5932
 21
-33.637
  0
LINE
  8
0
 10
56.5932
 20
-33.637
 11
56.5934
 21
-33.6369
  0
LINE
  8
0
 10
56.5934
 20
-33.6369
 11
56.5936
 21
-33.6368
  0
LINE
  8
0
 10
56.5936
 20
-33.6368
 11
56.7106
 21
-33.5637
  0
LINE
  8
0
 10
56.7106
 20
-33.5637
 11
56.7677
 21
-33.5251
  0
LINE
  8
0
 10
56.7677
 20
-33.5251
 11
56.768
 21
-33.5249
  0
LINE
  8
0
 10
56.768
 20
-33.5249
 11
56.7681
 21
-33.5249
  0
LINE
  8
0
 10
56.7681
 20
-33.5249
 11
56.8843
 21
-33.4466
  0
LINE
  8
0
 10
56.8843
 20
-33.4466
 11
56.9383
 21
-33.4073
  0
LINE
  8
0
 10
56.9383
 20
-33.4073
 11
56.9385
 21
-33.4072
  0
LINE
  8
0
 10
56.9385
 20
-33.4072
 11
56.9387
 21
-33.407
  0
LINE
  8
0
 10
56.9387
 20
-33.407
 11
57.0537
 21
-33.3235
  0
LINE
  8
0
 10
57.0537
 20
-33.3235
 11
57.1048
 21
-33.2836
  0
LINE
  8
0
 10
57.1048
 20
-33.2836
 11
57.1051
 21
-33.2834
  0
LINE
  8
0
 10
57.1051
 20
-33.2834
 11
57.2186
 21
-33.1946
  0
LINE
  8
0
 10
57.2186
 20
-33.1946
 11
57.2667
 21
-33.1543
  0
LINE
  8
0
 10
57.2667
 20
-33.1543
 11
57.2669
 21
-33.1542
  0
LINE
  8
0
 10
57.2669
 20
-33.1542
 11
57.2671
 21
-33.154
  0
LINE
  8
0
 10
57.2671
 20
-33.154
 11
57.3792
 21
-33.06
  0
LINE
  8
0
 10
57.3792
 20
-33.06
 11
57.4242
 21
-33.0194
  0
LINE
  8
0
 10
57.4242
 20
-33.0194
 11
57.4244
 21
-33.0192
  0
LINE
  8
0
 10
57.4244
 20
-33.0192
 11
57.4245
 21
-33.0191
  0
LINE
  8
0
 10
57.4245
 20
-33.0191
 11
57.5348
 21
-32.9198
  0
LINE
  8
0
 10
57.5348
 20
-32.9198
 11
57.5769
 21
-32.8792
  0
LINE
  8
0
 10
57.5769
 20
-32.8792
 11
57.577
 21
-32.8791
  0
LINE
  8
0
 10
57.577
 20
-32.8791
 11
57.5772
 21
-32.8789
  0
LINE
  8
0
 10
57.5772
 20
-32.8789
 11
57.6855
 21
-32.7744
  0
LINE
  8
0
 10
57.6855
 20
-32.7744
 11
57.6857
 21
-32.7742
  0
LINE
  8
0
 10
57.6857
 20
-32.7742
 11
57.7116
 21
-32.7483
  0
LINE
  8
0
 10
57.7116
 20
-32.7483
 11
57.7222
 21
-32.7377
  0
LINE
  8
0
 10
57.7222
 20
-32.7377
 11
68.455
 21
-22.0048
  0
LINE
  8
0
 10
68.455
 20
-22.0048
 11
68.4679
 21
-21.9919
  0
LINE
  8
0
 10
68.4679
 20
-21.9919
 11
68.4785
 21
-21.9813
  0
LINE
  8
0
 10
68.4785
 20
-21.9813
 11
68.5044
 21
-21.9554
  0
LINE
  8
0
 10
68.5044
 20
-21.9554
 11
68.6496
 21
-21.8051
  0
LINE
  8
0
 10
68.6496
 20
-21.8051
 11
68.6498
 21
-21.8049
  0
LINE
  8
0
 10
68.6498
 20
-21.8049
 11
68.7491
 21
-21.6946
  0
LINE
  8
0
 10
68.7491
 20
-21.6946
 11
68.7493
 21
-21.6944
  0
LINE
  8
0
 10
68.7493
 20
-21.6944
 11
68.7494
 21
-21.6943
  0
LINE
  8
0
 10
68.7494
 20
-21.6943
 11
68.7899
 21
-21.6492
  0
LINE
  8
0
 10
68.7899
 20
-21.6492
 11
68.8839
 21
-21.5372
  0
LINE
  8
0
 10
68.8839
 20
-21.5372
 11
68.884
 21
-21.5371
  0
LINE
  8
0
 10
68.884
 20
-21.5371
 11
68.8842
 21
-21.5368
  0
LINE
  8
0
 10
68.8842
 20
-21.5368
 11
68.9245
 21
-21.4888
  0
LINE
  8
0
 10
68.9245
 20
-21.4888
 11
68.9247
 21
-21.4886
  0
LINE
  8
0
 10
68.9247
 20
-21.4886
 11
69.0534
 21
-21.3239
  0
LINE
  8
0
 10
69.0534
 20
-21.3239
 11
69.0535
 21
-21.3238
  0
LINE
  8
0
 10
69.0535
 20
-21.3238
 11
69.137
 21
-21.2088
  0
LINE
  8
0
 10
69.137
 20
-21.2088
 11
69.1371
 21
-21.2087
  0
LINE
  8
0
 10
69.1371
 20
-21.2087
 11
69.1373
 21
-21.2085
  0
LINE
  8
0
 10
69.1373
 20
-21.2085
 11
69.1766
 21
-21.1544
  0
LINE
  8
0
 10
69.1766
 20
-21.1544
 11
69.2548
 21
-21.0383
  0
LINE
  8
0
 10
69.2548
 20
-21.0383
 11
69.255
 21
-21.038
  0
LINE
  8
0
 10
69.255
 20
-21.038
 11
69.2551
 21
-21.0379
  0
LINE
  8
0
 10
69.2551
 20
-21.0379
 11
69.2937
 21
-20.9807
  0
LINE
  8
0
 10
69.2937
 20
-20.9807
 11
69.3668
 21
-20.8638
  0
LINE
  8
0
 10
69.3668
 20
-20.8638
 11
69.3668
 21
-20.8636
  0
LINE
  8
0
 10
69.3668
 20
-20.8636
 11
69.367
 21
-20.8634
  0
LINE
  8
0
 10
69.367
 20
-20.8634
 11
69.4047
 21
-20.8032
  0
LINE
  8
0
 10
69.4047
 20
-20.8032
 11
69.4726
 21
-20.6855
  0
LINE
  8
0
 10
69.4726
 20
-20.6855
 11
69.4727
 21
-20.6852
  0
LINE
  8
0
 10
69.4727
 20
-20.6852
 11
69.4728
 21
-20.6851
  0
LINE
  8
0
 10
69.4728
 20
-20.6851
 11
69.5094
 21
-20.6218
  0
LINE
  8
0
 10
69.5094
 20
-20.6218
 11
69.5722
 21
-20.5037
  0
LINE
  8
0
 10
69.5722
 20
-20.5037
 11
69.5723
 21
-20.5035
  0
LINE
  8
0
 10
69.5723
 20
-20.5035
 11
69.5724
 21
-20.5033
  0
LINE
  8
0
 10
69.5724
 20
-20.5033
 11
69.6077
 21
-20.4369
  0
LINE
  8
0
 10
69.6077
 20
-20.4369
 11
69.6654
 21
-20.3185
  0
LINE
  8
0
 10
69.6654
 20
-20.3185
 11
69.6654
 21
-20.3185
  0
LINE
  8
0
 10
69.6654
 20
-20.3185
 11
69.6656
 21
-20.3181
  0
LINE
  8
0
 10
69.6656
 20
-20.3181
 11
69.6995
 21
-20.2486
  0
LINE
  8
0
 10
69.6995
 20
-20.2486
 11
69.7522
 21
-20.1303
  0
LINE
  8
0
 10
69.7522
 20
-20.1303
 11
69.7523
 21
-20.13
  0
LINE
  8
0
 10
69.7523
 20
-20.13
 11
69.7524
 21
-20.1299
  0
LINE
  8
0
 10
69.7524
 20
-20.1299
 11
69.7847
 21
-20.0573
  0
LINE
  8
0
 10
69.7847
 20
-20.0573
 11
69.8324
 21
-19.9391
  0
LINE
  8
0
 10
69.8324
 20
-19.9391
 11
69.8325
 21
-19.939
  0
LINE
  8
0
 10
69.8325
 20
-19.939
 11
69.8326
 21
-19.9387
  0
LINE
  8
0
 10
69.8326
 20
-19.9387
 11
69.8631
 21
-19.8631
  0
LINE
  8
0
 10
69.8631
 20
-19.8631
 11
69.906
 21
-19.7453
  0
LINE
  8
0
 10
69.906
 20
-19.7453
 11
69.9061
 21
-19.7452
  0
LINE
  8
0
 10
69.9061
 20
-19.7452
 11
69.9062
 21
-19.7449
  0
LINE
  8
0
 10
69.9062
 20
-19.7449
 11
69.9348
 21
-19.6663
  0
LINE
  8
0
 10
69.9348
 20
-19.6663
 11
69.973
 21
-19.5491
  0
LINE
  8
0
 10
69.973
 20
-19.5491
 11
69.9731
 21
-19.5487
  0
LINE
  8
0
 10
69.9731
 20
-19.5487
 11
69.9995
 21
-19.4672
  0
LINE
  8
0
 10
69.9995
 20
-19.4672
 11
70.033
 21
-19.3507
  0
LINE
  8
0
 10
70.033
 20
-19.3507
 11
70.0331
 21
-19.3504
  0
LINE
  8
0
 10
70.0331
 20
-19.3504
 11
70.0331
 21
-19.3503
  0
LINE
  8
0
 10
70.0331
 20
-19.3503
 11
70.0572
 21
-19.2659
  0
LINE
  8
0
 10
70.0572
 20
-19.2659
 11
70.0861
 21
-19.1503
  0
LINE
  8
0
 10
70.0861
 20
-19.1503
 11
70.0862
 21
-19.15
  0
LINE
  8
0
 10
70.0862
 20
-19.15
 11
70.0862
 21
-19.1499
  0
LINE
  8
0
 10
70.0862
 20
-19.1499
 11
70.108
 21
-19.0627
  0
LINE
  8
0
 10
70.108
 20
-19.0627
 11
70.1323
 21
-18.9482
  0
LINE
  8
0
 10
70.1323
 20
-18.9482
 11
70.1324
 21
-18.948
  0
LINE
  8
0
 10
70.1324
 20
-18.948
 11
70.1324
 21
-18.9478
  0
LINE
  8
0
 10
70.1324
 20
-18.9478
 11
70.1515
 21
-18.8578
  0
LINE
  8
0
 10
70.1515
 20
-18.8578
 11
70.1714
 21
-18.7446
  0
LINE
  8
0
 10
70.1714
 20
-18.7446
 11
70.1714
 21
-18.7445
  0
LINE
  8
0
 10
70.1714
 20
-18.7445
 11
70.1715
 21
-18.7442
  0
LINE
  8
0
 10
70.1715
 20
-18.7442
 11
70.1879
 21
-18.6516
  0
LINE
  8
0
 10
70.1879
 20
-18.6516
 11
70.2035
 21
-18.5398
  0
LINE
  8
0
 10
70.2035
 20
-18.5398
 11
70.2036
 21
-18.5396
  0
LINE
  8
0
 10
70.2036
 20
-18.5396
 11
70.2036
 21
-18.5394
  0
LINE
  8
0
 10
70.2036
 20
-18.5394
 11
70.217
 21
-18.4442
  0
LINE
  8
0
 10
70.217
 20
-18.4442
 11
70.2286
 21
-18.334
  0
LINE
  8
0
 10
70.2286
 20
-18.334
 11
70.2286
 21
-18.3338
  0
LINE
  8
0
 10
70.2286
 20
-18.3338
 11
70.2286
 21
-18.3336
  0
LINE
  8
0
 10
70.2286
 20
-18.3336
 11
70.2389
 21
-18.2359
  0
LINE
  8
0
 10
70.2389
 20
-18.2359
 11
70.2465
 21
-18.1275
  0
LINE
  8
0
 10
70.2465
 20
-18.1275
 11
70.2465
 21
-18.1273
  0
LINE
  8
0
 10
70.2465
 20
-18.1273
 11
70.2465
 21
-18.1271
  0
LINE
  8
0
 10
70.2465
 20
-18.1271
 11
70.2535
 21
-18.027
  0
LINE
  8
0
 10
70.2535
 20
-18.027
 11
70.2573
 21
-17.9205
  0
LINE
  8
0
 10
70.2573
 20
-17.9205
 11
70.2573
 21
-17.9203
  0
LINE
  8
0
 10
70.2573
 20
-17.9203
 11
70.2573
 21
-17.9201
  0
LINE
  8
0
 10
70.2573
 20
-17.9201
 11
70.2608
 21
-17.8177
  0
LINE
  8
0
 10
70.2608
 20
-17.8177
 11
70.2608
 21
-17.7132
  0
LINE
  8
0
 10
70.2608
 20
-17.7132
 11
70.2608
 21
-17.713
  0
LINE
  8
0
 10
70.2608
 20
-17.713
 11
70.2608
 21
-17.7128
  0
LINE
  8
0
 10
70.2608
 20
-17.7128
 11
70.2608
 21
-17.6083
  0
LINE
  8
0
 10
70.2608
 20
-17.6083
 11
70.2573
 21
-17.506
  0
LINE
  8
0
 10
70.2573
 20
-17.506
 11
70.2573
 21
-17.5057
  0
LINE
  8
0
 10
70.2573
 20
-17.5057
 11
70.2573
 21
-17.5055
  0
LINE
  8
0
 10
70.2573
 20
-17.5055
 11
70.2535
 21
-17.399
  0
LINE
  8
0
 10
70.2535
 20
-17.399
 11
70.2465
 21
-17.2989
  0
LINE
  8
0
 10
70.2465
 20
-17.2989
 11
70.2465
 21
-17.2986
  0
LINE
  8
0
 10
70.2465
 20
-17.2986
 11
70.2465
 21
-17.2985
  0
LINE
  8
0
 10
70.2465
 20
-17.2985
 11
70.2389
 21
-17.1901
  0
LINE
  8
0
 10
70.2389
 20
-17.1901
 11
70.2286
 21
-17.0924
  0
LINE
  8
0
 10
70.2286
 20
-17.0924
 11
70.2286
 21
-17.0921
  0
LINE
  8
0
 10
70.2286
 20
-17.0921
 11
70.2286
 21
-17.0919
  0
LINE
  8
0
 10
70.2286
 20
-17.0919
 11
70.217
 21
-16.9818
  0
LINE
  8
0
 10
70.217
 20
-16.9818
 11
70.2037
 21
-16.8866
  0
LINE
  8
0
 10
70.2037
 20
-16.8866
 11
70.2036
 21
-16.8864
  0
LINE
  8
0
 10
70.2036
 20
-16.8864
 11
70.2036
 21
-16.8862
  0
LINE
  8
0
 10
70.2036
 20
-16.8862
 11
70.1879
 21
-16.7744
  0
LINE
  8
0
 10
70.1879
 20
-16.7744
 11
70.1716
 21
-16.6818
  0
LINE
  8
0
 10
70.1716
 20
-16.6818
 11
70.1715
 21
-16.6815
  0
LINE
  8
0
 10
70.1715
 20
-16.6815
 11
70.1715
 21
-16.6814
  0
LINE
  8
0
 10
70.1715
 20
-16.6814
 11
70.1515
 21
-16.5682
  0
LINE
  8
0
 10
70.1515
 20
-16.5682
 11
70.1325
 21
-16.4782
  0
LINE
  8
0
 10
70.1325
 20
-16.4782
 11
70.1325
 21
-16.4781
  0
LINE
  8
0
 10
70.1325
 20
-16.4781
 11
70.1324
 21
-16.4778
  0
LINE
  8
0
 10
70.1324
 20
-16.4778
 11
70.1081
 21
-16.3633
  0
LINE
  8
0
 10
70.1081
 20
-16.3633
 11
70.0863
 21
-16.2761
  0
LINE
  8
0
 10
70.0863
 20
-16.2761
 11
70.0862
 21
-16.2759
  0
LINE
  8
0
 10
70.0862
 20
-16.2759
 11
70.0862
 21
-16.2757
  0
LINE
  8
0
 10
70.0862
 20
-16.2757
 11
70.0574
 21
-16.1601
  0
LINE
  8
0
 10
70.0574
 20
-16.1601
 11
70.0332
 21
-16.0757
  0
LINE
  8
0
 10
70.0332
 20
-16.0757
 11
70.0332
 21
-16.0756
  0
LINE
  8
0
 10
70.0332
 20
-16.0756
 11
70.0331
 21
-16.0754
  0
LINE
  8
0
 10
70.0331
 20
-16.0754
 11
69.9997
 21
-15.9588
  0
LINE
  8
0
 10
69.9997
 20
-15.9588
 11
69.9731
 21
-15.8773
  0
LINE
  8
0
 10
69.9731
 20
-15.8773
 11
69.9731
 21
-15.8771
  0
LINE
  8
0
 10
69.9731
 20
-15.8771
 11
69.973
 21
-15.8769
  0
LINE
  8
0
 10
69.973
 20
-15.8769
 11
69.935
 21
-15.7596
  0
LINE
  8
0
 10
69.935
 20
-15.7596
 11
69.9063
 21
-15.681
  0
LINE
  8
0
 10
69.9063
 20
-15.681
 11
69.9063
 21
-15.6809
  0
LINE
  8
0
 10
69.9063
 20
-15.6809
 11
69.9062
 21
-15.6807
  0
LINE
  8
0
 10
69.9062
 20
-15.6807
 11
69.8633
 21
-15.5628
  0
LINE
  8
0
 10
69.8633
 20
-15.5628
 11
69.8327
 21
-15.4872
  0
LINE
  8
0
 10
69.8327
 20
-15.4872
 11
69.8327
 21
-15.487
  0
LINE
  8
0
 10
69.8327
 20
-15.487
 11
69.8326
 21
-15.4868
  0
LINE
  8
0
 10
69.8326
 20
-15.4868
 11
69.7849
 21
-15.3687
  0
LINE
  8
0
 10
69.7849
 20
-15.3687
 11
69.7526
 21
-15.2961
  0
LINE
  8
0
 10
69.7526
 20
-15.2961
 11
69.7525
 21
-15.296
  0
LINE
  8
0
 10
69.7525
 20
-15.296
 11
69.7524
 21
-15.2957
  0
LINE
  8
0
 10
69.7524
 20
-15.2957
 11
69.6997
 21
-15.1773
  0
LINE
  8
0
 10
69.6997
 20
-15.1773
 11
69.6658
 21
-15.1078
  0
LINE
  8
0
 10
69.6658
 20
-15.1078
 11
69.6656
 21
-15.1075
  0
LINE
  8
0
 10
69.6656
 20
-15.1075
 11
69.6656
 21
-15.1074
  0
LINE
  8
0
 10
69.6656
 20
-15.1074
 11
69.6079
 21
-14.9891
  0
LINE
  8
0
 10
69.6079
 20
-14.9891
 11
69.5726
 21
-14.9227
  0
LINE
  8
0
 10
69.5726
 20
-14.9227
 11
69.5725
 21
-14.9225
  0
LINE
  8
0
 10
69.5725
 20
-14.9225
 11
69.5724
 21
-14.9223
  0
LINE
  8
0
 10
69.5724
 20
-14.9223
 11
69.5096
 21
-14.8042
  0
LINE
  8
0
 10
69.5096
 20
-14.8042
 11
69.473
 21
-14.7408
  0
LINE
  8
0
 10
69.473
 20
-14.7408
 11
69.4729
 21
-14.7407
  0
LINE
  8
0
 10
69.4729
 20
-14.7407
 11
69.4728
 21
-14.7404
  0
LINE
  8
0
 10
69.4728
 20
-14.7404
 11
69.4049
 21
-14.6228
  0
LINE
  8
0
 10
69.4049
 20
-14.6228
 11
69.3672
 21
-14.5625
  0
LINE
  8
0
 10
69.3672
 20
-14.5625
 11
69.3671
 21
-14.5623
  0
LINE
  8
0
 10
69.3671
 20
-14.5623
 11
69.367
 21
-14.5622
  0
LINE
  8
0
 10
69.367
 20
-14.5622
 11
69.2939
 21
-14.4452
  0
LINE
  8
0
 10
69.2939
 20
-14.4452
 11
69.2554
 21
-14.388
  0
LINE
  8
0
 10
69.2554
 20
-14.388
 11
69.2553
 21
-14.3878
  0
LINE
  8
0
 10
69.2553
 20
-14.3878
 11
69.2552
 21
-14.3876
  0
LINE
  8
0
 10
69.2552
 20
-14.3876
 11
69.1768
 21
-14.2716
  0
LINE
  8
0
 10
69.1768
 20
-14.2716
 11
69.1375
 21
-14.2175
  0
LINE
  8
0
 10
69.1375
 20
-14.2175
 11
69.1375
 21
-14.2174
  0
LINE
  8
0
 10
69.1375
 20
-14.2174
 11
69.1373
 21
-14.2171
  0
LINE
  8
0
 10
69.1373
 20
-14.2171
 11
69.0538
 21
-14.1021
  0
LINE
  8
0
 10
69.0538
 20
-14.1021
 11
69.0138
 21
-14.051
  0
LINE
  8
0
 10
69.0138
 20
-14.051
 11
69.0136
 21
-14.0508
  0
LINE
  8
0
 10
69.0136
 20
-14.0508
 11
69.0136
 21
-14.0507
  0
LINE
  8
0
 10
69.0136
 20
-14.0507
 11
68.9248
 21
-13.9371
  0
LINE
  8
0
 10
68.9248
 20
-13.9371
 11
68.8845
 21
-13.889
  0
LINE
  8
0
 10
68.8845
 20
-13.889
 11
68.8843
 21
-13.8889
  0
LINE
  8
0
 10
68.8843
 20
-13.8889
 11
68.8842
 21
-13.8887
  0
LINE
  8
0
 10
68.8842
 20
-13.8887
 11
68.7902
 21
-13.7766
  0
LINE
  8
0
 10
68.7902
 20
-13.7766
 11
68.7497
 21
-13.7316
  0
LINE
  8
0
 10
68.7497
 20
-13.7316
 11
68.7496
 21
-13.7315
  0
LINE
  8
0
 10
68.7496
 20
-13.7315
 11
68.7494
 21
-13.7313
  0
LINE
  8
0
 10
68.7494
 20
-13.7313
 11
68.6501
 21
-13.621
  0
LINE
  8
0
 10
68.6501
 20
-13.621
 11
68.6094
 21
-13.5789
  0
LINE
  8
0
 10
68.6094
 20
-13.5789
 11
68.6093
 21
-13.5789
  0
LINE
  8
0
 10
68.6093
 20
-13.5789
 11
68.6091
 21
-13.5786
  0
LINE
  8
0
 10
68.6091
 20
-13.5786
 11
68.6088
 21
-13.5783
  0
LINE
  8
0
 10
68.6088
 20
-13.5783
 11
68.5044
 21
-13.4701
  0
LINE
  8
0
 10
68.5044
 20
-13.4701
 11
68.5044
 21
-13.4701
  0
LINE
  8
0
 10
68.5044
 20
-13.4701
 11
68.4811
 21
-13.4469
  0
LINE
  8
0
 10
68.4811
 20
-13.4469
 11
68.4809
 21
-13.4467
  0
LINE
  8
0
 10
68.4809
 20
-13.4467
 11
68.4806
 21
-13.4463
  0
LINE
  8
0
 10
68.4806
 20
-13.4463
 11
68.4802
 21
-13.4459
  0
LINE
  8
0
 10
68.4802
 20
-13.4459
 11
68.4797
 21
-13.4455
  0
LINE
  8
0
 10
68.4797
 20
-13.4455
 11
68.4791
 21
-13.4448
  0
LINE
  8
0
 10
68.4791
 20
-13.4448
 11
68.4783
 21
-13.444
  0
LINE
  8
0
 10
68.4783
 20
-13.444
 11
68.4774
 21
-13.4431
  0
LINE
  8
0
 10
68.4774
 20
-13.4431
 11
68.4763
 21
-13.4421
  0
LINE
  8
0
 10
68.4763
 20
-13.4421
 11
68.4752
 21
-13.4409
  0
LINE
  8
0
 10
68.4752
 20
-13.4409
 11
68.4739
 21
-13.4396
  0
LINE
  8
0
 10
68.4739
 20
-13.4396
 11
68.4725
 21
-13.4382
  0
LINE
  8
0
 10
68.4725
 20
-13.4382
 11
68.4709
 21
-13.4367
  0
LINE
  8
0
 10
68.4709
 20
-13.4367
 11
68.4693
 21
-13.435
  0
LINE
  8
0
 10
68.4693
 20
-13.435
 11
68.4675
 21
-13.4332
  0
LINE
  8
0
 10
68.4675
 20
-13.4332
 11
68.4656
 21
-13.4314
  0
LINE
  8
0
 10
68.4656
 20
-13.4314
 11
68.4637
 21
-13.4294
  0
LINE
  8
0
 10
68.4637
 20
-13.4294
 11
68.4611
 21
-13.4269
  0
LINE
  8
0
 10
68.4611
 20
-13.4269
 11
68.4579
 21
-13.4236
  0
LINE
  8
0
 10
68.4579
 20
-13.4236
 11
68.4551
 21
-13.4208
  0
LINE
  8
0
 10
68.4551
 20
-13.4208
 11
65.0004
 21
-9.96617
  0
LINE
  8
0
 10
65.0004
 20
-9.96617
 11
63.3185
 21
-8.28423
  0
LINE
  8
0
 10
63.3185
 20
-8.28423
 11
63.3185
 21
-3.33448
  0
LINE
  8
0
 10
63.3185
 20
-3.33448
 11
77.1424
 21
10.4894
  0
LINE
  8
0
 10
77.1424
 20
10.4894
 11
77.1424
 21
17.9903
  0
LINE
  8
0
 10
77.1424
 20
17.9903
 11
77.1405
 21
18.3304
  0
LINE
  8
0
 10
77.1405
 20
18.3304
 11
77.1424
 21
18.4895
  0
LINE
  8
0
 10
77.1424
 20
18.4895
 11
77.1421
 21
18.5044
  0
LINE
  8
0
 10
77.1421
 20
18.5044
 11
77.132
 21
19.0901
  0
LINE
  8
0
 10
77.132
 20
19.0901
 11
77.1019
 21
19.6751
  0
LINE
  8
0
 10
77.1019
 20
19.6751
 11
77.1013
 21
19.6867
  0
LINE
  8
0
 10
77.1013
 20
19.6867
 11
77.051
 21
20.2719
  0
LINE
  8
0
 10
77.051
 20
20.2719
 11
77.0498
 21
20.2857
  0
LINE
  8
0
 10
77.0498
 20
20.2857
 11
76.9792
 21
20.8703
  0
LINE
  8
0
 10
76.9792
 20
20.8703
 11
76.977
 21
20.8867
  0
LINE
  8
0
 10
76.977
 20
20.8867
 11
76.8862
 21
21.4702
  0
LINE
  8
0
 10
76.8862
 20
21.4702
 11
76.7754
 21
22.0503
  0
LINE
  8
0
 10
76.7754
 20
22.0503
 11
76.7739
 21
22.0582
  0
LINE
  8
0
 10
76.7739
 20
22.0582
 11
76.772
 21
22.0671
  0
LINE
  8
0
 10
76.772
 20
22.0671
 11
76.6442
 21
22.6309
  0
LINE
  8
0
 10
76.6442
 20
22.6309
 11
76.6403
 21
22.6469
  0
LINE
  8
0
 10
76.6403
 20
22.6469
 11
76.4113
 21
23.4779
  0
LINE
  8
0
 10
76.4113
 20
23.4779
 11
76.4001
 21
23.518
  0
LINE
  8
0
 10
76.4001
 20
23.518
 11
76.0328
 21
24.6047
  0
LINE
  8
0
 10
76.0328
 20
24.6047
 11
76.0162
 21
24.6521
  0
LINE
  8
0
 10
76.0162
 20
24.6521
 11
75.5752
 21
25.711
  0
LINE
  8
0
 10
75.5752
 20
25.711
 11
75.5586
 21
25.7443
  0
LINE
  8
0
 10
75.5586
 20
25.7443
 11
75.5444
 21
25.7798
  0
LINE
  8
0
 10
75.5444
 20
25.7798
 11
75.0318
 21
26.8061
  0
LINE
  8
0
 10
75.0318
 20
26.8061
 11
75.0072
 21
26.8509
  0
LINE
  8
0
 10
75.0072
 20
26.8509
 11
74.4456
 21
27.8168
  0
LINE
  8
0
 10
74.4456
 20
27.8168
 11
74.4269
 21
27.8462
  0
LINE
  8
0
 10
74.4269
 20
27.8462
 11
73.7821
 21
28.7918
  0
LINE
  8
0
 10
73.7821
 20
28.7918
 11
73.7595
 21
28.8239
  0
LINE
  8
0
 10
73.7595
 20
28.8239
 11
73.0513
 21
29.7234
  0
LINE
  8
0
 10
73.0513
 20
29.7234
 11
73.0197
 21
29.7627
  0
LINE
  8
0
 10
73.0197
 20
29.7627
 11
72.2496
 21
30.6138
  0
LINE
  8
0
 10
72.2496
 20
30.6138
 11
72.2173
 21
30.6489
  0
LINE
  8
0
 10
72.2173
 20
30.6489
 11
71.3292
 21
31.5017
  0
LINE
  8
0
 10
71.3292
 20
31.5017
 11
71.3006
 21
31.529
  0
LINE
  8
0
 10
71.3006
 20
31.529
 11
71.2512
 21
31.5705
  0
LINE
  8
0
 10
71.2512
 20
31.5705
 11
70.4368
 21
32.2493
  0
LINE
  8
0
 10
70.4368
 20
32.2493
 11
69.4731
 21
32.9499
  0
LINE
  8
0
 10
69.4731
 20
32.9499
 11
69.4276
 21
32.9817
  0
LINE
  8
0
 10
69.4276
 20
32.9817
 11
68.4562
 21
33.5899
  0
LINE
  8
0
 10
68.4562
 20
33.5899
 11
68.4364
 21
33.6023
  0
LINE
  8
0
 10
68.4364
 20
33.6023
 11
68.4068
 21
33.6193
  0
LINE
  8
0
 10
68.4068
 20
33.6193
 11
67.1117
 21
34.2974
  0
LINE
  8
0
 10
67.1117
 20
34.2974
 11
67.0624
 21
34.3217
  0
LINE
  8
0
 10
67.0624
 20
34.3217
 11
66.0247
 21
34.7589
  0
LINE
  8
0
 10
66.0247
 20
34.7589
 11
65.9937
 21
34.7717
  0
LINE
  8
0
 10
65.9937
 20
34.7717
 11
65.454
 21
34.9704
  0
LINE
  8
0
 10
65.454
 20
34.9704
 11
65.4322
 21
34.9783
  0
LINE
  8
0
 10
65.4322
 20
34.9783
 11
65.4289
 21
34.9797
  0
LINE
  8
0
 10
65.4289
 20
34.9797
 11
65.4283
 21
34.9799
  0
LINE
  8
0
 10
65.4283
 20
34.9799
 11
64.8592
 21
35.1675
  0
LINE
  8
0
 10
64.8592
 20
35.1675
 11
64.284
 21
35.3354
  0
LINE
  8
0
 10
64.284
 20
35.3354
 11
63.7033
 21
35.4835
  0
LINE
  8
0
 10
63.7033
 20
35.4835
 11
63.7023
 21
35.4837
  0
LINE
  8
0
 10
63.7023
 20
35.4837
 11
63.119
 21
35.6114
  0
LINE
  8
0
 10
63.119
 20
35.6114
 11
63.118
 21
35.6116
  0
LINE
  8
0
 10
63.118
 20
35.6116
 11
63.1169
 21
35.6118
  0
LINE
  8
0
 10
63.1169
 20
35.6118
 11
62.5296
 21
35.7193
  0
LINE
  8
0
 10
62.5296
 20
35.7193
 11
62.5285
 21
35.7195
  0
LINE
  8
0
 10
62.5285
 20
35.7195
 11
62.4449
 21
35.7277
  0
LINE
  8
0
 10
62.4449
 20
35.7277
 11
62.4447
 21
35.7277
  0
LINE
  8
0
 10
62.4447
 20
35.7277
 11
62.4444
 21
35.7277
  0
LINE
  8
0
 10
62.4444
 20
35.7277
 11
62.3484
 21
35.7252
  0
LINE
  8
0
 10
62.3484
 20
35.7252
 11
62.3482
 21
35.7252
  0
LINE
  8
0
 10
62.3482
 20
35.7252
 11
62.2317
 21
35.7059
  0
LINE
  8
0
 10
62.2317
 20
35.7059
 11
62.2315
 21
35.7058
  0
LINE
  8
0
 10
62.2315
 20
35.7058
 11
62.2312
 21
35.7057
  0
LINE
  8
0
 10
62.2312
 20
35.7057
 11
62.1334
 21
35.6698
  0
LINE
  8
0
 10
62.1334
 20
35.6698
 11
62.133
 21
35.6696
  0
LINE
  8
0
 10
62.133
 20
35.6696
 11
62.053
 21
35.6283
  0
LINE
  8
0
 10
62.053
 20
35.6283
 11
62.0527
 21
35.6282
  0
LINE
  8
0
 10
62.0527
 20
35.6282
 11
61.993
 21
35.5878
  0
LINE
  8
0
 10
61.993
 20
35.5878
 11
61.9928
 21
35.5876
  0
LINE
  8
0
 10
61.9928
 20
35.5876
 11
61.9035
 21
35.5074
  0
LINE
  8
0
 10
61.9035
 20
35.5074
 11
61.9033
 21
35.5072
  0
LINE
  8
0
 10
61.9033
 20
35.5072
 11
61.843
 21
35.4325
  0
LINE
  8
0
 10
61.843
 20
35.4325
 11
61.8428
 21
35.4322
  0
LINE
  8
0
 10
61.8428
 20
35.4322
 11
61.7925
 21
35.3504
  0
LINE
  8
0
 10
61.7925
 20
35.3504
 11
61.7923
 21
35.35
  0
LINE
  8
0
 10
61.7923
 20
35.35
 11
61.7562
 21
35.27
  0
LINE
  8
0
 10
61.7562
 20
35.27
 11
61.7561
 21
35.2695
  0
LINE
  8
0
 10
61.7561
 20
35.2695
 11
61.7289
 21
35.1687
  0
LINE
  8
0
 10
61.7289
 20
35.1687
 11
61.7162
 21
35.0735
  0
LINE
  8
0
 10
61.7162
 20
35.0735
 11
61.7162
 21
35.073
  0
LINE
  8
0
 10
61.7162
 20
35.073
 11
61.7149
 21
35.001
  0
LINE
  8
0
 10
61.7149
 20
35.001
 11
61.722
 21
34.9293
  0
LINE
  8
0
 10
61.722
 20
34.9293
 11
61.722
 21
34.9288
  0
LINE
  8
0
 10
61.722
 20
34.9288
 11
61.7422
 21
34.8349
  0
LINE
  8
0
 10
61.7422
 20
34.8349
 11
61.7423
 21
34.8345
  0
LINE
  8
0
 10
61.7423
 20
34.8345
 11
61.7798
 21
34.7333
  0
LINE
  8
0
 10
61.7798
 20
34.7333
 11
61.7799
 21
34.7331
  0
LINE
  8
0
 10
61.7799
 20
34.7331
 11
61.7866
 21
34.7187
  0
LINE
  8
0
 10
61.7866
 20
34.7187
 11
64.7055
 21
28.4589
  0
LINE
  8
0
 10
64.7055
 20
28.4589
 11
64.7093
 21
28.4508
  0
LINE
  8
0
 10
64.7093
 20
28.4508
 11
64.7549
 21
28.3451
  0
LINE
  8
0
 10
64.7549
 20
28.3451
 11
64.8074
 21
28.2008
  0
LINE
  8
0
 10
64.8074
 20
28.2008
 11
64.8497
 21
28.0532
  0
LINE
  8
0
 10
64.8497
 20
28.0532
 11
64.8817
 21
27.9031
  0
LINE
  8
0
 10
64.8817
 20
27.9031
 11
64.903
 21
27.751
  0
LINE
  8
0
 10
64.903
 20
27.751
 11
64.9124
 21
27.6362
  0
LINE
  8
0
 10
64.9124
 20
27.6362
 11
64.9151
 21
27.5211
  0
LINE
  8
0
 10
64.9151
 20
27.5211
 11
64.9151
 21
27.5205
  0
LINE
  8
0
 10
64.9151
 20
27.5205
 11
64.9124
 21
27.4058
  0
LINE
  8
0
 10
64.9124
 20
27.4058
 11
64.903
 21
27.2915
  0
LINE
  8
0
 10
64.903
 20
27.2915
 11
64.903
 21
27.291
  0
LINE
  8
0
 10
64.903
 20
27.291
 11
64.8884
 21
27.1772
  0
LINE
  8
0
 10
64.8884
 20
27.1772
 11
64.8883
 21
27.1767
  0
LINE
  8
0
 10
64.8883
 20
27.1767
 11
64.8671
 21
27.0639
  0
LINE
  8
0
 10
64.8671
 20
27.0639
 11
64.8669
 21
27.0633
  0
LINE
  8
0
 10
64.8669
 20
27.0633
 11
64.83
 21
26.915
  0
LINE
  8
0
 10
64.83
 20
26.915
 11
64.8298
 21
26.9144
  0
LINE
  8
0
 10
64.8298
 20
26.9144
 11
64.7825
 21
26.7689
  0
LINE
  8
0
 10
64.7825
 20
26.7689
 11
64.7822
 21
26.7683
  0
LINE
  8
0
 10
64.7822
 20
26.7683
 11
64.725
 21
26.6266
  0
LINE
  8
0
 10
64.725
 20
26.6266
 11
64.7247
 21
26.626
  0
LINE
  8
0
 10
64.7247
 20
26.626
 11
64.6757
 21
26.5224
  0
LINE
  8
0
 10
64.6757
 20
26.5224
 11
64.6207
 21
26.4218
  0
LINE
  8
0
 10
64.6207
 20
26.4218
 11
64.6204
 21
26.4213
  0
LINE
  8
0
 10
64.6204
 20
26.4213
 11
64.5393
 21
26.2915
  0
LINE
  8
0
 10
64.5393
 20
26.2915
 11
64.539
 21
26.291
  0
LINE
  8
0
 10
64.539
 20
26.291
 11
64.4492
 21
26.1673
  0
LINE
  8
0
 10
64.4492
 20
26.1673
 11
64.4488
 21
26.1668
  0
LINE
  8
0
 10
64.4488
 20
26.1668
 11
64.3505
 21
26.0497
  0
LINE
  8
0
 10
64.3505
 20
26.0497
 11
64.3502
 21
26.0493
  0
LINE
  8
0
 10
64.3502
 20
26.0493
 11
64.3498
 21
26.0488
  0
LINE
  8
0
 10
64.3498
 20
26.0488
 11
64.2711
 21
25.9655
  0
LINE
  8
0
 10
64.2711
 20
25.9655
 11
64.2447
 21
25.9391
  0
LINE
  8
0
 10
64.2447
 20
25.9391
 11
64.2442
 21
25.9386
  0
LINE
  8
0
 10
64.2442
 20
25.9386
 11
64.2432
 21
25.9376
  0
LINE
  8
0
 10
64.2432
 20
25.9376
 11
64.2413
 21
25.9357
  0
LINE
  8
0
 10
64.2413
 20
25.9357
 11
64.2394
 21
25.9338
  0
LINE
  8
0
 10
64.2394
 20
25.9338
 11
64.2373
 21
25.9317
  0
LINE
  8
0
 10
64.2373
 20
25.9317
 11
64.2338
 21
25.9282
  0
LINE
  8
0
 10
64.2338
 20
25.9282
 11
64.2296
 21
25.924
  0
LINE
  8
0
 10
64.2296
 20
25.924
 11
64.2265
 21
25.9209
  0
LINE
  8
0
 10
64.2265
 20
25.9209
 11
64.2229
 21
25.9173
  0
LINE
  8
0
 10
64.2229
 20
25.9173
 11
64.218
 21
25.9124
  0
LINE
  8
0
 10
64.218
 20
25.9124
 11
64.2131
 21
25.9075
  0
LINE
  8
0
 10
64.2131
 20
25.9075
 11
64.2082
 21
25.9026
  0
LINE
  8
0
 10
64.2082
 20
25.9026
 11
64.2042
 21
25.8986
  0
LINE
  8
0
 10
64.2042
 20
25.8986
 11
64.1994
 21
25.8938
  0
LINE
  8
0
 10
64.1994
 20
25.8938
 11
64.1978
 21
25.8922
  0
LINE
  8
0
 10
64.1978
 20
25.8922
 11
46.8545
 21
8.54885
  0
LINE
  8
0
 10
46.8545
 20
8.54885
 11
46.852
 21
8.54636
  0
LINE
  8
0
 10
46.852
 20
8.54636
 11
46.8494
 21
8.54383
  0
LINE
  8
0
 10
46.8494
 20
8.54383
 11
46.8468
 21
8.5412
  0
LINE
  8
0
 10
46.8468
 20
8.5412
 11
46.8441
 21
8.5385
  0
LINE
  8
0
 10
46.8441
 20
8.5385
 11
46.8406
 21
8.535
  0
LINE
  8
0
 10
46.8406
 20
8.535
 11
46.8365
 21
8.53086
  0
LINE
  8
0
 10
46.8365
 20
8.53086
 11
46.8331
 21
8.5275
  0
LINE
  8
0
 10
46.8331
 20
8.5275
 11
46.8304
 21
8.52483
  0
LINE
  8
0
 10
46.8304
 20
8.52483
 11
46.8268
 21
8.52124
  0
LINE
  8
0
 10
46.8268
 20
8.52124
 11
46.8229
 21
8.51732
  0
LINE
  8
0
 10
46.8229
 20
8.51732
 11
46.8101
 21
8.50448
  0
LINE
  8
0
 10
46.8101
 20
8.50448
 11
46.8083
 21
8.50272
  0
LINE
  8
0
 10
46.8083
 20
8.50272
 11
46.7619
 21
8.4563
  0
LINE
  8
0
 10
46.7619
 20
8.4563
 11
46.8969
 21
8.2772
  0
LINE
  8
0
 10
46.8969
 20
8.2772
 11
47.1738
 21
7.8901
  0
LINE
  8
0
 10
47.1738
 20
7.8901
 11
47.1738
 21
7.8901
  0
LINE
  8
0
 10
47.1738
 20
7.8901
 11
47.4405
 21
7.48849
  0
LINE
  8
0
 10
47.4405
 20
7.48849
 11
47.4407
 21
7.4882
  0
LINE
  8
0
 10
47.4407
 20
7.4882
 11
47.444
 21
7.4828
  0
LINE
  8
0
 10
47.444
 20
7.4828
 11
47.6935
 21
7.0773
  0
LINE
  8
0
 10
47.6935
 20
7.0773
 11
47.6935
 21
7.07729
  0
LINE
  8
0
 10
47.6935
 20
7.07729
 11
47.9317
 21
6.6582
  0
LINE
  8
0
 10
47.9317
 20
6.6582
 11
47.9319
 21
6.6579
  0
LINE
  8
0
 10
47.9319
 20
6.6579
 11
47.9348
 21
6.6523
  0
LINE
  8
0
 10
47.9348
 20
6.6523
 11
48.1556
 21
6.2304
  0
LINE
  8
0
 10
48.1556
 20
6.2304
 11
48.1556
 21
6.23039
  0
LINE
  8
0
 10
48.1556
 20
6.23039
 11
48.3642
 21
5.79574
  0
LINE
  8
0
 10
48.3642
 20
5.79574
 11
48.3643
 21
5.79543
  0
LINE
  8
0
 10
48.3643
 20
5.79543
 11
48.3668
 21
5.78983
  0
LINE
  8
0
 10
48.3668
 20
5.78983
 11
48.5578
 21
5.35347
  0
LINE
  8
0
 10
48.5578
 20
5.35347
 11
48.5578
 21
5.35346
  0
LINE
  8
0
 10
48.5578
 20
5.35346
 11
48.7358
 21
4.9054
  0
LINE
  8
0
 10
48.7358
 20
4.9054
 11
48.7359
 21
4.90508
  0
LINE
  8
0
 10
48.7359
 20
4.90508
 11
48.7379
 21
4.89945
  0
LINE
  8
0
 10
48.7379
 20
4.89945
 11
48.8983
 21
4.45075
  0
LINE
  8
0
 10
48.8983
 20
4.45075
 11
48.9
 21
4.44515
  0
LINE
  8
0
 10
48.9
 20
4.44515
 11
49.0448
 21
3.99109
  0
LINE
  8
0
 10
49.0448
 20
3.99109
 11
49.1753
 21
3.5266
  0
LINE
  8
0
 10
49.1753
 20
3.5266
 11
49.1766
 21
3.52103
  0
LINE
  8
0
 10
49.1766
 20
3.52103
 11
49.2895
 21
3.05788
  0
LINE
  8
0
 10
49.2895
 20
3.05788
 11
49.2907
 21
3.05231
  0
LINE
  8
0
 10
49.2907
 20
3.05231
 11
49.3875
 21
2.58544
  0
LINE
  8
0
 10
49.3875
 20
2.58544
 11
49.3884
 21
2.57996
  0
LINE
  8
0
 10
49.3884
 20
2.57996
 11
49.4689
 21
2.11028
  0
LINE
  8
0
 10
49.4689
 20
2.11028
 11
49.469
 21
2.10994
  0
LINE
  8
0
 10
49.469
 20
2.10994
 11
49.4697
 21
2.10447
  0
LINE
  8
0
 10
49.4697
 20
2.10447
 11
49.5339
 21
1.63186
  0
LINE
  8
0
 10
49.5339
 20
1.63186
 11
49.5344
 21
1.62644
  0
LINE
  8
0
 10
49.5344
 20
1.62644
 11
49.5822
 21
1.15183
  0
LINE
  8
0
 10
49.5822
 20
1.15183
 11
49.5822
 21
1.15182
  0
LINE
  8
0
 10
49.5822
 20
1.15182
 11
49.6138
 21
0.670772
  0
LINE
  8
0
 10
49.6138
 20
0.670772
 11
49.6138
 21
0.670429
  0
LINE
  8
0
 10
49.6138
 20
0.670429
 11
49.614
 21
0.665096
  0
LINE
  8
0
 10
49.614
 20
0.665096
 11
49.6287
 21
0.18816
  0
LINE
  8
0
 10
49.6287
 20
0.18816
 11
49.6287
 21
0.182941
  0
LINE
  8
0
 10
49.6287
 20
0.182941
 11
49.6269
 21
-0.294276
  0
LINE
  8
0
 10
49.6269
 20
-0.294276
 11
49.6267
 21
-0.299449
  0
LINE
  8
0
 10
49.6267
 20
-0.299449
 11
49.6083
 21
-0.776347
  0
LINE
  8
0
 10
49.6083
 20
-0.776347
 11
49.6079
 21
-0.781444
  0
LINE
  8
0
 10
49.6079
 20
-0.781444
 11
49.573
 21
-1.25752
  0
LINE
  8
0
 10
49.573
 20
-1.25752
 11
49.5724
 21
-1.26254
  0
LINE
  8
0
 10
49.5724
 20
-1.26254
 11
49.521
 21
-1.73719
  0
LINE
  8
0
 10
49.521
 20
-1.73719
 11
49.521
 21
-1.7372
  0
LINE
  8
0
 10
49.521
 20
-1.7372
 11
49.4524
 21
-2.21442
  0
LINE
  8
0
 10
49.4524
 20
-2.21442
 11
49.4524
 21
-2.21476
  0
LINE
  8
0
 10
49.4524
 20
-2.21476
 11
49.4515
 21
-2.21955
  0
LINE
  8
0
 10
49.4515
 20
-2.21955
 11
49.4515
 21
-2.21962
  0
LINE
  8
0
 10
49.4515
 20
-2.21962
 11
49.3673
 21
-2.68915
  0
LINE
  8
0
 10
49.3673
 20
-2.68915
 11
49.3663
 21
-2.69384
  0
LINE
  8
0
 10
49.3663
 20
-2.69384
 11
49.3663
 21
-2.69385
  0
LINE
  8
0
 10
49.3663
 20
-2.69385
 11
49.3663
 21
-2.69389
  0
LINE
  8
0
 10
49.3663
 20
-2.69389
 11
49.3663
 21
-2.69399
  0
LINE
  8
0
 10
49.3663
 20
-2.69399
 11
49.3662
 21
-2.69411
  0
LINE
  8
0
 10
49.3662
 20
-2.69411
 11
49.3662
 21
-2.69424
  0
LINE
  8
0
 10
49.3662
 20
-2.69424
 11
49.3662
 21
-2.69433
  0
LINE
  8
0
 10
49.3662
 20
-2.69433
 11
49.2658
 21
-3.1607
  0
LINE
  8
0
 10
49.2658
 20
-3.1607
 11
49.2646
 21
-3.16529
  0
LINE
  8
0
 10
49.2646
 20
-3.16529
 11
49.2646
 21
-3.1654
  0
LINE
  8
0
 10
49.2646
 20
-3.1654
 11
49.2646
 21
-3.16557
  0
LINE
  8
0
 10
49.2646
 20
-3.16557
 11
49.2645
 21
-3.16576
  0
LINE
  8
0
 10
49.2645
 20
-3.16576
 11
49.2645
 21
-3.16587
  0
LINE
  8
0
 10
49.2645
 20
-3.16587
 11
49.1479
 21
-3.62854
  0
LINE
  8
0
 10
49.1479
 20
-3.62854
 11
49.1479
 21
-3.62867
  0
LINE
  8
0
 10
49.1479
 20
-3.62867
 11
49.1479
 21
-3.62885
  0
LINE
  8
0
 10
49.1479
 20
-3.62885
 11
49.1478
 21
-3.62904
  0
LINE
  8
0
 10
49.1478
 20
-3.62904
 11
49.1478
 21
-3.62913
  0
LINE
  8
0
 10
49.1478
 20
-3.62913
 11
49.014
 21
-4.09199
  0
LINE
  8
0
 10
49.014
 20
-4.09199
 11
49.0126
 21
-4.09637
  0
LINE
  8
0
 10
49.0126
 20
-4.09637
 11
49.0125
 21
-4.09648
  0
LINE
  8
0
 10
49.0125
 20
-4.09648
 11
49.0125
 21
-4.09669
  0
LINE
  8
0
 10
49.0125
 20
-4.09669
 11
49.0124
 21
-4.09691
  0
LINE
  8
0
 10
49.0124
 20
-4.09691
 11
49.0124
 21
-4.09696
  0
LINE
  8
0
 10
49.0124
 20
-4.09696
 11
48.8632
 21
-4.55265
  0
LINE
  8
0
 10
48.8632
 20
-4.55265
 11
48.8631
 21
-4.55283
  0
LINE
  8
0
 10
48.8631
 20
-4.55283
 11
48.8631
 21
-4.55307
  0
LINE
  8
0
 10
48.8631
 20
-4.55307
 11
48.863
 21
-4.55323
  0
LINE
  8
0
 10
48.863
 20
-4.55323
 11
48.6973
 21
-5.00566
  0
LINE
  8
0
 10
48.6973
 20
-5.00566
 11
48.6971
 21
-5.00625
  0
LINE
  8
0
 10
48.6971
 20
-5.00625
 11
48.5157
 21
-5.45261
  0
LINE
  8
0
 10
48.5157
 20
-5.45261
 11
48.5155
 21
-5.45318
  0
LINE
  8
0
 10
48.5155
 20
-5.45318
 11
48.3189
 21
-5.89302
  0
LINE
  8
0
 10
48.3189
 20
-5.89302
 11
48.3186
 21
-5.89359
  0
LINE
  8
0
 10
48.3186
 20
-5.89359
 11
48.3182
 21
-5.89445
  0
LINE
  8
0
 10
48.3182
 20
-5.89445
 11
48.3151
 21
-5.9008
  0
LINE
  8
0
 10
48.3151
 20
-5.9008
 11
48.0004
 21
-6.52518
  0
LINE
  8
0
 10
48.0004
 20
-6.52518
 11
47.9897
 21
-6.54574
  0
LINE
  8
0
 10
47.9897
 20
-6.54574
 11
47.5458
 21
-7.3232
  0
LINE
  8
0
 10
47.5458
 20
-7.3232
 11
47.534
 21
-7.34316
  0
LINE
  8
0
 10
47.534
 20
-7.34316
 11
46.888
 21
-8.29502
  0
LINE
  8
0
 10
46.888
 20
-8.29502
 11
46.8706
 21
-8.32062
  0
LINE
  8
0
 10
46.8706
 20
-8.32062
 11
46.8516
 21
-8.34496
  0
LINE
  8
0
 10
46.8516
 20
-8.34496
 11
46.0992
 21
-9.25888
  0
LINE
  8
0
 10
46.0992
 20
-9.25888
 11
46.0839
 21
-9.27632
  0
LINE
  8
0
 10
46.0839
 20
-9.27632
 11
45.2826
 21
-10.103
  0
LINE
  8
0
 10
45.2826
 20
-10.103
 11
45.2663
 21
-10.1195
  0
LINE
  8
0
 10
45.2663
 20
-10.1195
 11
45.2434
 21
-10.1401
  0
LINE
  8
0
 10
45.2434
 20
-10.1401
 11
44.3447
 21
-10.9104
  0
LINE
  8
0
 10
44.3447
 20
-10.9104
 11
44.3203
 21
-10.9295
  0
LINE
  8
0
 10
44.3203
 20
-10.9295
 11
43.5676
 21
-11.4813
  0
LINE
  8
0
 10
43.5676
 20
-11.4813
 11
43.542
 21
-11.4986
  0
LINE
  8
0
 10
43.542
 20
-11.4986
 11
42.5645
 21
-12.1088
  0
LINE
  8
0
 10
42.5645
 20
-12.1088
 11
42.5377
 21
-12.1243
  0
LINE
  8
0
 10
42.5377
 20
-12.1243
 11
41.6543
 21
-12.5732
  0
LINE
  8
0
 10
41.6543
 20
-12.5732
 11
41.6404
 21
-12.5804
  0
LINE
  8
0
 10
41.6404
 20
-12.5804
 11
41.6343
 21
-12.5834
  0
LINE
  8
0
 10
41.6343
 20
-12.5834
 11
41.6335
 21
-12.5838
  0
LINE
  8
0
 10
41.6335
 20
-12.5838
 11
41.1952
 21
-12.7802
  0
LINE
  8
0
 10
41.1952
 20
-12.7802
 11
41.1946
 21
-12.7805
  0
LINE
  8
0
 10
41.1946
 20
-12.7805
 11
40.7484
 21
-12.9622
  0
LINE
  8
0
 10
40.7484
 20
-12.9622
 11
40.7478
 21
-12.9624
  0
LINE
  8
0
 10
40.7478
 20
-12.9624
 11
40.2956
 21
-13.1285
  0
LINE
  8
0
 10
40.2956
 20
-13.1285
 11
40.295
 21
-13.1287
  0
LINE
  8
0
 10
40.295
 20
-13.1287
 11
39.8372
 21
-13.2791
  0
LINE
  8
0
 10
39.8372
 20
-13.2791
 11
39.837
 21
-13.2791
  0
LINE
  8
0
 10
39.837
 20
-13.2791
 11
39.8368
 21
-13.2792
  0
LINE
  8
0
 10
39.8368
 20
-13.2792
 11
39.8366
 21
-13.2793
  0
LINE
  8
0
 10
39.8366
 20
-13.2793
 11
39.3739
 21
-13.4136
  0
LINE
  8
0
 10
39.3739
 20
-13.4136
 11
39.3738
 21
-13.4136
  0
LINE
  8
0
 10
39.3738
 20
-13.4136
 11
39.3736
 21
-13.4137
  0
LINE
  8
0
 10
39.3736
 20
-13.4137
 11
39.3734
 21
-13.4137
  0
LINE
  8
0
 10
39.3734
 20
-13.4137
 11
39.3733
 21
-13.4138
  0
LINE
  8
0
 10
39.3733
 20
-13.4138
 11
38.9063
 21
-13.532
  0
LINE
  8
0
 10
38.9063
 20
-13.532
 11
38.9062
 21
-13.532
  0
LINE
  8
0
 10
38.9062
 20
-13.532
 11
38.906
 21
-13.532
  0
LINE
  8
0
 10
38.906
 20
-13.532
 11
38.9058
 21
-13.5321
  0
LINE
  8
0
 10
38.9058
 20
-13.5321
 11
38.9057
 21
-13.5321
  0
LINE
  8
0
 10
38.9057
 20
-13.5321
 11
38.4359
 21
-13.6338
  0
LINE
  8
0
 10
38.4359
 20
-13.6338
 11
38.4357
 21
-13.6339
  0
LINE
  8
0
 10
38.4357
 20
-13.6339
 11
38.4356
 21
-13.6339
  0
LINE
  8
0
 10
38.4356
 20
-13.6339
 11
38.4354
 21
-13.6339
  0
LINE
  8
0
 10
38.4354
 20
-13.6339
 11
38.4353
 21
-13.634
  0
LINE
  8
0
 10
38.4353
 20
-13.634
 11
37.9611
 21
-13.7195
  0
LINE
  8
0
 10
37.9611
 20
-13.7195
 11
37.9589
 21
-13.7199
  0
LINE
  8
0
 10
37.9589
 20
-13.7199
 11
37.9588
 21
-13.7199
  0
LINE
  8
0
 10
37.9588
 20
-13.7199
 11
37.9586
 21
-13.7199
  0
LINE
  8
0
 10
37.9586
 20
-13.7199
 11
37.9585
 21
-13.7199
  0
LINE
  8
0
 10
37.9585
 20
-13.7199
 11
37.9584
 21
-13.7199
  0
LINE
  8
0
 10
37.9584
 20
-13.7199
 11
37.9584
 21
-13.72
  0
LINE
  8
0
 10
37.9584
 20
-13.72
 11
37.9584
 21
-13.72
  0
LINE
  8
0
 10
37.9584
 20
-13.72
 11
37.9584
 21
-13.72
  0
LINE
  8
0
 10
37.9584
 20
-13.72
 11
37.9583
 21
-13.72
  0
LINE
  8
0
 10
37.9583
 20
-13.72
 11
37.483
 21
-13.7888
  0
LINE
  8
0
 10
37.483
 20
-13.7888
 11
37.4809
 21
-13.789
  0
LINE
  8
0
 10
37.4809
 20
-13.789
 11
37.0035
 21
-13.8413
  0
LINE
  8
0
 10
37.0035
 20
-13.8413
 11
37.0013
 21
-13.8415
  0
LINE
  8
0
 10
37.0013
 20
-13.8415
 11
36.5223
 21
-13.8771
  0
LINE
  8
0
 10
36.5223
 20
-13.8771
 11
36.5203
 21
-13.8772
  0
LINE
  8
0
 10
36.5203
 20
-13.8772
 11
36.0403
 21
-13.8963
  0
LINE
  8
0
 10
36.0403
 20
-13.8963
 11
36.0382
 21
-13.8963
  0
LINE
  8
0
 10
36.0382
 20
-13.8963
 11
36.0378
 21
-13.8963
  0
LINE
  8
0
 10
36.0378
 20
-13.8963
 11
35.5559
 21
-13.8986
  0
LINE
  8
0
 10
35.5559
 20
-13.8986
 11
35.0737
 21
-13.8842
  0
LINE
  8
0
 10
35.0737
 20
-13.8842
 11
34.5923
 21
-13.8531
  0
LINE
  8
0
 10
34.5923
 20
-13.8531
 11
34.1123
 21
-13.8053
  0
LINE
  8
0
 10
34.1123
 20
-13.8053
 11
33.6342
 21
-13.7408
  0
LINE
  8
0
 10
33.6342
 20
-13.7408
 11
33.1587
 21
-13.6598
  0
LINE
  8
0
 10
33.1587
 20
-13.6598
 11
32.6863
 21
-13.5624
  0
LINE
  8
0
 10
32.6863
 20
-13.5624
 11
32.2175
 21
-13.4486
  0
LINE
  8
0
 10
32.2175
 20
-13.4486
 11
31.7529
 21
-13.3186
  0
LINE
  8
0
 10
31.7529
 20
-13.3186
 11
31.2932
 21
-13.1726
  0
LINE
  8
0
 10
31.2932
 20
-13.1726
 11
30.8388
 21
-13.0107
  0
LINE
  8
0
 10
30.8388
 20
-13.0107
 11
30.3903
 21
-12.8332
  0
LINE
  8
0
 10
30.3903
 20
-12.8332
 11
29.9482
 21
-12.6402
  0
LINE
  8
0
 10
29.9482
 20
-12.6402
 11
29.513
 21
-12.4319
  0
LINE
  8
0
 10
29.513
 20
-12.4319
 11
29.0854
 21
-12.2087
  0
LINE
  8
0
 10
29.0854
 20
-12.2087
 11
28.6658
 21
-11.9708
  0
LINE
  8
0
 10
28.6658
 20
-11.9708
 11
28.2546
 21
-11.7185
  0
LINE
  8
0
 10
28.2546
 20
-11.7185
 11
27.8525
 21
-11.4521
  0
LINE
  8
0
 10
27.8525
 20
-11.4521
 11
27.4599
 21
-11.1718
  0
LINE
  8
0
 10
27.4599
 20
-11.1718
 11
27.0772
 21
-10.8781
  0
LINE
  8
0
 10
27.0772
 20
-10.8781
 11
26.7049
 21
-10.5713
  0
LINE
  8
0
 10
26.7049
 20
-10.5713
 11
26.3436
 21
-10.2518
  0
LINE
  8
0
 10
26.3436
 20
-10.2518
 11
25.9935
 21
-9.91995
  0
LINE
  8
0
 10
25.9935
 20
-9.91995
 11
25.6551
 21
-9.57611
  0
LINE
  8
0
 10
25.6551
 20
-9.57611
 11
25.3289
 21
-9.22077
  0
LINE
  8
0
 10
25.3289
 20
-9.22077
 11
25.0152
 21
-8.8543
  0
LINE
  8
0
 10
25.0152
 20
-8.8543
 11
24.7144
 21
-8.47718
  0
LINE
  8
0
 10
24.7144
 20
-8.47718
 11
24.4145
 21
-8.07318
  0
LINE
  8
0
 10
24.4145
 20
-8.07318
 11
24.4145
 21
-8.07316
  0
LINE
  8
0
 10
24.4145
 20
-8.07316
 11
24.3942
 21
-8.0481
  0
LINE
  8
0
 10
24.3942
 20
-8.0481
 11
24.3942
 21
-8.04809
  0
LINE
  8
0
 10
24.3942
 20
-8.04809
 11
24.3942
 21
-8.04808
  0
LINE
  8
0
 10
24.3942
 20
-8.04808
 11
24.374
 21
-8.02586
  0
LINE
  8
0
 10
24.374
 20
-8.02586
 11
24.3595
 21
-8.01106
  0
LINE
  8
0
 10
24.3595
 20
-8.01106
 11
24.3444
 21
-7.99675
  0
LINE
  8
0
 10
24.3444
 20
-7.99675
 11
24.3288
 21
-7.983
  0
LINE
  8
0
 10
24.3288
 20
-7.983
 11
24.3128
 21
-7.96978
  0
LINE
  8
0
 10
24.3128
 20
-7.96978
 11
24.2964
 21
-7.95712
  0
LINE
  8
0
 10
24.2964
 20
-7.95712
 11
24.2795
 21
-7.94503
  0
LINE
  8
0
 10
24.2795
 20
-7.94503
 11
24.2622
 21
-7.93356
  0
LINE
  8
0
 10
24.2622
 20
-7.93356
 11
24.2445
 21
-7.92266
  0
LINE
  8
0
 10
24.2445
 20
-7.92266
 11
24.2264
 21
-7.91241
  0
LINE
  8
0
 10
24.2264
 20
-7.91241
 11
24.2081
 21
-7.90278
  0
LINE
  8
0
 10
24.2081
 20
-7.90278
 11
24.1893
 21
-7.89379
  0
LINE
  8
0
 10
24.1893
 20
-7.89379
 11
24.1703
 21
-7.88546
  0
LINE
  8
0
 10
24.1703
 20
-7.88546
 11
24.151
 21
-7.87779
  0
LINE
  8
0
 10
24.151
 20
-7.87779
 11
24.1315
 21
-7.87078
  0
LINE
  8
0
 10
24.1315
 20
-7.87078
 11
24.1117
 21
-7.86446
  0
LINE
  8
0
 10
24.1117
 20
-7.86446
 11
24.0917
 21
-7.85882
  0
LINE
  8
0
 10
24.0917
 20
-7.85882
 11
24.0715
 21
-7.85388
  0
LINE
  8
0
 10
24.0715
 20
-7.85388
 11
24.0512
 21
-7.84966
  0
LINE
  8
0
 10
24.0512
 20
-7.84966
 11
24.0307
 21
-7.84613
  0
LINE
  8
0
 10
24.0307
 20
-7.84613
 11
24.0102
 21
-7.8433
  0
LINE
  8
0
 10
24.0102
 20
-7.8433
 11
23.9895
 21
-7.8412
  0
LINE
  8
0
 10
23.9895
 20
-7.8412
 11
23.9688
 21
-7.83982
  0
LINE
  8
0
 10
23.9688
 20
-7.83982
 11
23.948
 21
-7.83914
  0
LINE
  8
0
 10
23.948
 20
-7.83914
 11
23.9272
 21
-7.83918
  0
LINE
  8
0
 10
23.9272
 20
-7.83918
 11
23.9065
 21
-7.83995
  0
LINE
  8
0
 10
23.9065
 20
-7.83995
 11
23.8858
 21
-7.84143
  0
LINE
  8
0
 10
23.8858
 20
-7.84143
 11
23.8652
 21
-7.84362
  0
LINE
  8
0
 10
23.8652
 20
-7.84362
 11
23.8446
 21
-7.84653
  0
LINE
  8
0
 10
23.8446
 20
-7.84653
 11
23.8241
 21
-7.85015
  0
LINE
  8
0
 10
23.8241
 20
-7.85015
 11
23.8038
 21
-7.85447
  0
LINE
  8
0
 10
23.8038
 20
-7.85447
 11
23.7837
 21
-7.85951
  0
LINE
  8
0
 10
23.7837
 20
-7.85951
 11
23.7825
 21
-7.85983
  0
LINE
  8
0
 10
23.7825
 20
-7.85983
 11
23.7592
 21
-7.86609
  0
LINE
  8
0
 10
23.7592
 20
-7.86609
 11
23.7593
 21
-7.86604
  0
LINE
  8
0
 10
23.7593
 20
-7.86604
 11
23.7592
 21
-7.86608
  0
LINE
  8
0
 10
23.7592
 20
-7.86608
 11
23.7588
 21
-7.86618
  0
LINE
  8
0
 10
23.7588
 20
-7.86618
 11
23.7582
 21
-7.86633
  0
LINE
  8
0
 10
23.7582
 20
-7.86633
 11
23.7573
 21
-7.86659
  0
LINE
  8
0
 10
23.7573
 20
-7.86659
 11
23.7557
 21
-7.86702
  0
LINE
  8
0
 10
23.7557
 20
-7.86702
 11
23.7532
 21
-7.86767
  0
LINE
  8
0
 10
23.7532
 20
-7.86767
 11
23.7489
 21
-7.86883
  0
LINE
  8
0
 10
23.7489
 20
-7.86883
 11
23.7432
 21
-7.87036
  0
LINE
  8
0
 10
23.7432
 20
-7.87036
 11
23.7339
 21
-7.87285
  0
LINE
  8
0
 10
23.7339
 20
-7.87285
 11
23.7248
 21
-7.87529
  0
LINE
  8
0
 10
23.7248
 20
-7.87529
 11
23.7143
 21
-7.8781
  0
LINE
  8
0
 10
23.7143
 20
-7.8781
 11
23.7028
 21
-7.88118
  0
LINE
  8
0
 10
23.7028
 20
-7.88118
 11
23.6915
 21
-7.88421
  0
LINE
  8
0
 10
23.6915
 20
-7.88421
 11
23.6775
 21
-7.88796
  0
LINE
  8
0
 10
23.6775
 20
-7.88796
 11
7.36128
 21
-12.2599
  0
LINE
  8
0
 10
7.36128
 20
-12.2599
 11
7.34945
 21
-12.263
  0
LINE
  8
0
 10
7.34945
 20
-12.263
 11
7.33863
 21
-12.2659
  0
LINE
  8
0
 10
7.33863
 20
-12.2659
 11
7.32623
 21
-12.2693
  0
LINE
  8
0
 10
7.32623
 20
-12.2693
 11
7.31463
 21
-12.2724
  0
LINE
  8
0
 10
7.31463
 20
-12.2724
 11
7.2714
 21
-12.284
  0
LINE
  8
0
 10
7.2714
 20
-12.284
 11
7.0075
 21
-12.3771
  0
LINE
  8
0
 10
7.0075
 20
-12.3771
 11
7.00388
 21
-12.3783
  0
LINE
  8
0
 10
7.00388
 20
-12.3783
 11
7.00054
 21
-12.3802
  0
LINE
  8
0
 10
7.00054
 20
-12.3802
 11
6.63891
 21
-12.6271
  0
LINE
  8
0
 10
6.63891
 20
-12.6271
 11
6.63463
 21
-12.6305
  0
LINE
  8
0
 10
6.63463
 20
-12.6305
 11
6.42603
 21
-12.877
  0
LINE
  8
0
 10
6.42603
 20
-12.877
 11
6.42156
 21
-12.8833
  0
LINE
  8
0
 10
6.42156
 20
-12.8833
 11
6.27852
 21
-13.1399
  0
LINE
  8
0
 10
6.27852
 20
-13.1399
 11
6.27687
 21
-13.1445
  0
LINE
  8
0
 10
6.27687
 20
-13.1445
 11
6.19336
 21
-13.4129
  0
LINE
  8
0
 10
6.19336
 20
-13.4129
 11
6.19252
 21
-13.4173
  0
LINE
  8
0
 10
6.19252
 20
-13.4173
 11
6.15378
 21
-13.7485
  0
LINE
  8
0
 10
6.15378
 20
-13.7485
 11
6.15384
 21
-13.7539
  0
LINE
  8
0
 10
6.15384
 20
-13.7539
 11
6.20065
 21
-14.0871
  0
LINE
  8
0
 10
6.20065
 20
-14.0871
 11
6.20209
 21
-14.0931
  0
LINE
  8
0
 10
6.20209
 20
-14.0931
 11
6.29563
 21
-14.3624
  0
LINE
  8
0
 10
6.29563
 20
-14.3624
 11
6.2987
 21
-14.3679
  0
LINE
  8
0
 10
6.2987
 20
-14.3679
 11
6.47436
 21
-14.6566
  0
LINE
  8
0
 10
6.47436
 20
-14.6566
 11
6.47768
 21
-14.6604
  0
LINE
  8
0
 10
6.47768
 20
-14.6604
 11
6.67982
 21
-14.8713
  0
LINE
  8
0
 10
6.67982
 20
-14.8713
 11
6.68958
 21
-14.8788
  0
LINE
  8
0
 10
6.68958
 20
-14.8788
 11
7.2347
 21
-15.2982
  0
LINE
  8
0
 10
7.2347
 20
-15.2982
 11
7.81163
 21
-15.8016
  0
LINE
  8
0
 10
7.81163
 20
-15.8016
 11
7.82193
 21
-15.8107
  0
LINE
  8
0
 10
7.82193
 20
-15.8107
 11
8.37584
 21
-16.366
  0
LINE
  8
0
 10
8.37584
 20
-16.366
 11
8.38498
 21
-16.3753
  0
LINE
  8
0
 10
8.38498
 20
-16.3753
 11
8.79544
 21
-16.8441
  0
LINE
  8
0
 10
8.79544
 20
-16.8441
 11
8.8015
 21
-16.851
  0
LINE
  8
0
 10
8.8015
 20
-16.851
 11
9.14707
 21
-17.2852
  0
LINE
  8
0
 10
9.14707
 20
-17.2852
 11
9.15349
 21
-17.2934
  0
LINE
  8
0
 10
9.15349
 20
-17.2934
 11
9.60293
 21
-17.9365
  0
LINE
  8
0
 10
9.60293
 20
-17.9365
 11
9.61032
 21
-17.9473
  0
LINE
  8
0
 10
9.61032
 20
-17.9473
 11
9.93294
 21
-18.4796
  0
LINE
  8
0
 10
9.93294
 20
-18.4796
 11
9.9377
 21
-18.4875
  0
LINE
  8
0
 10
9.9377
 20
-18.4875
 11
10.1298
 21
-18.8372
  0
LINE
  8
0
 10
10.1298
 20
-18.8372
 11
10.3096
 21
-19.1933
  0
LINE
  8
0
 10
10.3096
 20
-19.1933
 11
10.4769
 21
-19.5555
  0
LINE
  8
0
 10
10.4769
 20
-19.5555
 11
10.6314
 21
-19.9232
  0
LINE
  8
0
 10
10.6314
 20
-19.9232
 11
10.7731
 21
-20.2962
  0
LINE
  8
0
 10
10.7731
 20
-20.2962
 11
10.9017
 21
-20.6738
  0
LINE
  8
0
 10
10.9017
 20
-20.6738
 11
11.017
 21
-21.0557
  0
LINE
  8
0
 10
11.017
 20
-21.0557
 11
11.119
 21
-21.4414
  0
LINE
  8
0
 10
11.119
 20
-21.4414
 11
11.2074
 21
-21.8304
  0
LINE
  8
0
 10
11.2074
 20
-21.8304
 11
11.2823
 21
-22.2222
  0
LINE
  8
0
 10
11.2823
 20
-22.2222
 11
11.3435
 21
-22.6165
  0
LINE
  8
0
 10
11.3435
 20
-22.6165
 11
11.3909
 21
-23.0126
  0
LINE
  8
0
 10
11.3909
 20
-23.0126
 11
11.4244
 21
-23.4101
  0
LINE
  8
0
 10
11.4244
 20
-23.4101
 11
11.4441
 21
-23.8085
  0
LINE
  8
0
 10
11.4441
 20
-23.8085
 11
11.45
 21
-24.2074
  0
LINE
  8
0
 10
11.45
 20
-24.2074
 11
11.4418
 21
-24.6063
  0
LINE
  8
0
 10
11.4418
 20
-24.6063
 11
11.4199
 21
-25.0046
  0
LINE
  8
0
 10
11.4199
 20
-25.0046
 11
11.384
 21
-25.4019
  0
LINE
  8
0
 10
11.384
 20
-25.4019
 11
11.3344
 21
-25.7978
  0
LINE
  8
0
 10
11.3344
 20
-25.7978
 11
11.271
 21
-26.1916
  0
LINE
  8
0
 10
11.271
 20
-26.1916
 11
11.1939
 21
-26.583
  0
LINE
  8
0
 10
11.1939
 20
-26.583
 11
11.1032
 21
-26.9715
  0
LINE
  8
0
 10
11.1032
 20
-26.9715
 11
10.999
 21
-27.3566
  0
LINE
  8
0
 10
10.999
 20
-27.3566
 11
10.8815
 21
-27.7378
  0
LINE
  8
0
 10
10.8815
 20
-27.7378
 11
10.7507
 21
-28.1147
  0
LINE
  8
0
 10
10.7507
 20
-28.1147
 11
10.607
 21
-28.4868
  0
LINE
  8
0
 10
10.607
 20
-28.4868
 11
10.4503
 21
-28.8537
  0
LINE
  8
0
 10
10.4503
 20
-28.8537
 11
10.281
 21
-29.215
  0
LINE
  8
0
 10
10.281
 20
-29.215
 11
10.0991
 21
-29.57
  0
LINE
  8
0
 10
10.0991
 20
-29.57
 11
9.82731
 21
-30.0531
  0
LINE
  8
0
 10
9.82731
 20
-30.0531
 11
9.82221
 21
-30.0621
  0
LINE
  8
0
 10
9.82221
 20
-30.0621
 11
9.39578
 21
-30.7206
  0
LINE
  8
0
 10
9.39578
 20
-30.7206
 11
9.3908
 21
-30.7283
  0
LINE
  8
0
 10
9.3908
 20
-30.7283
 11
9.38478
 21
-30.7368
  0
LINE
  8
0
 10
9.38478
 20
-30.7368
 11
8.91341
 21
-31.3641
  0
LINE
  8
0
 10
8.91341
 20
-31.3641
 11
8.90516
 21
-31.3742
  0
LINE
  8
0
 10
8.90516
 20
-31.3742
 11
8.4991
 21
-31.8472
  0
LINE
  8
0
 10
8.4991
 20
-31.8472
 11
8.11822
 21
-32.2508
  0
LINE
  8
0
 10
8.11822
 20
-32.2508
 11
8.10929
 21
-32.2603
  0
LINE
  8
0
 10
8.10929
 20
-32.2603
 11
7.65693
 21
-32.6876
  0
LINE
  8
0
 10
7.65693
 20
-32.6876
 11
7.6502
 21
-32.6939
  0
LINE
  8
0
 10
7.6502
 20
-32.6939
 11
7.22988
 21
-33.0551
  0
LINE
  8
0
 10
7.22988
 20
-33.0551
 11
7.22201
 21
-33.0618
  0
LINE
  8
0
 10
7.22201
 20
-33.0618
 11
6.59639
 21
-33.5351
  0
LINE
  8
0
 10
6.59639
 20
-33.5351
 11
6.58907
 21
-33.5407
  0
LINE
  8
0
 10
6.58907
 20
-33.5407
 11
6.58054
 21
-33.5465
  0
LINE
  8
0
 10
6.58054
 20
-33.5465
 11
6.05999
 21
-33.8896
  0
LINE
  8
0
 10
6.05999
 20
-33.8896
 11
5.58359
 21
-34.1724
  0
LINE
  8
0
 10
5.58359
 20
-34.1724
 11
5.5724
 21
-34.179
  0
LINE
  8
0
 10
5.5724
 20
-34.179
 11
4.87409
 21
-34.5368
  0
LINE
  8
0
 10
4.87409
 20
-34.5368
 11
4.86247
 21
-34.5426
  0
LINE
  8
0
 10
4.86247
 20
-34.5426
 11
4.29029
 21
-34.7903
  0
LINE
  8
0
 10
4.29029
 20
-34.7903
 11
4.2818
 21
-34.7939
  0
LINE
  8
0
 10
4.2818
 20
-34.7939
 11
3.7637
 21
-34.9898
  0
LINE
  8
0
 10
3.7637
 20
-34.9898
 11
3.75401
 21
-34.9935
  0
LINE
  8
0
 10
3.75401
 20
-34.9935
 11
3.15932
 21
-35.18
  0
LINE
  8
0
 10
3.15932
 20
-35.18
 11
3.1468
 21
-35.1838
  0
LINE
  8
0
 10
3.1468
 20
-35.1838
 11
2.61033
 21
-35.3247
  0
LINE
  8
0
 10
2.61033
 20
-35.3247
 11
2.60137
 21
-35.3268
  0
LINE
  8
0
 10
2.60137
 20
-35.3268
 11
1.99112
 21
-35.4501
  0
LINE
  8
0
 10
1.99112
 20
-35.4501
 11
1.9847
 21
-35.4514
  0
LINE
  8
0
 10
1.9847
 20
-35.4514
 11
1.4366
 21
-35.5355
  0
LINE
  8
0
 10
1.4366
 20
-35.5355
 11
1.42636
 21
-35.5371
  0
LINE
  8
0
 10
1.42636
 20
-35.5371
 11
0.645327
 21
-35.6077
  0
LINE
  8
0
 10
0.645327
 20
-35.6077
 11
0.632356
 21
-35.6088
  0
LINE
  8
0
 10
0.632356
 20
-35.6088
 11
-0.151958
 21
-35.6249
  0
LINE
  8
0
 10
-0.151958
 20
-35.6249
 11
-0.161159
 21
-35.6251
  0
LINE
  8
0
 10
-0.161159
 20
-35.6251
 11
-0.171511
 21
-35.6248
  0
LINE
  8
0
 10
-0.171511
 20
-35.6248
 11
-0.955915
 21
-35.5862
  0
LINE
  8
0
 10
-0.955915
 20
-35.5862
 11
-0.965069
 21
-35.5855
  0
LINE
  8
0
 10
-0.965069
 20
-35.5855
 11
-1.74429
 21
-35.4924
  0
LINE
  8
0
 10
-1.74429
 20
-35.4924
 11
-1.75454
 21
-35.4911
  0
LINE
  8
0
 10
-1.75454
 20
-35.4911
 11
-2.52589
 21
-35.3438
  0
LINE
  8
0
 10
-2.52589
 20
-35.3438
 11
-2.53868
 21
-35.3413
  0
LINE
  8
0
 10
-2.53868
 20
-35.3413
 11
-3.29712
 21
-35.141
  0
LINE
  8
0
 10
-3.29712
 20
-35.141
 11
-3.30969
 21
-35.1376
  0
LINE
  8
0
 10
-3.30969
 20
-35.1376
 11
-4.05267
 21
-34.8848
  0
LINE
  8
0
 10
-4.05267
 20
-34.8848
 11
-4.06498
 21
-34.8805
  0
LINE
  8
0
 10
-4.06498
 20
-34.8805
 11
-4.78875
 21
-34.5765
  0
LINE
  8
0
 10
-4.78875
 20
-34.5765
 11
-4.80074
 21
-34.5714
  0
LINE
  8
0
 10
-4.80074
 20
-34.5714
 11
-5.35821
 21
-34.2934
  0
LINE
  8
0
 10
-5.35821
 20
-34.2934
 11
-5.36646
 21
-34.2892
  0
LINE
  8
0
 10
-5.36646
 20
-34.2892
 11
-5.85043
 21
-34.0187
  0
LINE
  8
0
 10
-5.85043
 20
-34.0187
 11
-5.85944
 21
-34.0137
  0
LINE
  8
0
 10
-5.85944
 20
-34.0137
 11
-6.38473
 21
-33.6791
  0
LINE
  8
0
 10
-6.38473
 20
-33.6791
 11
-6.39569
 21
-33.6719
  0
LINE
  8
0
 10
-6.39569
 20
-33.6719
 11
-6.84845
 21
-33.3527
  0
LINE
  8
0
 10
-6.84845
 20
-33.3527
 11
-6.85582
 21
-33.3472
  0
LINE
  8
0
 10
-6.85582
 20
-33.3472
 11
-7.46819
 21
-32.8557
  0
LINE
  8
0
 10
-7.46819
 20
-32.8557
 11
-7.47618
 21
-32.8491
  0
LINE
  8
0
 10
-7.47618
 20
-32.8491
 11
-7.93553
 21
-32.4285
  0
LINE
  8
0
 10
-7.93553
 20
-32.4285
 11
-7.94232
 21
-32.4222
  0
LINE
  8
0
 10
-7.94232
 20
-32.4222
 11
-8.33292
 21
-32.0293
  0
LINE
  8
0
 10
-8.33292
 20
-32.0293
 11
-8.34018
 21
-32.022
  0
LINE
  8
0
 10
-8.34018
 20
-32.022
 11
-8.7534
 21
-31.5555
  0
LINE
  8
0
 10
-8.7534
 20
-31.5555
 11
-8.75951
 21
-31.5485
  0
LINE
  8
0
 10
-8.75951
 20
-31.5485
 11
-9.10718
 21
-31.1167
  0
LINE
  8
0
 10
-9.10718
 20
-31.1167
 11
-9.11364
 21
-31.1087
  0
LINE
  8
0
 10
-9.11364
 20
-31.1087
 11
-9.56693
 21
-30.4679
  0
LINE
  8
0
 10
-9.56693
 20
-30.4679
 11
-9.57439
 21
-30.4572
  0
LINE
  8
0
 10
-9.57439
 20
-30.4572
 11
-9.90028
 21
-29.9265
  0
LINE
  8
0
 10
-9.90028
 20
-29.9265
 11
-9.90508
 21
-29.9186
  0
LINE
  8
0
 10
-9.90508
 20
-29.9186
 11
-10.0991
 21
-29.57
  0
LINE
  8
0
 10
-10.0991
 20
-29.57
 11
-10.281
 21
-29.215
  0
LINE
  8
0
 10
-10.281
 20
-29.215
 11
-10.4503
 21
-28.8537
  0
LINE
  8
0
 10
-10.4503
 20
-28.8537
 11
-10.607
 21
-28.4868
  0
LINE
  8
0
 10
-10.607
 20
-28.4868
 11
-10.7507
 21
-28.1147
  0
LINE
  8
0
 10
-10.7507
 20
-28.1147
 11
-10.8815
 21
-27.7378
  0
LINE
  8
0
 10
-10.8815
 20
-27.7378
 11
-10.999
 21
-27.3566
  0
LINE
  8
0
 10
-10.999
 20
-27.3566
 11
-11.1032
 21
-26.9715
  0
LINE
  8
0
 10
-11.1032
 20
-26.9715
 11
-11.1939
 21
-26.583
  0
LINE
  8
0
 10
-11.1939
 20
-26.583
 11
-11.271
 21
-26.1916
  0
LINE
  8
0
 10
-11.271
 20
-26.1916
 11
-11.3344
 21
-25.7977
  0
LINE
  8
0
 10
-11.3344
 20
-25.7977
 11
-11.384
 21
-25.4019
  0
LINE
  8
0
 10
-11.384
 20
-25.4019
 11
-11.4199
 21
-25.0046
  0
LINE
  8
0
 10
-11.4199
 20
-25.0046
 11
-11.4419
 21
-24.6063
  0
LINE
  8
0
 10
-11.4419
 20
-24.6063
 11
-11.45
 21
-24.2074
  0
LINE
  8
0
 10
-11.45
 20
-24.2074
 11
-11.4442
 21
-23.8085
  0
LINE
  8
0
 10
-11.4442
 20
-23.8085
 11
-11.4245
 21
-23.4101
  0
LINE
  8
0
 10
-11.4245
 20
-23.4101
 11
-11.3909
 21
-23.0126
  0
LINE
  8
0
 10
-11.3909
 20
-23.0126
 11
-11.3435
 21
-22.6165
  0
LINE
  8
0
 10
-11.3435
 20
-22.6165
 11
-11.2823
 21
-22.2222
  0
LINE
  8
0
 10
-11.2823
 20
-22.2222
 11
-11.2075
 21
-21.8304
  0
LINE
  8
0
 10
-11.2075
 20
-21.8304
 11
-11.119
 21
-21.4414
  0
LINE
  8
0
 10
-11.119
 20
-21.4414
 11
-11.017
 21
-21.0557
  0
LINE
  8
0
 10
-11.017
 20
-21.0557
 11
-10.9017
 21
-20.6738
  0
LINE
  8
0
 10
-10.9017
 20
-20.6738
 11
-10.7731
 21
-20.2962
  0
LINE
  8
0
 10
-10.7731
 20
-20.2962
 11
-10.6314
 21
-19.9232
  0
LINE
  8
0
 10
-10.6314
 20
-19.9232
 11
-10.4769
 21
-19.5555
  0
LINE
  8
0
 10
-10.4769
 20
-19.5555
 11
-10.3096
 21
-19.1933
  0
LINE
  8
0
 10
-10.3096
 20
-19.1933
 11
-10.1298
 21
-18.8372
  0
LINE
  8
0
 10
-10.1298
 20
-18.8372
 11
-9.86097
 21
-18.3528
  0
LINE
  8
0
 10
-9.86097
 20
-18.3528
 11
-9.85592
 21
-18.3438
  0
LINE
  8
0
 10
-9.85592
 20
-18.3438
 11
-9.43305
 21
-17.6825
  0
LINE
  8
0
 10
-9.43305
 20
-17.6825
 11
-9.4281
 21
-17.6748
  0
LINE
  8
0
 10
-9.4281
 20
-17.6748
 11
-9.42213
 21
-17.6663
  0
LINE
  8
0
 10
-9.42213
 20
-17.6663
 11
-8.95418
 21
-17.0361
  0
LINE
  8
0
 10
-8.95418
 20
-17.0361
 11
-8.94599
 21
-17.026
  0
LINE
  8
0
 10
-8.94599
 20
-17.026
 11
-8.43569
 21
-16.4302
  0
LINE
  8
0
 10
-8.43569
 20
-16.4302
 11
-8.42681
 21
-16.4207
  0
LINE
  8
0
 10
-8.42681
 20
-16.4207
 11
-7.99128
 21
-15.9745
  0
LINE
  8
0
 10
-7.99128
 20
-15.9745
 11
-7.58596
 21
-15.5966
  0
LINE
  8
0
 10
-7.58596
 20
-15.5966
 11
-7.5793
 21
-15.5903
  0
LINE
  8
0
 10
-7.5793
 20
-15.5903
 11
-7.57173
 21
-15.5837
  0
LINE
  8
0
 10
-7.57173
 20
-15.5837
 11
-7.09234
 21
-15.1857
  0
LINE
  8
0
 10
-7.09234
 20
-15.1857
 11
-7.08332
 21
-15.1788
  0
LINE
  8
0
 10
-7.08332
 20
-15.1788
 11
-6.66193
 21
-14.8559
  0
LINE
  8
0
 10
-6.66193
 20
-14.8559
 11
-6.65877
 21
-14.8527
  0
LINE
  8
0
 10
-6.65877
 20
-14.8527
 11
-6.48778
 21
-14.6701
  0
LINE
  8
0
 10
-6.48778
 20
-14.6701
 11
-6.34556
 21
-14.4612
  0
LINE
  8
0
 10
-6.34556
 20
-14.4612
 11
-6.34257
 21
-14.4566
  0
LINE
  8
0
 10
-6.34257
 20
-14.4566
 11
-6.23331
 21
-14.2017
  0
LINE
  8
0
 10
-6.23331
 20
-14.2017
 11
-6.23127
 21
-14.1954
  0
LINE
  8
0
 10
-6.23127
 20
-14.1954
 11
-6.16187
 21
-13.8654
  0
LINE
  8
0
 10
-6.16187
 20
-13.8654
 11
-6.16152
 21
-13.8603
  0
LINE
  8
0
 10
-6.16152
 20
-13.8603
 11
-6.17493
 21
-13.5061
  0
LINE
  8
0
 10
-6.17493
 20
-13.5061
 11
-6.17529
 21
-13.5026
  0
LINE
  8
0
 10
-6.17529
 20
-13.5026
 11
-6.17584
 21
-13.5002
  0
LINE
  8
0
 10
-6.17584
 20
-13.5002
 11
-6.24044
 21
-13.2442
  0
LINE
  8
0
 10
-6.24044
 20
-13.2442
 11
-6.24204
 21
-13.2399
  0
LINE
  8
0
 10
-6.24204
 20
-13.2399
 11
-6.32945
 21
-13.0365
  0
LINE
  8
0
 10
-6.32945
 20
-13.0365
 11
-6.52065
 21
-12.7509
  0
LINE
  8
0
 10
-6.52065
 20
-12.7509
 11
-6.5249
 21
-12.7449
  0
LINE
  8
0
 10
-6.5249
 20
-12.7449
 11
-6.84759
 21
-12.4663
  0
LINE
  8
0
 10
-6.84759
 20
-12.4663
 11
-6.85142
 21
-12.4631
  0
LINE
  8
0
 10
-6.85142
 20
-12.4631
 11
-6.85485
 21
-12.4611
  0
LINE
  8
0
 10
-6.85485
 20
-12.4611
 11
-7.13654
 21
-12.3259
  0
LINE
  8
0
 10
-7.13654
 20
-12.3259
 11
-7.14048
 21
-12.3246
  0
LINE
  8
0
 10
-7.14048
 20
-12.3246
 11
-7.27144
 21
-12.284
  0
LINE
  8
0
 10
-7.27144
 20
-12.284
 11
-7.31063
 21
-12.2735
  0
LINE
  8
0
 10
-7.31063
 20
-12.2735
 11
-7.32086
 21
-12.2707
  0
LINE
  8
0
 10
-7.32086
 20
-12.2707
 11
-7.33178
 21
-12.2678
  0
LINE
  8
0
 10
-7.33178
 20
-12.2678
 11
-7.34379
 21
-12.2646
  0
LINE
  8
0
 10
-7.34379
 20
-12.2646
 11
-7.35805
 21
-12.2607
  0
LINE
  8
0
 10
-7.35805
 20
-12.2607
 11
-23.6732
 21
-7.88912
  0
LINE
  8
0
 10
-23.6732
 20
-7.88912
 11
-23.6855
 21
-7.88583
  0
LINE
  8
0
 10
-23.6855
 20
-7.88583
 11
-23.6968
 21
-7.88281
  0
LINE
  8
0
 10
-23.6968
 20
-7.88281
 11
-23.7086
 21
-7.87963
  0
LINE
  8
0
 10
-23.7086
 20
-7.87963
 11
-23.7197
 21
-7.87667
  0
LINE
  8
0
 10
-23.7197
 20
-7.87667
 11
-23.7306
 21
-7.87374
  0
LINE
  8
0
 10
-23.7306
 20
-7.87374
 11
-23.7402
 21
-7.87117
  0
LINE
  8
0
 10
-23.7402
 20
-7.87117
 11
-23.7462
 21
-7.86956
  0
LINE
  8
0
 10
-23.7462
 20
-7.86956
 11
-23.7501
 21
-7.86851
  0
LINE
  8
0
 10
-23.7501
 20
-7.86851
 11
-23.7549
 21
-7.86723
  0
LINE
  8
0
 10
-23.7549
 20
-7.86723
 11
-23.7574
 21
-7.86658
  0
LINE
  8
0
 10
-23.7574
 20
-7.86658
 11
-23.7587
 21
-7.86622
  0
LINE
  8
0
 10
-23.7587
 20
-7.86622
 11
-23.7811
 21
-7.86023
  0
LINE
  8
0
 10
-23.7811
 20
-7.86023
 11
-23.7819
 21
-7.86
  0
LINE
  8
0
 10
-23.7819
 20
-7.86
 11
-23.7822
 21
-7.85994
  0
LINE
  8
0
 10
-23.7822
 20
-7.85994
 11
-23.7837
 21
-7.85952
  0
LINE
  8
0
 10
-23.7837
 20
-7.85952
 11
-23.8038
 21
-7.85448
  0
LINE
  8
0
 10
-23.8038
 20
-7.85448
 11
-23.8242
 21
-7.85015
  0
LINE
  8
0
 10
-23.8242
 20
-7.85015
 11
-23.8446
 21
-7.84654
  0
LINE
  8
0
 10
-23.8446
 20
-7.84654
 11
-23.8652
 21
-7.84362
  0
LINE
  8
0
 10
-23.8652
 20
-7.84362
 11
-23.8858
 21
-7.84143
  0
LINE
  8
0
 10
-23.8858
 20
-7.84143
 11
-23.9065
 21
-7.83995
  0
LINE
  8
0
 10
-23.9065
 20
-7.83995
 11
-23.9273
 21
-7.83918
  0
LINE
  8
0
 10
-23.9273
 20
-7.83918
 11
-23.948
 21
-7.83914
  0
LINE
  8
0
 10
-23.948
 20
-7.83914
 11
-23.9688
 21
-7.83981
  0
LINE
  8
0
 10
-23.9688
 20
-7.83981
 11
-23.9895
 21
-7.8412
  0
LINE
  8
0
 10
-23.9895
 20
-7.8412
 11
-24.0102
 21
-7.84332
  0
LINE
  8
0
 10
-24.0102
 20
-7.84332
 11
-24.0307
 21
-7.84613
  0
LINE
  8
0
 10
-24.0307
 20
-7.84613
 11
-24.0512
 21
-7.84966
  0
LINE
  8
0
 10
-24.0512
 20
-7.84966
 11
-24.0715
 21
-7.85388
  0
LINE
  8
0
 10
-24.0715
 20
-7.85388
 11
-24.0917
 21
-7.85883
  0
LINE
  8
0
 10
-24.0917
 20
-7.85883
 11
-24.1117
 21
-7.86446
  0
LINE
  8
0
 10
-24.1117
 20
-7.86446
 11
-24.1315
 21
-7.87078
  0
LINE
  8
0
 10
-24.1315
 20
-7.87078
 11
-24.151
 21
-7.87779
  0
LINE
  8
0
 10
-24.151
 20
-7.87779
 11
-24.1703
 21
-7.88545
  0
LINE
  8
0
 10
-24.1703
 20
-7.88545
 11
-24.1893
 21
-7.89379
  0
LINE
  8
0
 10
-24.1893
 20
-7.89379
 11
-24.2081
 21
-7.90278
  0
LINE
  8
0
 10
-24.2081
 20
-7.90278
 11
-24.2264
 21
-7.91241
  0
LINE
  8
0
 10
-24.2264
 20
-7.91241
 11
-24.2445
 21
-7.92266
  0
LINE
  8
0
 10
-24.2445
 20
-7.92266
 11
-24.2622
 21
-7.93356
  0
LINE
  8
0
 10
-24.2622
 20
-7.93356
 11
-24.2795
 21
-7.94505
  0
LINE
  8
0
 10
-24.2795
 20
-7.94505
 11
-24.2964
 21
-7.95712
  0
LINE
  8
0
 10
-24.2964
 20
-7.95712
 11
-24.3128
 21
-7.96978
  0
LINE
  8
0
 10
-24.3128
 20
-7.96978
 11
-24.3289
 21
-7.983
  0
LINE
  8
0
 10
-24.3289
 20
-7.983
 11
-24.3444
 21
-7.99676
  0
LINE
  8
0
 10
-24.3444
 20
-7.99676
 11
-24.3595
 21
-8.01105
  0
LINE
  8
0
 10
-24.3595
 20
-8.01105
 11
-24.374
 21
-8.02586
  0
LINE
  8
0
 10
-24.374
 20
-8.02586
 11
-24.3881
 21
-8.04116
  0
LINE
  8
0
 10
-24.3881
 20
-8.04116
 11
-24.3881
 21
-8.04117
  0
LINE
  8
0
 10
-24.3881
 20
-8.04117
 11
-24.4094
 21
-8.06652
  0
LINE
  8
0
 10
-24.4094
 20
-8.06652
 11
-24.4094
 21
-8.06653
  0
LINE
  8
0
 10
-24.4094
 20
-8.06653
 11
-24.7142
 21
-8.47694
  0
LINE
  8
0
 10
-24.7142
 20
-8.47694
 11
-24.7145
 21
-8.47723
  0
LINE
  8
0
 10
-24.7145
 20
-8.47723
 11
-25.0153
 21
-8.85442
  0
LINE
  8
0
 10
-25.0153
 20
-8.85442
 11
-25.329
 21
-9.22093
  0
LINE
  8
0
 10
-25.329
 20
-9.22093
 11
-25.6553
 21
-9.57634
  0
LINE
  8
0
 10
-25.6553
 20
-9.57634
 11
-25.9937
 21
-9.92019
  0
LINE
  8
0
 10
-25.9937
 20
-9.92019
 11
-26.3439
 21
-10.2521
  0
LINE
  8
0
 10
-26.3439
 20
-10.2521
 11
-26.7053
 21
-10.5717
  0
LINE
  8
0
 10
-26.7053
 20
-10.5717
 11
-27.0776
 21
-10.8785
  0
LINE
  8
0
 10
-27.0776
 20
-10.8785
 11
-27.4604
 21
-11.1722
  0
LINE
  8
0
 10
-27.4604
 20
-11.1722
 11
-27.8531
 21
-11.4525
  0
LINE
  8
0
 10
-27.8531
 20
-11.4525
 11
-28.2553
 21
-11.7189
  0
LINE
  8
0
 10
-28.2553
 20
-11.7189
 11
-28.6665
 21
-11.9713
  0
LINE
  8
0
 10
-28.6665
 20
-11.9713
 11
-29.0862
 21
-12.2092
  0
LINE
  8
0
 10
-29.0862
 20
-12.2092
 11
-29.5139
 21
-12.4324
  0
LINE
  8
0
 10
-29.5139
 20
-12.4324
 11
-29.9492
 21
-12.6406
  0
LINE
  8
0
 10
-29.9492
 20
-12.6406
 11
-30.3913
 21
-12.8336
  0
LINE
  8
0
 10
-30.3913
 20
-12.8336
 11
-30.8399
 21
-13.0112
  0
LINE
  8
0
 10
-30.8399
 20
-13.0112
 11
-31.2944
 21
-13.1731
  0
LINE
  8
0
 10
-31.2944
 20
-13.1731
 11
-31.7543
 21
-13.319
  0
LINE
  8
0
 10
-31.7543
 20
-13.319
 11
-32.2189
 21
-13.449
  0
LINE
  8
0
 10
-32.2189
 20
-13.449
 11
-32.6877
 21
-13.5627
  0
LINE
  8
0
 10
-32.6877
 20
-13.5627
 11
-33.1603
 21
-13.6602
  0
LINE
  8
0
 10
-33.1603
 20
-13.6602
 11
-33.6359
 21
-13.7411
  0
LINE
  8
0
 10
-33.6359
 20
-13.7411
 11
-34.114
 21
-13.8055
  0
LINE
  8
0
 10
-34.114
 20
-13.8055
 11
-34.5941
 21
-13.8533
  0
LINE
  8
0
 10
-34.5941
 20
-13.8533
 11
-35.0756
 21
-13.8843
  0
LINE
  8
0
 10
-35.0756
 20
-13.8843
 11
-35.5578
 21
-13.8987
  0
LINE
  8
0
 10
-35.5578
 20
-13.8987
 11
-36.0403
 21
-13.8963
  0
LINE
  8
0
 10
-36.0403
 20
-13.8963
 11
-36.5223
 21
-13.8772
  0
LINE
  8
0
 10
-36.5223
 20
-13.8772
 11
-37.0035
 21
-13.8413
  0
LINE
  8
0
 10
-37.0035
 20
-13.8413
 11
-37.0038
 21
-13.8413
  0
LINE
  8
0
 10
-37.0038
 20
-13.8413
 11
-37.483
 21
-13.7888
  0
LINE
  8
0
 10
-37.483
 20
-13.7888
 11
-37.4831
 21
-13.7888
  0
LINE
  8
0
 10
-37.4831
 20
-13.7888
 11
-37.9583
 21
-13.72
  0
LINE
  8
0
 10
-37.9583
 20
-13.72
 11
-37.9584
 21
-13.7199
  0
LINE
  8
0
 10
-37.9584
 20
-13.7199
 11
-37.9584
 21
-13.7199
  0
LINE
  8
0
 10
-37.9584
 20
-13.7199
 11
-37.9584
 21
-13.7199
  0
LINE
  8
0
 10
-37.9584
 20
-13.7199
 11
-37.9586
 21
-13.7199
  0
LINE
  8
0
 10
-37.9586
 20
-13.7199
 11
-37.9588
 21
-13.7199
  0
LINE
  8
0
 10
-37.9588
 20
-13.7199
 11
-37.959
 21
-13.7198
  0
LINE
  8
0
 10
-37.959
 20
-13.7198
 11
-38.4352
 21
-13.634
  0
LINE
  8
0
 10
-38.4352
 20
-13.634
 11
-38.4353
 21
-13.634
  0
LINE
  8
0
 10
-38.4353
 20
-13.634
 11
-38.906
 21
-13.5321
  0
LINE
  8
0
 10
-38.906
 20
-13.5321
 11
-38.9062
 21
-13.532
  0
LINE
  8
0
 10
-38.9062
 20
-13.532
 11
-38.9066
 21
-13.5319
  0
LINE
  8
0
 10
-38.9066
 20
-13.5319
 11
-38.9069
 21
-13.5319
  0
LINE
  8
0
 10
-38.9069
 20
-13.5319
 11
-39.3737
 21
-13.4137
  0
LINE
  8
0
 10
-39.3737
 20
-13.4137
 11
-39.3738
 21
-13.4136
  0
LINE
  8
0
 10
-39.3738
 20
-13.4136
 11
-39.3741
 21
-13.4136
  0
LINE
  8
0
 10
-39.3741
 20
-13.4136
 11
-39.3744
 21
-13.4135
  0
LINE
  8
0
 10
-39.3744
 20
-13.4135
 11
-39.3746
 21
-13.4135
  0
LINE
  8
0
 10
-39.3746
 20
-13.4135
 11
-39.837
 21
-13.2792
  0
LINE
  8
0
 10
-39.837
 20
-13.2792
 11
-39.8371
 21
-13.2791
  0
LINE
  8
0
 10
-39.8371
 20
-13.2791
 11
-39.8375
 21
-13.279
  0
LINE
  8
0
 10
-39.8375
 20
-13.279
 11
-39.8379
 21
-13.2789
  0
LINE
  8
0
 10
-39.8379
 20
-13.2789
 11
-40.2953
 21
-13.1286
  0
LINE
  8
0
 10
-40.2953
 20
-13.1286
 11
-40.2956
 21
-13.1285
  0
LINE
  8
0
 10
-40.2956
 20
-13.1285
 11
-40.296
 21
-13.1284
  0
LINE
  8
0
 10
-40.296
 20
-13.1284
 11
-40.2962
 21
-13.1283
  0
LINE
  8
0
 10
-40.2962
 20
-13.1283
 11
-40.7482
 21
-12.9623
  0
LINE
  8
0
 10
-40.7482
 20
-12.9623
 11
-40.7491
 21
-12.962
  0
LINE
  8
0
 10
-40.7491
 20
-12.962
 11
-41.195
 21
-12.7803
  0
LINE
  8
0
 10
-41.195
 20
-12.7803
 11
-41.1959
 21
-12.78
  0
LINE
  8
0
 10
-41.1959
 20
-12.78
 11
-41.6326
 21
-12.5842
  0
LINE
  8
0
 10
-41.6326
 20
-12.5842
 11
-41.6335
 21
-12.5838
  0
LINE
  8
0
 10
-41.6335
 20
-12.5838
 11
-41.6343
 21
-12.5834
  0
LINE
  8
0
 10
-41.6343
 20
-12.5834
 11
-41.6404
 21
-12.5805
  0
LINE
  8
0
 10
-41.6404
 20
-12.5805
 11
-41.6544
 21
-12.5733
  0
LINE
  8
0
 10
-41.6544
 20
-12.5733
 11
-42.5381
 21
-12.1242
  0
LINE
  8
0
 10
-42.5381
 20
-12.1242
 11
-42.5646
 21
-12.1088
  0
LINE
  8
0
 10
-42.5646
 20
-12.1088
 11
-43.5435
 21
-11.4976
  0
LINE
  8
0
 10
-43.5435
 20
-11.4976
 11
-43.5692
 21
-11.4802
  0
LINE
  8
0
 10
-43.5692
 20
-11.4802
 11
-44.3222
 21
-10.928
  0
LINE
  8
0
 10
-44.3222
 20
-10.928
 11
-44.3467
 21
-10.9088
  0
LINE
  8
0
 10
-44.3467
 20
-10.9088
 11
-45.0594
 21
-10.3058
  0
LINE
  8
0
 10
-45.0594
 20
-10.3058
 11
-45.0825
 21
-10.285
  0
LINE
  8
0
 10
-45.0825
 20
-10.285
 11
-45.7518
 21
-9.63384
  0
LINE
  8
0
 10
-45.7518
 20
-9.63384
 11
-45.7682
 21
-9.61724
  0
LINE
  8
0
 10
-45.7682
 20
-9.61724
 11
-45.7836
 21
-9.59972
  0
LINE
  8
0
 10
-45.7836
 20
-9.59972
 11
-46.4063
 21
-8.90352
  0
LINE
  8
0
 10
-46.4063
 20
-8.90352
 11
-46.4254
 21
-8.87901
  0
LINE
  8
0
 10
-46.4254
 20
-8.87901
 11
-46.9981
 21
-8.14158
  0
LINE
  8
0
 10
-46.9981
 20
-8.14158
 11
-47.0155
 21
-8.1158
  0
LINE
  8
0
 10
-47.0155
 20
-8.1158
 11
-47.5358
 21
-7.34028
  0
LINE
  8
0
 10
-47.5358
 20
-7.34028
 11
-47.5477
 21
-7.32022
  0
LINE
  8
0
 10
-47.5477
 20
-7.32022
 11
-47.9902
 21
-6.54487
  0
LINE
  8
0
 10
-47.9902
 20
-6.54487
 11
-48.001
 21
-6.52431
  0
LINE
  8
0
 10
-48.001
 20
-6.52431
 11
-48.316
 21
-5.89892
  0
LINE
  8
0
 10
-48.316
 20
-5.89892
 11
-48.3191
 21
-5.89251
  0
LINE
  8
0
 10
-48.3191
 20
-5.89251
 11
-48.3195
 21
-5.89165
  0
LINE
  8
0
 10
-48.3195
 20
-5.89165
 11
-48.516
 21
-5.45211
  0
LINE
  8
0
 10
-48.516
 20
-5.45211
 11
-48.5164
 21
-5.45121
  0
LINE
  8
0
 10
-48.5164
 20
-5.45121
 11
-48.6975
 21
-5.00507
  0
LINE
  8
0
 10
-48.6975
 20
-5.00507
 11
-48.6979
 21
-5.00417
  0
LINE
  8
0
 10
-48.6979
 20
-5.00417
 11
-48.8634
 21
-4.55203
  0
LINE
  8
0
 10
-48.8634
 20
-4.55203
 11
-48.8637
 21
-4.55112
  0
LINE
  8
0
 10
-48.8637
 20
-4.55112
 11
-49.0135
 21
-4.09351
  0
LINE
  8
0
 10
-49.0135
 20
-4.09351
 11
-49.0136
 21
-4.09325
  0
LINE
  8
0
 10
-49.0136
 20
-4.09325
 11
-49.0137
 21
-4.09288
  0
LINE
  8
0
 10
-49.0137
 20
-4.09288
 11
-49.0138
 21
-4.0926
  0
LINE
  8
0
 10
-49.0138
 20
-4.0926
 11
-49.1476
 21
-3.63004
  0
LINE
  8
0
 10
-49.1476
 20
-3.63004
 11
-49.1477
 21
-3.62963
  0
LINE
  8
0
 10
-49.1477
 20
-3.62963
 11
-49.1478
 21
-3.6293
  0
LINE
  8
0
 10
-49.1478
 20
-3.6293
 11
-49.1478
 21
-3.62913
  0
LINE
  8
0
 10
-49.1478
 20
-3.62913
 11
-49.2655
 21
-3.16219
  0
LINE
  8
0
 10
-49.2655
 20
-3.16219
 11
-49.2655
 21
-3.16205
  0
LINE
  8
0
 10
-49.2655
 20
-3.16205
 11
-49.2656
 21
-3.16176
  0
LINE
  8
0
 10
-49.2656
 20
-3.16176
 11
-49.2657
 21
-3.16148
  0
LINE
  8
0
 10
-49.2657
 20
-3.16148
 11
-49.2657
 21
-3.16128
  0
LINE
  8
0
 10
-49.2657
 20
-3.16128
 11
-49.367
 21
-2.69054
  0
LINE
  8
0
 10
-49.367
 20
-2.69054
 11
-49.3671
 21
-2.69027
  0
LINE
  8
0
 10
-49.3671
 20
-2.69027
 11
-49.3672
 21
-2.68989
  0
LINE
  8
0
 10
-49.3672
 20
-2.68989
 11
-49.3672
 21
-2.68963
  0
LINE
  8
0
 10
-49.3672
 20
-2.68963
 11
-49.4514
 21
-2.22042
  0
LINE
  8
0
 10
-49.4514
 20
-2.22042
 11
-49.4514
 21
-2.22029
  0
LINE
  8
0
 10
-49.4514
 20
-2.22029
 11
-49.4514
 21
-2.22007
  0
LINE
  8
0
 10
-49.4514
 20
-2.22007
 11
-49.4515
 21
-2.2199
  0
LINE
  8
0
 10
-49.4515
 20
-2.2199
 11
-49.4515
 21
-2.21978
  0
LINE
  8
0
 10
-49.4515
 20
-2.21978
 11
-49.4515
 21
-2.21968
  0
LINE
  8
0
 10
-49.4515
 20
-2.21968
 11
-49.4515
 21
-2.21966
  0
LINE
  8
0
 10
-49.4515
 20
-2.21966
 11
-49.4515
 21
-2.21955
  0
LINE
  8
0
 10
-49.4515
 20
-2.21955
 11
-49.4524
 21
-2.21475
  0
LINE
  8
0
 10
-49.4524
 20
-2.21475
 11
-49.521
 21
-1.73719
  0
LINE
  8
0
 10
-49.521
 20
-1.73719
 11
-49.573
 21
-1.25755
  0
LINE
  8
0
 10
-49.573
 20
-1.25755
 11
-49.6083
 21
-0.776378
  0
LINE
  8
0
 10
-49.6083
 20
-0.776378
 11
-49.6269
 21
-0.294291
  0
LINE
  8
0
 10
-49.6269
 20
-0.294291
 11
-49.6287
 21
0.188183
  0
LINE
  8
0
 10
-49.6287
 20
0.188183
 11
-49.614
 21
0.665096
  0
LINE
  8
0
 10
-49.614
 20
0.665096
 11
-49.6138
 21
0.670429
  0
LINE
  8
0
 10
-49.6138
 20
0.670429
 11
-49.5826
 21
1.14646
  0
LINE
  8
0
 10
-49.5826
 20
1.14646
 11
-49.5822
 21
1.15184
  0
LINE
  8
0
 10
-49.5822
 20
1.15184
 11
-49.5339
 21
1.63187
  0
LINE
  8
0
 10
-49.5339
 20
1.63187
 11
-49.4697
 21
2.10447
  0
LINE
  8
0
 10
-49.4697
 20
2.10447
 11
-49.469
 21
2.10991
  0
LINE
  8
0
 10
-49.469
 20
2.10991
 11
-49.3875
 21
2.58545
  0
LINE
  8
0
 10
-49.3875
 20
2.58545
 11
-49.2895
 21
3.05787
  0
LINE
  8
0
 10
-49.2895
 20
3.05787
 11
-49.1753
 21
3.5266
  0
LINE
  8
0
 10
-49.1753
 20
3.5266
 11
-49.1752
 21
3.52693
  0
LINE
  8
0
 10
-49.1752
 20
3.52693
 11
-49.0448
 21
3.99107
  0
LINE
  8
0
 10
-49.0448
 20
3.99107
 11
-49.0448
 21
3.99108
  0
LINE
  8
0
 10
-49.0448
 20
3.99108
 11
-48.8983
 21
4.45076
  0
LINE
  8
0
 10
-48.8983
 20
4.45076
 11
-48.7379
 21
4.89945
  0
LINE
  8
0
 10
-48.7379
 20
4.89945
 11
-48.7359
 21
4.90508
  0
LINE
  8
0
 10
-48.7359
 20
4.90508
 11
-48.56
 21
5.34786
  0
LINE
  8
0
 10
-48.56
 20
5.34786
 11
-48.5578
 21
5.35347
  0
LINE
  8
0
 10
-48.5578
 20
5.35347
 11
-48.3668
 21
5.78985
  0
LINE
  8
0
 10
-48.3668
 20
5.78985
 11
-48.3643
 21
5.7954
  0
LINE
  8
0
 10
-48.3643
 20
5.7954
 11
-48.1582
 21
6.2248
  0
LINE
  8
0
 10
-48.1582
 20
6.2248
 11
-48.1556
 21
6.2304
  0
LINE
  8
0
 10
-48.1556
 20
6.2304
 11
-47.9319
 21
6.6579
  0
LINE
  8
0
 10
-47.9319
 20
6.6579
 11
-47.6935
 21
7.0773
  0
LINE
  8
0
 10
-47.6935
 20
7.0773
 11
-47.6933
 21
7.07759
  0
LINE
  8
0
 10
-47.6933
 20
7.07759
 11
-47.4407
 21
7.4882
  0
LINE
  8
0
 10
-47.4407
 20
7.4882
 11
-47.4407
 21
7.4882
  0
LINE
  8
0
 10
-47.4407
 20
7.4882
 11
-47.1738
 21
7.8901
  0
LINE
  8
0
 10
-47.1738
 20
7.8901
 11
-46.8969
 21
8.2772
  0
LINE
  8
0
 10
-46.8969
 20
8.2772
 11
-46.762
 21
8.4563
  0
LINE
  8
0
 10
-46.762
 20
8.4563
 11
-46.8076
 21
8.50192
  0
LINE
  8
0
 10
-46.8076
 20
8.50192
 11
-46.8089
 21
8.50322
  0
LINE
  8
0
 10
-46.8089
 20
8.50322
 11
-46.8112
 21
8.50557
  0
LINE
  8
0
 10
-46.8112
 20
8.50557
 11
-46.8137
 21
8.50801
  0
LINE
  8
0
 10
-46.8137
 20
8.50801
 11
-46.8156
 21
8.50997
  0
LINE
  8
0
 10
-46.8156
 20
8.50997
 11
-46.8177
 21
8.51209
  0
LINE
  8
0
 10
-46.8177
 20
8.51209
 11
-46.8206
 21
8.51495
  0
LINE
  8
0
 10
-46.8206
 20
8.51495
 11
-46.8231
 21
8.51748
  0
LINE
  8
0
 10
-46.8231
 20
8.51748
 11
-46.8272
 21
8.52154
  0
LINE
  8
0
 10
-46.8272
 20
8.52154
 11
-46.8321
 21
8.52646
  0
LINE
  8
0
 10
-46.8321
 20
8.52646
 11
-46.8369
 21
8.5312
  0
LINE
  8
0
 10
-46.8369
 20
8.5312
 11
-46.8403
 21
8.53461
  0
LINE
  8
0
 10
-46.8403
 20
8.53461
 11
-46.843
 21
8.53737
  0
LINE
  8
0
 10
-46.843
 20
8.53737
 11
-46.8458
 21
8.5401
  0
LINE
  8
0
 10
-46.8458
 20
8.5401
 11
-46.8484
 21
8.54276
  0
LINE
  8
0
 10
-46.8484
 20
8.54276
 11
-46.851
 21
8.54534
  0
LINE
  8
0
 10
-46.851
 20
8.54534
 11
-46.8533
 21
8.54768
  0
LINE
  8
0
 10
-46.8533
 20
8.54768
 11
-64.1967
 21
25.8911
  0
LINE
  8
0
 10
-64.1967
 20
25.8911
 11
-64.1988
 21
25.8931
  0
LINE
  8
0
 10
-64.1988
 20
25.8931
 11
-64.2039
 21
25.8982
  0
LINE
  8
0
 10
-64.2039
 20
25.8982
 11
-64.2073
 21
25.9017
  0
LINE
  8
0
 10
-64.2073
 20
25.9017
 11
-64.2122
 21
25.9066
  0
LINE
  8
0
 10
-64.2122
 20
25.9066
 11
-64.2172
 21
25.9116
  0
LINE
  8
0
 10
-64.2172
 20
25.9116
 11
-64.2228
 21
25.9171
  0
LINE
  8
0
 10
-64.2228
 20
25.9171
 11
-64.228
 21
25.9223
  0
LINE
  8
0
 10
-64.228
 20
25.9223
 11
-64.2319
 21
25.9263
  0
LINE
  8
0
 10
-64.2319
 20
25.9263
 11
-64.2354
 21
25.9297
  0
LINE
  8
0
 10
-64.2354
 20
25.9297
 11
-64.2385
 21
25.9329
  0
LINE
  8
0
 10
-64.2385
 20
25.9329
 11
-64.2411
 21
25.9354
  0
LINE
  8
0
 10
-64.2411
 20
25.9354
 11
-64.243
 21
25.9374
  0
LINE
  8
0
 10
-64.243
 20
25.9374
 11
-64.244
 21
25.9384
  0
LINE
  8
0
 10
-64.244
 20
25.9384
 11
-64.271
 21
25.9654
  0
LINE
  8
0
 10
-64.271
 20
25.9654
 11
-64.3244
 21
26.0207
  0
LINE
  8
0
 10
-64.3244
 20
26.0207
 11
-64.3981
 21
26.1032
  0
LINE
  8
0
 10
-64.3981
 20
26.1032
 11
-64.3984
 21
26.1036
  0
LINE
  8
0
 10
-64.3984
 20
26.1036
 11
-64.4946
 21
26.2276
  0
LINE
  8
0
 10
-64.4946
 20
26.2276
 11
-64.495
 21
26.2281
  0
LINE
  8
0
 10
-64.495
 20
26.2281
 11
-64.5988
 21
26.3824
  0
LINE
  8
0
 10
-64.5988
 20
26.3824
 11
-64.5992
 21
26.383
  0
LINE
  8
0
 10
-64.5992
 20
26.383
 11
-64.5995
 21
26.3836
  0
LINE
  8
0
 10
-64.5995
 20
26.3836
 11
-64.6923
 21
26.5565
  0
LINE
  8
0
 10
-64.6923
 20
26.5565
 11
-64.6927
 21
26.5572
  0
LINE
  8
0
 10
-64.6927
 20
26.5572
 11
-64.7679
 21
26.7267
  0
LINE
  8
0
 10
-64.7679
 20
26.7267
 11
-64.7681
 21
26.7272
  0
LINE
  8
0
 10
-64.7681
 20
26.7272
 11
-64.8297
 21
26.9143
  0
LINE
  8
0
 10
-64.8297
 20
26.9143
 11
-64.8299
 21
26.9149
  0
LINE
  8
0
 10
-64.8299
 20
26.9149
 11
-64.8746
 21
27.0951
  0
LINE
  8
0
 10
-64.8746
 20
27.0951
 11
-64.8748
 21
27.0959
  0
LINE
  8
0
 10
-64.8748
 20
27.0959
 11
-64.8989
 21
27.2525
  0
LINE
  8
0
 10
-64.8989
 20
27.2525
 11
-64.8991
 21
27.2533
  0
LINE
  8
0
 10
-64.8991
 20
27.2533
 11
-64.9071
 21
27.3293
  0
LINE
  8
0
 10
-64.9071
 20
27.3293
 11
-64.9138
 21
27.4443
  0
LINE
  8
0
 10
-64.9138
 20
27.4443
 11
-64.9137
 21
27.5978
  0
LINE
  8
0
 10
-64.9137
 20
27.5978
 11
-64.9137
 21
27.5984
  0
LINE
  8
0
 10
-64.9137
 20
27.5984
 11
-64.907
 21
27.713
  0
LINE
  8
0
 10
-64.907
 20
27.713
 11
-64.8937
 21
27.8269
  0
LINE
  8
0
 10
-64.8937
 20
27.8269
 11
-64.8936
 21
27.8275
  0
LINE
  8
0
 10
-64.8936
 20
27.8275
 11
-64.8671
 21
27.9781
  0
LINE
  8
0
 10
-64.8671
 20
27.9781
 11
-64.8669
 21
27.9787
  0
LINE
  8
0
 10
-64.8669
 20
27.9787
 11
-64.83
 21
28.1271
  0
LINE
  8
0
 10
-64.83
 20
28.1271
 11
-64.8298
 21
28.1277
  0
LINE
  8
0
 10
-64.8298
 20
28.1277
 11
-64.7825
 21
28.2731
  0
LINE
  8
0
 10
-64.7825
 20
28.2731
 11
-64.7823
 21
28.2737
  0
LINE
  8
0
 10
-64.7823
 20
28.2737
 11
-64.7095
 21
28.4504
  0
LINE
  8
0
 10
-64.7095
 20
28.4504
 11
-64.7093
 21
28.4508
  0
LINE
  8
0
 10
-64.7093
 20
28.4508
 11
-61.7915
 21
34.708
  0
LINE
  8
0
 10
-61.7915
 20
34.708
 11
-61.7866
 21
34.7186
  0
LINE
  8
0
 10
-61.7866
 20
34.7186
 11
-61.7799
 21
34.733
  0
LINE
  8
0
 10
-61.7799
 20
34.733
 11
-61.7569
 21
34.7886
  0
LINE
  8
0
 10
-61.7569
 20
34.7886
 11
-61.7568
 21
34.789
  0
LINE
  8
0
 10
-61.7568
 20
34.789
 11
-61.736
 21
34.8579
  0
LINE
  8
0
 10
-61.736
 20
34.8579
 11
-61.7359
 21
34.8582
  0
LINE
  8
0
 10
-61.7359
 20
34.8582
 11
-61.7216
 21
34.9288
  0
LINE
  8
0
 10
-61.7216
 20
34.9288
 11
-61.7128
 21
35.0404
  0
LINE
  8
0
 10
-61.7128
 20
35.0404
 11
-61.7127
 21
35.0408
  0
LINE
  8
0
 10
-61.7127
 20
35.0408
 11
-61.7128
 21
35.0411
  0
LINE
  8
0
 10
-61.7128
 20
35.0411
 11
-61.7289
 21
35.1685
  0
LINE
  8
0
 10
-61.7289
 20
35.1685
 11
-61.7289
 21
35.1689
  0
LINE
  8
0
 10
-61.7289
 20
35.1689
 11
-61.7466
 21
35.2387
  0
LINE
  8
0
 10
-61.7466
 20
35.2387
 11
-61.7467
 21
35.2391
  0
LINE
  8
0
 10
-61.7467
 20
35.2391
 11
-61.7718
 21
35.3067
  0
LINE
  8
0
 10
-61.7718
 20
35.3067
 11
-61.8159
 21
35.3919
  0
LINE
  8
0
 10
-61.8159
 20
35.3919
 11
-61.8162
 21
35.3923
  0
LINE
  8
0
 10
-61.8162
 20
35.3923
 11
-61.8567
 21
35.4519
  0
LINE
  8
0
 10
-61.8567
 20
35.4519
 11
-61.857
 21
35.4522
  0
LINE
  8
0
 10
-61.857
 20
35.4522
 11
-61.9204
 21
35.5243
  0
LINE
  8
0
 10
-61.9204
 20
35.5243
 11
-61.9206
 21
35.5244
  0
LINE
  8
0
 10
-61.9206
 20
35.5244
 11
-61.9739
 21
35.5728
  0
LINE
  8
0
 10
-61.9739
 20
35.5728
 11
-61.9741
 21
35.573
  0
LINE
  8
0
 10
-61.9741
 20
35.573
 11
-62.0324
 21
35.6154
  0
LINE
  8
0
 10
-62.0324
 20
35.6154
 11
-62.0326
 21
35.6156
  0
LINE
  8
0
 10
-62.0326
 20
35.6156
 11
-62.0951
 21
35.6513
  0
LINE
  8
0
 10
-62.0951
 20
35.6513
 11
-62.0954
 21
35.6514
  0
LINE
  8
0
 10
-62.0954
 20
35.6514
 11
-62.2083
 21
35.6993
  0
LINE
  8
0
 10
-62.2083
 20
35.6993
 11
-62.2085
 21
35.6994
  0
LINE
  8
0
 10
-62.2085
 20
35.6994
 11
-62.2087
 21
35.6994
  0
LINE
  8
0
 10
-62.2087
 20
35.6994
 11
-62.3478
 21
35.7256
  0
LINE
  8
0
 10
-62.3478
 20
35.7256
 11
-62.3482
 21
35.7257
  0
LINE
  8
0
 10
-62.3482
 20
35.7257
 11
-62.4443
 21
35.7277
  0
LINE
  8
0
 10
-62.4443
 20
35.7277
 11
-62.4446
 21
35.7277
  0
LINE
  8
0
 10
-62.4446
 20
35.7277
 11
-62.4449
 21
35.7277
  0
LINE
  8
0
 10
-62.4449
 20
35.7277
 11
-62.5285
 21
35.7195
  0
LINE
  8
0
 10
-62.5285
 20
35.7195
 11
-63.1158
 21
35.612
  0
LINE
  8
0
 10
-63.1158
 20
35.612
 11
-63.1169
 21
35.6118
  0
LINE
  8
0
 10
-63.1169
 20
35.6118
 11
-63.118
 21
35.6116
  0
LINE
  8
0
 10
-63.118
 20
35.6116
 11
-63.7013
 21
35.484
  0
LINE
  8
0
 10
-63.7013
 20
35.484
 11
-63.7023
 21
35.4837
  0
LINE
  8
0
 10
-63.7023
 20
35.4837
 11
-63.7033
 21
35.4835
  0
LINE
  8
0
 10
-63.7033
 20
35.4835
 11
-64.284
 21
35.3354
  0
LINE
  8
0
 10
-64.284
 20
35.3354
 11
-64.8592
 21
35.1675
  0
LINE
  8
0
 10
-64.8592
 20
35.1675
 11
-65.4283
 21
34.9799
  0
LINE
  8
0
 10
-65.4283
 20
34.9799
 11
-65.4294
 21
34.9795
  0
LINE
  8
0
 10
-65.4294
 20
34.9795
 11
-65.4327
 21
34.9781
  0
LINE
  8
0
 10
-65.4327
 20
34.9781
 11
-65.4484
 21
34.9726
  0
LINE
  8
0
 10
-65.4484
 20
34.9726
 11
-66.2444
 21
34.6741
  0
LINE
  8
0
 10
-66.2444
 20
34.6741
 11
-66.2608
 21
34.6673
  0
LINE
  8
0
 10
-66.2608
 20
34.6673
 11
-67.0629
 21
34.3145
  0
LINE
  8
0
 10
-67.0629
 20
34.3145
 11
-67.0936
 21
34.3011
  0
LINE
  8
0
 10
-67.0936
 20
34.3011
 11
-68.0615
 21
33.8156
  0
LINE
  8
0
 10
-68.0615
 20
33.8156
 11
-68.0977
 21
33.7974
  0
LINE
  8
0
 10
-68.0977
 20
33.7974
 11
-68.1277
 21
33.7802
  0
LINE
  8
0
 10
-68.1277
 20
33.7802
 11
-69.4347
 21
32.9769
  0
LINE
  8
0
 10
-69.4347
 20
32.9769
 11
-69.4813
 21
32.9466
  0
LINE
  8
0
 10
-69.4813
 20
32.9466
 11
-70.4154
 21
32.2651
  0
LINE
  8
0
 10
-70.4154
 20
32.2651
 11
-70.4571
 21
32.2331
  0
LINE
  8
0
 10
-70.4571
 20
32.2331
 11
-71.3356
 21
31.4959
  0
LINE
  8
0
 10
-71.3356
 20
31.4959
 11
-71.373
 21
31.4626
  0
LINE
  8
0
 10
-71.373
 20
31.4626
 11
-72.1997
 21
30.6663
  0
LINE
  8
0
 10
-72.1997
 20
30.6663
 11
-72.2334
 21
30.632
  0
LINE
  8
0
 10
-72.2334
 20
30.632
 11
-73.001
 21
29.784
  0
LINE
  8
0
 10
-73.001
 20
29.784
 11
-73.0274
 21
29.7535
  0
LINE
  8
0
 10
-73.0274
 20
29.7535
 11
-73.0496
 21
29.7254
  0
LINE
  8
0
 10
-73.0496
 20
29.7254
 11
-73.7579
 21
28.8261
  0
LINE
  8
0
 10
-73.7579
 20
28.8261
 11
-73.7852
 21
28.787
  0
LINE
  8
0
 10
-73.7852
 20
28.787
 11
-74.4311
 21
27.8401
  0
LINE
  8
0
 10
-74.4311
 20
27.8401
 11
-74.4521
 21
27.8056
  0
LINE
  8
0
 10
-74.4521
 20
27.8056
 11
-75.1729
 21
26.5588
  0
LINE
  8
0
 10
-75.1729
 20
26.5588
 11
-75.1908
 21
26.5255
  0
LINE
  8
0
 10
-75.1908
 20
26.5255
 11
-75.2166
 21
26.4702
  0
LINE
  8
0
 10
-75.2166
 20
26.4702
 11
-75.7999
 21
25.1986
  0
LINE
  8
0
 10
-75.7999
 20
25.1986
 11
-76.2044
 21
24.1248
  0
LINE
  8
0
 10
-76.2044
 20
24.1248
 11
-76.2271
 21
24.0613
  0
LINE
  8
0
 10
-76.2271
 20
24.0613
 11
-76.5574
 21
22.9611
  0
LINE
  8
0
 10
-76.5574
 20
22.9611
 11
-76.5705
 21
22.9106
  0
LINE
  8
0
 10
-76.5705
 20
22.9106
 11
-76.771
 21
22.0715
  0
LINE
  8
0
 10
-76.771
 20
22.0715
 11
-76.7726
 21
22.0628
  0
LINE
  8
0
 10
-76.7726
 20
22.0628
 11
-76.7736
 21
22.0597
  0
LINE
  8
0
 10
-76.7736
 20
22.0597
 11
-76.7748
 21
22.0535
  0
LINE
  8
0
 10
-76.7748
 20
22.0535
 11
-76.8856
 21
21.4732
  0
LINE
  8
0
 10
-76.8856
 20
21.4732
 11
-76.8877
 21
21.4598
  0
LINE
  8
0
 10
-76.8877
 20
21.4598
 11
-76.9784
 21
20.8772
  0
LINE
  8
0
 10
-76.9784
 20
20.8772
 11
-77.049
 21
20.2918
  0
LINE
  8
0
 10
-77.049
 20
20.2918
 11
-77.0506
 21
20.2766
  0
LINE
  8
0
 10
-77.0506
 20
20.2766
 11
-77.101
 21
19.6909
  0
LINE
  8
0
 10
-77.101
 20
19.6909
 11
-77.1019
 21
19.6768
  0
LINE
  8
0
 10
-77.1019
 20
19.6768
 11
-77.132
 21
19.0916
  0
LINE
  8
0
 10
-77.132
 20
19.0916
 11
-77.1324
 21
19.0726
  0
LINE
  8
0
 10
-77.1324
 20
19.0726
 11
-77.1424
 21
18.4894
  0
LINE
  8
0
 10
-77.1424
 20
18.4894
 11
-77.1424
 21
18.3486
  0
LINE
  8
0
 10
-77.1424
 20
18.3486
 11
-77.1424
 21
10.9097
  0
LINE
  8
0
 10
-77.1424
 20
10.9097
 11
-77.1424
 21
10.5056
  0
ENDSEC
  0
SECTION
  2
OBJECTS
  0
DICTIONARY
  0
ENDSEC
  0
EOF
