  0
SECTION
  2
BLOCKS
  0
ENDSEC
  0
SECTION
  2
ENTITIES
  0
LINE
  8
0
 10
-77.0424
 20
-10.4179
 11
-77.0355
 21
-10.5496
  0
LINE
  8
0
 10
-77.0355
 20
-10.5496
 11
-77.0135
 21
-11.1181
  0
LINE
  8
0
 10
-77.0135
 20
-11.1181
 11
-76.8776
 21
-11.9114
  0
LINE
  8
0
 10
-76.8776
 20
-11.9114
 11
-76.815
 21
-12.1658
  0
LINE
  8
0
 10
-76.815
 20
-12.1658
 11
-76.6138
 21
-12.8284
  0
LINE
  8
0
 10
-76.6138
 20
-12.8284
 11
-76.2883
 21
-13.5549
  0
LINE
  8
0
 10
-76.2883
 20
-13.5549
 11
-76.1493
 21
-13.8042
  0
LINE
  8
0
 10
-76.1493
 20
-13.8042
 11
-75.8328
 21
-14.3224
  0
LINE
  8
0
 10
-75.8328
 20
-14.3224
 11
-75.4829
 21
-14.7943
  0
LINE
  8
0
 10
-75.4829
 20
-14.7943
 11
-75.3788
 21
-14.9122
  0
LINE
  8
0
 10
-75.3788
 20
-14.9122
 11
-75.0215
 21
-15.2969
  0
LINE
  8
0
 10
-75.0215
 20
-15.2969
 11
-54.8428
 21
-35.4756
  0
LINE
  8
0
 10
-54.8428
 20
-35.4756
 11
-50.8068
 21
-39.5116
  0
LINE
  8
0
 10
-50.8068
 20
-39.5116
 11
-50.7039
 21
-39.603
  0
LINE
  8
0
 10
-50.7039
 20
-39.603
 11
-50.4372
 21
-39.858
  0
LINE
  8
0
 10
-50.4372
 20
-39.858
 11
-49.9735
 21
-40.2279
  0
LINE
  8
0
 10
-49.9735
 20
-40.2279
 11
-49.8412
 21
-40.3147
  0
LINE
  8
0
 10
-49.8412
 20
-40.3147
 11
-49.3416
 21
-40.6322
  0
LINE
  8
0
 10
-49.3416
 20
-40.6322
 11
-48.6399
 21
-40.9796
  0
LINE
  8
0
 10
-48.6399
 20
-40.9796
 11
-48.4323
 21
-41.0711
  0
LINE
  8
0
 10
-48.4323
 20
-41.0711
 11
-47.6767
 21
-41.313
  0
LINE
  8
0
 10
-47.6767
 20
-41.313
 11
-47.0966
 21
-41.4315
  0
LINE
  8
0
 10
-47.0966
 20
-41.4315
 11
-46.8743
 21
-41.4675
  0
LINE
  8
0
 10
-46.8743
 20
-41.4675
 11
-46.4598
 21
-41.512
  0
LINE
  8
0
 10
-46.4598
 20
-41.512
 11
-42.3628
 21
-41.8289
  0
LINE
  8
0
 10
-42.3628
 20
-41.8289
 11
-21.6542
 21
-43.4303
  0
LINE
  8
0
 10
-21.6542
 20
-43.4303
 11
-21.572
 21
-43.4335
  0
LINE
  8
0
 10
-21.572
 20
-43.4335
 11
-14.456
 21
-43.4335
  0
LINE
  8
0
 10
-14.456
 20
-43.4335
 11
21.572
 21
-43.4335
  0
LINE
  8
0
 10
21.572
 20
-43.4335
 11
21.6542
 21
-43.4303
  0
LINE
  8
0
 10
21.6542
 20
-43.4303
 11
42.3627
 21
-41.8288
  0
LINE
  8
0
 10
42.3627
 20
-41.8288
 11
46.4598
 21
-41.512
  0
LINE
  8
0
 10
46.4598
 20
-41.512
 11
46.6194
 21
-41.4891
  0
LINE
  8
0
 10
46.6194
 20
-41.4891
 11
46.8958
 21
-41.462
  0
LINE
  8
0
 10
46.8958
 20
-41.462
 11
47.3746
 21
-41.3813
  0
LINE
  8
0
 10
47.3746
 20
-41.3813
 11
48.0323
 21
-41.2024
  0
LINE
  8
0
 10
48.0323
 20
-41.2024
 11
48.2029
 21
-41.1467
  0
LINE
  8
0
 10
48.2029
 20
-41.1467
 11
48.8409
 21
-40.888
  0
LINE
  8
0
 10
48.8409
 20
-40.888
 11
49.03
 21
-40.7902
  0
LINE
  8
0
 10
49.03
 20
-40.7902
 11
49.6303
 21
-40.4626
  0
LINE
  8
0
 10
49.6303
 20
-40.4626
 11
50.2674
 21
-40.0004
  0
LINE
  8
0
 10
50.2674
 20
-40.0004
 11
50.4266
 21
-39.865
  0
LINE
  8
0
 10
50.4266
 20
-39.865
 11
50.8068
 21
-39.5116
  0
LINE
  8
0
 10
50.8068
 20
-39.5116
 11
75.0215
 21
-15.2969
  0
LINE
  8
0
 10
75.0215
 20
-15.2969
 11
75.1097
 21
-15.1989
  0
LINE
  8
0
 10
75.1097
 20
-15.1989
 11
75.4962
 21
-14.7812
  0
LINE
  8
0
 10
75.4962
 20
-14.7812
 11
76.0086
 21
-14.0459
  0
LINE
  8
0
 10
76.0086
 20
-14.0459
 11
76.139
 21
-13.8344
  0
LINE
  8
0
 10
76.139
 20
-13.8344
 11
76.4237
 21
-13.2786
  0
LINE
  8
0
 10
76.4237
 20
-13.2786
 11
76.638
 21
-12.751
  0
LINE
  8
0
 10
76.638
 20
-12.751
 11
76.7209
 21
-12.4799
  0
LINE
  8
0
 10
76.7209
 20
-12.4799
 11
76.9261
 21
-11.7109
  0
LINE
  8
0
 10
76.9261
 20
-11.7109
 11
77.017
 21
-11.0161
  0
LINE
  8
0
 10
77.017
 20
-11.0161
 11
77.0292
 21
-10.8393
  0
LINE
  8
0
 10
77.0292
 20
-10.8393
 11
77.0424
 21
-10.4179
  0
LINE
  8
0
 10
77.0424
 20
-10.4179
 11
77.0424
 21
18.4895
  0
LINE
  8
0
 10
77.0424
 20
18.4895
 11
77.0383
 21
18.6341
  0
LINE
  8
0
 10
77.0383
 20
18.6341
 11
77.0297
 21
19.1333
  0
LINE
  8
0
 10
77.0297
 20
19.1333
 11
77.004
 21
19.632
  0
LINE
  8
0
 10
77.004
 20
19.632
 11
76.9875
 21
19.8241
  0
LINE
  8
0
 10
76.9875
 20
19.8241
 11
76.9447
 21
20.3217
  0
LINE
  8
0
 10
76.9447
 20
20.3217
 11
76.8849
 21
20.8174
  0
LINE
  8
0
 10
76.8849
 20
20.8174
 11
76.8552
 21
21.008
  0
LINE
  8
0
 10
76.8552
 20
21.008
 11
76.7784
 21
21.5014
  0
LINE
  8
0
 10
76.7784
 20
21.5014
 11
76.6847
 21
21.9919
  0
LINE
  8
0
 10
76.6847
 20
21.9919
 11
76.6421
 21
22.1799
  0
LINE
  8
0
 10
76.6421
 20
22.1799
 11
76.4681
 21
22.9083
  0
LINE
  8
0
 10
76.4681
 20
22.9083
 11
76.4127
 21
23.093
  0
LINE
  8
0
 10
76.4127
 20
23.093
 11
76.1256
 21
24.0493
  0
LINE
  8
0
 10
76.1256
 20
24.0493
 11
76.0576
 21
24.2297
  0
LINE
  8
0
 10
76.0576
 20
24.2297
 11
75.7056
 21
25.164
  0
LINE
  8
0
 10
75.7056
 20
25.164
 11
75.3775
 21
25.9079
  0
LINE
  8
0
 10
75.3775
 20
25.9079
 11
75.2525
 21
26.1693
  0
LINE
  8
0
 10
75.2525
 20
26.1693
 11
74.5827
 21
27.4036
  0
LINE
  8
0
 10
74.5827
 20
27.4036
 11
74.4323
 21
27.6494
  0
LINE
  8
0
 10
74.4323
 20
27.6494
 11
73.7313
 21
28.6899
  0
LINE
  8
0
 10
73.7313
 20
28.6899
 11
73.6172
 21
28.8448
  0
LINE
  8
0
 10
73.6172
 20
28.8448
 11
73.0186
 21
29.6061
  0
LINE
  8
0
 10
73.0186
 20
29.6061
 11
72.8295
 21
29.8215
  0
LINE
  8
0
 10
72.8295
 20
29.8215
 11
72.1409
 21
30.5834
  0
LINE
  8
0
 10
72.1409
 20
30.5834
 11
71.422
 21
31.2756
  0
LINE
  8
0
 10
71.422
 20
31.2756
 11
71.2106
 21
31.4715
  0
LINE
  8
0
 10
71.2106
 20
31.4715
 11
70.4148
 21
32.1368
  0
LINE
  8
0
 10
70.4148
 20
32.1368
 11
70.1829
 21
32.3089
  0
LINE
  8
0
 10
70.1829
 20
32.3089
 11
69.3985
 21
32.8779
  0
LINE
  8
0
 10
69.3985
 20
32.8779
 11
68.2685
 21
33.5731
  0
LINE
  8
0
 10
68.2685
 20
33.5731
 11
67.9352
 21
33.7658
  0
LINE
  8
0
 10
67.9352
 20
33.7658
 11
66.8933
 21
34.2828
  0
LINE
  8
0
 10
66.8933
 20
34.2828
 11
66.5471
 21
34.4239
  0
LINE
  8
0
 10
66.5471
 20
34.4239
 11
65.8176
 21
34.7265
  0
LINE
  8
0
 10
65.8176
 20
34.7265
 11
65.3491
 21
34.899
  0
LINE
  8
0
 10
65.3491
 20
34.899
 11
64.8748
 21
35.0553
  0
LINE
  8
0
 10
64.8748
 20
35.0553
 11
64.3955
 21
35.1952
  0
LINE
  8
0
 10
64.3955
 20
35.1952
 11
64.1171
 21
35.2731
  0
LINE
  8
0
 10
64.1171
 20
35.2731
 11
63.6331
 21
35.3965
  0
LINE
  8
0
 10
63.6331
 20
35.3965
 11
63.1454
 21
35.5032
  0
LINE
  8
0
 10
63.1454
 20
35.5032
 11
62.9725
 21
35.5356
  0
LINE
  8
0
 10
62.9725
 20
35.5356
 11
62.4812
 21
35.6256
  0
LINE
  8
0
 10
62.4812
 20
35.6256
 11
62.4113
 21
35.6324
  0
LINE
  8
0
 10
62.4113
 20
35.6324
 11
62.3311
 21
35.6303
  0
LINE
  8
0
 10
62.3311
 20
35.6303
 11
62.2517
 21
35.6176
  0
LINE
  8
0
 10
62.2517
 20
35.6176
 11
62.1939
 21
35.6007
  0
LINE
  8
0
 10
62.1939
 20
35.6007
 11
62.1381
 21
35.578
  0
LINE
  8
0
 10
62.1381
 20
35.578
 11
62.0851
 21
35.5492
  0
LINE
  8
0
 10
62.0851
 20
35.5492
 11
62.0193
 21
35.5031
  0
LINE
  8
0
 10
62.0193
 20
35.5031
 11
61.9603
 21
35.4487
  0
LINE
  8
0
 10
61.9603
 20
35.4487
 11
61.9215
 21
35.4026
  0
LINE
  8
0
 10
61.9215
 20
35.4026
 11
61.8903
 21
35.357
  0
LINE
  8
0
 10
61.8903
 20
35.357
 11
61.8592
 21
35.2996
  0
LINE
  8
0
 10
61.8592
 20
35.2996
 11
61.8296
 21
35.225
  0
LINE
  8
0
 10
61.8296
 20
35.225
 11
61.8146
 21
35.1666
  0
LINE
  8
0
 10
61.8146
 20
35.1666
 11
61.8059
 21
35.107
  0
LINE
  8
0
 10
61.8059
 20
35.107
 11
61.8036
 21
35.0267
  0
LINE
  8
0
 10
61.8036
 20
35.0267
 11
61.8088
 21
34.9666
  0
LINE
  8
0
 10
61.8088
 20
34.9666
 11
61.8208
 21
34.9076
  0
LINE
  8
0
 10
61.8208
 20
34.9076
 11
61.8381
 21
34.85
  0
LINE
  8
0
 10
61.8381
 20
34.85
 11
61.8574
 21
34.8035
  0
LINE
  8
0
 10
61.8574
 20
34.8035
 11
64.2986
 21
29.5682
  0
LINE
  8
0
 10
64.2986
 20
29.5682
 11
64.7999
 21
28.4931
  0
LINE
  8
0
 10
64.7999
 20
28.4931
 11
64.8379
 21
28.405
  0
LINE
  8
0
 10
64.8379
 20
28.405
 11
64.8817
 21
28.2847
  0
LINE
  8
0
 10
64.8817
 20
28.2847
 11
64.9138
 21
28.1842
  0
LINE
  8
0
 10
64.9138
 20
28.1842
 11
64.9552
 21
28.0381
  0
LINE
  8
0
 10
64.9552
 20
28.0381
 11
64.9857
 21
27.8729
  0
LINE
  8
0
 10
64.9857
 20
27.8729
 11
65.001
 21
27.7209
  0
LINE
  8
0
 10
65.001
 20
27.7209
 11
65.011
 21
27.6026
  0
LINE
  8
0
 10
65.011
 20
27.6026
 11
65.0124
 21
27.4348
  0
LINE
  8
0
 10
65.0124
 20
27.4348
 11
65.0068
 21
27.339
  0
LINE
  8
0
 10
65.0068
 20
27.339
 11
65.0002
 21
27.2753
  0
LINE
  8
0
 10
65.0002
 20
27.2753
 11
64.9793
 21
27.1438
  0
LINE
  8
0
 10
64.9793
 20
27.1438
 11
64.9568
 21
27.0231
  0
LINE
  8
0
 10
64.9568
 20
27.0231
 11
64.9099
 21
26.8371
  0
LINE
  8
0
 10
64.9099
 20
26.8371
 11
64.8574
 21
26.6907
  0
LINE
  8
0
 10
64.8574
 20
26.6907
 11
64.7895
 21
26.5408
  0
LINE
  8
0
 10
64.7895
 20
26.5408
 11
64.7511
 21
26.4519
  0
LINE
  8
0
 10
64.7511
 20
26.4519
 11
64.6533
 21
26.2854
  0
LINE
  8
0
 10
64.6533
 20
26.2854
 11
64.5614
 21
26.156
  0
LINE
  8
0
 10
64.5614
 20
26.156
 11
64.4877
 21
26.0594
  0
LINE
  8
0
 10
64.4877
 20
26.0594
 11
64.4056
 21
25.9618
  0
LINE
  8
0
 10
64.4056
 20
25.9618
 11
64.3418
 21
25.8948
  0
LINE
  8
0
 10
64.3418
 20
25.8948
 11
61.4843
 21
23.0373
  0
LINE
  8
0
 10
61.4843
 20
23.0373
 11
46.8935
 21
8.44643
  0
LINE
  8
0
 10
46.8935
 20
8.44643
 11
47.006
 21
8.29719
  0
LINE
  8
0
 10
47.006
 20
8.29719
 11
47.2367
 21
7.97461
  0
LINE
  8
0
 10
47.2367
 20
7.97461
 11
47.2396
 21
7.9701
  0
LINE
  8
0
 10
47.2396
 20
7.9701
 11
47.3274
 21
7.83676
  0
LINE
  8
0
 10
47.3274
 20
7.83676
 11
47.5469
 21
7.50635
  0
LINE
  8
0
 10
47.5469
 20
7.50635
 11
47.5497
 21
7.50185
  0
LINE
  8
0
 10
47.5497
 20
7.50185
 11
47.7576
 21
7.16393
  0
LINE
  8
0
 10
47.7576
 20
7.16393
 11
47.7602
 21
7.15935
  0
LINE
  8
0
 10
47.7602
 20
7.15935
 11
47.8431
 21
7.01354
  0
LINE
  8
0
 10
47.8431
 20
7.01354
 11
48.0391
 21
6.66864
  0
LINE
  8
0
 10
48.0391
 20
6.66864
 11
48.0416
 21
6.66397
  0
LINE
  8
0
 10
48.0416
 20
6.66397
 11
48.2255
 21
6.31238
  0
LINE
  8
0
 10
48.2255
 20
6.31238
 11
48.2277
 21
6.30772
  0
LINE
  8
0
 10
48.2277
 20
6.30772
 11
48.3003
 21
6.1565
  0
LINE
  8
0
 10
48.3003
 20
6.1565
 11
48.472
 21
5.7987
  0
LINE
  8
0
 10
48.472
 20
5.7987
 11
48.4741
 21
5.79403
  0
LINE
  8
0
 10
48.4741
 20
5.79403
 11
48.6333
 21
5.4304
  0
LINE
  8
0
 10
48.6333
 20
5.4304
 11
48.6352
 21
5.42573
  0
LINE
  8
0
 10
48.6352
 20
5.42573
 11
48.6971
 21
5.26985
  0
LINE
  8
0
 10
48.6971
 20
5.26985
 11
48.8436
 21
4.90087
  0
LINE
  8
0
 10
48.8436
 20
4.90087
 11
48.8453
 21
4.89617
  0
LINE
  8
0
 10
48.8453
 20
4.89617
 11
48.9789
 21
4.52226
  0
LINE
  8
0
 10
48.9789
 20
4.52226
 11
48.9803
 21
4.51759
  0
LINE
  8
0
 10
48.9803
 20
4.51759
 11
49.0313
 21
4.3578
  0
LINE
  8
0
 10
49.0313
 20
4.3578
 11
49.1519
 21
3.97942
  0
LINE
  8
0
 10
49.1519
 20
3.97942
 11
49.2607
 21
3.59235
  0
LINE
  8
0
 10
49.2607
 20
3.59235
 11
49.2618
 21
3.58771
  0
LINE
  8
0
 10
49.2618
 20
3.58771
 11
49.3015
 21
3.42476
  0
LINE
  8
0
 10
49.3015
 20
3.42476
 11
49.3956
 21
3.03881
  0
LINE
  8
0
 10
49.3956
 20
3.03881
 11
49.3966
 21
3.03417
  0
LINE
  8
0
 10
49.3966
 20
3.03417
 11
49.4772
 21
2.64511
  0
LINE
  8
0
 10
49.4772
 20
2.64511
 11
49.5056
 21
2.4798
  0
LINE
  8
0
 10
49.5056
 20
2.4798
 11
49.5735
 21
2.08355
  0
LINE
  8
0
 10
49.5735
 20
2.08355
 11
49.5741
 21
2.07899
  0
LINE
  8
0
 10
49.5741
 20
2.07899
 11
49.6276
 21
1.68516
  0
LINE
  8
0
 10
49.6276
 20
1.68516
 11
49.628
 21
1.68064
  0
LINE
  8
0
 10
49.628
 20
1.68064
 11
49.6448
 21
1.51377
  0
LINE
  8
0
 10
49.6448
 20
1.51377
 11
49.6846
 21
1.11826
  0
LINE
  8
0
 10
49.6846
 20
1.11826
 11
49.6849
 21
1.11379
  0
LINE
  8
0
 10
49.6849
 20
1.11379
 11
49.7109
 21
0.717099
  0
LINE
  8
0
 10
49.7109
 20
0.717099
 11
49.7111
 21
0.712655
  0
LINE
  8
0
 10
49.7111
 20
0.712655
 11
49.7163
 21
0.545016
  0
LINE
  8
0
 10
49.7163
 20
0.545016
 11
49.7285
 21
0.147573
  0
LINE
  8
0
 10
49.7285
 20
0.147573
 11
49.7285
 21
0.143225
  0
LINE
  8
0
 10
49.7285
 20
0.143225
 11
49.727
 21
-0.254453
  0
LINE
  8
0
 10
49.727
 20
-0.254453
 11
49.7269
 21
-0.258763
  0
LINE
  8
0
 10
49.7269
 20
-0.258763
 11
49.7204
 21
-0.426359
  0
LINE
  8
0
 10
49.7204
 20
-0.426359
 11
49.7051
 21
-0.82377
  0
LINE
  8
0
 10
49.7051
 20
-0.82377
 11
49.7047
 21
-0.828017
  0
LINE
  8
0
 10
49.7047
 20
-0.828017
 11
49.6757
 21
-1.22474
  0
LINE
  8
0
 10
49.6757
 20
-1.22474
 11
49.6752
 21
-1.22892
  0
LINE
  8
0
 10
49.6752
 20
-1.22892
 11
49.6571
 21
-1.39567
  0
LINE
  8
0
 10
49.6571
 20
-1.39567
 11
49.6143
 21
-1.79121
  0
LINE
  8
0
 10
49.6143
 20
-1.79121
 11
49.6137
 21
-1.79529
  0
LINE
  8
0
 10
49.6137
 20
-1.79529
 11
49.5571
 21
-2.18918
  0
LINE
  8
0
 10
49.5571
 20
-2.18918
 11
49.5563
 21
-2.19317
  0
LINE
  8
0
 10
49.5563
 20
-2.19317
 11
49.5267
 21
-2.35825
  0
LINE
  8
0
 10
49.5267
 20
-2.35825
 11
49.4565
 21
-2.74999
  0
LINE
  8
0
 10
49.4565
 20
-2.74999
 11
49.3719
 21
-3.14302
  0
LINE
  8
0
 10
49.3719
 20
-3.14302
 11
49.3309
 21
-3.30566
  0
LINE
  8
0
 10
49.3309
 20
-3.30566
 11
49.2327
 21
-3.69552
  0
LINE
  8
0
 10
49.2327
 20
-3.69552
 11
49.121
 21
-4.08173
  0
LINE
  8
0
 10
49.121
 20
-4.08173
 11
49.0688
 21
-4.24113
  0
LINE
  8
0
 10
49.0688
 20
-4.24113
 11
48.9438
 21
-4.62323
  0
LINE
  8
0
 10
48.9438
 20
-4.62323
 11
48.8056
 21
-5.00079
  0
LINE
  8
0
 10
48.8056
 20
-5.00079
 11
48.7425
 21
-5.15619
  0
LINE
  8
0
 10
48.7425
 20
-5.15619
 11
48.5913
 21
-5.52869
  0
LINE
  8
0
 10
48.5913
 20
-5.52869
 11
48.4272
 21
-5.89575
  0
LINE
  8
0
 10
48.4272
 20
-5.89575
 11
48.3535
 21
-6.0464
  0
LINE
  8
0
 10
48.3535
 20
-6.0464
 11
48.0822
 21
-6.58492
  0
LINE
  8
0
 10
48.0822
 20
-6.58492
 11
47.9865
 21
-6.74747
  0
LINE
  8
0
 10
47.9865
 20
-6.74747
 11
47.6038
 21
-7.41831
  0
LINE
  8
0
 10
47.6038
 20
-7.41831
 11
47.0464
 21
-8.23734
  0
LINE
  8
0
 10
47.0464
 20
-8.23734
 11
46.9151
 21
-8.42411
  0
LINE
  8
0
 10
46.9151
 20
-8.42411
 11
46.2686
 21
-9.21106
  0
LINE
  8
0
 10
46.2686
 20
-9.21106
 11
46.1608
 21
-9.33952
  0
LINE
  8
0
 10
46.1608
 20
-9.33952
 11
45.6042
 21
-9.92
  0
LINE
  8
0
 10
45.6042
 20
-9.92
 11
45.5179
 21
-10.0115
  0
LINE
  8
0
 10
45.5179
 20
-10.0115
 11
45.4265
 21
-10.0979
  0
LINE
  8
0
 10
45.4265
 20
-10.0979
 11
44.6896
 21
-10.7597
  0
LINE
  8
0
 10
44.6896
 20
-10.7597
 11
44.5282
 21
-10.8935
  0
LINE
  8
0
 10
44.5282
 20
-10.8935
 11
43.7099
 21
-11.5027
  0
LINE
  8
0
 10
43.7099
 20
-11.5027
 11
43.6067
 21
-11.5761
  0
LINE
  8
0
 10
43.6067
 20
-11.5761
 11
43.4636
 21
-11.6659
  0
LINE
  8
0
 10
43.4636
 20
-11.6659
 11
42.6209
 21
-12.1916
  0
LINE
  8
0
 10
42.6209
 20
-12.1916
 11
42.4148
 21
-12.2976
  0
LINE
  8
0
 10
42.4148
 20
-12.2976
 11
41.657
 21
-12.682
  0
LINE
  8
0
 10
41.657
 20
-12.682
 11
41.2923
 21
-12.8455
  0
LINE
  8
0
 10
41.2923
 20
-12.8455
 11
41.1182
 21
-12.918
  0
LINE
  8
0
 10
41.1182
 20
-12.918
 11
40.7458
 21
-13.0697
  0
LINE
  8
0
 10
40.7458
 20
-13.0697
 11
40.3684
 21
-13.2083
  0
LINE
  8
0
 10
40.3684
 20
-13.2083
 11
40.2091
 21
-13.2607
  0
LINE
  8
0
 10
40.2091
 20
-13.2607
 11
39.8272
 21
-13.3861
  0
LINE
  8
0
 10
39.8272
 20
-13.3861
 11
39.4411
 21
-13.4983
  0
LINE
  8
0
 10
39.4411
 20
-13.4983
 11
39.0513
 21
-13.5969
  0
LINE
  8
0
 10
39.0513
 20
-13.5969
 11
38.8065
 21
-13.6544
  0
LINE
  8
0
 10
38.8065
 20
-13.6544
 11
38.4135
 21
-13.7395
  0
LINE
  8
0
 10
38.4135
 20
-13.7395
 11
38.016
 21
-13.8112
  0
LINE
  8
0
 10
38.016
 20
-13.8112
 11
37.85
 21
-13.8352
  0
LINE
  8
0
 10
37.85
 20
-13.8352
 11
37.4539
 21
-13.8925
  0
LINE
  8
0
 10
37.4539
 20
-13.8925
 11
37.4522
 21
-13.8927
  0
LINE
  8
0
 10
37.4522
 20
-13.8927
 11
37.0543
 21
-13.9363
  0
LINE
  8
0
 10
37.0543
 20
-13.9363
 11
37.0525
 21
-13.9364
  0
LINE
  8
0
 10
37.0525
 20
-13.9364
 11
36.9272
 21
-13.9472
  0
LINE
  8
0
 10
36.9272
 20
-13.9472
 11
36.528
 21
-13.977
  0
LINE
  8
0
 10
36.528
 20
-13.977
 11
36.5263
 21
-13.9771
  0
LINE
  8
0
 10
36.5263
 20
-13.9771
 11
36.3796
 21
-13.98
  0
LINE
  8
0
 10
36.3796
 20
-13.98
 11
35.9796
 21
-13.9959
  0
LINE
  8
0
 10
35.9796
 20
-13.9959
 11
35.576
 21
-13.9978
  0
LINE
  8
0
 10
35.576
 20
-13.9978
 11
35.1741
 21
-13.9858
  0
LINE
  8
0
 10
35.1741
 20
-13.9858
 11
34.9439
 21
-13.9746
  0
LINE
  8
0
 10
34.9439
 20
-13.9746
 11
34.5427
 21
-13.9486
  0
LINE
  8
0
 10
34.5427
 20
-13.9486
 11
34.1427
 21
-13.9088
  0
LINE
  8
0
 10
34.1427
 20
-13.9088
 11
33.9765
 21
-13.8864
  0
LINE
  8
0
 10
33.9765
 20
-13.8864
 11
33.5781
 21
-13.8327
  0
LINE
  8
0
 10
33.5781
 20
-13.8327
 11
33.1818
 21
-13.7652
  0
LINE
  8
0
 10
33.1818
 20
-13.7652
 11
33.0176
 21
-13.7313
  0
LINE
  8
0
 10
33.0176
 20
-13.7313
 11
32.6239
 21
-13.6501
  0
LINE
  8
0
 10
32.6239
 20
-13.6501
 11
32.2332
 21
-13.5553
  0
LINE
  8
0
 10
32.2332
 20
-13.5553
 11
32.1117
 21
-13.5228
  0
LINE
  8
0
 10
32.1117
 20
-13.5228
 11
31.7245
 21
-13.4145
  0
LINE
  8
0
 10
31.7245
 20
-13.4145
 11
31.6051
 21
-13.3751
  0
LINE
  8
0
 10
31.6051
 20
-13.3751
 11
31.222
 21
-13.2534
  0
LINE
  8
0
 10
31.222
 20
-13.2534
 11
30.8433
 21
-13.1185
  0
LINE
  8
0
 10
30.8433
 20
-13.1185
 11
30.4696
 21
-12.9705
  0
LINE
  8
0
 10
30.4696
 20
-12.9705
 11
30.2373
 21
-12.8739
  0
LINE
  8
0
 10
30.2373
 20
-12.8739
 11
29.8689
 21
-12.7131
  0
LINE
  8
0
 10
29.8689
 20
-12.7131
 11
29.5063
 21
-12.5396
  0
LINE
  8
0
 10
29.5063
 20
-12.5396
 11
29.3576
 21
-12.462
  0
LINE
  8
0
 10
29.3576
 20
-12.462
 11
29.0012
 21
-12.276
  0
LINE
  8
0
 10
29.0012
 20
-12.276
 11
28.6516
 21
-12.0777
  0
LINE
  8
0
 10
28.6516
 20
-12.0777
 11
28.5086
 21
-11.99
  0
LINE
  8
0
 10
28.5086
 20
-11.99
 11
28.166
 21
-11.7797
  0
LINE
  8
0
 10
28.166
 20
-11.7797
 11
27.8309
 21
-11.5577
  0
LINE
  8
0
 10
27.8309
 20
-11.5577
 11
27.6944
 21
-11.4603
  0
LINE
  8
0
 10
27.6944
 20
-11.4603
 11
27.3672
 21
-11.2267
  0
LINE
  8
0
 10
27.3672
 20
-11.2267
 11
27.0483
 21
-10.982
  0
LINE
  8
0
 10
27.0483
 20
-10.982
 11
26.9189
 21
-10.8753
  0
LINE
  8
0
 10
26.9189
 20
-10.8753
 11
26.6086
 21
-10.6197
  0
LINE
  8
0
 10
26.6086
 20
-10.6197
 11
26.3075
 21
-10.3534
  0
LINE
  8
0
 10
26.3075
 20
-10.3534
 11
26.1858
 21
-10.238
  0
LINE
  8
0
 10
26.1858
 20
-10.238
 11
25.8941
 21
-9.96147
  0
LINE
  8
0
 10
25.8941
 20
-9.96147
 11
25.6121
 21
-9.67495
  0
LINE
  8
0
 10
25.6121
 20
-9.67495
 11
25.5259
 21
-9.58325
  0
LINE
  8
0
 10
25.5259
 20
-9.58325
 11
25.2541
 21
-9.28713
  0
LINE
  8
0
 10
25.2541
 20
-9.28713
 11
25.1995
 21
-9.22341
  0
LINE
  8
0
 10
25.1995
 20
-9.22341
 11
24.9381
 21
-8.91802
  0
LINE
  8
0
 10
24.9381
 20
-8.91802
 11
24.8858
 21
-8.85245
  0
LINE
  8
0
 10
24.8858
 20
-8.85245
 11
24.6352
 21
-8.53819
  0
LINE
  8
0
 10
24.6352
 20
-8.53819
 11
24.5852
 21
-8.47083
  0
LINE
  8
0
 10
24.5852
 20
-8.47083
 11
24.3352
 21
-8.13416
  0
LINE
  8
0
 10
24.3352
 20
-8.13416
 11
24.3245
 21
-8.12063
  0
LINE
  8
0
 10
24.3245
 20
-8.12063
 11
24.3132
 21
-8.10748
  0
LINE
  8
0
 10
24.3132
 20
-8.10748
 11
24.3015
 21
-8.09473
  0
LINE
  8
0
 10
24.3015
 20
-8.09473
 11
24.2894
 21
-8.0824
  0
LINE
  8
0
 10
24.2894
 20
-8.0824
 11
24.2768
 21
-8.07048
  0
LINE
  8
0
 10
24.2768
 20
-8.07048
 11
24.2638
 21
-8.05901
  0
LINE
  8
0
 10
24.2638
 20
-8.05901
 11
24.2505
 21
-8.048
  0
LINE
  8
0
 10
24.2505
 20
-8.048
 11
24.2368
 21
-8.03745
  0
LINE
  8
0
 10
24.2368
 20
-8.03745
 11
24.2228
 21
-8.02738
  0
LINE
  8
0
 10
24.2228
 20
-8.02738
 11
24.2083
 21
-8.01781
  0
LINE
  8
0
 10
24.2083
 20
-8.01781
 11
24.1936
 21
-8.00874
  0
LINE
  8
0
 10
24.1936
 20
-8.00874
 11
24.1785
 21
-8.00019
  0
LINE
  8
0
 10
24.1785
 20
-8.00019
 11
24.1632
 21
-7.99217
  0
LINE
  8
0
 10
24.1632
 20
-7.99217
 11
24.1476
 21
-7.98467
  0
LINE
  8
0
 10
24.1476
 20
-7.98467
 11
24.1318
 21
-7.97773
  0
LINE
  8
0
 10
24.1318
 20
-7.97773
 11
24.1157
 21
-7.97134
  0
LINE
  8
0
 10
24.1157
 20
-7.97134
 11
24.0994
 21
-7.9655
  0
LINE
  8
0
 10
24.0994
 20
-7.9655
 11
24.0829
 21
-7.96023
  0
LINE
  8
0
 10
24.0829
 20
-7.96023
 11
24.0662
 21
-7.95553
  0
LINE
  8
0
 10
24.0662
 20
-7.95553
 11
24.0494
 21
-7.95141
  0
LINE
  8
0
 10
24.0494
 20
-7.95141
 11
24.0325
 21
-7.9479
  0
LINE
  8
0
 10
24.0325
 20
-7.9479
 11
24.0154
 21
-7.94496
  0
LINE
  8
0
 10
24.0154
 20
-7.94496
 11
23.9983
 21
-7.9426
  0
LINE
  8
0
 10
23.9983
 20
-7.9426
 11
23.9811
 21
-7.94085
  0
LINE
  8
0
 10
23.9811
 20
-7.94085
 11
23.9638
 21
-7.9397
  0
LINE
  8
0
 10
23.9638
 20
-7.9397
 11
23.9465
 21
-7.93913
  0
LINE
  8
0
 10
23.9465
 20
-7.93913
 11
23.9292
 21
-7.93917
  0
LINE
  8
0
 10
23.9292
 20
-7.93917
 11
23.9119
 21
-7.93981
  0
LINE
  8
0
 10
23.9119
 20
-7.93981
 11
23.8947
 21
-7.94104
  0
LINE
  8
0
 10
23.8947
 20
-7.94104
 11
23.8775
 21
-7.94287
  0
LINE
  8
0
 10
23.8775
 20
-7.94287
 11
23.8603
 21
-7.94529
  0
LINE
  8
0
 10
23.8603
 20
-7.94529
 11
23.8432
 21
-7.9483
  0
LINE
  8
0
 10
23.8432
 20
-7.9483
 11
23.8263
 21
-7.95191
  0
LINE
  8
0
 10
23.8263
 20
-7.95191
 11
23.8096
 21
-7.95611
  0
LINE
  8
0
 10
23.8096
 20
-7.95611
 11
6.80426
 21
-12.5127
  0
LINE
  8
0
 10
6.80426
 20
-12.5127
 11
3.40297
 21
-13.424
  0
LINE
  8
0
 10
3.40297
 20
-13.424
 11
3.05623
 21
-13.5107
  0
LINE
  8
0
 10
3.05623
 20
-13.5107
 11
2.70708
 21
-13.5856
  0
LINE
  8
0
 10
2.70708
 20
-13.5856
 11
2.5242
 21
-13.6261
  0
LINE
  8
0
 10
2.5242
 20
-13.6261
 11
2.17288
 21
-13.6892
  0
LINE
  8
0
 10
2.17288
 20
-13.6892
 11
1.81874
 21
-13.7406
  0
LINE
  8
0
 10
1.81874
 20
-13.7406
 11
1.67041
 21
-13.7621
  0
LINE
  8
0
 10
1.67041
 20
-13.7621
 11
1.31593
 21
-13.8014
  0
LINE
  8
0
 10
1.31593
 20
-13.8014
 11
0.959975
 21
-13.8288
  0
LINE
  8
0
 10
0.959975
 20
-13.8288
 11
0.810497
 21
-13.8403
  0
LINE
  8
0
 10
0.810497
 20
-13.8403
 11
0.463855
 21
-13.8552
  0
LINE
  8
0
 10
0.463855
 20
-13.8552
 11
0.111689
 21
-13.8592
  0
LINE
  8
0
 10
0.111689
 20
-13.8592
 11
-0.0318725
 21
-13.8612
  0
LINE
  8
0
 10
-0.0318725
 20
-13.8612
 11
-0.391056
 21
-13.8572
  0
LINE
  8
0
 10
-0.391056
 20
-13.8572
 11
-0.538668
 21
-13.8508
  0
LINE
  8
0
 10
-0.538668
 20
-13.8508
 11
-0.881394
 21
-13.8361
  0
LINE
  8
0
 10
-0.881394
 20
-13.8361
 11
-1.23807
 21
-13.8087
  0
LINE
  8
0
 10
-1.23807
 20
-13.8087
 11
-1.38701
 21
-13.7922
  0
LINE
  8
0
 10
-1.38701
 20
-13.7922
 11
-1.7427
 21
-13.7529
  0
LINE
  8
0
 10
-1.7427
 20
-13.7529
 11
-2.09716
 21
-13.7015
  0
LINE
  8
0
 10
-2.09716
 20
-13.7015
 11
-2.24467
 21
-13.6751
  0
LINE
  8
0
 10
-2.24467
 20
-13.6751
 11
-2.59696
 21
-13.6118
  0
LINE
  8
0
 10
-2.59696
 20
-13.6118
 11
-2.94694
 21
-13.5367
  0
LINE
  8
0
 10
-2.94694
 20
-13.5367
 11
-3.05629
 21
-13.5107
  0
LINE
  8
0
 10
-3.05629
 20
-13.5107
 11
-3.40294
 21
-13.424
  0
LINE
  8
0
 10
-3.40294
 20
-13.424
 11
-20.4083
 21
-8.86749
  0
LINE
  8
0
 10
-20.4083
 20
-8.86749
 11
-23.8096
 21
-7.95612
  0
LINE
  8
0
 10
-23.8096
 20
-7.95612
 11
-23.8264
 21
-7.95192
  0
LINE
  8
0
 10
-23.8264
 20
-7.95192
 11
-23.8433
 21
-7.9483
  0
LINE
  8
0
 10
-23.8433
 20
-7.9483
 11
-23.8603
 21
-7.9453
  0
LINE
  8
0
 10
-23.8603
 20
-7.9453
 11
-23.8775
 21
-7.94287
  0
LINE
  8
0
 10
-23.8775
 20
-7.94287
 11
-23.8947
 21
-7.94104
  0
LINE
  8
0
 10
-23.8947
 20
-7.94104
 11
-23.9119
 21
-7.93981
  0
LINE
  8
0
 10
-23.9119
 20
-7.93981
 11
-23.9292
 21
-7.93917
  0
LINE
  8
0
 10
-23.9292
 20
-7.93917
 11
-23.9465
 21
-7.93913
  0
LINE
  8
0
 10
-23.9465
 20
-7.93913
 11
-23.9638
 21
-7.93969
  0
LINE
  8
0
 10
-23.9638
 20
-7.93969
 11
-23.9811
 21
-7.94085
  0
LINE
  8
0
 10
-23.9811
 20
-7.94085
 11
-23.9983
 21
-7.94261
  0
LINE
  8
0
 10
-23.9983
 20
-7.94261
 11
-24.0155
 21
-7.94496
  0
LINE
  8
0
 10
-24.0155
 20
-7.94496
 11
-24.0325
 21
-7.9479
  0
LINE
  8
0
 10
-24.0325
 20
-7.9479
 11
-24.0494
 21
-7.95141
  0
LINE
  8
0
 10
-24.0494
 20
-7.95141
 11
-24.0662
 21
-7.95554
  0
LINE
  8
0
 10
-24.0662
 20
-7.95554
 11
-24.0829
 21
-7.96023
  0
LINE
  8
0
 10
-24.0829
 20
-7.96023
 11
-24.0994
 21
-7.9655
  0
LINE
  8
0
 10
-24.0994
 20
-7.9655
 11
-24.1157
 21
-7.97134
  0
LINE
  8
0
 10
-24.1157
 20
-7.97134
 11
-24.1318
 21
-7.97772
  0
LINE
  8
0
 10
-24.1318
 20
-7.97772
 11
-24.1476
 21
-7.98467
  0
LINE
  8
0
 10
-24.1476
 20
-7.98467
 11
-24.1632
 21
-7.99217
  0
LINE
  8
0
 10
-24.1632
 20
-7.99217
 11
-24.1785
 21
-8.00019
  0
LINE
  8
0
 10
-24.1785
 20
-8.00019
 11
-24.1936
 21
-8.00874
  0
LINE
  8
0
 10
-24.1936
 20
-8.00874
 11
-24.2083
 21
-8.01781
  0
LINE
  8
0
 10
-24.2083
 20
-8.01781
 11
-24.2227
 21
-8.02739
  0
LINE
  8
0
 10
-24.2227
 20
-8.02739
 11
-24.2368
 21
-8.03745
  0
LINE
  8
0
 10
-24.2368
 20
-8.03745
 11
-24.2505
 21
-8.048
  0
LINE
  8
0
 10
-24.2505
 20
-8.048
 11
-24.2639
 21
-8.05901
  0
LINE
  8
0
 10
-24.2639
 20
-8.05901
 11
-24.2768
 21
-8.07048
  0
LINE
  8
0
 10
-24.2768
 20
-8.07048
 11
-24.2894
 21
-8.08239
  0
LINE
  8
0
 10
-24.2894
 20
-8.08239
 11
-24.3015
 21
-8.09473
  0
LINE
  8
0
 10
-24.3015
 20
-8.09473
 11
-24.3132
 21
-8.10748
  0
LINE
  8
0
 10
-24.3132
 20
-8.10748
 11
-24.3245
 21
-8.12064
  0
LINE
  8
0
 10
-24.3245
 20
-8.12064
 11
-24.3353
 21
-8.13416
  0
LINE
  8
0
 10
-24.3353
 20
-8.13416
 11
-24.5852
 21
-8.47087
  0
LINE
  8
0
 10
-24.5852
 20
-8.47087
 11
-24.6614
 21
-8.57101
  0
LINE
  8
0
 10
-24.6614
 20
-8.57101
 11
-24.912
 21
-8.88533
  0
LINE
  8
0
 10
-24.912
 20
-8.88533
 11
-25.1735
 21
-9.19075
  0
LINE
  8
0
 10
-25.1735
 20
-9.19075
 11
-25.2826
 21
-9.31817
  0
LINE
  8
0
 10
-25.2826
 20
-9.31817
 11
-25.5545
 21
-9.61434
  0
LINE
  8
0
 10
-25.5545
 20
-9.61434
 11
-25.8365
 21
-9.90088
  0
LINE
  8
0
 10
-25.8365
 20
-9.90088
 11
-25.9541
 21
-10.0204
  0
LINE
  8
0
 10
-25.9541
 20
-10.0204
 11
-26.2459
 21
-10.297
  0
LINE
  8
0
 10
-26.2459
 20
-10.297
 11
-26.5471
 21
-10.5633
  0
LINE
  8
0
 10
-26.5471
 20
-10.5633
 11
-26.6728
 21
-10.6744
  0
LINE
  8
0
 10
-26.6728
 20
-10.6744
 11
-26.983
 21
-10.9301
  0
LINE
  8
0
 10
-26.983
 20
-10.9301
 11
-27.302
 21
-11.1749
  0
LINE
  8
0
 10
-27.302
 20
-11.1749
 11
-27.435
 21
-11.277
  0
LINE
  8
0
 10
-27.435
 20
-11.277
 11
-27.7623
 21
-11.5105
  0
LINE
  8
0
 10
-27.7623
 20
-11.5105
 11
-28.0975
 21
-11.7326
  0
LINE
  8
0
 10
-28.0975
 20
-11.7326
 11
-28.2811
 21
-11.8529
  0
LINE
  8
0
 10
-28.2811
 20
-11.8529
 11
-28.6237
 21
-12.0632
  0
LINE
  8
0
 10
-28.6237
 20
-12.0632
 11
-28.9735
 21
-12.2615
  0
LINE
  8
0
 10
-28.9735
 20
-12.2615
 11
-29.3299
 21
-12.4475
  0
LINE
  8
0
 10
-29.3299
 20
-12.4475
 11
-29.513
 21
-12.5436
  0
LINE
  8
0
 10
-29.513
 20
-12.5436
 11
-29.8757
 21
-12.7171
  0
LINE
  8
0
 10
-29.8757
 20
-12.7171
 11
-30.2442
 21
-12.8779
  0
LINE
  8
0
 10
-30.2442
 20
-12.8779
 11
-30.4804
 21
-12.9767
  0
LINE
  8
0
 10
-30.4804
 20
-12.9767
 11
-30.8542
 21
-13.1247
  0
LINE
  8
0
 10
-30.8542
 20
-13.1247
 11
-31.2328
 21
-13.2595
  0
LINE
  8
0
 10
-31.2328
 20
-13.2595
 11
-31.6159
 21
-13.3811
  0
LINE
  8
0
 10
-31.6159
 20
-13.3811
 11
-32.003
 21
-13.4894
  0
LINE
  8
0
 10
-32.003
 20
-13.4894
 11
-32.1936
 21
-13.5458
  0
LINE
  8
0
 10
-32.1936
 20
-13.5458
 11
-32.5843
 21
-13.6405
  0
LINE
  8
0
 10
-32.5843
 20
-13.6405
 11
-32.8002
 21
-13.6883
  0
LINE
  8
0
 10
-32.8002
 20
-13.6883
 11
-33.1938
 21
-13.7695
  0
LINE
  8
0
 10
-33.1938
 20
-13.7695
 11
-33.5901
 21
-13.8369
  0
LINE
  8
0
 10
-33.5901
 20
-13.8369
 11
-33.9884
 21
-13.8905
  0
LINE
  8
0
 10
-33.9884
 20
-13.8905
 11
-34.3884
 21
-13.9303
  0
LINE
  8
0
 10
-34.3884
 20
-13.9303
 11
-34.6794
 21
-13.9597
  0
LINE
  8
0
 10
-34.6794
 20
-13.9597
 11
-35.0806
 21
-13.9856
  0
LINE
  8
0
 10
-35.0806
 20
-13.9856
 11
-35.4825
 21
-13.9976
  0
LINE
  8
0
 10
-35.4825
 20
-13.9976
 11
-35.8845
 21
-13.9956
  0
LINE
  8
0
 10
-35.8845
 20
-13.9956
 11
-36.0914
 21
-13.995
  0
LINE
  8
0
 10
-36.0914
 20
-13.995
 11
-36.4931
 21
-13.9791
  0
LINE
  8
0
 10
-36.4931
 20
-13.9791
 11
-36.894
 21
-13.9492
  0
LINE
  8
0
 10
-36.894
 20
-13.9492
 11
-37.0126
 21
-13.9409
  0
LINE
  8
0
 10
-37.0126
 20
-13.9409
 11
-37.4104
 21
-13.8973
  0
LINE
  8
0
 10
-37.4104
 20
-13.8973
 11
-37.4123
 21
-13.8971
  0
LINE
  8
0
 10
-37.4123
 20
-13.8971
 11
-37.5441
 21
-13.8817
  0
LINE
  8
0
 10
-37.5441
 20
-13.8817
 11
-37.9401
 21
-13.8243
  0
LINE
  8
0
 10
-37.9401
 20
-13.8243
 11
-37.942
 21
-13.824
  0
LINE
  8
0
 10
-37.942
 20
-13.824
 11
-38.3377
 21
-13.7527
  0
LINE
  8
0
 10
-38.3377
 20
-13.7527
 11
-38.5774
 21
-13.704
  0
LINE
  8
0
 10
-38.5774
 20
-13.704
 11
-38.9694
 21
-13.6191
  0
LINE
  8
0
 10
-38.9694
 20
-13.6191
 11
-39.3591
 21
-13.5205
  0
LINE
  8
0
 10
-39.3591
 20
-13.5205
 11
-39.7452
 21
-13.4084
  0
LINE
  8
0
 10
-39.7452
 20
-13.4084
 11
-39.9855
 21
-13.3341
  0
LINE
  8
0
 10
-39.9855
 20
-13.3341
 11
-40.3674
 21
-13.2087
  0
LINE
  8
0
 10
-40.3674
 20
-13.2087
 11
-40.7448
 21
-13.0701
  0
LINE
  8
0
 10
-40.7448
 20
-13.0701
 11
-41.1171
 21
-12.9185
  0
LINE
  8
0
 10
-41.1171
 20
-12.9185
 11
-41.2724
 21
-12.8552
  0
LINE
  8
0
 10
-41.2724
 20
-12.8552
 11
-41.6382
 21
-12.6913
  0
LINE
  8
0
 10
-41.6382
 20
-12.6913
 11
-42.2067
 21
-12.4075
  0
LINE
  8
0
 10
-42.2067
 20
-12.4075
 11
-42.3578
 21
-12.3333
  0
LINE
  8
0
 10
-42.3578
 20
-12.3333
 11
-43.2338
 21
-11.8147
  0
LINE
  8
0
 10
-43.2338
 20
-11.8147
 11
-43.3797
 21
-11.7301
  0
LINE
  8
0
 10
-43.3797
 20
-11.7301
 11
-43.4853
 21
-11.6604
  0
LINE
  8
0
 10
-43.4853
 20
-11.6604
 11
-44.287
 21
-11.079
  0
LINE
  8
0
 10
-44.287
 20
-11.079
 11
-44.437
 21
-10.9633
  0
LINE
  8
0
 10
-44.437
 20
-10.9633
 11
-45.0506
 21
-10.4446
  0
LINE
  8
0
 10
-45.0506
 20
-10.4446
 11
-45.1922
 21
-10.3189
  0
LINE
  8
0
 10
-45.1922
 20
-10.3189
 11
-45.7683
 21
-9.75877
  0
LINE
  8
0
 10
-45.7683
 20
-9.75877
 11
-45.8852
 21
-9.6376
  0
LINE
  8
0
 10
-45.8852
 20
-9.6376
 11
-46.4209
 21
-9.03915
  0
LINE
  8
0
 10
-46.4209
 20
-9.03915
 11
-46.5291
 21
-8.91016
  0
LINE
  8
0
 10
-46.5291
 20
-8.91016
 11
-47.1485
 21
-8.10284
  0
LINE
  8
0
 10
-47.1485
 20
-8.10284
 11
-47.2241
 21
-8.0014
  0
LINE
  8
0
 10
-47.2241
 20
-8.0014
 11
-47.2936
 21
-7.89575
  0
LINE
  8
0
 10
-47.2936
 20
-7.89575
 11
-47.9089
 21
-6.90743
  0
LINE
  8
0
 10
-47.9089
 20
-6.90743
 11
-47.9937
 21
-6.76084
  0
LINE
  8
0
 10
-47.9937
 20
-6.76084
 11
-48.3527
 21
-6.04801
  0
LINE
  8
0
 10
-48.3527
 20
-6.04801
 11
-48.4593
 21
-5.82021
  0
LINE
  8
0
 10
-48.4593
 20
-5.82021
 11
-48.6234
 21
-5.45322
  0
LINE
  8
0
 10
-48.6234
 20
-5.45322
 11
-48.7747
 21
-5.08075
  0
LINE
  8
0
 10
-48.7747
 20
-5.08075
 11
-48.913
 21
-4.70327
  0
LINE
  8
0
 10
-48.913
 20
-4.70327
 11
-48.9706
 21
-4.54577
  0
LINE
  8
0
 10
-48.9706
 20
-4.54577
 11
-49.0951
 21
-4.16553
  0
LINE
  8
0
 10
-49.0951
 20
-4.16553
 11
-49.0963
 21
-4.1619
  0
LINE
  8
0
 10
-49.0963
 20
-4.1619
 11
-49.208
 21
-3.77568
  0
LINE
  8
0
 10
-49.208
 20
-3.77568
 11
-49.2546
 21
-3.61456
  0
LINE
  8
0
 10
-49.2546
 20
-3.61456
 11
-49.3528
 21
-3.22469
  0
LINE
  8
0
 10
-49.3528
 20
-3.22469
 11
-49.4366
 21
-2.83558
  0
LINE
  8
0
 10
-49.4366
 20
-2.83558
 11
-49.4719
 21
-2.67162
  0
LINE
  8
0
 10
-49.4719
 20
-2.67162
 11
-49.4728
 21
-2.6677
  0
LINE
  8
0
 10
-49.4728
 20
-2.6677
 11
-49.543
 21
-2.27597
  0
LINE
  8
0
 10
-49.543
 20
-2.27597
 11
-49.5437
 21
-2.27197
  0
LINE
  8
0
 10
-49.5437
 20
-2.27197
 11
-49.6009
 21
-1.87401
  0
LINE
  8
0
 10
-49.6009
 20
-1.87401
 11
-49.6247
 21
-1.70799
  0
LINE
  8
0
 10
-49.6247
 20
-1.70799
 11
-49.668
 21
-1.30829
  0
LINE
  8
0
 10
-49.668
 20
-1.30829
 11
-49.6975
 21
-0.907321
  0
LINE
  8
0
 10
-49.6975
 20
-0.907321
 11
-49.7098
 21
-0.740052
  0
LINE
  8
0
 10
-49.7098
 20
-0.740052
 11
-49.7252
 21
-0.338318
  0
LINE
  8
0
 10
-49.7252
 20
-0.338318
 11
-49.7268
 21
0.06374
  0
LINE
  8
0
 10
-49.7268
 20
0.06374
 11
-49.7274
 21
0.231458
  0
LINE
  8
0
 10
-49.7274
 20
0.231458
 11
-49.7151
 21
0.628882
  0
LINE
  8
0
 10
-49.7151
 20
0.628882
 11
-49.715
 21
0.633326
  0
LINE
  8
0
 10
-49.715
 20
0.633326
 11
-49.689
 21
1.03001
  0
LINE
  8
0
 10
-49.689
 20
1.03001
 11
-49.678
 21
1.19737
  0
LINE
  8
0
 10
-49.678
 20
1.19737
 11
-49.6777
 21
1.20185
  0
LINE
  8
0
 10
-49.6777
 20
1.20185
 11
-49.6374
 21
1.60188
  0
LINE
  8
0
 10
-49.6374
 20
1.60188
 11
-49.5839
 21
1.9957
  0
LINE
  8
0
 10
-49.5839
 20
1.9957
 11
-49.5614
 21
2.1619
  0
LINE
  8
0
 10
-49.5614
 20
2.1619
 11
-49.5607
 21
2.16644
  0
LINE
  8
0
 10
-49.5607
 20
2.16644
 11
-49.4928
 21
2.56271
  0
LINE
  8
0
 10
-49.4928
 20
2.56271
 11
-49.4112
 21
2.95639
  0
LINE
  8
0
 10
-49.4112
 20
2.95639
 11
-49.3772
 21
3.12062
  0
LINE
  8
0
 10
-49.3772
 20
3.12062
 11
-49.2819
 21
3.51122
  0
LINE
  8
0
 10
-49.2819
 20
3.51122
 11
-49.1745
 21
3.89361
  0
LINE
  8
0
 10
-49.1745
 20
3.89361
 11
-49.1291
 21
4.05507
  0
LINE
  8
0
 10
-49.1291
 20
4.05507
 11
-49.1278
 21
4.05975
  0
LINE
  8
0
 10
-49.1278
 20
4.05975
 11
-49.0057
 21
4.44281
  0
LINE
  8
0
 10
-49.0057
 20
4.44281
 11
-48.8721
 21
4.81672
  0
LINE
  8
0
 10
-48.8721
 20
4.81672
 11
-48.8156
 21
4.97466
  0
LINE
  8
0
 10
-48.8156
 20
4.97466
 11
-48.814
 21
4.97935
  0
LINE
  8
0
 10
-48.814
 20
4.97935
 11
-48.6674
 21
5.34833
  0
LINE
  8
0
 10
-48.6674
 20
5.34833
 11
-48.6656
 21
5.353
  0
LINE
  8
0
 10
-48.6656
 20
5.353
 11
-48.5064
 21
5.71665
  0
LINE
  8
0
 10
-48.5064
 20
5.71665
 11
-48.4391
 21
5.8703
  0
LINE
  8
0
 10
-48.4391
 20
5.8703
 11
-48.4371
 21
5.87492
  0
LINE
  8
0
 10
-48.4371
 20
5.87492
 11
-48.2653
 21
6.23275
  0
LINE
  8
0
 10
-48.2653
 20
6.23275
 11
-48.2631
 21
6.23741
  0
LINE
  8
0
 10
-48.2631
 20
6.23741
 11
-48.0767
 21
6.59367
  0
LINE
  8
0
 10
-48.0767
 20
6.59367
 11
-47.999
 21
6.74226
  0
LINE
  8
0
 10
-47.999
 20
6.74226
 11
-47.8003
 21
7.09175
  0
LINE
  8
0
 10
-47.8003
 20
7.09175
 11
-47.5924
 21
7.42966
  0
LINE
  8
0
 10
-47.5924
 20
7.42966
 11
-47.5277
 21
7.53757
  0
LINE
  8
0
 10
-47.5277
 20
7.53757
 11
-47.5249
 21
7.54207
  0
LINE
  8
0
 10
-47.5249
 20
7.54207
 11
-47.3025
 21
7.87698
  0
LINE
  8
0
 10
-47.3025
 20
7.87698
 11
-47.2367
 21
7.97461
  0
LINE
  8
0
 10
-47.2367
 20
7.97461
 11
-47.0059
 21
8.29719
  0
LINE
  8
0
 10
-47.0059
 20
8.29719
 11
-46.8935
 21
8.44643
  0
LINE
  8
0
 10
-46.8935
 20
8.44643
 11
-61.4843
 21
23.0372
  0
LINE
  8
0
 10
-61.4843
 20
23.0372
 11
-64.3418
 21
25.8947
  0
LINE
  8
0
 10
-64.3418
 20
25.8947
 11
-64.4324
 21
25.9916
  0
LINE
  8
0
 10
-64.4324
 20
25.9916
 11
-64.4976
 21
26.0742
  0
LINE
  8
0
 10
-64.4976
 20
26.0742
 11
-64.5958
 21
26.1991
  0
LINE
  8
0
 10
-64.5958
 20
26.1991
 11
-64.6654
 21
26.3026
  0
LINE
  8
0
 10
-64.6654
 20
26.3026
 11
-64.7467
 21
26.4456
  0
LINE
  8
0
 10
-64.7467
 20
26.4456
 11
-64.8245
 21
26.6212
  0
LINE
  8
0
 10
-64.8245
 20
26.6212
 11
-64.8837
 21
26.8036
  0
LINE
  8
0
 10
-64.8837
 20
26.8036
 11
-64.9464
 21
26.9702
  0
LINE
  8
0
 10
-64.9464
 20
26.9702
 11
-64.9787
 21
27.122
  0
LINE
  8
0
 10
-64.9787
 20
27.122
 11
-64.9966
 21
27.2487
  0
LINE
  8
0
 10
-64.9966
 20
27.2487
 11
-65.0055
 21
27.3763
  0
LINE
  8
0
 10
-65.0055
 20
27.3763
 11
-65.0114
 21
27.4977
  0
LINE
  8
0
 10
-65.0114
 20
27.4977
 11
-65.0114
 21
27.6256
  0
LINE
  8
0
 10
-65.0114
 20
27.6256
 11
-65.0025
 21
27.7533
  0
LINE
  8
0
 10
-65.0025
 20
27.7533
 11
-64.9847
 21
27.8799
  0
LINE
  8
0
 10
-64.9847
 20
27.8799
 11
-64.9544
 21
28.028
  0
LINE
  8
0
 10
-64.9544
 20
28.028
 11
-64.9128
 21
28.1865
  0
LINE
  8
0
 10
-64.9128
 20
28.1865
 11
-64.8527
 21
28.3679
  0
LINE
  8
0
 10
-64.8527
 20
28.3679
 11
-64.7999
 21
28.4931
  0
LINE
  8
0
 10
-64.7999
 20
28.4931
 11
-62.3588
 21
33.7282
  0
LINE
  8
0
 10
-62.3588
 20
33.7282
 11
-61.8578
 21
34.8026
  0
LINE
  8
0
 10
-61.8578
 20
34.8026
 11
-61.8265
 21
34.8873
  0
LINE
  8
0
 10
-61.8265
 20
34.8873
 11
-61.8096
 21
34.9658
  0
LINE
  8
0
 10
-61.8096
 20
34.9658
 11
-61.8037
 21
35.0258
  0
LINE
  8
0
 10
-61.8037
 20
35.0258
 11
-61.8038
 21
35.071
  0
LINE
  8
0
 10
-61.8038
 20
35.071
 11
-61.8083
 21
35.1261
  0
LINE
  8
0
 10
-61.8083
 20
35.1261
 11
-61.8193
 21
35.1853
  0
LINE
  8
0
 10
-61.8193
 20
35.1853
 11
-61.8479
 21
35.271
  0
LINE
  8
0
 10
-61.8479
 20
35.271
 11
-61.8804
 21
35.3389
  0
LINE
  8
0
 10
-61.8804
 20
35.3389
 11
-61.9219
 21
35.4017
  0
LINE
  8
0
 10
-61.9219
 20
35.4017
 11
-61.9607
 21
35.4478
  0
LINE
  8
0
 10
-61.9607
 20
35.4478
 11
-62.0044
 21
35.4893
  0
LINE
  8
0
 10
-62.0044
 20
35.4893
 11
-62.0517
 21
35.5267
  0
LINE
  8
0
 10
-62.0517
 20
35.5267
 11
-62.0984
 21
35.5562
  0
LINE
  8
0
 10
-62.0984
 20
35.5562
 11
-62.1385
 21
35.5771
  0
LINE
  8
0
 10
-62.1385
 20
35.5771
 11
-62.1943
 21
35.5998
  0
LINE
  8
0
 10
-62.1943
 20
35.5998
 11
-62.2669
 21
35.6198
  0
LINE
  8
0
 10
-62.2669
 20
35.6198
 11
-62.3115
 21
35.6276
  0
LINE
  8
0
 10
-62.3115
 20
35.6276
 11
-62.3715
 21
35.6322
  0
LINE
  8
0
 10
-62.3715
 20
35.6322
 11
-62.4817
 21
35.6247
  0
LINE
  8
0
 10
-62.4817
 20
35.6247
 11
-62.6542
 21
35.5932
  0
LINE
  8
0
 10
-62.6542
 20
35.5932
 11
-63.1454
 21
35.5032
  0
LINE
  8
0
 10
-63.1454
 20
35.5032
 11
-63.6332
 21
35.3965
  0
LINE
  8
0
 10
-63.6332
 20
35.3965
 11
-63.9116
 21
35.3187
  0
LINE
  8
0
 10
-63.9116
 20
35.3187
 11
-64.3955
 21
35.1952
  0
LINE
  8
0
 10
-64.3955
 20
35.1952
 11
-64.8748
 21
35.0553
  0
LINE
  8
0
 10
-64.8748
 20
35.0553
 11
-65.3491
 21
34.899
  0
LINE
  8
0
 10
-65.3491
 20
34.899
 11
-66.0775
 21
34.625
  0
LINE
  8
0
 10
-66.0775
 20
34.625
 11
-66.4365
 21
34.4787
  0
LINE
  8
0
 10
-66.4365
 20
34.4787
 11
-67.3249
 21
34.0793
  0
LINE
  8
0
 10
-67.3249
 20
34.0793
 11
-68.2045
 21
33.6099
  0
LINE
  8
0
 10
-68.2045
 20
33.6099
 11
-68.456
 21
33.4721
  0
LINE
  8
0
 10
-68.456
 20
33.4721
 11
-69.0908
 21
33.0803
  0
LINE
  8
0
 10
-69.0908
 20
33.0803
 11
-69.3268
 21
32.9133
  0
LINE
  8
0
 10
-69.3268
 20
32.9133
 11
-70.1759
 21
32.3251
  0
LINE
  8
0
 10
-70.1759
 20
32.3251
 11
-71.139
 21
31.5261
  0
LINE
  8
0
 10
-71.139
 20
31.5261
 11
-71.3588
 21
31.3383
  0
LINE
  8
0
 10
-71.3588
 20
31.3383
 11
-72.077
 21
30.6461
  0
LINE
  8
0
 10
-72.077
 20
30.6461
 11
-72.2115
 21
30.508
  0
LINE
  8
0
 10
-72.2115
 20
30.508
 11
-72.8797
 21
29.7694
  0
LINE
  8
0
 10
-72.8797
 20
29.7694
 11
-73.0044
 21
29.6223
  0
LINE
  8
0
 10
-73.0044
 20
29.6223
 11
-73.6209
 21
28.8393
  0
LINE
  8
0
 10
-73.6209
 20
28.8393
 11
-73.7884
 21
28.6035
  0
LINE
  8
0
 10
-73.7884
 20
28.6035
 11
-74.3497
 21
27.7803
  0
LINE
  8
0
 10
-74.3497
 20
27.7803
 11
-74.9775
 21
26.6935
  0
LINE
  8
0
 10
-74.9775
 20
26.6935
 11
-75.1199
 21
26.4417
  0
LINE
  8
0
 10
-75.1199
 20
26.4417
 11
-75.6254
 21
25.3394
  0
LINE
  8
0
 10
-75.6254
 20
25.3394
 11
-75.7411
 21
25.0744
  0
LINE
  8
0
 10
-75.7411
 20
25.0744
 11
-76.0931
 21
24.1401
  0
LINE
  8
0
 10
-76.0931
 20
24.1401
 11
-76.1549
 21
23.9574
  0
LINE
  8
0
 10
-76.1549
 20
23.9574
 11
-76.442
 21
23.0012
  0
LINE
  8
0
 10
-76.442
 20
23.0012
 11
-76.491
 21
22.8147
  0
LINE
  8
0
 10
-76.491
 20
22.8147
 11
-76.665
 21
22.0863
  0
LINE
  8
0
 10
-76.665
 20
22.0863
 11
-76.7012
 21
21.8969
  0
LINE
  8
0
 10
-76.7012
 20
21.8969
 11
-76.7949
 21
21.4064
  0
LINE
  8
0
 10
-76.7949
 20
21.4064
 11
-76.8717
 21
20.913
  0
LINE
  8
0
 10
-76.8717
 20
20.913
 11
-76.8907
 21
20.7696
  0
LINE
  8
0
 10
-76.8907
 20
20.7696
 11
-76.9505
 21
20.2737
  0
LINE
  8
0
 10
-76.9505
 20
20.2737
 11
-76.9612
 21
20.1295
  0
LINE
  8
0
 10
-76.9612
 20
20.1295
 11
-77.004
 21
19.632
  0
LINE
  8
0
 10
-77.004
 20
19.632
 11
-77.0297
 21
19.1333
  0
LINE
  8
0
 10
-77.0297
 20
19.1333
 11
-77.0339
 21
18.9887
  0
LINE
  8
0
 10
-77.0339
 20
18.9887
 11
-77.0424
 21
18.4894
  0
LINE
  8
0
 10
-77.0424
 20
18.4894
 11
-77.0424
 21
-5.59976
  0
LINE
  8
0
 10
-77.0424
 20
-5.59976
 11
-77.0424
 21
-10.4179
  0
LINE
  8
0
 10
-75.6296
 20
-11.5951
 11
-75.6185
 21
-11.2493
  0
LINE
  8
0
 10
-75.6185
 20
-11.2493
 11
-75.6125
 21
-11.1957
  0
LINE
  8
0
 10
-75.6125
 20
-11.1957
 11
-75.5247
 21
-10.7434
  0
LINE
  8
0
 10
-75.5247
 20
-10.7434
 11
-75.5019
 21
-10.6783
  0
LINE
  8
0
 10
-75.5019
 20
-10.6783
 11
-75.28
 21
-10.1779
  0
LINE
  8
0
 10
-75.28
 20
-10.1779
 11
-75.2519
 21
-10.1332
  0
LINE
  8
0
 10
-75.2519
 20
-10.1332
 11
-75.0187
 21
-9.81816
  0
LINE
  8
0
 10
-75.0187
 20
-9.81816
 11
-74.9994
 21
-9.79484
  0
LINE
  8
0
 10
-74.9994
 20
-9.79484
 11
-74.788
 21
-9.57898
  0
LINE
  8
0
 10
-74.788
 20
-9.57898
 11
-74.7607
 21
-9.55293
  0
LINE
  8
0
 10
-74.7607
 20
-9.55293
 11
-74.5068
 21
-9.35457
  0
LINE
  8
0
 10
-74.5068
 20
-9.35457
 11
-74.4806
 21
-9.33491
  0
LINE
  8
0
 10
-74.4806
 20
-9.33491
 11
-74.4569
 21
-9.32067
  0
LINE
  8
0
 10
-74.4569
 20
-9.32067
 11
-74.1785
 21
-9.15833
  0
LINE
  8
0
 10
-74.1785
 20
-9.15833
 11
-74.151
 21
-9.14571
  0
LINE
  8
0
 10
-74.151
 20
-9.14571
 11
-73.9279
 21
-9.05252
  0
LINE
  8
0
 10
-73.9279
 20
-9.05252
 11
-73.8969
 21
-9.0419
  0
LINE
  8
0
 10
-73.8969
 20
-9.0419
 11
-73.6071
 21
-8.95659
  0
LINE
  8
0
 10
-73.6071
 20
-8.95659
 11
-73.5776
 21
-8.95004
  0
LINE
  8
0
 10
-73.5776
 20
-8.95004
 11
-73.3991
 21
-8.91717
  0
LINE
  8
0
 10
-73.3991
 20
-8.91717
 11
-73.3679
 21
-8.91344
  0
LINE
  8
0
 10
-73.3679
 20
-8.91344
 11
-73.1269
 21
-8.89235
  0
LINE
  8
0
 10
-73.1269
 20
-8.89235
 11
-73.0818
 21
-8.89292
  0
LINE
  8
0
 10
-73.0818
 20
-8.89292
 11
-72.7466
 21
-8.90113
  0
LINE
  8
0
 10
-72.7466
 20
-8.90113
 11
-72.6874
 21
-8.91339
  0
LINE
  8
0
 10
-72.6874
 20
-8.91339
 11
-72.3054
 21
-8.99464
  0
LINE
  8
0
 10
-72.3054
 20
-8.99464
 11
-72.0026
 21
-9.10484
  0
LINE
  8
0
 10
-72.0026
 20
-9.10484
 11
-71.9551
 21
-9.12567
  0
LINE
  8
0
 10
-71.9551
 20
-9.12567
 11
-71.739
 21
-9.2342
  0
LINE
  8
0
 10
-71.739
 20
-9.2342
 11
-71.7057
 21
-9.25436
  0
LINE
  8
0
 10
-71.7057
 20
-9.25436
 11
-71.5037
 21
-9.38722
  0
LINE
  8
0
 10
-71.5037
 20
-9.38722
 11
-71.4654
 21
-9.41979
  0
LINE
  8
0
 10
-71.4654
 20
-9.41979
 11
-71.2176
 21
-9.62587
  0
LINE
  8
0
 10
-71.2176
 20
-9.62587
 11
-71.1056
 21
-9.7419
  0
LINE
  8
0
 10
-71.1056
 20
-9.7419
 11
-70.9545
 21
-9.9307
  0
LINE
  8
0
 10
-70.9545
 20
-9.9307
 11
-70.917
 21
-9.97815
  0
LINE
  8
0
 10
-70.917
 20
-9.97815
 11
-70.7463
 21
-10.2514
  0
LINE
  8
0
 10
-70.7463
 20
-10.2514
 11
-70.7176
 21
-10.3103
  0
LINE
  8
0
 10
-70.7176
 20
-10.3103
 11
-70.5865
 21
-10.6046
  0
LINE
  8
0
 10
-70.5865
 20
-10.6046
 11
-70.5012
 21
-10.8944
  0
LINE
  8
0
 10
-70.5012
 20
-10.8944
 11
-70.4886
 21
-10.9501
  0
LINE
  8
0
 10
-70.4886
 20
-10.9501
 11
-70.4473
 21
-11.2087
  0
LINE
  8
0
 10
-70.4473
 20
-11.2087
 11
-70.4445
 21
-11.2488
  0
LINE
  8
0
 10
-70.4445
 20
-11.2488
 11
-70.4333
 21
-11.5708
  0
LINE
  8
0
 10
-70.4333
 20
-11.5708
 11
-70.4368
 21
-11.6184
  0
LINE
  8
0
 10
-70.4368
 20
-11.6184
 11
-70.4564
 21
-11.8594
  0
LINE
  8
0
 10
-70.4564
 20
-11.8594
 11
-70.4893
 21
-12.0378
  0
LINE
  8
0
 10
-70.4893
 20
-12.0378
 11
-70.5015
 21
-12.0856
  0
LINE
  8
0
 10
-70.5015
 20
-12.0856
 11
-70.5661
 21
-12.3186
  0
LINE
  8
0
 10
-70.5661
 20
-12.3186
 11
-70.6812
 21
-12.5979
  0
LINE
  8
0
 10
-70.6812
 20
-12.5979
 11
-70.6983
 21
-12.6369
  0
LINE
  8
0
 10
-70.6983
 20
-12.6369
 11
-70.8256
 21
-12.8658
  0
LINE
  8
0
 10
-70.8256
 20
-12.8658
 11
-70.8516
 21
-12.9073
  0
LINE
  8
0
 10
-70.8516
 20
-12.9073
 11
-70.992
 21
-13.1041
  0
LINE
  8
0
 10
-70.992
 20
-13.1041
 11
-71.1658
 21
-13.3002
  0
LINE
  8
0
 10
-71.1658
 20
-13.3002
 11
-71.2047
 21
-13.3417
  0
LINE
  8
0
 10
-71.2047
 20
-13.3417
 11
-71.2628
 21
-13.3978
  0
LINE
  8
0
 10
-71.2628
 20
-13.3978
 11
-71.4172
 21
-13.5273
  0
LINE
  8
0
 10
-71.4172
 20
-13.5273
 11
-71.4538
 21
-13.5545
  0
LINE
  8
0
 10
-71.4538
 20
-13.5545
 11
-71.651
 21
-13.6943
  0
LINE
  8
0
 10
-71.651
 20
-13.6943
 11
-71.7907
 21
-13.775
  0
LINE
  8
0
 10
-71.7907
 20
-13.775
 11
-71.8202
 21
-13.7912
  0
LINE
  8
0
 10
-71.8202
 20
-13.7912
 11
-72.0394
 21
-13.8934
  0
LINE
  8
0
 10
-72.0394
 20
-13.8934
 11
-72.0607
 21
-13.9024
  0
LINE
  8
0
 10
-72.0607
 20
-13.9024
 11
-72.0793
 21
-13.909
  0
LINE
  8
0
 10
-72.0793
 20
-13.909
 11
-72.4644
 21
-14.0267
  0
LINE
  8
0
 10
-72.4644
 20
-14.0267
 11
-72.4875
 21
-14.0327
  0
LINE
  8
0
 10
-72.4875
 20
-14.0327
 11
-72.5138
 21
-14.0373
  0
LINE
  8
0
 10
-72.5138
 20
-14.0373
 11
-72.794
 21
-14.0818
  0
LINE
  8
0
 10
-72.794
 20
-14.0818
 11
-72.8224
 21
-14.0839
  0
LINE
  8
0
 10
-72.8224
 20
-14.0839
 11
-73.1408
 21
-14.0879
  0
LINE
  8
0
 10
-73.1408
 20
-14.0879
 11
-73.1632
 21
-14.0875
  0
LINE
  8
0
 10
-73.1632
 20
-14.0875
 11
-73.1879
 21
-14.085
  0
LINE
  8
0
 10
-73.1879
 20
-14.085
 11
-73.3912
 21
-14.0645
  0
LINE
  8
0
 10
-73.3912
 20
-14.0645
 11
-73.6159
 21
-14.0226
  0
LINE
  8
0
 10
-73.6159
 20
-14.0226
 11
-73.6633
 21
-14.0124
  0
LINE
  8
0
 10
-73.6633
 20
-14.0124
 11
-73.966
 21
-13.9186
  0
LINE
  8
0
 10
-73.966
 20
-13.9186
 11
-74.0257
 21
-13.8924
  0
LINE
  8
0
 10
-74.0257
 20
-13.8924
 11
-74.3623
 21
-13.7251
  0
LINE
  8
0
 10
-74.3623
 20
-13.7251
 11
-74.7125
 21
-13.4739
  0
LINE
  8
0
 10
-74.7125
 20
-13.4739
 11
-74.756
 21
-13.442
  0
LINE
  8
0
 10
-74.756
 20
-13.442
 11
-74.7941
 21
-13.4023
  0
LINE
  8
0
 10
-74.7941
 20
-13.4023
 11
-75.1933
 21
-12.9426
  0
LINE
  8
0
 10
-75.1933
 20
-12.9426
 11
-75.2306
 21
-12.88
  0
LINE
  8
0
 10
-75.2306
 20
-12.88
 11
-75.5084
 21
-12.3008
  0
LINE
  8
0
 10
-75.5084
 20
-12.3008
 11
-75.5286
 21
-12.2323
  0
LINE
  8
0
 10
-75.5286
 20
-12.2323
 11
-75.6265
 21
-11.6503
  0
LINE
  8
0
 10
-75.6265
 20
-11.6503
 11
-75.6296
 21
-11.5951
  0
LINE
  8
0
 10
-49.8194
 20
-37.3198
 11
-49.819
 21
-37.3047
  0
LINE
  8
0
 10
-49.819
 20
-37.3047
 11
-49.8085
 21
-37.0631
  0
LINE
  8
0
 10
-49.8085
 20
-37.0631
 11
-49.8073
 21
-37.048
  0
LINE
  8
0
 10
-49.8073
 20
-37.048
 11
-49.8053
 21
-37.033
  0
LINE
  8
0
 10
-49.8053
 20
-37.033
 11
-49.7647
 21
-36.7743
  0
LINE
  8
0
 10
-49.7647
 20
-36.7743
 11
-49.7619
 21
-36.7595
  0
LINE
  8
0
 10
-49.7619
 20
-36.7595
 11
-49.7541
 21
-36.7302
  0
LINE
  8
0
 10
-49.7541
 20
-36.7302
 11
-49.6653
 21
-36.4205
  0
LINE
  8
0
 10
-49.6653
 20
-36.4205
 11
-49.6561
 21
-36.3955
  0
LINE
  8
0
 10
-49.6561
 20
-36.3955
 11
-49.525
 21
-36.1011
  0
LINE
  8
0
 10
-49.525
 20
-36.1011
 11
-49.5096
 21
-36.0707
  0
LINE
  8
0
 10
-49.5096
 20
-36.0707
 11
-49.3744
 21
-35.8464
  0
LINE
  8
0
 10
-49.3744
 20
-35.8464
 11
-49.3468
 21
-35.806
  0
LINE
  8
0
 10
-49.3468
 20
-35.806
 11
-49.1996
 21
-35.6141
  0
LINE
  8
0
 10
-49.1996
 20
-35.6141
 11
-49.0482
 21
-35.4522
  0
LINE
  8
0
 10
-49.0482
 20
-35.4522
 11
-49.0138
 21
-35.4179
  0
LINE
  8
0
 10
-49.0138
 20
-35.4179
 11
-48.8939
 21
-35.31
  0
LINE
  8
0
 10
-48.8939
 20
-35.31
 11
-48.7501
 21
-35.1994
  0
LINE
  8
0
 10
-48.7501
 20
-35.1994
 11
-48.7139
 21
-35.1728
  0
LINE
  8
0
 10
-48.7139
 20
-35.1728
 11
-48.5278
 21
-35.0524
  0
LINE
  8
0
 10
-48.5278
 20
-35.0524
 11
-48.3669
 21
-34.9684
  0
LINE
  8
0
 10
-48.3669
 20
-34.9684
 11
-48.3202
 21
-34.9451
  0
LINE
  8
0
 10
-48.3202
 20
-34.9451
 11
-48.0392
 21
-34.8338
  0
LINE
  8
0
 10
-48.0392
 20
-34.8338
 11
-47.9971
 21
-34.8212
  0
LINE
  8
0
 10
-47.9971
 20
-34.8212
 11
-47.5907
 21
-34.7222
  0
LINE
  8
0
 10
-47.5907
 20
-34.7222
 11
-47.5138
 21
-34.7152
  0
LINE
  8
0
 10
-47.5138
 20
-34.7152
 11
-47.1706
 21
-34.6991
  0
LINE
  8
0
 10
-47.1706
 20
-34.6991
 11
-46.8764
 21
-34.7214
  0
LINE
  8
0
 10
-46.8764
 20
-34.7214
 11
-46.8235
 21
-34.7291
  0
LINE
  8
0
 10
-46.8235
 20
-34.7291
 11
-46.5051
 21
-34.7983
  0
LINE
  8
0
 10
-46.5051
 20
-34.7983
 11
-46.4649
 21
-34.811
  0
LINE
  8
0
 10
-46.4649
 20
-34.811
 11
-46.1624
 21
-34.9229
  0
LINE
  8
0
 10
-46.1624
 20
-34.9229
 11
-46.1173
 21
-34.9452
  0
LINE
  8
0
 10
-46.1173
 20
-34.9452
 11
-45.9067
 21
-35.0551
  0
LINE
  8
0
 10
-45.9067
 20
-35.0551
 11
-45.7341
 21
-35.1653
  0
LINE
  8
0
 10
-45.7341
 20
-35.1653
 11
-45.693
 21
-35.197
  0
LINE
  8
0
 10
-45.693
 20
-35.197
 11
-45.542
 21
-35.315
  0
LINE
  8
0
 10
-45.542
 20
-35.315
 11
-45.3661
 21
-35.4809
  0
LINE
  8
0
 10
-45.3661
 20
-35.4809
 11
-45.3355
 21
-35.5122
  0
LINE
  8
0
 10
-45.3355
 20
-35.5122
 11
-45.1284
 21
-35.7591
  0
LINE
  8
0
 10
-45.1284
 20
-35.7591
 11
-45.1022
 21
-35.7979
  0
LINE
  8
0
 10
-45.1022
 20
-35.7979
 11
-44.9315
 21
-36.0711
  0
LINE
  8
0
 10
-44.9315
 20
-36.0711
 11
-44.9138
 21
-36.1073
  0
LINE
  8
0
 10
-44.9138
 20
-36.1073
 11
-44.7828
 21
-36.4017
  0
LINE
  8
0
 10
-44.7828
 20
-36.4017
 11
-44.7703
 21
-36.44
  0
LINE
  8
0
 10
-44.7703
 20
-36.44
 11
-44.6815
 21
-36.7497
  0
LINE
  8
0
 10
-44.6815
 20
-36.7497
 11
-44.6763
 21
-36.7743
  0
LINE
  8
0
 10
-44.6763
 20
-36.7743
 11
-44.6736
 21
-36.7994
  0
LINE
  8
0
 10
-44.6736
 20
-36.7994
 11
-44.6288
 21
-37.1184
  0
LINE
  8
0
 10
-44.6288
 20
-37.1184
 11
-44.6288
 21
-37.1587
  0
LINE
  8
0
 10
-44.6288
 20
-37.1587
 11
-44.6274
 21
-37.481
  0
LINE
  8
0
 10
-44.6274
 20
-37.481
 11
-44.6635
 21
-37.7732
  0
LINE
  8
0
 10
-44.6635
 20
-37.7732
 11
-44.6675
 21
-37.8057
  0
LINE
  8
0
 10
-44.6675
 20
-37.8057
 11
-44.6774
 21
-37.8434
  0
LINE
  8
0
 10
-44.6774
 20
-37.8434
 11
-44.8045
 21
-38.2687
  0
LINE
  8
0
 10
-44.8045
 20
-38.2687
 11
-44.8237
 21
-38.3139
  0
LINE
  8
0
 10
-44.8237
 20
-38.3139
 11
-45.0533
 21
-38.7402
  0
LINE
  8
0
 10
-45.0533
 20
-38.7402
 11
-45.0746
 21
-38.7743
  0
LINE
  8
0
 10
-45.0746
 20
-38.7743
 11
-45.1005
 21
-38.8052
  0
LINE
  8
0
 10
-45.1005
 20
-38.8052
 11
-45.3571
 21
-39.115
  0
LINE
  8
0
 10
-45.3571
 20
-39.115
 11
-45.3791
 21
-39.1358
  0
LINE
  8
0
 10
-45.3791
 20
-39.1358
 11
-45.6767
 21
-39.3955
  0
LINE
  8
0
 10
-45.6767
 20
-39.3955
 11
-45.6988
 21
-39.4122
  0
LINE
  8
0
 10
-45.6988
 20
-39.4122
 11
-45.7449
 21
-39.439
  0
LINE
  8
0
 10
-45.7449
 20
-39.439
 11
-46.0964
 21
-39.6451
  0
LINE
  8
0
 10
-46.0964
 20
-39.6451
 11
-46.3305
 21
-39.7443
  0
LINE
  8
0
 10
-46.3305
 20
-39.7443
 11
-46.4
 21
-39.7652
  0
LINE
  8
0
 10
-46.4
 20
-39.7652
 11
-46.7521
 21
-39.8607
  0
LINE
  8
0
 10
-46.7521
 20
-39.8607
 11
-47.1574
 21
-39.8983
  0
LINE
  8
0
 10
-47.1574
 20
-39.8983
 11
-47.2258
 21
-39.9015
  0
LINE
  8
0
 10
-47.2258
 20
-39.9015
 11
-47.6293
 21
-39.8696
  0
LINE
  8
0
 10
-47.6293
 20
-39.8696
 11
-47.6889
 21
-39.8586
  0
LINE
  8
0
 10
-47.6889
 20
-39.8586
 11
-48.2037
 21
-39.7121
  0
LINE
  8
0
 10
-48.2037
 20
-39.7121
 11
-48.257
 21
-39.6912
  0
LINE
  8
0
 10
-48.257
 20
-39.6912
 11
-48.6631
 21
-39.463
  0
LINE
  8
0
 10
-48.6631
 20
-39.463
 11
-48.7059
 21
-39.4354
  0
LINE
  8
0
 10
-48.7059
 20
-39.4354
 11
-48.9584
 21
-39.2347
  0
LINE
  8
0
 10
-48.9584
 20
-39.2347
 11
-48.9978
 21
-39.1988
  0
LINE
  8
0
 10
-48.9978
 20
-39.1988
 11
-49.2718
 21
-38.9047
  0
LINE
  8
0
 10
-49.2718
 20
-38.9047
 11
-49.3083
 21
-38.8534
  0
LINE
  8
0
 10
-49.3083
 20
-38.8534
 11
-49.6059
 21
-38.3469
  0
LINE
  8
0
 10
-49.6059
 20
-38.3469
 11
-49.6256
 21
-38.3037
  0
LINE
  8
0
 10
-49.6256
 20
-38.3037
 11
-49.6343
 21
-38.2746
  0
LINE
  8
0
 10
-49.6343
 20
-38.2746
 11
-49.7645
 21
-37.8354
  0
LINE
  8
0
 10
-49.7645
 20
-37.8354
 11
-49.7696
 21
-37.8108
  0
LINE
  8
0
 10
-49.7696
 20
-37.8108
 11
-49.771
 21
-37.8008
  0
LINE
  8
0
 10
-49.771
 20
-37.8008
 11
-49.8053
 21
-37.5764
  0
LINE
  8
0
 10
-49.8053
 20
-37.5764
 11
-49.8071
 21
-37.5563
  0
LINE
  8
0
 10
-49.8071
 20
-37.5563
 11
-49.819
 21
-37.3349
  0
LINE
  8
0
 10
-49.819
 20
-37.3349
 11
-49.8194
 21
-37.3198
  0
LINE
  8
0
 10
-4.84926
 20
-24.2593
 11
-4.84926
 21
-24.09
  0
LINE
  8
0
 10
-4.84926
 20
-24.09
 11
-4.84336
 21
-23.9208
  0
LINE
  8
0
 10
-4.84336
 20
-23.9208
 11
-4.83154
 21
-23.752
  0
LINE
  8
0
 10
-4.83154
 20
-23.752
 11
-4.81385
 21
-23.5836
  0
LINE
  8
0
 10
-4.81385
 20
-23.5836
 11
-4.7903
 21
-23.416
  0
LINE
  8
0
 10
-4.7903
 20
-23.416
 11
-4.7609
 21
-23.2493
  0
LINE
  8
0
 10
-4.7609
 20
-23.2493
 11
-4.7257
 21
-23.0837
  0
LINE
  8
0
 10
-4.7257
 20
-23.0837
 11
-4.68474
 21
-22.9194
  0
LINE
  8
0
 10
-4.68474
 20
-22.9194
 11
-4.63809
 21
-22.7567
  0
LINE
  8
0
 10
-4.63809
 20
-22.7567
 11
-4.58575
 21
-22.5957
  0
LINE
  8
0
 10
-4.58575
 20
-22.5957
 11
-4.52787
 21
-22.4366
  0
LINE
  8
0
 10
-4.52787
 20
-22.4366
 11
-4.46445
 21
-22.2796
  0
LINE
  8
0
 10
-4.46445
 20
-22.2796
 11
-4.39559
 21
-22.125
  0
LINE
  8
0
 10
-4.39559
 20
-22.125
 11
-4.32138
 21
-21.9728
  0
LINE
  8
0
 10
-4.32138
 20
-21.9728
 11
-4.24191
 21
-21.8234
  0
LINE
  8
0
 10
-4.24191
 20
-21.8234
 11
-4.15726
 21
-21.6768
  0
LINE
  8
0
 10
-4.15726
 20
-21.6768
 11
-4.06755
 21
-21.5332
  0
LINE
  8
0
 10
-4.06755
 20
-21.5332
 11
-3.97289
 21
-21.3928
  0
LINE
  8
0
 10
-3.97289
 20
-21.3928
 11
-3.87338
 21
-21.2559
  0
LINE
  8
0
 10
-3.87338
 20
-21.2559
 11
-3.76917
 21
-21.1225
  0
LINE
  8
0
 10
-3.76917
 20
-21.1225
 11
-3.66033
 21
-20.9928
  0
LINE
  8
0
 10
-3.66033
 20
-20.9928
 11
-3.54706
 21
-20.867
  0
LINE
  8
0
 10
-3.54706
 20
-20.867
 11
-3.42947
 21
-20.7452
  0
LINE
  8
0
 10
-3.42947
 20
-20.7452
 11
-3.30769
 21
-20.6276
  0
LINE
  8
0
 10
-3.30769
 20
-20.6276
 11
-3.18188
 21
-20.5143
  0
LINE
  8
0
 10
-3.18188
 20
-20.5143
 11
-3.05222
 21
-20.4055
  0
LINE
  8
0
 10
-3.05222
 20
-20.4055
 11
-2.91881
 21
-20.3013
  0
LINE
  8
0
 10
-2.91881
 20
-20.3013
 11
-2.78185
 21
-20.2018
  0
LINE
  8
0
 10
-2.78185
 20
-20.2018
 11
-2.64151
 21
-20.1071
  0
LINE
  8
0
 10
-2.64151
 20
-20.1071
 11
-2.49794
 21
-20.0174
  0
LINE
  8
0
 10
-2.49794
 20
-20.0174
 11
-2.35133
 21
-19.9328
  0
LINE
  8
0
 10
-2.35133
 20
-19.9328
 11
-2.20185
 21
-19.8533
  0
LINE
  8
0
 10
-2.20185
 20
-19.8533
 11
-2.0497
 21
-19.7791
  0
LINE
  8
0
 10
-2.0497
 20
-19.7791
 11
-1.89505
 21
-19.7102
  0
LINE
  8
0
 10
-1.89505
 20
-19.7102
 11
-1.73808
 21
-19.6468
  0
LINE
  8
0
 10
-1.73808
 20
-19.6468
 11
-1.579
 21
-19.5889
  0
LINE
  8
0
 10
-1.579
 20
-19.5889
 11
-1.41801
 21
-19.5366
  0
LINE
  8
0
 10
-1.41801
 20
-19.5366
 11
-1.25526
 21
-19.4899
  0
LINE
  8
0
 10
-1.25526
 20
-19.4899
 11
-1.09102
 21
-19.449
  0
LINE
  8
0
 10
-1.09102
 20
-19.449
 11
-0.92543
 21
-19.4138
  0
LINE
  8
0
 10
-0.92543
 20
-19.4138
 11
-0.758713
 21
-19.3844
  0
LINE
  8
0
 10
-0.758713
 20
-19.3844
 11
-0.591072
 21
-19.3608
  0
LINE
  8
0
 10
-0.591072
 20
-19.3608
 11
-0.422699
 21
-19.3431
  0
LINE
  8
0
 10
-0.422699
 20
-19.3431
 11
-0.25383
 21
-19.3313
  0
LINE
  8
0
 10
-0.25383
 20
-19.3313
 11
-0.0846405
 21
-19.3254
  0
LINE
  8
0
 10
-0.0846405
 20
-19.3254
 11
0.0846024
 21
-19.3254
  0
LINE
  8
0
 10
0.0846024
 20
-19.3254
 11
0.253799
 21
-19.3313
  0
LINE
  8
0
 10
0.253799
 20
-19.3313
 11
0.422699
 21
-19.3431
  0
LINE
  8
0
 10
0.422699
 20
-19.3431
 11
0.591103
 21
-19.3608
  0
LINE
  8
0
 10
0.591103
 20
-19.3608
 11
0.758698
 21
-19.3844
  0
LINE
  8
0
 10
0.758698
 20
-19.3844
 11
0.9254
 21
-19.4138
  0
LINE
  8
0
 10
0.9254
 20
-19.4138
 11
1.091
 21
-19.449
  0
LINE
  8
0
 10
1.091
 20
-19.449
 11
1.2553
 21
-19.4899
  0
LINE
  8
0
 10
1.2553
 20
-19.4899
 11
1.418
 21
-19.5366
  0
LINE
  8
0
 10
1.418
 20
-19.5366
 11
1.579
 21
-19.5889
  0
LINE
  8
0
 10
1.579
 20
-19.5889
 11
1.7381
 21
-19.6468
  0
LINE
  8
0
 10
1.7381
 20
-19.6468
 11
1.895
 21
-19.7102
  0
LINE
  8
0
 10
1.895
 20
-19.7102
 11
2.0497
 21
-19.7791
  0
LINE
  8
0
 10
2.0497
 20
-19.7791
 11
2.2019
 21
-19.8533
  0
LINE
  8
0
 10
2.2019
 20
-19.8533
 11
2.3513
 21
-19.9328
  0
LINE
  8
0
 10
2.3513
 20
-19.9328
 11
2.4979
 21
-20.0174
  0
LINE
  8
0
 10
2.4979
 20
-20.0174
 11
2.6415
 21
-20.1071
  0
LINE
  8
0
 10
2.6415
 20
-20.1071
 11
2.7818
 21
-20.2018
  0
LINE
  8
0
 10
2.7818
 20
-20.2018
 11
2.9188
 21
-20.3013
  0
LINE
  8
0
 10
2.9188
 20
-20.3013
 11
3.0522
 21
-20.4055
  0
LINE
  8
0
 10
3.0522
 20
-20.4055
 11
3.1819
 21
-20.5143
  0
LINE
  8
0
 10
3.1819
 20
-20.5143
 11
3.3077
 21
-20.6276
  0
LINE
  8
0
 10
3.3077
 20
-20.6276
 11
3.4295
 21
-20.7452
  0
LINE
  8
0
 10
3.4295
 20
-20.7452
 11
3.5471
 21
-20.867
  0
LINE
  8
0
 10
3.5471
 20
-20.867
 11
3.6603
 21
-20.9928
  0
LINE
  8
0
 10
3.6603
 20
-20.9928
 11
3.7691
 21
-21.1225
  0
LINE
  8
0
 10
3.7691
 20
-21.1225
 11
3.8734
 21
-21.2559
  0
LINE
  8
0
 10
3.8734
 20
-21.2559
 11
3.9729
 21
-21.3928
  0
LINE
  8
0
 10
3.9729
 20
-21.3928
 11
4.0676
 21
-21.5332
  0
LINE
  8
0
 10
4.0676
 20
-21.5332
 11
4.1573
 21
-21.6767
  0
LINE
  8
0
 10
4.1573
 20
-21.6767
 11
4.2419
 21
-21.8234
  0
LINE
  8
0
 10
4.2419
 20
-21.8234
 11
4.3214
 21
-21.9728
  0
LINE
  8
0
 10
4.3214
 20
-21.9728
 11
4.3956
 21
-22.125
  0
LINE
  8
0
 10
4.3956
 20
-22.125
 11
4.4644
 21
-22.2796
  0
LINE
  8
0
 10
4.4644
 20
-22.2796
 11
4.5279
 21
-22.4366
  0
LINE
  8
0
 10
4.5279
 20
-22.4366
 11
4.5858
 21
-22.5957
  0
LINE
  8
0
 10
4.5858
 20
-22.5957
 11
4.6381
 21
-22.7567
  0
LINE
  8
0
 10
4.6381
 20
-22.7567
 11
4.6847
 21
-22.9194
  0
LINE
  8
0
 10
4.6847
 20
-22.9194
 11
4.7257
 21
-23.0837
  0
LINE
  8
0
 10
4.7257
 20
-23.0837
 11
4.7609
 21
-23.2493
  0
LINE
  8
0
 10
4.7609
 20
-23.2493
 11
4.7903
 21
-23.416
  0
LINE
  8
0
 10
4.7903
 20
-23.416
 11
4.8138
 21
-23.5836
  0
LINE
  8
0
 10
4.8138
 20
-23.5836
 11
4.8316
 21
-23.752
  0
LINE
  8
0
 10
4.8316
 20
-23.752
 11
4.8434
 21
-23.9208
  0
LINE
  8
0
 10
4.8434
 20
-23.9208
 11
4.8493
 21
-24.09
  0
LINE
  8
0
 10
4.8493
 20
-24.09
 11
4.8493
 21
-24.2593
  0
LINE
  8
0
 10
4.8493
 20
-24.2593
 11
4.8434
 21
-24.4285
  0
LINE
  8
0
 10
4.8434
 20
-24.4285
 11
4.8316
 21
-24.5974
  0
LINE
  8
0
 10
4.8316
 20
-24.5974
 11
4.8138
 21
-24.7658
  0
LINE
  8
0
 10
4.8138
 20
-24.7658
 11
4.7903
 21
-24.9334
  0
LINE
  8
0
 10
4.7903
 20
-24.9334
 11
4.7609
 21
-25.1001
  0
LINE
  8
0
 10
4.7609
 20
-25.1001
 11
4.7257
 21
-25.2657
  0
LINE
  8
0
 10
4.7257
 20
-25.2657
 11
4.6847
 21
-25.4299
  0
LINE
  8
0
 10
4.6847
 20
-25.4299
 11
4.6381
 21
-25.5927
  0
LINE
  8
0
 10
4.6381
 20
-25.5927
 11
4.5858
 21
-25.7537
  0
LINE
  8
0
 10
4.5858
 20
-25.7537
 11
4.5279
 21
-25.9128
  0
LINE
  8
0
 10
4.5279
 20
-25.9128
 11
4.4644
 21
-26.0697
  0
LINE
  8
0
 10
4.4644
 20
-26.0697
 11
4.3956
 21
-26.2244
  0
LINE
  8
0
 10
4.3956
 20
-26.2244
 11
4.3214
 21
-26.3765
  0
LINE
  8
0
 10
4.3214
 20
-26.3765
 11
4.2419
 21
-26.526
  0
LINE
  8
0
 10
4.2419
 20
-26.526
 11
4.1573
 21
-26.6726
  0
LINE
  8
0
 10
4.1573
 20
-26.6726
 11
4.0676
 21
-26.8162
  0
LINE
  8
0
 10
4.0676
 20
-26.8162
 11
3.9729
 21
-26.9565
  0
LINE
  8
0
 10
3.9729
 20
-26.9565
 11
3.8734
 21
-27.0935
  0
LINE
  8
0
 10
3.8734
 20
-27.0935
 11
3.7691
 21
-27.2269
  0
LINE
  8
0
 10
3.7691
 20
-27.2269
 11
3.6603
 21
-27.3566
  0
LINE
  8
0
 10
3.6603
 20
-27.3566
 11
3.5471
 21
-27.4824
  0
LINE
  8
0
 10
3.5471
 20
-27.4824
 11
3.4295
 21
-27.6041
  0
LINE
  8
0
 10
3.4295
 20
-27.6041
 11
3.3077
 21
-27.7217
  0
LINE
  8
0
 10
3.3077
 20
-27.7217
 11
3.1819
 21
-27.835
  0
LINE
  8
0
 10
3.1819
 20
-27.835
 11
3.0522
 21
-27.9438
  0
LINE
  8
0
 10
3.0522
 20
-27.9438
 11
2.9188
 21
-28.0481
  0
LINE
  8
0
 10
2.9188
 20
-28.0481
 11
2.7818
 21
-28.1476
  0
LINE
  8
0
 10
2.7818
 20
-28.1476
 11
2.6415
 21
-28.2422
  0
LINE
  8
0
 10
2.6415
 20
-28.2422
 11
2.4979
 21
-28.3319
  0
LINE
  8
0
 10
2.4979
 20
-28.3319
 11
2.3513
 21
-28.4166
  0
LINE
  8
0
 10
2.3513
 20
-28.4166
 11
2.2019
 21
-28.4961
  0
LINE
  8
0
 10
2.2019
 20
-28.4961
 11
2.0497
 21
-28.5703
  0
LINE
  8
0
 10
2.0497
 20
-28.5703
 11
1.895
 21
-28.6391
  0
LINE
  8
0
 10
1.895
 20
-28.6391
 11
1.7381
 21
-28.7026
  0
LINE
  8
0
 10
1.7381
 20
-28.7026
 11
1.579
 21
-28.7604
  0
LINE
  8
0
 10
1.579
 20
-28.7604
 11
1.418
 21
-28.8127
  0
LINE
  8
0
 10
1.418
 20
-28.8127
 11
1.2553
 21
-28.8594
  0
LINE
  8
0
 10
1.2553
 20
-28.8594
 11
1.091
 21
-28.9004
  0
LINE
  8
0
 10
1.091
 20
-28.9004
 11
0.9254
 21
-28.9356
  0
LINE
  8
0
 10
0.9254
 20
-28.9356
 11
0.758698
 21
-28.965
  0
LINE
  8
0
 10
0.758698
 20
-28.965
 11
0.591103
 21
-28.9885
  0
LINE
  8
0
 10
0.591103
 20
-28.9885
 11
0.422699
 21
-29.0062
  0
LINE
  8
0
 10
0.422699
 20
-29.0062
 11
0.253799
 21
-29.018
  0
LINE
  8
0
 10
0.253799
 20
-29.018
 11
0.0846024
 21
-29.0239
  0
LINE
  8
0
 10
0.0846024
 20
-29.0239
 11
-0.0846405
 21
-29.0239
  0
LINE
  8
0
 10
-0.0846405
 20
-29.0239
 11
-0.25383
 21
-29.018
  0
LINE
  8
0
 10
-0.25383
 20
-29.018
 11
-0.422699
 21
-29.0062
  0
LINE
  8
0
 10
-0.422699
 20
-29.0062
 11
-0.591072
 21
-28.9885
  0
LINE
  8
0
 10
-0.591072
 20
-28.9885
 11
-0.758713
 21
-28.965
  0
LINE
  8
0
 10
-0.758713
 20
-28.965
 11
-0.92543
 21
-28.9356
  0
LINE
  8
0
 10
-0.92543
 20
-28.9356
 11
-1.09101
 21
-28.9004
  0
LINE
  8
0
 10
-1.09101
 20
-28.9004
 11
-1.25526
 21
-28.8594
  0
LINE
  8
0
 10
-1.25526
 20
-28.8594
 11
-1.41801
 21
-28.8127
  0
LINE
  8
0
 10
-1.41801
 20
-28.8127
 11
-1.57901
 21
-28.7604
  0
LINE
  8
0
 10
-1.57901
 20
-28.7604
 11
-1.73808
 21
-28.7025
  0
LINE
  8
0
 10
-1.73808
 20
-28.7025
 11
-1.89505
 21
-28.6391
  0
LINE
  8
0
 10
-1.89505
 20
-28.6391
 11
-2.0497
 21
-28.5703
  0
LINE
  8
0
 10
-2.0497
 20
-28.5703
 11
-2.20185
 21
-28.4961
  0
LINE
  8
0
 10
-2.20185
 20
-28.4961
 11
-2.35133
 21
-28.4166
  0
LINE
  8
0
 10
-2.35133
 20
-28.4166
 11
-2.49796
 21
-28.3319
  0
LINE
  8
0
 10
-2.49796
 20
-28.3319
 11
-2.64151
 21
-28.2422
  0
LINE
  8
0
 10
-2.64151
 20
-28.2422
 11
-2.78185
 21
-28.1476
  0
LINE
  8
0
 10
-2.78185
 20
-28.1476
 11
-2.91881
 21
-28.0481
  0
LINE
  8
0
 10
-2.91881
 20
-28.0481
 11
-3.05222
 21
-27.9438
  0
LINE
  8
0
 10
-3.05222
 20
-27.9438
 11
-3.18189
 21
-27.835
  0
LINE
  8
0
 10
-3.18189
 20
-27.835
 11
-3.30769
 21
-27.7217
  0
LINE
  8
0
 10
-3.30769
 20
-27.7217
 11
-3.42947
 21
-27.6042
  0
LINE
  8
0
 10
-3.42947
 20
-27.6042
 11
-3.54706
 21
-27.4824
  0
LINE
  8
0
 10
-3.54706
 20
-27.4824
 11
-3.66035
 21
-27.3566
  0
LINE
  8
0
 10
-3.66035
 20
-27.3566
 11
-3.76917
 21
-27.2269
  0
LINE
  8
0
 10
-3.76917
 20
-27.2269
 11
-3.87338
 21
-27.0935
  0
LINE
  8
0
 10
-3.87338
 20
-27.0935
 11
-3.97289
 21
-26.9565
  0
LINE
  8
0
 10
-3.97289
 20
-26.9565
 11
-4.06755
 21
-26.8162
  0
LINE
  8
0
 10
-4.06755
 20
-26.8162
 11
-4.15727
 21
-26.6726
  0
LINE
  8
0
 10
-4.15727
 20
-26.6726
 11
-4.24191
 21
-26.526
  0
LINE
  8
0
 10
-4.24191
 20
-26.526
 11
-4.32138
 21
-26.3765
  0
LINE
  8
0
 10
-4.32138
 20
-26.3765
 11
-4.39559
 21
-26.2244
  0
LINE
  8
0
 10
-4.39559
 20
-26.2244
 11
-4.46445
 21
-26.0697
  0
LINE
  8
0
 10
-4.46445
 20
-26.0697
 11
-4.52786
 21
-25.9128
  0
LINE
  8
0
 10
-4.52786
 20
-25.9128
 11
-4.58577
 21
-25.7537
  0
LINE
  8
0
 10
-4.58577
 20
-25.7537
 11
-4.63808
 21
-25.5927
  0
LINE
  8
0
 10
-4.63808
 20
-25.5927
 11
-4.68474
 21
-25.4299
  0
LINE
  8
0
 10
-4.68474
 20
-25.4299
 11
-4.7257
 21
-25.2657
  0
LINE
  8
0
 10
-4.7257
 20
-25.2657
 11
-4.7609
 21
-25.1001
  0
LINE
  8
0
 10
-4.7609
 20
-25.1001
 11
-4.79028
 21
-24.9334
  0
LINE
  8
0
 10
-4.79028
 20
-24.9334
 11
-4.81385
 21
-24.7657
  0
LINE
  8
0
 10
-4.81385
 20
-24.7657
 11
-4.83154
 21
-24.5974
  0
LINE
  8
0
 10
-4.83154
 20
-24.5974
 11
-4.84335
 21
-24.4285
  0
LINE
  8
0
 10
-4.84335
 20
-24.4285
 11
-4.84926
 21
-24.2593
  0
LINE
  8
0
 10
44.6239
 20
-37.3702
 11
44.6267
 21
-37.1284
  0
LINE
  8
0
 10
44.6267
 20
-37.1284
 11
44.6311
 21
-37.0883
  0
LINE
  8
0
 10
44.6311
 20
-37.0883
 11
44.6577
 21
-36.8682
  0
LINE
  8
0
 10
44.6577
 20
-36.8682
 11
44.7163
 21
-36.613
  0
LINE
  8
0
 10
44.7163
 20
-36.613
 11
44.726
 21
-36.5739
  0
LINE
  8
0
 10
44.726
 20
-36.5739
 11
44.8349
 21
-36.2706
  0
LINE
  8
0
 10
44.8349
 20
-36.2706
 11
44.85
 21
-36.2332
  0
LINE
  8
0
 10
44.85
 20
-36.2332
 11
44.9208
 21
-36.0883
  0
LINE
  8
0
 10
44.9208
 20
-36.0883
 11
44.9424
 21
-36.0502
  0
LINE
  8
0
 10
44.9424
 20
-36.0502
 11
45.0681
 21
-35.8436
  0
LINE
  8
0
 10
45.0681
 20
-35.8436
 11
45.2126
 21
-35.6497
  0
LINE
  8
0
 10
45.2126
 20
-35.6497
 11
45.2482
 21
-35.6072
  0
LINE
  8
0
 10
45.2482
 20
-35.6072
 11
45.3281
 21
-35.5164
  0
LINE
  8
0
 10
45.3281
 20
-35.5164
 11
45.4721
 21
-35.3753
  0
LINE
  8
0
 10
45.4721
 20
-35.3753
 11
45.564
 21
-35.2965
  0
LINE
  8
0
 10
45.564
 20
-35.2965
 11
45.6114
 21
-35.259
  0
LINE
  8
0
 10
45.6114
 20
-35.259
 11
45.7745
 21
-35.1405
  0
LINE
  8
0
 10
45.7745
 20
-35.1405
 11
46.0535
 21
-34.9794
  0
LINE
  8
0
 10
46.0535
 20
-34.9794
 11
46.0986
 21
-34.9565
  0
LINE
  8
0
 10
46.0986
 20
-34.9565
 11
46.3972
 21
-34.8358
  0
LINE
  8
0
 10
46.3972
 20
-34.8358
 11
46.4421
 21
-34.8214
  0
LINE
  8
0
 10
46.4421
 20
-34.8214
 11
46.7547
 21
-34.7434
  0
LINE
  8
0
 10
46.7547
 20
-34.7434
 11
46.7981
 21
-34.7371
  0
LINE
  8
0
 10
46.7981
 20
-34.7371
 11
47.0379
 21
-34.7063
  0
LINE
  8
0
 10
47.0379
 20
-34.7063
 11
47.2798
 21
-34.7035
  0
LINE
  8
0
 10
47.2798
 20
-34.7035
 11
47.3112
 21
-34.703
  0
LINE
  8
0
 10
47.3112
 20
-34.703
 11
47.3502
 21
-34.7066
  0
LINE
  8
0
 10
47.3502
 20
-34.7066
 11
47.6705
 21
-34.7403
  0
LINE
  8
0
 10
47.6705
 20
-34.7403
 11
47.9256
 21
-34.7996
  0
LINE
  8
0
 10
47.9256
 20
-34.7996
 11
47.9788
 21
-34.8141
  0
LINE
  8
0
 10
47.9788
 20
-34.8141
 11
48.151
 21
-34.8715
  0
LINE
  8
0
 10
48.151
 20
-34.8715
 11
48.3357
 21
-34.9522
  0
LINE
  8
0
 10
48.3357
 20
-34.9522
 11
48.3755
 21
-34.9709
  0
LINE
  8
0
 10
48.3755
 20
-34.9709
 11
48.5178
 21
-35.0467
  0
LINE
  8
0
 10
48.5178
 20
-35.0467
 11
48.6709
 21
-35.144
  0
LINE
  8
0
 10
48.6709
 20
-35.144
 11
48.7083
 21
-35.1689
  0
LINE
  8
0
 10
48.7083
 20
-35.1689
 11
48.9306
 21
-35.3426
  0
LINE
  8
0
 10
48.9306
 20
-35.3426
 11
48.9611
 21
-35.3708
  0
LINE
  8
0
 10
48.9611
 20
-35.3708
 11
49.0646
 21
-35.4667
  0
LINE
  8
0
 10
49.0646
 20
-35.4667
 11
49.1994
 21
-35.6165
  0
LINE
  8
0
 10
49.1994
 20
-35.6165
 11
49.2245
 21
-35.6465
  0
LINE
  8
0
 10
49.2245
 20
-35.6465
 11
49.3711
 21
-35.8388
  0
LINE
  8
0
 10
49.3711
 20
-35.8388
 11
49.4661
 21
-35.9934
  0
LINE
  8
0
 10
49.4661
 20
-35.9934
 11
49.4927
 21
-36.0386
  0
LINE
  8
0
 10
49.4927
 20
-36.0386
 11
49.6232
 21
-36.3111
  0
LINE
  8
0
 10
49.6232
 20
-36.3111
 11
49.6393
 21
-36.3544
  0
LINE
  8
0
 10
49.6393
 20
-36.3544
 11
49.7194
 21
-36.5825
  0
LINE
  8
0
 10
49.7194
 20
-36.5825
 11
49.75
 21
-36.6996
  0
LINE
  8
0
 10
49.75
 20
-36.6996
 11
49.7584
 21
-36.739
  0
LINE
  8
0
 10
49.7584
 20
-36.739
 11
49.7949
 21
-36.9373
  0
LINE
  8
0
 10
49.7949
 20
-36.9373
 11
49.8145
 21
-37.1783
  0
LINE
  8
0
 10
49.8145
 20
-37.1783
 11
49.8176
 21
-37.2314
  0
LINE
  8
0
 10
49.8176
 20
-37.2314
 11
49.8149
 21
-37.4732
  0
LINE
  8
0
 10
49.8149
 20
-37.4732
 11
49.7924
 21
-37.6736
  0
LINE
  8
0
 10
49.7924
 20
-37.6736
 11
49.7834
 21
-37.7309
  0
LINE
  8
0
 10
49.7834
 20
-37.7309
 11
49.7097
 21
-38.0645
  0
LINE
  8
0
 10
49.7097
 20
-38.0645
 11
49.6893
 21
-38.1227
  0
LINE
  8
0
 10
49.6893
 20
-38.1227
 11
49.5319
 21
-38.4937
  0
LINE
  8
0
 10
49.5319
 20
-38.4937
 11
49.3293
 21
-38.8198
  0
LINE
  8
0
 10
49.3293
 20
-38.8198
 11
49.2988
 21
-38.8679
  0
LINE
  8
0
 10
49.2988
 20
-38.8679
 11
49.272
 21
-38.8982
  0
LINE
  8
0
 10
49.272
 20
-38.8982
 11
49.0156
 21
-39.183
  0
LINE
  8
0
 10
49.0156
 20
-39.183
 11
48.9863
 21
-39.2081
  0
LINE
  8
0
 10
48.9863
 20
-39.2081
 11
48.6788
 21
-39.4562
  0
LINE
  8
0
 10
48.6788
 20
-39.4562
 11
48.6282
 21
-39.4872
  0
LINE
  8
0
 10
48.6282
 20
-39.4872
 11
48.2697
 21
-39.6816
  0
LINE
  8
0
 10
48.2697
 20
-39.6816
 11
47.8857
 21
-39.8134
  0
LINE
  8
0
 10
47.8857
 20
-39.8134
 11
47.8156
 21
-39.8356
  0
LINE
  8
0
 10
47.8156
 20
-39.8356
 11
47.2757
 21
-39.9002
  0
LINE
  8
0
 10
47.2757
 20
-39.9002
 11
47.2275
 21
-39.9046
  0
LINE
  8
0
 10
47.2275
 20
-39.9046
 11
47.1826
 21
-39.9019
  0
LINE
  8
0
 10
47.1826
 20
-39.9019
 11
46.7016
 21
-39.8495
  0
LINE
  8
0
 10
46.7016
 20
-39.8495
 11
46.6378
 21
-39.8334
  0
LINE
  8
0
 10
46.6378
 20
-39.8334
 11
46.252
 21
-39.716
  0
LINE
  8
0
 10
46.252
 20
-39.716
 11
45.8981
 21
-39.5368
  0
LINE
  8
0
 10
45.8981
 20
-39.5368
 11
45.8444
 21
-39.508
  0
LINE
  8
0
 10
45.8444
 20
-39.508
 11
45.507
 21
-39.2544
  0
LINE
  8
0
 10
45.507
 20
-39.2544
 11
45.4721
 21
-39.2276
  0
LINE
  8
0
 10
45.4721
 20
-39.2276
 11
45.4441
 21
-39.1986
  0
LINE
  8
0
 10
45.4441
 20
-39.1986
 11
45.2292
 21
-38.9705
  0
LINE
  8
0
 10
45.2292
 20
-38.9705
 11
45.1299
 21
-38.8434
  0
LINE
  8
0
 10
45.1299
 20
-38.8434
 11
45.1057
 21
-38.8097
  0
LINE
  8
0
 10
45.1057
 20
-38.8097
 11
45.0155
 21
-38.676
  0
LINE
  8
0
 10
45.0155
 20
-38.676
 11
44.8995
 21
-38.4639
  0
LINE
  8
0
 10
44.8995
 20
-38.4639
 11
44.881
 21
-38.4295
  0
LINE
  8
0
 10
44.881
 20
-38.4295
 11
44.8703
 21
-38.4012
  0
LINE
  8
0
 10
44.8703
 20
-38.4012
 11
44.7496
 21
-38.1025
  0
LINE
  8
0
 10
44.7496
 20
-38.1025
 11
44.7412
 21
-38.0708
  0
LINE
  8
0
 10
44.7412
 20
-38.0708
 11
44.6632
 21
-37.7582
  0
LINE
  8
0
 10
44.6632
 20
-37.7582
 11
44.6589
 21
-37.7308
  0
LINE
  8
0
 10
44.6589
 20
-37.7308
 11
44.6253
 21
-37.4104
  0
LINE
  8
0
 10
44.6253
 20
-37.4104
 11
44.6239
 21
-37.3702
  0
LINE
  8
0
 10
70.4377
 20
-11.6614
 11
70.4377
 21
-11.3392
  0
LINE
  8
0
 10
70.4377
 20
-11.3392
 11
70.4391
 21
-11.299
  0
LINE
  8
0
 10
70.4391
 20
-11.299
 11
70.4672
 21
-11.0588
  0
LINE
  8
0
 10
70.4672
 20
-11.0588
 11
70.4769
 21
-11.0058
  0
LINE
  8
0
 10
70.4769
 20
-11.0058
 11
70.5104
 21
-10.8481
  0
LINE
  8
0
 10
70.5104
 20
-10.8481
 11
70.5548
 21
-10.693
  0
LINE
  8
0
 10
70.5548
 20
-10.693
 11
70.61
 21
-10.5415
  0
LINE
  8
0
 10
70.61
 20
-10.5415
 11
70.636
 21
-10.4813
  0
LINE
  8
0
 10
70.636
 20
-10.4813
 11
70.7016
 21
-10.3339
  0
LINE
  8
0
 10
70.7016
 20
-10.3339
 11
70.802
 21
-10.1474
  0
LINE
  8
0
 10
70.802
 20
-10.1474
 11
70.8853
 21
-10.0213
  0
LINE
  8
0
 10
70.8853
 20
-10.0213
 11
70.9156
 21
-9.9791
  0
LINE
  8
0
 10
70.9156
 20
-9.9791
 11
70.963
 21
-9.91385
  0
LINE
  8
0
 10
70.963
 20
-9.91385
 11
71.0127
 21
-9.85026
  0
LINE
  8
0
 10
71.0127
 20
-9.85026
 11
71.0645
 21
-9.78848
  0
LINE
  8
0
 10
71.0645
 20
-9.78848
 11
71.1185
 21
-9.72851
  0
LINE
  8
0
 10
71.1185
 20
-9.72851
 11
71.1524
 21
-9.69337
  0
LINE
  8
0
 10
71.1524
 20
-9.69337
 11
71.2965
 21
-9.55232
  0
LINE
  8
0
 10
71.2965
 20
-9.55232
 11
71.4853
 21
-9.40125
  0
LINE
  8
0
 10
71.4853
 20
-9.40125
 11
71.5216
 21
-9.37572
  0
LINE
  8
0
 10
71.5216
 20
-9.37572
 11
71.7948
 21
-9.20499
  0
LINE
  8
0
 10
71.7948
 20
-9.20499
 11
71.8146
 21
-9.1938
  0
LINE
  8
0
 10
71.8146
 20
-9.1938
 11
71.8306
 21
-9.18639
  0
LINE
  8
0
 10
71.8306
 20
-9.18639
 11
72.1244
 21
-9.05403
  0
LINE
  8
0
 10
72.1244
 20
-9.05403
 11
72.1777
 21
-9.0357
  0
LINE
  8
0
 10
72.1777
 20
-9.0357
 11
72.3897
 21
-8.97054
  0
LINE
  8
0
 10
72.3897
 20
-8.97054
 11
72.7167
 21
-8.91216
  0
LINE
  8
0
 10
72.7167
 20
-8.91216
 11
72.7684
 21
-8.90663
  0
LINE
  8
0
 10
72.7684
 20
-8.90663
 11
73.1004
 21
-8.89224
  0
LINE
  8
0
 10
73.1004
 20
-8.89224
 11
73.1407
 21
-8.89382
  0
LINE
  8
0
 10
73.1407
 20
-8.89382
 11
73.3817
 21
-8.9149
  0
LINE
  8
0
 10
73.3817
 20
-8.9149
 11
73.414
 21
-8.92007
  0
LINE
  8
0
 10
73.414
 20
-8.92007
 11
73.6317
 21
-8.96202
  0
LINE
  8
0
 10
73.6317
 20
-8.96202
 11
73.6679
 21
-8.97268
  0
LINE
  8
0
 10
73.6679
 20
-8.97268
 11
73.8997
 21
-9.04135
  0
LINE
  8
0
 10
73.8997
 20
-9.04135
 11
74.141
 21
-9.14334
  0
LINE
  8
0
 10
74.141
 20
-9.14334
 11
74.1778
 21
-9.15972
  0
LINE
  8
0
 10
74.1778
 20
-9.15972
 11
74.4568
 21
-9.32083
  0
LINE
  8
0
 10
74.4568
 20
-9.32083
 11
74.4909
 21
-9.34217
  0
LINE
  8
0
 10
74.4909
 20
-9.34217
 11
74.6849
 21
-9.48656
  0
LINE
  8
0
 10
74.6849
 20
-9.48656
 11
74.7158
 21
-9.51244
  0
LINE
  8
0
 10
74.7158
 20
-9.51244
 11
74.8916
 21
-9.67837
  0
LINE
  8
0
 10
74.8916
 20
-9.67837
 11
74.9123
 21
-9.70036
  0
LINE
  8
0
 10
74.9123
 20
-9.70036
 11
75.1081
 21
-9.93046
  0
LINE
  8
0
 10
75.1081
 20
-9.93046
 11
75.1327
 21
-9.96364
  0
LINE
  8
0
 10
75.1327
 20
-9.96364
 11
75.3074
 21
-10.2319
  0
LINE
  8
0
 10
75.3074
 20
-10.2319
 11
75.3366
 21
-10.2934
  0
LINE
  8
0
 10
75.3366
 20
-10.2934
 11
75.5009
 21
-10.6704
  0
LINE
  8
0
 10
75.5009
 20
-10.6704
 11
75.6182
 21
-11.2499
  0
LINE
  8
0
 10
75.6182
 20
-11.2499
 11
75.6319
 21
-11.3224
  0
LINE
  8
0
 10
75.6319
 20
-11.3224
 11
75.628
 21
-11.3933
  0
LINE
  8
0
 10
75.628
 20
-11.3933
 11
75.5941
 21
-11.9445
  0
LINE
  8
0
 10
75.5941
 20
-11.9445
 11
75.4601
 21
-12.4145
  0
LINE
  8
0
 10
75.4601
 20
-12.4145
 11
75.44
 21
-12.479
  0
LINE
  8
0
 10
75.44
 20
-12.479
 11
75.2471
 21
-12.846
  0
LINE
  8
0
 10
75.2471
 20
-12.846
 11
75.2183
 21
-12.8964
  0
LINE
  8
0
 10
75.2183
 20
-12.8964
 11
74.9664
 21
-13.2278
  0
LINE
  8
0
 10
74.9664
 20
-13.2278
 11
74.9326
 21
-13.2675
  0
LINE
  8
0
 10
74.9326
 20
-13.2675
 11
74.6507
 21
-13.5242
  0
LINE
  8
0
 10
74.6507
 20
-13.5242
 11
74.6137
 21
-13.5544
  0
LINE
  8
0
 10
74.6137
 20
-13.5544
 11
74.2278
 21
-13.8017
  0
LINE
  8
0
 10
74.2278
 20
-13.8017
 11
74.1801
 21
-13.8291
  0
LINE
  8
0
 10
74.1801
 20
-13.8291
 11
73.7759
 21
-13.9804
  0
LINE
  8
0
 10
73.7759
 20
-13.9804
 11
73.726
 21
-13.9969
  0
LINE
  8
0
 10
73.726
 20
-13.9969
 11
73.4069
 21
-14.0636
  0
LINE
  8
0
 10
73.4069
 20
-14.0636
 11
73.3746
 21
-14.0693
  0
LINE
  8
0
 10
73.3746
 20
-14.0693
 11
73.3534
 21
-14.0711
  0
LINE
  8
0
 10
73.3534
 20
-14.0711
 11
72.9992
 21
-14.092
  0
LINE
  8
0
 10
72.9992
 20
-14.092
 11
72.9801
 21
-14.0922
  0
LINE
  8
0
 10
72.9801
 20
-14.0922
 11
72.9615
 21
-14.0914
  0
LINE
  8
0
 10
72.9615
 20
-14.0914
 11
72.6052
 21
-14.0525
  0
LINE
  8
0
 10
72.6052
 20
-14.0525
 11
72.5795
 21
-14.0492
  0
LINE
  8
0
 10
72.5795
 20
-14.0492
 11
72.5598
 21
-14.0451
  0
LINE
  8
0
 10
72.5598
 20
-14.0451
 11
72.2472
 21
-13.9671
  0
LINE
  8
0
 10
72.2472
 20
-13.9671
 11
72.217
 21
-13.9581
  0
LINE
  8
0
 10
72.217
 20
-13.9581
 11
71.936
 21
-13.8469
  0
LINE
  8
0
 10
71.936
 20
-13.8469
 11
71.8959
 21
-13.8287
  0
LINE
  8
0
 10
71.8959
 20
-13.8287
 11
71.7351
 21
-13.7448
  0
LINE
  8
0
 10
71.7351
 20
-13.7448
 11
71.582
 21
-13.6475
  0
LINE
  8
0
 10
71.582
 20
-13.6475
 11
71.5406
 21
-13.6199
  0
LINE
  8
0
 10
71.5406
 20
-13.6199
 11
71.3638
 21
-13.4862
  0
LINE
  8
0
 10
71.3638
 20
-13.4862
 11
71.244
 21
-13.3783
  0
LINE
  8
0
 10
71.244
 20
-13.3783
 11
71.212
 21
-13.3481
  0
LINE
  8
0
 10
71.212
 20
-13.3481
 11
71.0999
 21
-13.2321
  0
LINE
  8
0
 10
71.0999
 20
-13.2321
 11
70.9843
 21
-13.0922
  0
LINE
  8
0
 10
70.9843
 20
-13.0922
 11
70.9549
 21
-13.0547
  0
LINE
  8
0
 10
70.9549
 20
-13.0547
 11
70.7877
 21
-12.803
  0
LINE
  8
0
 10
70.7877
 20
-12.803
 11
70.7674
 21
-12.7659
  0
LINE
  8
0
 10
70.7674
 20
-12.7659
 11
70.6488
 21
-12.5324
  0
LINE
  8
0
 10
70.6488
 20
-12.5324
 11
70.6309
 21
-12.4836
  0
LINE
  8
0
 10
70.6309
 20
-12.4836
 11
70.5462
 21
-12.2571
  0
LINE
  8
0
 10
70.5462
 20
-12.2571
 11
70.478
 21
-11.9834
  0
LINE
  8
0
 10
70.478
 20
-11.9834
 11
70.4457
 21
-11.7235
  0
LINE
  8
0
 10
70.4457
 20
-11.7235
 11
70.4377
 21
-11.6614
  0
ENDSEC
  0
SECTION
  2
OBJECTS
  0
DICTIONARY
  0
ENDSEC
  0
EOF
